<?xml version="1.0" standalone="no"?>
<!DOCTYPE svg PUBLIC "-//W3C//DTD SVG 1.1//EN" "http://www.w3.org/Graphics/SVG/1.1/DTD/svg11.dtd" >
<svg xmlns="http://www.w3.org/2000/svg">
<metadata></metadata>
<defs>
<font id="fsecure_sans_mediumregular" horiz-adv-x="520" >
<font-face units-per-em="1000" ascent="680" descent="-320" />
<missing-glyph horiz-adv-x="190" />
<glyph horiz-adv-x="0" />
<glyph horiz-adv-x="0" />
<glyph unicode=" "  horiz-adv-x="190" />
<glyph unicode="&#x09;" horiz-adv-x="190" />
<glyph unicode="&#xa0;" horiz-adv-x="190" />
<glyph unicode="!" horiz-adv-x="263" d="M131 129q29 0 49.5 -20t20.5 -49t-20.5 -49t-49.5 -20t-48.5 20.5t-19.5 49.5q0 28 20 48t48 20zM180 186h-97v408h97v-408z" />
<glyph unicode="&#x22;" horiz-adv-x="340" d="M207 644h87l-35 -221h-72zM75 644h87l-34 -221h-73z" />
<glyph unicode="#" horiz-adv-x="528" d="M197 233h111l26 129h-111zM30 162v71h88l26 129h-82v71h96l33 161h79l-33 -161h111l33 161h79l-33 -161h71v-71h-85l-26 -129h79v-71h-93l-33 -162h-79l33 162h-111l-33 -162h-79l33 162h-74z" />
<glyph unicode="$" horiz-adv-x="435" d="M181 680h78v-89h5h2q61 -9 109 -41v-99q-42 32 -77.5 45t-77.5 13q-46 0 -71 -19.5t-25 -56.5q0 -17 4.5 -29t17 -21.5t34.5 -17.5t58 -18q92 -26 133 -67t41 -108q0 -136 -153 -167v-100h-78v95q-42 2 -81.5 15.5t-69.5 34.5v102q48 -36 86.5 -51.5t81.5 -15.5 q54 0 83 21t29 59q0 18 -5.5 31.5t-18.5 24t-35 19.5t-56 18q-93 25 -132.5 64t-39.5 104q0 67 42 111t116 55v88z" />
<glyph unicode="%" horiz-adv-x="694" d="M206 0h-75l357 594h75zM518 205q-30 0 -48 -19t-18 -52q0 -32 18 -50.5t48 -18.5q32 0 50 19t18 51t-18.5 51t-49.5 19zM518 279q31 0 58 -11t46 -30.5t30 -46.5t11 -58q0 -30 -11 -56.5t-30.5 -45.5t-46 -30t-57.5 -11t-57 11t-45.5 30.5t-30.5 45.5t-11 57t11 57.5 t30.5 46t45.5 30.5t57 11zM175 530q-30 0 -48 -19.5t-18 -52.5q0 -31 18.5 -50t47.5 -19q31 0 49.5 19t18.5 51t-18.5 51.5t-49.5 19.5zM175 604q31 0 57.5 -11t46 -30.5t30.5 -46t11 -57.5t-11 -57t-30.5 -45.5t-46 -30.5t-57.5 -11t-57.5 11t-45.5 30t-30 45.5t-11 58.5 q0 31 11 57t30.5 45.5t45.5 30.5t57 11z" />
<glyph unicode="&#x26;" horiz-adv-x="575" d="M245 357q69 37 69 101q0 31 -18 49t-50 18q-29 0 -47 -17.5t-18 -46.5q0 -20 9.5 -38t36.5 -47zM207 262q-38 -17 -58.5 -44.5t-20.5 -60.5q0 -40 28 -63.5t76 -23.5q68 0 120 41zM148 324q-30 34 -46 67t-16 69q0 65 43.5 104.5t115.5 39.5q73 0 116.5 -38.5 t43.5 -103.5q0 -102 -109 -160l113 -121q16 30 22.5 55.5t9.5 64.5h85q-2 -29 -5.5 -53.5t-10.5 -46t-17.5 -42t-25.5 -41.5l110 -118h-119l-51 54q-81 -63 -183 -63q-90 0 -142.5 44t-52.5 119q0 28 6.5 50.5t21.5 41.5t39 36t59 34z" />
<glyph unicode="'" horiz-adv-x="208" d="M75 644h87l-34 -221h-73z" />
<glyph unicode="(" horiz-adv-x="364" d="M246 -139q-23 23 -41 44t-33 42t-27.5 43.5t-24.5 49.5q-49 112 -49 230q0 72 18.5 142t53.5 135q11 19 21.5 35.5t22.5 32t26 31t33 34.5h108q-49 -51 -84.5 -99.5t-58 -98.5t-33.5 -102.5t-11 -109.5t11 -109t33.5 -102t58 -98.5t84.5 -99.5h-108z" />
<glyph unicode=")" horiz-adv-x="364" d="M118 680q23 -23 41 -44t33 -42t27.5 -44t24.5 -49q25 -55 37 -113t12 -118q0 -72 -18.5 -142t-53.5 -134q-11 -20 -21.5 -36t-22.5 -31.5t-26 -31t-33 -34.5h-108q49 51 84.5 99.5t58 98.5t33.5 102t11 109t-11 109.5t-33.5 102.5t-58 98.5t-84.5 99.5h108z" />
<glyph unicode="*" horiz-adv-x="366" d="M125 385l-58 41l62 84l-99 31l21 69l99 -35l-2 105h74l-3 -105l99 35l22 -69l-100 -31l63 -83l-58 -43l-60 86z" />
<glyph unicode="+" horiz-adv-x="459" d="M191 482h77v-151h151v-77h-151v-151h-77v151h-151v77h151v151z" />
<glyph unicode="," horiz-adv-x="255" d="M182 101q0 -68 -27 -127t-74 -92h-73q70 89 70 219h104z" />
<glyph unicode="-" horiz-adv-x="355" d="M53 304h249v-88h-249v88z" />
<glyph unicode="." horiz-adv-x="255" d="M127 129q29 0 49.5 -20t20.5 -49t-20.5 -49t-49.5 -20t-48.5 20.5t-19.5 49.5q0 28 20 48t48 20z" />
<glyph unicode="/" horiz-adv-x="429" d="M314 680h99l-314 -818h-99z" />
<glyph unicode="0" horiz-adv-x="534" d="M267 517q-59 0 -92.5 -59.5t-33.5 -163.5q0 -99 34.5 -158t91.5 -59q59 0 93 59.5t34 160.5q0 50 -9 91t-25.5 69.5t-40 44t-52.5 15.5zM267 604q51 0 93 -22t72 -62.5t46.5 -97t16.5 -125.5t-16.5 -125.5t-46.5 -97t-72 -62.5t-93 -22t-93 22.5t-72 63t-46.5 97.5 t-16.5 127q0 67 16.5 123t46.5 96.5t72 62.5t93 22z" />
<glyph unicode="1" horiz-adv-x="318" d="M18 566l217 37v-603h-101v491l-116 -16v91z" />
<glyph unicode="2" horiz-adv-x="435" d="M403 90v-90h-393v75q40 35 69 60.5t51 45.5t38 36.5t31 33.5q43 48 63 89t20 79q0 44 -25 67.5t-72 23.5q-40 0 -78.5 -17.5t-79.5 -55.5v101q75 66 178 66q85 0 134 -46t49 -125q0 -81 -59 -163t-187 -180h261z" />
<glyph unicode="3" horiz-adv-x="409" d="M29 542q71 62 165 62q80 0 126.5 -41t46.5 -110q0 -56 -30.5 -95t-87.5 -56q130 -32 130 -146q0 -38 -14.5 -68.5t-41.5 -52t-65 -33.5t-84 -12q-92 0 -154 43v95q38 -29 73 -41.5t74 -12.5q52 0 81 23t29 65q0 45 -32.5 66.5t-114.5 31.5v76q71 11 102.5 35.5t31.5 69.5 q0 35 -22.5 54.5t-61.5 19.5q-72 0 -151 -72v99z" />
<glyph unicode="4" horiz-adv-x="531" d="M123 233h187v247zM408 233h97v-81h-97v-152h-98v152h-286v83l280 359h104v-361z" />
<glyph unicode="5" horiz-adv-x="411" d="M149 376q51 -8 81.5 -17.5t58.5 -25.5q87 -50 87 -156q0 -87 -57.5 -137t-156.5 -50q-84 0 -145 41v92q37 -26 71 -37.5t70 -11.5q58 0 89.5 25.5t31.5 72.5q0 29 -12 50.5t-39 37.5t-69.5 26t-103.5 17l21 291h286v-90h-204z" />
<glyph unicode="6" horiz-adv-x="479" d="M242 306q-51 0 -82 -32t-31 -85q0 -51 31.5 -83t80.5 -32q51 0 82.5 32t31.5 84t-31 84t-82 32zM333 594l-106 -169l-46 -68q31 30 82 30q41 0 76 -14.5t60.5 -40.5t39.5 -61.5t14 -77.5q0 -45 -15.5 -82t-44 -64t-68 -42t-86.5 -15q-46 0 -84 14.5t-65 41.5t-42 64 t-15 82q0 46 17 95.5t54 108.5l123 198h106z" />
<glyph unicode="7" horiz-adv-x="425" d="M11 504v90h383v-91l-242 -503h-105l240 504h-276z" />
<glyph unicode="8" horiz-adv-x="469" d="M235 264q-46 0 -74.5 -27t-28.5 -71t28 -69t76 -25q46 0 74 26t28 68q0 44 -28.5 71t-74.5 27zM235 522q-38 0 -61 -23t-23 -61t23.5 -60.5t61.5 -22.5q36 0 59 23t23 60q0 38 -23 61t-60 23zM323 308q55 -17 85 -55.5t30 -92.5q0 -38 -15 -69t-41.5 -53.5t-64 -35 t-82.5 -12.5t-82.5 12.5t-64.5 35t-42 53.5t-15 69q0 54 30 92.5t86 55.5q-88 38 -88 135q0 36 13 65.5t36 50.5t55.5 33t71.5 12t71 -11.5t55.5 -33t36 -51t12.5 -65.5q0 -97 -87 -135z" />
<glyph unicode="9" horiz-adv-x="479" d="M238 520q-51 0 -82.5 -32t-31.5 -84t31 -84t82 -32t82 32t31 85q0 51 -31.5 83t-80.5 32zM146 0l106 169l46 68q-31 -30 -82 -30q-41 0 -76 14.5t-60.5 40.5t-39.5 61.5t-14 77.5q0 45 15.5 82t44 64t68 42t86.5 15q46 0 84 -14.5t65 -41.5t42 -64t15 -82q0 -89 -71 -204 l-123 -198h-106z" />
<glyph unicode=":" horiz-adv-x="255" d="M127 428q29 0 49.5 -20t20.5 -49t-20.5 -49t-49.5 -20t-48.5 20.5t-19.5 49.5q0 28 20 48t48 20zM127 129q29 0 49.5 -20t20.5 -49t-20.5 -49t-49.5 -20t-48.5 20.5t-19.5 49.5q0 28 20 48t48 20z" />
<glyph unicode=";" horiz-adv-x="255" d="M131 428q29 0 49.5 -20t20.5 -49t-20.5 -49t-49.5 -20t-48.5 20.5t-19.5 49.5q0 28 20 48t48 20zM182 101q0 -68 -27 -127t-74 -92h-73q70 89 70 219h104z" />
<glyph unicode="&#x3c;" horiz-adv-x="343" d="M25 295l278 173v-89l-150 -88l150 -88v-89l-278 173v8z" />
<glyph unicode="=" horiz-adv-x="469" d="M45 399h379v-72h-379v72zM45 260h379v-72h-379v72z" />
<glyph unicode="&#x3e;" horiz-adv-x="343" d="M318 287l-278 -173v89l150 88l-150 88v89l278 -173v-8z" />
<glyph unicode="?" horiz-adv-x="381" d="M155 129q29 0 49.5 -20.5t20.5 -49.5q0 -28 -20.5 -48t-49.5 -20t-48.5 20t-19.5 49t19.5 49t48.5 20zM20 542q65 62 162 62q83 0 131.5 -45t48.5 -123q0 -68 -38.5 -111t-123.5 -70v-69h-93v116q46 15 76.5 28t48.5 27t25 31.5t7 40.5q0 39 -26 62.5t-70 23.5 q-38 0 -72 -15.5t-76 -53.5v96z" />
<glyph unicode="@" horiz-adv-x="772" d="M471 330q-11 3 -21.5 4.5t-26.5 1.5q-60 0 -95.5 -33t-35.5 -90q0 -58 36 -92t98 -34q15 0 24.5 0.5t20.5 2.5v240zM550 99q109 50 109 186q0 54 -17.5 97t-50 73t-79 46t-104.5 16q-68 0 -123 -21.5t-94.5 -61t-61 -95t-21.5 -123.5q0 -71 23.5 -127t67 -95t106.5 -59.5 t143 -20.5q53 0 98.5 8t96.5 27v-60q-86 -34 -198 -34q-93 0 -167.5 25t-126.5 71.5t-80 113.5t-28 150q0 80 26.5 146.5t75 114t116 73.5t148.5 26q72 0 131 -20.5t100 -58t63.5 -91.5t22.5 -120q0 -62 -20.5 -112t-58.5 -85t-92.5 -54t-121.5 -19q-107 0 -166.5 52 t-59.5 146q0 45 15.5 82.5t43.5 63.5t67.5 40.5t87.5 14.5q33 0 66 -6t63 -18v-291z" />
<glyph unicode="A" horiz-adv-x="599" d="M399 224l-101 274l-102 -274h203zM113 0h-108l231 594h125l232 -594h-111l-52 140h-265z" />
<glyph unicode="B" horiz-adv-x="509" d="M173 340h48q62 0 94 23.5t32 68.5q0 42 -30 64.5t-87 22.5q-12 0 -27 -1t-30 -3v-175zM173 78q19 -2 30 -2.5t25 -0.5q143 0 143 93q0 89 -134 89h-64v-179zM74 592q90 12 150 12q110 0 167 -41.5t57 -121.5q0 -55 -29.5 -89.5t-86.5 -45.5q42 -5 66.5 -16.5t44.5 -34.5 q31 -37 31 -91q0 -86 -65.5 -129.5t-194.5 -43.5q-33 0 -68 3t-72 8v590z" />
<glyph unicode="C" horiz-adv-x="555" d="M509 450q-69 62 -163 62q-45 0 -82 -15.5t-64 -44t-41.5 -68t-14.5 -87.5t15 -87.5t42.5 -68t65.5 -44t84 -15.5q48 0 87.5 14.5t77.5 46.5v-109q-41 -23 -81 -33.5t-89 -10.5q-69 0 -125.5 22t-97 62.5t-62.5 97t-22 125.5q0 67 22.5 123.5t63 97.5t97 63.5t124.5 22.5 q48 0 86 -9.5t77 -32.5v-112z" />
<glyph unicode="D" horiz-adv-x="620" d="M176 84q16 -2 31.5 -3t33.5 -1q112 0 173 58.5t61 166.5q0 100 -61 152.5t-178 52.5q-16 0 -28 -0.5t-32 -2.5v-423zM74 593q40 5 80.5 8t75.5 3q169 0 260 -77.5t91 -221.5q0 -151 -91.5 -232.5t-260.5 -81.5q-41 0 -80 3t-75 8v591z" />
<glyph unicode="E" horiz-adv-x="490" d="M443 90v-90h-369v594h363v-90h-262v-160h243v-88h-243v-166h268z" />
<glyph unicode="F" horiz-adv-x="437" d="M74 0v594h330v-90h-228v-173h206v-90h-206v-241h-102z" />
<glyph unicode="G" horiz-adv-x="590" d="M519 450q-71 62 -167 62q-47 0 -85 -15.5t-65.5 -44t-42.5 -68t-15 -87.5t15 -88.5t43 -69t67 -44.5t86 -16q49 0 84 14v180h102v-239q-77 -44 -189 -44q-71 0 -128.5 22t-98.5 62t-63.5 96.5t-22.5 125.5q0 68 22.5 124.5t63.5 97.5t97.5 63.5t124.5 22.5q49 0 90 -11 t82 -34v-109z" />
<glyph unicode="H" horiz-adv-x="659" d="M483 594h102v-594h-102v254h-307v-254h-102v594h102v-250h307v250z" />
<glyph unicode="I" horiz-adv-x="250" d="M176 0h-102v594h102v-594z" />
<glyph unicode="J" horiz-adv-x="378" d="M17 138q29 -29 58.5 -42.5t63.5 -13.5q39 0 57 20t18 63v429h102v-442q0 -78 -43.5 -120t-124.5 -42q-41 0 -71.5 10t-59.5 33v105z" />
<glyph unicode="K" horiz-adv-x="546" d="M407 594h122l-233 -292l249 -302h-124l-241 293zM74 594h102v-594h-102v594z" />
<glyph unicode="L" horiz-adv-x="438" d="M74 594h102v-504h242v-90h-344v594z" />
<glyph unicode="M" horiz-adv-x="794" d="M346 0l-141 460l-72 -460h-101l95 594h127l144 -471l141 471h128l94 -594h-102l-72 460l-141 -460h-100z" />
<glyph unicode="N" horiz-adv-x="650" d="M477 155v439h99v-594h-98l-305 435v-435h-99v594h104z" />
<glyph unicode="O" horiz-adv-x="694" d="M347 512q-44 0 -81.5 -16t-64.5 -44.5t-42 -68t-15 -86.5t15 -86.5t42 -68t64.5 -44.5t81.5 -16q45 0 82 16t64 44.5t42 68.5t15 88q0 46 -15.5 85t-42.5 67.5t-64 44.5t-81 16zM347 604q66 0 122.5 -23t98 -64.5t64.5 -97.5t23 -122t-23 -122t-64.5 -97.5t-98 -64.5 t-122.5 -23q-67 0 -123.5 23t-97.5 64.5t-64 98t-23 124.5q0 65 23.5 121t64.5 96.5t97.5 63.5t122.5 23z" />
<glyph unicode="P" horiz-adv-x="484" d="M176 287q10 -1 19.5 -1.5t20.5 -0.5q143 0 143 116q0 55 -35.5 84t-103.5 29q-22 0 -44 -3v-224zM176 0h-102v592q39 6 76.5 9t69.5 3q117 0 179.5 -51.5t62.5 -148.5q0 -98 -63 -152t-176 -54q-10 0 -19.5 1t-20.5 1h-7v-200z" />
<glyph unicode="Q" horiz-adv-x="694" d="M347 512q-44 0 -81.5 -16t-64.5 -44.5t-42 -68t-15 -86.5t15 -86.5t42 -68t64.5 -44.5t81.5 -16q45 0 82 16t64 44.5t42 68.5t15 88q0 46 -15.5 85t-42.5 67.5t-64 44.5t-81 16zM577 -141h-124l-119 131q-65 3 -119 27t-93 64.5t-61 95.5t-22 120q0 66 23 122.5 t64.5 97.5t98 64t122.5 23t122.5 -23t98 -64.5t64.5 -97.5t23 -122q0 -52 -14.5 -98.5t-42 -85t-66.5 -66.5t-87 -43z" />
<glyph unicode="R" horiz-adv-x="524" d="M176 295h50q65 0 99 28.5t34 82.5t-35.5 81.5t-102.5 27.5q-10 0 -22 -0.5t-23 -1.5v-218zM176 0h-102v593q32 5 72 8t74 3q118 0 180.5 -49.5t62.5 -143.5q0 -127 -118 -177l179 -234h-123l-158 211h-67v-211z" />
<glyph unicode="S" horiz-adv-x="442" d="M40 138q45 -33 80 -47t77 -14q53 0 81.5 22t28.5 61q0 18 -5 31.5t-17.5 24.5t-33.5 20.5t-53 19.5q-45 15 -77 31.5t-51.5 37.5t-28.5 47.5t-9 59.5q0 39 13.5 71t38.5 54.5t60 34.5t79 12q42 0 78 -11t72 -34v-102q-42 32 -75.5 46t-72.5 14q-43 0 -68 -21t-25 -56 q0 -17 5 -29.5t17.5 -23t33.5 -20t53 -19.5q47 -15 71 -27t44 -30q51 -44 51 -123q0 -85 -54.5 -131.5t-154.5 -46.5q-91 0 -158 44v104z" />
<glyph unicode="T" horiz-adv-x="507" d="M305 0h-102v504h-188v90h477v-90h-187v-504z" />
<glyph unicode="U" horiz-adv-x="606" d="M532 17q-50 -13 -108 -20t-111 -7q-250 0 -250 213v391h102v-373q0 -76 35.5 -110t114.5 -34q29 0 56 2.5t59 7.5v507h102v-577z" />
<glyph unicode="V" horiz-adv-x="585" d="M231 0l-226 594h111l178 -491l177 491h109l-226 -594h-123z" />
<glyph unicode="W" horiz-adv-x="815" d="M463 594l119 -483l118 483h100l-152 -594h-130l-111 459l-112 -459h-129l-151 594h103l118 -483l118 483h109z" />
<glyph unicode="X" horiz-adv-x="552" d="M335 308l212 -308h-118l-153 227l-156 -227h-115l213 308l-197 286h119l138 -207l139 207h114z" />
<glyph unicode="Y" horiz-adv-x="542" d="M424 594h113l-215 -367v-227h-102v227l-215 367h113l154 -271z" />
<glyph unicode="Z" horiz-adv-x="493" d="M37 594h420v-89l-314 -415h323v-90h-438v90l309 414h-300v90z" />
<glyph unicode="[" horiz-adv-x="339" d="M183 -61h106v-77h-196v818h196v-77h-106v-664z" />
<glyph unicode="\" horiz-adv-x="429" d="M429 -138h-99l-314 818h99z" />
<glyph unicode="]" horiz-adv-x="339" d="M156 603h-106v77h196v-818h-196v77h106v664z" />
<glyph unicode="^" horiz-adv-x="435" d="M415 338h-97l-101 172l-100 -172h-97l151 256h92z" />
<glyph unicode="_" horiz-adv-x="462" d="M50 -65h362v-79h-362v79z" />
<glyph unicode="`" horiz-adv-x="500" d="M247 513l-85 152h91l85 -152h-91z" />
<glyph unicode="a" horiz-adv-x="449" d="M291 194h-42q-56 0 -85 -17t-29 -49q0 -31 26 -47t75 -16q12 0 26.5 1.5t28.5 3.5v124zM291 297q0 34 -22.5 52t-64.5 18q-32 0 -61.5 -8t-64.5 -28v86q35 19 69.5 27.5t75.5 8.5q165 0 165 -151v-293q-35 -9 -74.5 -13.5t-78.5 -4.5q-98 0 -148 34t-50 100t52.5 100.5 t152.5 34.5h49v37z" />
<glyph unicode="b" horiz-adv-x="527" d="M167 84q31 -9 68 -9q74 0 115.5 39.5t41.5 110.5q0 63 -37.5 101t-100.5 38q-48 0 -87 -21v-259zM68 680h99v-249q46 22 103 22q50 0 91 -16t70 -45.5t45 -71t16 -91.5q0 -56 -18 -100t-52 -75t-82 -47.5t-108 -16.5q-42 0 -81 7t-83 22v661z" />
<glyph unicode="c" horiz-adv-x="436" d="M394 324q-29 22 -56.5 31.5t-60.5 9.5q-65 0 -103.5 -39t-38.5 -104q0 -66 40 -105.5t106 -39.5q32 0 60 9.5t58 30.5v-94q-33 -17 -63.5 -25t-67.5 -8q-52 0 -95 16.5t-73.5 47t-47.5 73t-17 94.5q0 51 17 94t48 73.5t74 47.5t95 17q35 0 64 -7.5t61 -25.5v-96z" />
<glyph unicode="d" horiz-adv-x="526" d="M360 349q-31 17 -80 17q-67 0 -106 -38.5t-39 -104.5q0 -70 42 -109t119 -39q17 0 32.5 1t31.5 3v270zM458 9q-76 -19 -164 -19q-122 0 -190.5 60.5t-68.5 169.5q0 52 17 95t48.5 73.5t74.5 47.5t96 17q52 0 89 -17v244h98v-671z" />
<glyph unicode="e" horiz-adv-x="477" d="M346 263q-6 107 -99 107q-89 0 -113 -107h212zM131 199v-2q0 -26 15 -52.5t41 -43.5q38 -26 92 -26q41 0 75 10t69 33v-87q-64 -41 -155 -41q-53 0 -96 16t-73.5 46t-47 72t-16.5 94t16 95.5t44.5 74.5t68 48t87.5 17q90 0 139 -53.5t49 -150.5v-50h-308z" />
<glyph unicode="f" horiz-adv-x="298" d="M181 0h-98v360h-69v83h69v83q0 79 39.5 121.5t114.5 42.5q26 0 46 -5t40 -17v-91q-21 14 -38 19.5t-38 5.5q-66 0 -66 -75v-84h113v-83h-113v-360z" />
<glyph unicode="g" d="M355 355q-29 11 -69 11q-72 0 -111.5 -37t-39.5 -104q0 -66 38.5 -103.5t105.5 -37.5q20 0 37 3.5t39 11.5v256zM92 -68q39 -20 73 -29.5t71 -9.5q57 0 88 29.5t31 85.5v10q-15 -8 -38 -12.5t-50 -4.5q-54 0 -97 15.5t-73 44.5t-46 70.5t-16 92.5q0 53 17.5 95.5t50 72 t79 45.5t104.5 16q83 0 167 -32v-419q0 -90 -57.5 -141t-157.5 -51q-39 0 -74.5 7.5t-71.5 23.5v91z" />
<glyph unicode="h" horiz-adv-x="519" d="M68 680h99v-248q55 21 117 21q172 0 172 -168v-285h-98v276q0 87 -97 87q-24 0 -48 -3.5t-46 -11.5v-348h-99v680z" />
<glyph unicode="i" horiz-adv-x="235" d="M117 640q26 0 44 -18t18 -43q0 -26 -18 -44.5t-44 -18.5t-44 18.5t-18 44.5q0 25 18 43t44 18zM167 0h-99v443h99v-443z" />
<glyph unicode="j" horiz-adv-x="235" d="M117 640q26 0 44 -18t18 -43q0 -26 -18 -44.5t-44 -18.5t-44 18.5t-18 44.5q0 25 18 43t44 18zM-59 -91q31 -15 65 -15q33 0 47.5 17.5t14.5 55.5v476h99v-489q0 -69 -38.5 -106.5t-110.5 -37.5q-38 0 -77 14v85z" />
<glyph unicode="k" horiz-adv-x="489" d="M167 0h-99v680h99v-680zM171 240l187 203h122l-195 -201l199 -242h-118z" />
<glyph unicode="l" horiz-adv-x="235" d="M167 0h-99v680h99v-680z" />
<glyph unicode="m" horiz-adv-x="767" d="M606 284q0 82 -82 82q-25 0 -51 -5t-48 -15q10 -24 10 -56v-290h-98v284q0 82 -83 82q-21 0 -41 -3.5t-46 -11.5v-351h-99v414q56 20 101.5 29.5t89.5 9.5q39 0 68 -8.5t53 -26.5q47 19 82 27t74 8q87 0 127.5 -40.5t40.5 -125.5v-287h-98v284z" />
<glyph unicode="n" horiz-adv-x="519" d="M68 415q105 38 203 38q94 0 139.5 -41t45.5 -127v-285h-98v276q0 87 -97 87q-51 0 -94 -13v-350h-99v415z" />
<glyph unicode="o" horiz-adv-x="527" d="M263 368q-57 0 -92.5 -40.5t-35.5 -106.5q0 -33 9.5 -59.5t26 -46t40 -30t52.5 -10.5q59 0 94 40.5t35 107.5q0 65 -35.5 105t-93.5 40zM263 453q51 0 93 -17t72 -48t47 -73.5t17 -93.5t-17 -93.5t-47.5 -73t-72.5 -47.5t-92 -17q-51 0 -93 17t-72 47.5t-46.5 73.5 t-16.5 95q0 50 17 92.5t47 73t72 47.5t92 17z" />
<glyph unicode="p" horiz-adv-x="524" d="M164 88q36 -13 75 -13q70 0 110 39.5t40 108.5q0 66 -38.5 103.5t-107.5 37.5q-43 0 -79 -11v-265zM66 418q88 35 178 35q115 0 180 -60t65 -167q0 -111 -64.5 -173.5t-179.5 -62.5q-47 0 -81 12v-182h-98v598z" />
<glyph unicode="q" horiz-adv-x="525" d="M360 354q-20 6 -36.5 8.5t-34.5 2.5q-72 0 -113 -38t-41 -106q0 -66 40 -105.5t108 -39.5q21 0 37.5 3t39.5 11v264zM458 -180h-98v184q-36 -14 -86 -14q-55 0 -99 16t-75 46t-48 72.5t-17 95.5q0 54 18 97t51 73t80 46.5t106 16.5q85 0 168 -33v-600z" />
<glyph unicode="r" horiz-adv-x="343" d="M167 0h-99v406q42 23 84.5 33.5t90.5 10.5q23 0 41.5 -2.5t41.5 -8.5v-96q-38 14 -83 14q-22 0 -39 -3t-37 -11v-343z" />
<glyph unicode="s" horiz-adv-x="391" d="M48 120q69 -50 136 -50q72 0 72 51q0 24 -17.5 37.5t-65.5 25.5q-20 5 -33.5 9.5t-23.5 8.5t-17.5 9t-15.5 11q-41 32 -41 95q0 65 42 100.5t118 35.5q36 0 65 -8t60 -26v-91q-35 24 -63 34.5t-60 10.5t-49.5 -13.5t-17.5 -37.5q0 -28 27 -41q7 -3 12 -5.5t12.5 -5 t19.5 -6t33 -8.5q55 -14 83 -46.5t28 -82.5q0 -66 -43.5 -101.5t-122.5 -35.5q-80 0 -138 36v94z" />
<glyph unicode="t" horiz-adv-x="343" d="M8 443h67v108h98v-108h126v-83h-126v-211q0 -71 61 -71q20 0 39 5.5t42 19.5v-89q-50 -24 -106 -24q-66 0 -100 35t-34 102v233h-67v83z" />
<glyph unicode="u" horiz-adv-x="505" d="M436 10q-86 -20 -172 -20q-106 0 -155.5 40t-49.5 125v288h98v-281q0 -90 105 -90q34 0 76 6v365h98v-433z" />
<glyph unicode="v" horiz-adv-x="466" d="M176 0l-171 443h105l125 -347l124 347h102l-172 -443h-113z" />
<glyph unicode="w" horiz-adv-x="671" d="M475 103l93 340h98l-130 -443h-111l-90 321l-90 -321h-110l-130 443h102l92 -340l93 340h89z" />
<glyph unicode="x" horiz-adv-x="453" d="M282 228l164 -228h-113l-109 155l-109 -155h-108l164 227l-154 216h114l98 -142l96 142h112z" />
<glyph unicode="y" horiz-adv-x="468" d="M237 94l124 349h102l-240 -623h-97l62 160l-183 463h106z" />
<glyph unicode="z" horiz-adv-x="421" d="M392 0h-360v81l230 280h-221v82h339v-83l-233 -278h245v-82z" />
<glyph unicode="{" horiz-adv-x="366" d="M238 403q0 -55 -28.5 -90t-78.5 -42q50 -7 78.5 -42t28.5 -90v-132q0 -68 56 -68h30v-77h-39q-138 0 -138 145v136q0 89 -78 89h-29v78h29q78 0 78 89v136q0 145 138 145h39v-77h-30q-56 0 -56 -68v-132z" />
<glyph unicode="|" horiz-adv-x="281" d="M95 680h91v-818h-91v818z" />
<glyph unicode="}" horiz-adv-x="366" d="M128 139q0 55 28.5 90t78.5 42q-50 7 -78.5 42t-28.5 90v132q0 68 -56 68h-30v77h39q138 0 138 -145v-136q0 -89 78 -89h29v-78h-29q-78 0 -78 -89v-136q0 -145 -138 -145h-39v77h30q56 0 56 68v132z" />
<glyph unicode="~" horiz-adv-x="439" d="M386 332q-5 -137 -97 -137q-19 0 -36 8t-41 27q-18 14 -28 19t-20 5q-33 0 -34 -55h-76q5 136 96 136q20 0 36.5 -7t41.5 -27q18 -14 28 -19t20 -5q33 0 34 55h76z" />
<glyph unicode="&#xa1;" horiz-adv-x="263" d="M131 456q29 0 49.5 -20t20.5 -49t-20.5 -49t-49.5 -20t-48.5 20.5t-19.5 49.5q0 28 20 48t48 20zM180 -148h-97v409h97v-409z" />
<glyph unicode="&#xa2;" horiz-adv-x="435" d="M293 -95h-78v90q-84 15 -132.5 75.5t-48.5 150.5q0 44 13 82t36.5 68t57 50t74.5 27v87h78v-83q27 -3 51 -10.5t49 -21.5v-96q-29 22 -57 31.5t-61 9.5q-65 0 -103.5 -39t-38.5 -104q0 -33 10.5 -59.5t30 -45.5t46.5 -29.5t60 -10.5q32 0 59.5 9.5t57.5 30.5v-94 q-46 -26 -104 -32v-86z" />
<glyph unicode="&#xa3;" horiz-adv-x="454" d="M110 406q0 94 48 146t133 52q39 0 72 -11t56 -32v-106q-27 29 -55 42t-63 13q-94 0 -94 -110v-71h139v-80h-139v-5q0 -52 -15 -88t-49 -68h286v-88h-395v88q41 23 58.5 60.5t17.5 100.5h-76v80h76v77z" />
<glyph unicode="&#xa4;" horiz-adv-x="582" d="M291 422q-48 0 -79.5 -33.5t-31.5 -84.5q0 -50 31.5 -83t79.5 -33t79.5 33t31.5 84t-31.5 84t-79.5 33zM129 189q-35 51 -35 116t36 117l-73 73l45 44l73 -73q52 36 116 36q63 0 116 -36l73 72l44 -44l-72 -73q19 -28 27.5 -56t8.5 -60q0 -62 -36 -117l73 -72l-45 -44 l-73 72q-53 -36 -116 -36q-32 0 -60.5 8.5t-56.5 27.5l-73 -73l-44 44z" />
<glyph unicode="&#xa5;" horiz-adv-x="522" d="M445 285v-59h-135v-57h135v-59h-135v-110h-98v110h-135v59h135v57h-135v59h110l-172 309h111l137 -263l134 263h110l-172 -309h110z" />
<glyph unicode="&#xa6;" horiz-adv-x="281" d="M95 203h91v-341h-91v341zM95 680h91v-341h-91v341z" />
<glyph unicode="&#xa7;" horiz-adv-x="459" d="M252 152q83 31 83 88q0 31 -26 50q-17 12 -42 23.5t-48 17.5l-12 3q-83 -30 -83 -87q0 -31 26 -50q15 -11 39.5 -22t49.5 -19zM90 8q34 -24 63.5 -34.5t61.5 -10.5t49 13t17 37q0 11 -4 19.5t-13.5 16t-26.5 15.5t-43 17q-47 16 -77.5 32t-49.5 34.5t-26.5 40.5t-7.5 51 q0 47 23 79.5t72 55.5q-26 20 -38 43t-12 55q0 62 42 97t117 35q37 0 66 -8t59 -27v-90q-33 24 -61.5 34.5t-60.5 10.5q-67 0 -67 -49q0 -11 4 -19.5t14.5 -16t28 -15.5t45.5 -18q43 -15 67 -26t41 -25q53 -40 53 -107q0 -48 -23.5 -80t-73.5 -55q26 -20 37 -42.5t11 -54.5 q0 -63 -42.5 -98t-117.5 -35q-37 0 -67 8t-60 27v90z" />
<glyph unicode="&#xa8;" horiz-adv-x="500" d="M336 636q25 0 42.5 -17.5t17.5 -42.5t-17.5 -42.5t-43.5 -17.5q-24 0 -41.5 18t-17.5 42q0 25 17.5 42.5t42.5 17.5zM164 636q25 0 42.5 -17.5t17.5 -42.5t-17.5 -42.5t-43.5 -17.5q-24 0 -41.5 18t-17.5 42q0 25 17.5 42.5t42.5 17.5z" />
<glyph unicode="&#xa9;" horiz-adv-x="698" d="M349 567q-58 0 -106.5 -20t-83.5 -56.5t-54.5 -86.5t-19.5 -110q0 -58 19.5 -107t55 -84.5t84 -55.5t105.5 -20q58 0 106.5 20t83.5 56t54.5 85.5t19.5 108.5t-19.5 108.5t-54.5 85.5t-83.5 56t-106.5 20zM349 604q65 0 121 -23t96.5 -64.5t63.5 -97.5t23 -122t-23 -122 t-63.5 -97t-96.5 -64.5t-121 -23.5q-66 0 -121.5 23.5t-96 64.5t-63.5 98t-23 124q0 64 23.5 120t64 96.5t96 64t120.5 23.5zM471 130q-24 -14 -48.5 -20.5t-54.5 -6.5q-43 0 -79 14t-61.5 39.5t-39.5 61t-14 78.5t14 78.5t39.5 61t61.5 39.5t79 14q29 0 52.5 -6t47.5 -20 v-91q-42 39 -97 39q-49 0 -79 -31.5t-30 -83.5t30 -83.5t80 -31.5q57 0 99 39v-90z" />
<glyph unicode="&#xaa;" horiz-adv-x="339" d="M222 401h-33q-81 0 -81 -48q0 -45 73 -45q11 0 20.5 0.5t20.5 2.5v90zM222 477q0 55 -68 55q-26 0 -49 -6.5t-48 -21.5v73q52 27 112 27q66 0 100 -30.5t34 -90.5v-225q-29 -6 -62 -9.5t-62 -3.5q-76 0 -115.5 26.5t-39.5 77.5q0 52 41 80t119 28h38v20z" />
<glyph unicode="&#xab;" horiz-adv-x="475" d="M307 215l122 -158h-98l-123 158l123 158h98zM145 215l122 -158h-98l-123 158l123 158h98z" />
<glyph unicode="&#xad;" horiz-adv-x="355" d="M53 304h249v-88h-249v88z" />
<glyph unicode="&#xae;" horiz-adv-x="455" d="M227 569q-32 0 -59 -11.5t-47 -32.5t-31 -49.5t-11 -61.5t11 -61.5t31 -49t47.5 -32t59.5 -11.5q31 0 58.5 12t47 32.5t31 48.5t11.5 61t-11 61.5t-31 49.5t-47.5 32.5t-59.5 11.5zM227 604q40 0 74.5 -14.5t59.5 -40t39.5 -60t14.5 -75.5t-14.5 -75.5t-39.5 -60 t-60 -39.5t-75 -14t-74 14.5t-59 40t-39 60t-14 74.5t14 75t39 60.5t59.5 40t74.5 14.5zM207 421h14q32 0 32 23q0 12 -8 19t-25 5l-13 -1v-46zM207 324h-50v183q18 4 34.5 5.5t30.5 1.5q38 0 60.5 -18t22.5 -49q0 -39 -36 -57l50 -66h-57l-39 56h-16v-56z" />
<glyph unicode="&#xaf;" horiz-adv-x="500" d="M137 601h225v-74h-225v74z" />
<glyph unicode="&#xb0;" horiz-adv-x="295" d="M148 547q-29 0 -46 -18t-17 -47t17 -46.5t46 -17.5q28 0 45 18t17 47t-17 46.5t-45 17.5zM148 603q26 0 48 -9t38.5 -25.5t26 -38.5t9.5 -47q0 -26 -9.5 -47.5t-26 -38t-38.5 -25.5t-48 -9t-48.5 9t-39 25.5t-26 38.5t-9.5 48q0 25 9.5 47t26 38t39 25t48.5 9z" />
<glyph unicode="&#xb1;" horiz-adv-x="459" d="M45 164h369v-76h-369v76zM191 505h77v-112h146v-76h-146v-111h-77v111h-146v76h146v112z" />
<glyph unicode="&#xb2;" horiz-adv-x="267" d="M249 318v-70h-239v59q43 35 71.5 60.5t45 45.5t23 36t6.5 32q0 22 -12.5 33.5t-35.5 11.5q-44 0 -90 -39v75q43 37 108 37q54 0 84 -27t30 -75q0 -45 -29 -86.5t-97 -92.5h135z" />
<glyph unicode="&#xb3;" horiz-adv-x="254" d="M21 566q23 17 47.5 25t53.5 8q50 0 78.5 -24t28.5 -66q0 -32 -17.5 -54.5t-49.5 -31.5q73 -20 73 -83q0 -45 -34 -71.5t-92 -26.5q-27 0 -49 5.5t-45 19.5v77q41 -34 88 -34q50 0 50 39q0 21 -16 30t-59 12v58q36 3 52.5 14t16.5 32q0 33 -40 33t-86 -37v75z" />
<glyph unicode="&#xb4;" horiz-adv-x="500" d="M162 513l85 152h91l-85 -152h-91z" />
<glyph unicode="&#xb5;" horiz-adv-x="505" d="M59 443h98v-281q0 -90 105 -90q34 0 76 6v365h98v-433q-85 -20 -167 -20q-42 0 -67 6t-45 21v-197h-98v623z" />
<glyph unicode="&#xb6;" horiz-adv-x="507" d="M227 247q-37 2 -60.5 6.5t-47.5 15.5q-46 22 -70 60.5t-24 91.5q0 80 54.5 126.5t147.5 46.5h81v-700h-81v353zM362 594h81v-700h-81v700z" />
<glyph unicode="&#xb7;" horiz-adv-x="259" d="M129 329q29 0 49.5 -20t20.5 -49t-20.5 -49t-49.5 -20t-48.5 20.5t-19.5 49.5q0 28 20 48t48 20z" />
<glyph unicode="&#xb8;" horiz-adv-x="500" d="M318 16q0 -49 -20 -94.5t-51 -67.5h-89q38 35 58 76.5t20 85.5h82z" />
<glyph unicode="&#xb9;" horiz-adv-x="200" d="M13 576l145 23v-351h-81v263l-64 -8v73z" />
<glyph unicode="&#xba;" horiz-adv-x="405" d="M202 529q-42 0 -67.5 -28.5t-25.5 -76.5q0 -47 25.5 -75.5t67.5 -28.5t67 28.5t25 76.5q0 47 -25 75.5t-67 28.5zM202 604q39 0 71.5 -13t56.5 -37t37 -57t13 -73q0 -39 -13 -72t-37 -57t-56.5 -37t-71.5 -13t-72 13.5t-56.5 37.5t-36.5 57t-13 73q0 39 13.5 71.5t37 56 t56 37t71.5 13.5z" />
<glyph unicode="&#xbb;" horiz-adv-x="475" d="M208 373h98l123 -158l-123 -158h-98l122 158zM46 373h98l123 -158l-123 -158h-98l122 158z" />
<glyph unicode="&#xbc;" horiz-adv-x="702" d="M455 594h74l-346 -594h-75zM428 140h94v121zM599 140h53v-61h-53v-79h-77v79h-163v61l161 206h79v-206zM40 576l145 23v-351h-81v263l-64 -8v73z" />
<glyph unicode="&#xbd;" horiz-adv-x="714" d="M455 594h74l-346 -594h-75zM40 576l145 23v-351h-81v263l-64 -8v73zM664 70v-70h-239v60q42 34 70.5 59.5t45 45.5t23.5 36.5t7 32.5q0 21 -12.5 33t-35.5 12q-43 0 -90 -40v75q44 38 108 38q53 0 83.5 -27.5t30.5 -75.5q0 -45 -29 -86.5t-97 -92.5h135z" />
<glyph unicode="&#xbe;" horiz-adv-x="744" d="M500 594h74l-346 -594h-75zM469 140h94v121zM640 140h53v-61h-53v-79h-77v79h-163v61l161 206h79v-206zM56 566q23 17 47.5 25t53.5 8q50 0 78.5 -24t28.5 -66q0 -32 -17.5 -54.5t-49.5 -31.5q73 -20 73 -83q0 -45 -34 -71.5t-92 -26.5q-27 0 -49 5.5t-45 19.5v77 q41 -34 88 -34q50 0 50 39q0 21 -16 30t-59 12v58q36 3 52.5 14t16.5 32q0 33 -40 33t-86 -37v75z" />
<glyph unicode="&#xbf;" horiz-adv-x="381" d="M233 456q29 0 48.5 -20t19.5 -49t-19.5 -49t-48.5 -20t-49.5 20.5t-20.5 49.5q0 28 20.5 48t49.5 20zM367 -95q-65 -62 -162 -62q-83 0 -131.5 45t-48.5 123q0 68 38.5 111t123.5 70v69h93v-116q-47 -15 -77 -28t-48 -27t-25 -31.5t-7 -40.5q0 -39 26 -62.5t70 -23.5 q38 0 72 15.5t76 53.5v-96z" />
<glyph unicode="&#xc0;" horiz-adv-x="599" d="M250 644l-79 141h91l79 -141h-91zM399 224l-101 274l-102 -274h203zM113 0h-108l231 594h125l232 -594h-111l-52 140h-265z" />
<glyph unicode="&#xc1;" horiz-adv-x="599" d="M257 644l79 141h91l-79 -141h-91zM399 224l-101 274l-102 -274h203zM113 0h-108l231 594h125l232 -594h-111l-52 140h-265z" />
<glyph unicode="&#xc2;" horiz-adv-x="599" d="M445 640h-85l-62 76l-62 -76h-85l116 143h62zM399 224l-101 274l-102 -274h203zM113 0h-108l231 594h125l232 -594h-111l-52 140h-265z" />
<glyph unicode="&#xc3;" horiz-adv-x="599" d="M444 763q-3 -125 -82 -125q-17 0 -32 7t-38 25q-16 13 -25.5 17.5t-17.5 4.5q-27 0 -28 -51h-66q3 125 82 125q17 0 32 -7t38 -25q17 -13 26.5 -17.5t17.5 -4.5q27 0 28 51h65zM399 224l-101 274l-102 -274h203zM113 0h-108l231 594h125l232 -594h-111l-52 140h-265z" />
<glyph unicode="&#xc4;" horiz-adv-x="599" d="M385 755q25 0 42.5 -17.5t17.5 -42.5t-17.5 -42.5t-43.5 -17.5q-24 0 -41.5 17.5t-17.5 42.5t17.5 42.5t42.5 17.5zM213 755q25 0 42.5 -17.5t17.5 -42.5t-17.5 -42.5t-43.5 -17.5q-24 0 -41.5 17.5t-17.5 42.5t17.5 42.5t42.5 17.5zM399 224l-101 274l-102 -274h203z M113 0h-108l231 594h125l232 -594h-111l-52 140h-265z" />
<glyph unicode="&#xc5;" horiz-adv-x="599" d="M300 760q-19 0 -30.5 -11t-11.5 -30q0 -20 11.5 -31t30.5 -11t30.5 11.5t11.5 30.5q0 18 -11.5 29.5t-30.5 11.5zM300 809q41 0 67 -25t26 -65t-26 -65.5t-67 -25.5q-42 0 -68 25.5t-26 66.5q0 38 26.5 63.5t67.5 25.5zM399 224l-101 274l-102 -274h203zM113 0h-108 l231 594h125l232 -594h-111l-52 140h-265z" />
<glyph unicode="&#xc6;" horiz-adv-x="842" d="M426 518l-177 -294h177v294zM199 140l-84 -140h-110l359 594h426v-90h-262v-160h242v-88h-242v-166h267v-90h-369v140h-227z" />
<glyph unicode="&#xc7;" horiz-adv-x="555" d="M516 34q-32 -19 -67.5 -30t-76.5 -13q-5 -43 -24.5 -80.5t-45.5 -56.5h-89q32 30 52 66t25 74q-59 10 -105.5 35.5t-78.5 65t-49.5 90.5t-17.5 112q0 67 22.5 123.5t63 97.5t97 63.5t124.5 22.5q48 0 86 -9.5t77 -32.5v-112q-69 62 -163 62q-45 0 -82 -15.5t-64 -44 t-41.5 -68t-14.5 -87.5t15 -87.5t42.5 -68t65.5 -44t84 -15.5q48 0 87.5 14.5t77.5 46.5v-109z" />
<glyph unicode="&#xc8;" horiz-adv-x="490" d="M443 90v-90h-369v594h363v-90h-262v-160h243v-88h-243v-166h268zM220 642l-79 141h91l79 -141h-91z" />
<glyph unicode="&#xc9;" horiz-adv-x="490" d="M443 90v-90h-369v594h363v-90h-262v-160h243v-88h-243v-166h268zM208 644l79 141h91l-79 -141h-91z" />
<glyph unicode="&#xca;" horiz-adv-x="490" d="M411 640h-85l-62 76l-62 -76h-85l116 143h62zM443 90v-90h-369v594h363v-90h-262v-160h243v-88h-243v-166h268z" />
<glyph unicode="&#xcb;" horiz-adv-x="490" d="M443 90v-90h-369v594h363v-90h-262v-160h243v-88h-243v-166h268zM349 755q25 0 42.5 -17.5t17.5 -42.5t-17.5 -42.5t-43.5 -17.5q-24 0 -41.5 17.5t-17.5 42.5t17.5 42.5t42.5 17.5zM177 755q25 0 42.5 -17.5t17.5 -42.5t-17.5 -42.5t-43.5 -17.5q-24 0 -41.5 17.5 t-17.5 42.5t17.5 42.5t42.5 17.5z" />
<glyph unicode="&#xcc;" horiz-adv-x="250" d="M83 644l-79 141h91l79 -141h-91zM176 0h-102v594h102v-594z" />
<glyph unicode="&#xcd;" horiz-adv-x="250" d="M73 644l79 141h91l-79 -141h-91zM176 0h-102v594h102v-594z" />
<glyph unicode="&#xce;" horiz-adv-x="250" d="M272 640h-85l-62 76l-62 -76h-85l116 143h62zM176 0h-102v594h102v-594z" />
<glyph unicode="&#xcf;" horiz-adv-x="250" d="M211 755q25 0 42.5 -17.5t17.5 -42.5t-17.5 -42.5t-43.5 -17.5q-24 0 -41.5 17.5t-17.5 42.5t17.5 42.5t42.5 17.5zM39 755q25 0 42.5 -17.5t17.5 -42.5t-17.5 -42.5t-43.5 -17.5q-24 0 -41.5 17.5t-17.5 42.5t17.5 42.5t42.5 17.5zM176 0h-102v594h102v-594z" />
<glyph unicode="&#xd0;" horiz-adv-x="632" d="M188 84q16 -2 31.5 -3t33.5 -1q112 0 173 58.5t61 166.5q0 100 -61 152.5t-178 52.5q-16 0 -28 -0.5t-32 -2.5v-164h122v-86h-122v-173zM31 257v86h55v250q40 5 80 8t75 3q170 0 261 -77.5t91 -221.5q0 -151 -91.5 -232.5t-260.5 -81.5q-41 0 -80 3t-75 8v255h-55z" />
<glyph unicode="&#xd1;" horiz-adv-x="650" d="M477 155v439h99v-594h-98l-305 435v-435h-99v594h104zM471 763q-3 -125 -82 -125q-17 0 -32 7t-38 25q-16 13 -25.5 17.5t-17.5 4.5q-27 0 -28 -51h-66q3 125 82 125q17 0 32 -7t38 -25q17 -13 26.5 -17.5t17.5 -4.5q27 0 28 51h65z" />
<glyph unicode="&#xd2;" horiz-adv-x="694" d="M347 512q-44 0 -81.5 -16t-64.5 -44.5t-42 -68t-15 -86.5t15 -86.5t42 -68t64.5 -44.5t81.5 -16q45 0 82 16t64 44.5t42 68.5t15 88q0 46 -15.5 85t-42.5 67.5t-64 44.5t-81 16zM347 604q66 0 122.5 -23t98 -64.5t64.5 -97.5t23 -122t-23 -122t-64.5 -97.5t-98 -64.5 t-122.5 -23q-67 0 -123.5 23t-97.5 64.5t-64 98t-23 124.5q0 65 23.5 121t64.5 96.5t97.5 63.5t122.5 23zM305 644l-79 141h91l79 -141h-91z" />
<glyph unicode="&#xd3;" horiz-adv-x="694" d="M347 512q-44 0 -81.5 -16t-64.5 -44.5t-42 -68t-15 -86.5t15 -86.5t42 -68t64.5 -44.5t81.5 -16q45 0 82 16t64 44.5t42 68.5t15 88q0 46 -15.5 85t-42.5 67.5t-64 44.5t-81 16zM347 604q66 0 122.5 -23t98 -64.5t64.5 -97.5t23 -122t-23 -122t-64.5 -97.5t-98 -64.5 t-122.5 -23q-67 0 -123.5 23t-97.5 64.5t-64 98t-23 124.5q0 65 23.5 121t64.5 96.5t97.5 63.5t122.5 23zM295 644l79 141h91l-79 -141h-91z" />
<glyph unicode="&#xd4;" horiz-adv-x="694" d="M494 640h-85l-62 76l-62 -76h-85l116 143h62zM347 512q-44 0 -81.5 -16t-64.5 -44.5t-42 -68t-15 -86.5t15 -86.5t42 -68t64.5 -44.5t81.5 -16q45 0 82 16t64 44.5t42 68.5t15 88q0 46 -15.5 85t-42.5 67.5t-64 44.5t-81 16zM347 604q66 0 122.5 -23t98 -64.5t64.5 -97.5 t23 -122t-23 -122t-64.5 -97.5t-98 -64.5t-122.5 -23q-67 0 -123.5 23t-97.5 64.5t-64 98t-23 124.5q0 65 23.5 121t64.5 96.5t97.5 63.5t122.5 23z" />
<glyph unicode="&#xd5;" horiz-adv-x="694" d="M347 512q-44 0 -81.5 -16t-64.5 -44.5t-42 -68t-15 -86.5t15 -86.5t42 -68t64.5 -44.5t81.5 -16q45 0 82 16t64 44.5t42 68.5t15 88q0 46 -15.5 85t-42.5 67.5t-64 44.5t-81 16zM347 604q66 0 122.5 -23t98 -64.5t64.5 -97.5t23 -122t-23 -122t-64.5 -97.5t-98 -64.5 t-122.5 -23q-67 0 -123.5 23t-97.5 64.5t-64 98t-23 124.5q0 65 23.5 121t64.5 96.5t97.5 63.5t122.5 23zM491 763q-3 -125 -82 -125q-17 0 -32 7t-38 25q-16 13 -25.5 17.5t-17.5 4.5q-27 0 -28 -51h-66q3 125 82 125q17 0 32 -7t38 -25q17 -13 26.5 -17.5t17.5 -4.5 q27 0 28 51h65z" />
<glyph unicode="&#xd6;" horiz-adv-x="694" d="M347 512q-44 0 -81.5 -16t-64.5 -44.5t-42 -68t-15 -86.5t15 -86.5t42 -68t64.5 -44.5t81.5 -16q45 0 82 16t64 44.5t42 68.5t15 88q0 46 -15.5 85t-42.5 67.5t-64 44.5t-81 16zM347 604q66 0 122.5 -23t98 -64.5t64.5 -97.5t23 -122t-23 -122t-64.5 -97.5t-98 -64.5 t-122.5 -23q-67 0 -123.5 23t-97.5 64.5t-64 98t-23 124.5q0 65 23.5 121t64.5 96.5t97.5 63.5t122.5 23zM432 755q25 0 42.5 -17.5t17.5 -42.5t-17.5 -42.5t-43.5 -17.5q-24 0 -41.5 17.5t-17.5 42.5t17.5 42.5t42.5 17.5zM260 755q25 0 42.5 -17.5t17.5 -42.5t-17.5 -42.5 t-43.5 -17.5q-24 0 -41.5 17.5t-17.5 42.5t17.5 42.5t42.5 17.5z" />
<glyph unicode="&#xd7;" horiz-adv-x="395" d="M35 400l53 53l109 -110l110 110l53 -53l-110 -110l110 -109l-53 -53l-110 110l-109 -110l-53 53l110 109z" />
<glyph unicode="&#xd8;" horiz-adv-x="700" d="M470 475q-28 20 -56.5 29.5t-63.5 9.5q-45 0 -82.5 -16.5t-64.5 -45.5t-42.5 -68.5t-15.5 -86.5q0 -39 9.5 -71.5t29.5 -61.5zM229 118q29 -20 57.5 -29t63.5 -9q44 0 81.5 16t65 45t43 69t15.5 87q0 38 -9.5 69.5t-30.5 62.5zM582 504q39 -47 57.5 -97t18.5 -110 q0 -66 -23 -122t-64.5 -97.5t-98 -64.5t-122.5 -23q-52 0 -96.5 14t-88.5 43l-43 -47h-86l82 90q-39 46 -57.5 95.5t-18.5 111.5q0 66 23 122.5t64.5 97.5t98 64t122.5 23q51 0 95 -14t88 -44l44 48h86z" />
<glyph unicode="&#xd9;" horiz-adv-x="606" d="M532 17q-50 -13 -108 -20t-111 -7q-250 0 -250 213v391h102v-373q0 -76 35.5 -110t114.5 -34q29 0 56 2.5t59 7.5v507h102v-577zM256 644l-79 141h91l79 -141h-91z" />
<glyph unicode="&#xda;" horiz-adv-x="606" d="M532 17q-50 -13 -108 -20t-111 -7q-250 0 -250 213v391h102v-373q0 -76 35.5 -110t114.5 -34q29 0 56 2.5t59 7.5v507h102v-577zM245 644l79 141h91l-79 -141h-91z" />
<glyph unicode="&#xdb;" horiz-adv-x="606" d="M444 640h-85l-62 76l-62 -76h-85l116 143h62zM532 17q-50 -13 -108 -20t-111 -7q-250 0 -250 213v391h102v-373q0 -76 35.5 -110t114.5 -34q29 0 56 2.5t59 7.5v507h102v-577z" />
<glyph unicode="&#xdc;" horiz-adv-x="606" d="M532 17q-50 -13 -108 -20t-111 -7q-250 0 -250 213v391h102v-373q0 -76 35.5 -110t114.5 -34q29 0 56 2.5t59 7.5v507h102v-577zM382 755q25 0 42.5 -17.5t17.5 -42.5t-17.5 -42.5t-43.5 -17.5q-24 0 -41.5 17.5t-17.5 42.5t17.5 42.5t42.5 17.5zM210 755 q25 0 42.5 -17.5t17.5 -42.5t-17.5 -42.5t-43.5 -17.5q-24 0 -41.5 17.5t-17.5 42.5t17.5 42.5t42.5 17.5z" />
<glyph unicode="&#xdd;" horiz-adv-x="542" d="M219 644l79 141h91l-79 -141h-91zM424 594h113l-215 -367v-227h-102v227l-215 367h113l154 -271z" />
<glyph unicode="&#xde;" horiz-adv-x="484" d="M176 184q5 -1 12 -1h16h10q145 0 145 115q0 55 -35.5 84t-104.5 29h-17t-20 -2h-6v-225zM176 0h-102v594h102v-94h5l9 1q7 1 16 1h17q113 0 176 -53t63 -148q0 -98 -63 -152t-176 -54q-10 0 -19.5 1t-20.5 1h-7v-97z" />
<glyph unicode="&#xdf;" horiz-adv-x="547" d="M68 487q0 94 51.5 148.5t140.5 54.5q40 0 73.5 -11t57.5 -30.5t37 -47t13 -60.5q0 -32 -12.5 -58.5t-44.5 -61.5q-18 -21 -24.5 -32t-6.5 -22q0 -23 55 -58q59 -37 85.5 -76t26.5 -88q0 -35 -12.5 -63.5t-35 -48.5t-54.5 -31.5t-70 -11.5q-65 0 -111 31v92 q32 -24 55.5 -33.5t51.5 -9.5q37 0 58.5 19.5t21.5 53.5q0 26 -16.5 47t-60.5 51q-50 33 -70 60t-20 60q0 20 9.5 39.5t35.5 49.5q24 29 33.5 47t9.5 38q0 32 -23.5 52t-60.5 20q-45 0 -69.5 -31t-24.5 -88v-488h-99v487z" />
<glyph unicode="&#xe0;" horiz-adv-x="449" d="M186 513l-85 152h91l85 -152h-91zM291 194h-42q-56 0 -85 -17t-29 -49q0 -31 26 -47t75 -16q12 0 26.5 1.5t28.5 3.5v124zM291 297q0 34 -22.5 52t-64.5 18q-32 0 -61.5 -8t-64.5 -28v86q35 19 69.5 27.5t75.5 8.5q165 0 165 -151v-293q-35 -9 -74.5 -13.5t-78.5 -4.5 q-98 0 -148 34t-50 100t52.5 100.5t152.5 34.5h49v37z" />
<glyph unicode="&#xe1;" horiz-adv-x="449" d="M173 513l85 152h91l-85 -152h-91zM291 194h-42q-56 0 -85 -17t-29 -49q0 -31 26 -47t75 -16q12 0 26.5 1.5t28.5 3.5v124zM291 297q0 34 -22.5 52t-64.5 18q-32 0 -61.5 -8t-64.5 -28v86q35 19 69.5 27.5t75.5 8.5q165 0 165 -151v-293q-35 -9 -74.5 -13.5t-78.5 -4.5 q-98 0 -148 34t-50 100t52.5 100.5t152.5 34.5h49v37z" />
<glyph unicode="&#xe2;" horiz-adv-x="449" d="M373 510h-87l-60 79l-60 -79h-87l116 150h62zM291 194h-42q-56 0 -85 -17t-29 -49q0 -31 26 -47t75 -16q12 0 26.5 1.5t28.5 3.5v124zM291 297q0 34 -22.5 52t-64.5 18q-32 0 -61.5 -8t-64.5 -28v86q35 19 69.5 27.5t75.5 8.5q165 0 165 -151v-293q-35 -9 -74.5 -13.5 t-78.5 -4.5q-98 0 -148 34t-50 100t52.5 100.5t152.5 34.5h49v37z" />
<glyph unicode="&#xe3;" horiz-adv-x="449" d="M366 632q-3 -125 -82 -125q-17 0 -32 7t-38 25q-16 13 -25.5 17.5t-17.5 4.5q-27 0 -28 -51h-66q3 125 82 125q17 0 32 -7t38 -25q17 -13 26.5 -17.5t17.5 -4.5q26 0 28 51h65zM291 194h-42q-56 0 -85 -17t-29 -49q0 -31 26 -47t75 -16q12 0 26.5 1.5t28.5 3.5v124z M291 297q0 34 -22.5 52t-64.5 18q-32 0 -61.5 -8t-64.5 -28v86q35 19 69.5 27.5t75.5 8.5q165 0 165 -151v-293q-35 -9 -74.5 -13.5t-78.5 -4.5q-98 0 -148 34t-50 100t52.5 100.5t152.5 34.5h49v37z" />
<glyph unicode="&#xe4;" horiz-adv-x="449" d="M308 636q25 0 42.5 -17.5t17.5 -42.5t-17.5 -42.5t-43.5 -17.5q-24 0 -41.5 18t-17.5 42q0 25 17.5 42.5t42.5 17.5zM136 636q25 0 42.5 -17.5t17.5 -42.5t-17.5 -42.5t-43.5 -17.5q-24 0 -41.5 18t-17.5 42q0 25 17.5 42.5t42.5 17.5zM291 194h-42q-56 0 -85 -17 t-29 -49q0 -31 26 -47t75 -16q12 0 26.5 1.5t28.5 3.5v124zM291 297q0 34 -22.5 52t-64.5 18q-32 0 -61.5 -8t-64.5 -28v86q35 19 69.5 27.5t75.5 8.5q165 0 165 -151v-293q-35 -9 -74.5 -13.5t-78.5 -4.5q-98 0 -148 34t-50 100t52.5 100.5t152.5 34.5h49v37z" />
<glyph unicode="&#xe5;" horiz-adv-x="449" d="M223 626q-20 0 -31 -11t-11 -31t11 -31t31 -11q19 0 30.5 11.5t11.5 31.5q0 18 -11.5 29.5t-30.5 11.5zM223 674q41 0 67 -25t26 -65t-26 -65t-67 -25q-42 0 -68 25.5t-26 65.5q0 38 26.5 63.5t67.5 25.5zM291 194h-42q-56 0 -85 -17t-29 -49q0 -31 26 -47t75 -16 q12 0 26.5 1.5t28.5 3.5v124zM291 297q0 34 -22.5 52t-64.5 18q-32 0 -61.5 -8t-64.5 -28v86q35 19 69.5 27.5t75.5 8.5q165 0 165 -151v-293q-35 -9 -74.5 -13.5t-78.5 -4.5q-98 0 -148 34t-50 100t52.5 100.5t152.5 34.5h49v37z" />
<glyph unicode="&#xe6;" horiz-adv-x="735" d="M247 192q-112 0 -112 -68q0 -28 20.5 -44t55.5 -16q65 0 107 47q-8 19 -13 38t-7 43h-51zM604 256q-7 114 -98 114q-47 0 -77.5 -30t-38.5 -84h214zM389 192q8 -56 46 -86.5t101 -30.5q42 0 75.5 10t69.5 33v-87q-64 -41 -155 -41q-52 0 -94.5 15.5t-72.5 46.5 q-69 -62 -158 -62q-75 0 -119.5 35.5t-44.5 95.5q0 66 52.5 100.5t152.5 34.5h57q1 8 2.5 16t3.5 18q-6 78 -94 78q-36 0 -66.5 -8.5t-66.5 -28.5v86q35 19 69.5 27.5t73.5 8.5q97 0 137 -63q58 63 150 63q90 0 139.5 -55t49.5 -155v-51h-308z" />
<glyph unicode="&#xe7;" horiz-adv-x="436" d="M399 23q-47 -27 -100 -31q-5 -43 -24.5 -81.5t-45.5 -56.5h-89q33 30 52.5 66.5t24.5 74.5q-85 15 -133.5 75.5t-48.5 150.5q0 51 17 94t48 73.5t74 47.5t95 17q35 0 64 -7.5t61 -25.5v-96q-29 22 -56.5 31.5t-60.5 9.5q-65 0 -103.5 -39t-38.5 -104q0 -66 40 -105.5 t106 -39.5q32 0 60 9.5t58 30.5v-94z" />
<glyph unicode="&#xe8;" horiz-adv-x="477" d="M214 513l-85 152h91l85 -152h-91zM346 263q-6 107 -99 107q-89 0 -113 -107h212zM131 199v-2q0 -26 15 -52.5t41 -43.5q38 -26 92 -26q41 0 75 10t69 33v-87q-64 -41 -155 -41q-53 0 -96 16t-73.5 46t-47 72t-16.5 94t16 95.5t44.5 74.5t68 48t87.5 17q90 0 139 -53.5 t49 -150.5v-50h-308z" />
<glyph unicode="&#xe9;" horiz-adv-x="477" d="M346 263q-6 107 -99 107q-89 0 -113 -107h212zM131 199v-2q0 -26 15 -52.5t41 -43.5q38 -26 92 -26q41 0 75 10t69 33v-87q-64 -41 -155 -41q-53 0 -96 16t-73.5 46t-47 72t-16.5 94t16 95.5t44.5 74.5t68 48t87.5 17q90 0 139 -53.5t49 -150.5v-50h-308zM208 513l85 152 h91l-85 -152h-91z" />
<glyph unicode="&#xea;" horiz-adv-x="477" d="M346 263q-6 107 -99 107q-89 0 -113 -107h212zM131 199v-2q0 -26 15 -52.5t41 -43.5q38 -26 92 -26q41 0 75 10t69 33v-87q-64 -41 -155 -41q-53 0 -96 16t-73.5 46t-47 72t-16.5 94t16 95.5t44.5 74.5t68 48t87.5 17q90 0 139 -53.5t49 -150.5v-50h-308zM393 510h-87 l-60 79l-60 -79h-87l116 150h62z" />
<glyph unicode="&#xeb;" horiz-adv-x="477" d="M346 263q-6 107 -99 107q-89 0 -113 -107h212zM131 199v-2q0 -26 15 -52.5t41 -43.5q38 -26 92 -26q41 0 75 10t69 33v-87q-64 -41 -155 -41q-53 0 -96 16t-73.5 46t-47 72t-16.5 94t16 95.5t44.5 74.5t68 48t87.5 17q90 0 139 -53.5t49 -150.5v-50h-308zM337 636 q25 0 42.5 -17.5t17.5 -42.5t-17.5 -42.5t-43.5 -17.5q-24 0 -41.5 18t-17.5 42q0 25 17.5 42.5t42.5 17.5zM165 636q25 0 42.5 -17.5t17.5 -42.5t-17.5 -42.5t-43.5 -17.5q-24 0 -41.5 18t-17.5 42q0 25 17.5 42.5t42.5 17.5z" />
<glyph unicode="&#xec;" horiz-adv-x="235" d="M73 513l-85 152h91l85 -152h-91zM167 0h-99v443h99v-443z" />
<glyph unicode="&#xed;" horiz-adv-x="235" d="M167 0h-99v443h99v-443zM74 513l85 152h91l-85 -152h-91z" />
<glyph unicode="&#xee;" horiz-adv-x="235" d="M167 0h-99v443h99v-443zM265 510h-87l-60 79l-60 -79h-87l116 150h62z" />
<glyph unicode="&#xef;" horiz-adv-x="235" d="M167 0h-99v443h99v-443zM204 636q25 0 42.5 -17.5t17.5 -42.5t-17.5 -42.5t-43.5 -17.5q-24 0 -41.5 18t-17.5 42q0 25 17.5 42.5t42.5 17.5zM32 636q25 0 42.5 -17.5t17.5 -42.5t-17.5 -42.5t-43.5 -17.5q-24 0 -41.5 18t-17.5 42q0 25 17.5 42.5t42.5 17.5z" />
<glyph unicode="&#xf0;" horiz-adv-x="527" d="M263 366q-29 0 -52.5 -10.5t-40 -30t-26 -46t-9.5 -59.5q0 -66 35.5 -105.5t92.5 -39.5q59 0 94 40t35 107q0 65 -35.5 104.5t-93.5 39.5zM114 470v66l120 35q-16 16 -30 29.5t-29 26t-31 25.5t-35 28h124q17 -15 29.5 -25.5t22.5 -19.5t19 -18l20 -20l116 33v-65 l-70 -20q59 -72 90 -151.5t31 -157.5q0 -56 -16 -101.5t-46 -77.5t-72 -49.5t-94 -17.5q-50 0 -92 17t-72 47.5t-47 72.5t-17 92t16.5 91.5t45.5 71.5t70 47t89 17q35 0 60.5 -10.5t46.5 -33.5q-13 27 -32.5 55t-48.5 62z" />
<glyph unicode="&#xf1;" horiz-adv-x="519" d="M403 632q-3 -125 -82 -125q-17 0 -32 7t-38 25q-16 13 -25.5 17.5t-17.5 4.5q-27 0 -28 -51h-66q3 125 82 125q17 0 32 -7t38 -25q17 -13 26.5 -17.5t17.5 -4.5q26 0 28 51h65zM68 415q105 38 203 38q94 0 139.5 -41t45.5 -127v-285h-98v276q0 87 -97 87q-51 0 -94 -13 v-350h-99v415z" />
<glyph unicode="&#xf2;" horiz-adv-x="527" d="M223 513l-85 152h91l85 -152h-91zM263 368q-57 0 -92.5 -40.5t-35.5 -106.5q0 -33 9.5 -59.5t26 -46t40 -30t52.5 -10.5q59 0 94 40.5t35 107.5q0 65 -35.5 105t-93.5 40zM263 453q51 0 93 -17t72 -48t47 -73.5t17 -93.5t-17 -93.5t-47.5 -73t-72.5 -47.5t-92 -17 q-51 0 -93 17t-72 47.5t-46.5 73.5t-16.5 95q0 50 17 92.5t47 73t72 47.5t92 17z" />
<glyph unicode="&#xf3;" horiz-adv-x="527" d="M263 368q-57 0 -92.5 -40.5t-35.5 -106.5q0 -33 9.5 -59.5t26 -46t40 -30t52.5 -10.5q59 0 94 40.5t35 107.5q0 65 -35.5 105t-93.5 40zM263 453q51 0 93 -17t72 -48t47 -73.5t17 -93.5t-17 -93.5t-47.5 -73t-72.5 -47.5t-92 -17q-51 0 -93 17t-72 47.5t-46.5 73.5 t-16.5 95q0 50 17 92.5t47 73t72 47.5t92 17zM214 513l85 152h91l-85 -152h-91z" />
<glyph unicode="&#xf4;" horiz-adv-x="527" d="M263 368q-57 0 -92.5 -40.5t-35.5 -106.5q0 -33 9.5 -59.5t26 -46t40 -30t52.5 -10.5q59 0 94 40.5t35 107.5q0 65 -35.5 105t-93.5 40zM263 453q51 0 93 -17t72 -48t47 -73.5t17 -93.5t-17 -93.5t-47.5 -73t-72.5 -47.5t-92 -17q-51 0 -93 17t-72 47.5t-46.5 73.5 t-16.5 95q0 50 17 92.5t47 73t72 47.5t92 17zM410 510h-87l-60 79l-60 -79h-87l116 150h62z" />
<glyph unicode="&#xf5;" horiz-adv-x="527" d="M408 632q-3 -125 -82 -125q-17 0 -32 7t-38 25q-16 13 -25.5 17.5t-17.5 4.5q-27 0 -28 -51h-66q3 125 82 125q17 0 32 -7t38 -25q17 -13 26.5 -17.5t17.5 -4.5q26 0 28 51h65zM263 368q-57 0 -92.5 -40.5t-35.5 -106.5q0 -33 9.5 -59.5t26 -46t40 -30t52.5 -10.5 q59 0 94 40.5t35 107.5q0 65 -35.5 105t-93.5 40zM263 453q51 0 93 -17t72 -48t47 -73.5t17 -93.5t-17 -93.5t-47.5 -73t-72.5 -47.5t-92 -17q-51 0 -93 17t-72 47.5t-46.5 73.5t-16.5 95q0 50 17 92.5t47 73t72 47.5t92 17z" />
<glyph unicode="&#xf6;" horiz-adv-x="527" d="M263 368q-57 0 -92.5 -40.5t-35.5 -106.5q0 -33 9.5 -59.5t26 -46t40 -30t52.5 -10.5q59 0 94 40.5t35 107.5q0 65 -35.5 105t-93.5 40zM263 453q51 0 93 -17t72 -48t47 -73.5t17 -93.5t-17 -93.5t-47.5 -73t-72.5 -47.5t-92 -17q-51 0 -93 17t-72 47.5t-46.5 73.5 t-16.5 95q0 50 17 92.5t47 73t72 47.5t92 17zM350 636q25 0 42.5 -17.5t17.5 -42.5t-17.5 -42.5t-43.5 -17.5q-24 0 -41.5 18t-17.5 42q0 25 17.5 42.5t42.5 17.5zM178 636q25 0 42.5 -17.5t17.5 -42.5t-17.5 -42.5t-43.5 -17.5q-24 0 -41.5 18t-17.5 42q0 25 17.5 42.5 t42.5 17.5z" />
<glyph unicode="&#xf7;" horiz-adv-x="459" d="M229 504q24 0 41.5 -17t17.5 -41t-17.5 -41.5t-41.5 -17.5t-41 17.5t-17 41.5t17 41t41 17zM229 198q24 0 41.5 -17t17.5 -41t-17.5 -41.5t-41.5 -17.5t-41 17.5t-17 41.5t17 41t41 17zM40 331h379v-77h-379v77z" />
<glyph unicode="&#xf8;" horiz-adv-x="532" d="M191 94q31 -21 74 -21q30 0 54.5 10.5t42 30t27 46.5t9.5 60q0 24 -5 44.5t-16 40.5zM340 348q-32 22 -74 22q-59 0 -95 -41t-36 -108q0 -46 19 -84zM440 376q28 -35 41 -72t13 -83q0 -51 -17 -93t-47 -73t-72 -48t-92 -17q-38 0 -70 9.5t-63 29.5l-31 -34h-74l63 71 q-28 34 -40.5 71t-12.5 84q0 51 17 93.5t47 73.5t72 48t92 17q37 0 69 -9.5t64 -30.5l31 35h74z" />
<glyph unicode="&#xf9;" horiz-adv-x="505" d="M207 513l-85 152h91l85 -152h-91zM436 10q-86 -20 -172 -20q-106 0 -155.5 40t-49.5 125v288h98v-281q0 -90 105 -90q34 0 76 6v365h98v-433z" />
<glyph unicode="&#xfa;" horiz-adv-x="505" d="M436 10q-86 -20 -172 -20q-106 0 -155.5 40t-49.5 125v288h98v-281q0 -90 105 -90q34 0 76 6v365h98v-433zM196 513l85 152h91l-85 -152h-91z" />
<glyph unicode="&#xfb;" horiz-adv-x="505" d="M436 10q-86 -20 -172 -20q-106 0 -155.5 40t-49.5 125v288h98v-281q0 -90 105 -90q34 0 76 6v365h98v-433zM394 510h-87l-60 79l-60 -79h-87l116 150h62z" />
<glyph unicode="&#xfc;" horiz-adv-x="505" d="M436 10q-86 -20 -172 -20q-106 0 -155.5 40t-49.5 125v288h98v-281q0 -90 105 -90q34 0 76 6v365h98v-433zM337 636q25 0 42.5 -17.5t17.5 -42.5t-17.5 -42.5t-43.5 -17.5q-24 0 -41.5 18t-17.5 42q0 25 17.5 42.5t42.5 17.5zM165 636q25 0 42.5 -17.5t17.5 -42.5 t-17.5 -42.5t-43.5 -17.5q-24 0 -41.5 18t-17.5 42q0 25 17.5 42.5t42.5 17.5z" />
<glyph unicode="&#xfd;" horiz-adv-x="468" d="M185 513l85 152h91l-85 -152h-91zM237 94l124 349h102l-240 -623h-97l62 160l-183 463h106z" />
<glyph unicode="&#xfe;" horiz-adv-x="527" d="M167 88q33 -13 75 -13q69 0 109.5 40.5t40.5 110.5q0 63 -37.5 100.5t-99.5 37.5q-49 0 -88 -21v-255zM68 680h99v-249q46 22 103 22q50 0 91 -16t70 -45.5t45 -71t16 -92.5q0 -111 -65 -174.5t-179 -63.5q-47 0 -81 12v-182h-99v860z" />
<glyph unicode="&#xff;" horiz-adv-x="468" d="M323 636q25 0 42.5 -17.5t17.5 -42.5t-17.5 -42.5t-43.5 -17.5q-24 0 -41.5 18t-17.5 42q0 25 17.5 42.5t42.5 17.5zM151 636q25 0 42.5 -17.5t17.5 -42.5t-17.5 -42.5t-43.5 -17.5q-24 0 -41.5 18t-17.5 42q0 25 17.5 42.5t42.5 17.5zM237 94l124 349h102l-240 -623h-97 l62 160l-183 463h106z" />
<glyph unicode="&#x100;" horiz-adv-x="599" d="M187 725h225v-74h-225v74zM399 224l-101 274l-102 -274h203zM113 0h-108l231 594h125l232 -594h-111l-52 140h-265z" />
<glyph unicode="&#x101;" horiz-adv-x="449" d="M109 601h225v-74h-225v74zM291 194h-42q-56 0 -85 -17t-29 -49q0 -31 26 -47t75 -16q12 0 26.5 1.5t28.5 3.5v124zM291 297q0 34 -22.5 52t-64.5 18q-32 0 -61.5 -8t-64.5 -28v86q35 19 69.5 27.5t75.5 8.5q165 0 165 -151v-293q-35 -9 -74.5 -13.5t-78.5 -4.5 q-98 0 -148 34t-50 100t52.5 100.5t152.5 34.5h49v37z" />
<glyph unicode="&#x102;" horiz-adv-x="599" d="M422 776q-5 -133 -123 -133q-58 0 -92 37q-16 18 -22.5 39.5t-8.5 56.5h75q1 -35 12 -50.5t36 -15.5t36 15.5t12 50.5h75zM399 224l-101 274l-102 -274h203zM113 0h-108l231 594h125l232 -594h-111l-52 140h-265z" />
<glyph unicode="&#x103;" horiz-adv-x="449" d="M349 646q-2 -41 -11 -65t-30 -44q-32 -29 -82 -29q-56 0 -90 37q-17 20 -24 42t-9 59h75q1 -70 48 -70t48 70h75zM291 194h-42q-56 0 -85 -17t-29 -49q0 -31 26 -47t75 -16q12 0 26.5 1.5t28.5 3.5v124zM291 297q0 34 -22.5 52t-64.5 18q-32 0 -61.5 -8t-64.5 -28v86 q35 19 69.5 27.5t75.5 8.5q165 0 165 -151v-293q-35 -9 -74.5 -13.5t-78.5 -4.5q-98 0 -148 34t-50 100t52.5 100.5t152.5 34.5h49v37z" />
<glyph unicode="&#x104;" horiz-adv-x="599" d="M196 224h204l-102 274zM549 0q-59 -52 -59 -91q0 -29 33 -29q22 0 45 10v-69q-13 -5 -27.5 -8t-32.5 -3q-46 0 -71 21.5t-25 59.5q0 62 65 120l-47 129h-265l-52 -140h-108l231 594h125l232 -594h-44z" />
<glyph unicode="&#x105;" horiz-adv-x="449" d="M291 194h-42q-56 0 -85 -17t-29 -49q0 -31 26 -47t75 -16q12 0 26.5 1.5t28.5 3.5v124zM291 297q0 34 -22.5 52t-64.5 18q-32 0 -61.5 -8t-64.5 -28v86q35 19 69.5 27.5t75.5 8.5q165 0 165 -151v-293q-40 -29 -58 -52.5t-18 -47.5q0 -29 32 -29q24 0 45 10v-69 q-23 -11 -59 -11q-46 0 -71 21.5t-25 60.5q0 57 53 102q-19 -2 -29 -2.5t-24 -0.5q-97 0 -147 34t-50 100t52.5 100.5t152.5 34.5h49v37z" />
<glyph unicode="&#x106;" horiz-adv-x="555" d="M292 644l79 141h91l-79 -141h-91zM509 450q-69 62 -163 62q-45 0 -82 -15.5t-64 -44t-41.5 -68t-14.5 -87.5t15 -87.5t42.5 -68t65.5 -44t84 -15.5q48 0 87.5 14.5t77.5 46.5v-109q-41 -23 -81 -33.5t-89 -10.5q-69 0 -125.5 22t-97 62.5t-62.5 97t-22 125.5 q0 67 22.5 123.5t63 97.5t97 63.5t124.5 22.5q48 0 86 -9.5t77 -32.5v-112z" />
<glyph unicode="&#x107;" horiz-adv-x="436" d="M394 324q-29 22 -56.5 31.5t-60.5 9.5q-65 0 -103.5 -39t-38.5 -104q0 -66 40 -105.5t106 -39.5q32 0 60 9.5t58 30.5v-94q-33 -17 -63.5 -25t-67.5 -8q-52 0 -95 16.5t-73.5 47t-47.5 73t-17 94.5q0 51 17 94t48 73.5t74 47.5t95 17q35 0 64 -7.5t61 -25.5v-96zM210 513 l85 152h91l-85 -152h-91z" />
<glyph unicode="&#x108;" horiz-adv-x="555" d="M484 640h-85l-62 76l-62 -76h-85l116 143h62zM509 450q-69 62 -163 62q-45 0 -82 -15.5t-64 -44t-41.5 -68t-14.5 -87.5t15 -87.5t42.5 -68t65.5 -44t84 -15.5q48 0 87.5 14.5t77.5 46.5v-109q-41 -23 -81 -33.5t-89 -10.5q-69 0 -125.5 22t-97 62.5t-62.5 97t-22 125.5 q0 67 22.5 123.5t63 97.5t97 63.5t124.5 22.5q48 0 86 -9.5t77 -32.5v-112z" />
<glyph unicode="&#x109;" horiz-adv-x="436" d="M394 324q-29 22 -56.5 31.5t-60.5 9.5q-65 0 -103.5 -39t-38.5 -104q0 -66 40 -105.5t106 -39.5q32 0 60 9.5t58 30.5v-94q-33 -17 -63.5 -25t-67.5 -8q-52 0 -95 16.5t-73.5 47t-47.5 73t-17 94.5q0 51 17 94t48 73.5t74 47.5t95 17q35 0 64 -7.5t61 -25.5v-96zM401 510 h-87l-60 79l-60 -79h-87l116 150h62z" />
<glyph unicode="&#x10a;" horiz-adv-x="555" d="M509 450q-69 62 -163 62q-45 0 -82 -15.5t-64 -44t-41.5 -68t-14.5 -87.5t15 -87.5t42.5 -68t65.5 -44t84 -15.5q48 0 87.5 14.5t77.5 46.5v-109q-41 -23 -81 -33.5t-89 -10.5q-69 0 -125.5 22t-97 62.5t-62.5 97t-22 125.5q0 67 22.5 123.5t63 97.5t97 63.5t124.5 22.5 q48 0 86 -9.5t77 -32.5v-112zM337 762q26 0 44 -18t18 -44t-18.5 -44t-44.5 -18q-25 0 -43 18t-18 44t18 44t44 18z" />
<glyph unicode="&#x10b;" horiz-adv-x="436" d="M257 640q26 0 44 -18t18 -44t-18.5 -44t-44.5 -18q-25 0 -43 18.5t-18 43.5q0 26 18 44t44 18zM394 324q-29 22 -56.5 31.5t-60.5 9.5q-65 0 -103.5 -39t-38.5 -104q0 -66 40 -105.5t106 -39.5q32 0 60 9.5t58 30.5v-94q-33 -17 -63.5 -25t-67.5 -8q-52 0 -95 16.5 t-73.5 47t-47.5 73t-17 94.5q0 51 17 94t48 73.5t74 47.5t95 17q35 0 64 -7.5t61 -25.5v-96z" />
<glyph unicode="&#x10c;" horiz-adv-x="555" d="M368 643h-62l-116 142h85l62 -76l62 76h85zM509 450q-69 62 -163 62q-45 0 -82 -15.5t-64 -44t-41.5 -68t-14.5 -87.5t15 -87.5t42.5 -68t65.5 -44t84 -15.5q48 0 87.5 14.5t77.5 46.5v-109q-41 -23 -81 -33.5t-89 -10.5q-69 0 -125.5 22t-97 62.5t-62.5 97t-22 125.5 q0 67 22.5 123.5t63 97.5t97 63.5t124.5 22.5q48 0 86 -9.5t77 -32.5v-112z" />
<glyph unicode="&#x10d;" horiz-adv-x="436" d="M394 324q-29 22 -56.5 31.5t-60.5 9.5q-65 0 -103.5 -39t-38.5 -104q0 -66 40 -105.5t106 -39.5q32 0 60 9.5t58 30.5v-94q-33 -17 -63.5 -25t-67.5 -8q-52 0 -95 16.5t-73.5 47t-47.5 73t-17 94.5q0 51 17 94t48 73.5t74 47.5t95 17q35 0 64 -7.5t61 -25.5v-96zM286 505 h-62l-116 149h88l59 -80l59 80h88z" />
<glyph unicode="&#x10e;" horiz-adv-x="620" d="M176 84q16 -2 31.5 -3t33.5 -1q112 0 173 58.5t61 166.5q0 100 -61 152.5t-178 52.5q-16 0 -28 -0.5t-32 -2.5v-423zM74 593q40 5 80.5 8t75.5 3q169 0 260 -77.5t91 -221.5q0 -151 -91.5 -232.5t-260.5 -81.5q-41 0 -80 3t-75 8v591zM316 643h-62l-116 142h85l62 -76 l62 76h85z" />
<glyph unicode="&#x10f;" horiz-adv-x="526" d="M360 349q-31 17 -80 17q-67 0 -106 -38.5t-39 -104.5q0 -70 42 -109t119 -39q17 0 32.5 1t31.5 3v270zM458 9q-76 -19 -164 -19q-122 0 -190.5 60.5t-68.5 169.5q0 52 17 95t48.5 73.5t74.5 47.5t96 17q52 0 89 -17v244h98v-671zM622 680l-43 -157h-80l43 157h80z" />
<glyph unicode="&#x110;" horiz-adv-x="632" d="M188 84q16 -2 31.5 -3t33.5 -1q112 0 173 58.5t61 166.5q0 100 -61 152.5t-178 52.5q-16 0 -28 -0.5t-32 -2.5v-164h122v-86h-122v-173zM31 257v86h55v250q40 5 80 8t75 3q170 0 261 -77.5t91 -221.5q0 -151 -91.5 -232.5t-260.5 -81.5q-41 0 -80 3t-75 8v255h-55z" />
<glyph unicode="&#x111;" horiz-adv-x="534" d="M360 349q-31 17 -80 17q-67 0 -106 -38.5t-39 -104.5q0 -70 42 -109t119 -39q17 0 32.5 1t31.5 3v270zM360 680h98v-91h56v-70h-56v-510q-76 -19 -164 -19q-122 0 -190.5 60.5t-68.5 169.5q0 52 17 95t48.5 73.5t74.5 47.5t96 17q52 0 89 -17v83h-119v70h119v91z" />
<glyph unicode="&#x112;" horiz-adv-x="490" d="M443 90v-90h-369v594h363v-90h-262v-160h243v-88h-243v-166h268zM150 725h225v-74h-225v74z" />
<glyph unicode="&#x113;" horiz-adv-x="477" d="M133 601h225v-74h-225v74zM346 263q-6 107 -99 107q-89 0 -113 -107h212zM131 199v-2q0 -26 15 -52.5t41 -43.5q38 -26 92 -26q41 0 75 10t69 33v-87q-64 -41 -155 -41q-53 0 -96 16t-73.5 46t-47 72t-16.5 94t16 95.5t44.5 74.5t68 48t87.5 17q90 0 139 -53.5t49 -150.5 v-50h-308z" />
<glyph unicode="&#x114;" horiz-adv-x="490" d="M443 90v-90h-369v594h363v-90h-262v-160h243v-88h-243v-166h268zM387 776q-5 -133 -123 -133q-58 0 -92 37q-16 18 -22.5 39.5t-8.5 56.5h75q1 -35 12 -50.5t36 -15.5t36 15.5t12 50.5h75z" />
<glyph unicode="&#x115;" horiz-adv-x="477" d="M374 646q-2 -41 -11 -65t-30 -44q-32 -29 -82 -29q-56 0 -90 37q-17 20 -24 42t-9 59h75q1 -70 48 -70t48 70h75zM346 263q-6 107 -99 107q-89 0 -113 -107h212zM131 199v-2q0 -26 15 -52.5t41 -43.5q38 -26 92 -26q41 0 75 10t69 33v-87q-64 -41 -155 -41q-53 0 -96 16 t-73.5 46t-47 72t-16.5 94t16 95.5t44.5 74.5t68 48t87.5 17q90 0 139 -53.5t49 -150.5v-50h-308z" />
<glyph unicode="&#x116;" horiz-adv-x="490" d="M443 90v-90h-369v594h363v-90h-262v-160h243v-88h-243v-166h268zM264 762q26 0 44 -18t18 -44t-18.5 -44t-44.5 -18q-25 0 -43 18t-18 44t18 44t44 18z" />
<glyph unicode="&#x117;" horiz-adv-x="477" d="M253 640q26 0 44 -18t18 -44t-18.5 -44t-44.5 -18q-25 0 -43 18.5t-18 43.5q0 26 18 44t44 18zM346 263q-6 107 -99 107q-89 0 -113 -107h212zM131 199v-2q0 -26 15 -52.5t41 -43.5q38 -26 92 -26q41 0 75 10t69 33v-87q-64 -41 -155 -41q-53 0 -96 16t-73.5 46t-47 72 t-16.5 94t16 95.5t44.5 74.5t68 48t87.5 17q90 0 139 -53.5t49 -150.5v-50h-308z" />
<glyph unicode="&#x118;" horiz-adv-x="490" d="M411 0q-26 -23 -40.5 -46.5t-14.5 -43.5q0 -30 33 -30q22 0 45 10v-69q-13 -5 -27.5 -8t-32.5 -3q-45 0 -70 21t-25 59q0 29 16 59t43 51h-264v594h363v-90h-262v-160h243v-88h-243v-166h268v-90h-32z" />
<glyph unicode="&#x119;" horiz-adv-x="477" d="M346 263q-6 107 -99 107q-89 0 -113 -107h212zM131 199v-2q0 -26 15 -52.5t41 -43.5q38 -26 92 -26q41 0 75 10t69 33v-87q-13 -8 -19 -10t-18 -10q-66 -40 -66 -95q0 -17 9 -26.5t26 -9.5q22 0 45 10v-69q-23 -11 -60 -11q-47 0 -72 21.5t-25 62.5q0 55 47 98h-2h-2 l-4 -1q-5 -1 -9.5 -1h-9.5q-51 0 -93 16.5t-72 46.5t-46.5 72t-16.5 93q0 52 16 95.5t44.5 74.5t68 48t87.5 17q90 0 139 -53.5t49 -150.5v-50h-308z" />
<glyph unicode="&#x11a;" horiz-adv-x="490" d="M443 90v-90h-369v594h363v-90h-262v-160h243v-88h-243v-166h268zM295 643h-62l-116 142h85l62 -76l62 76h85z" />
<glyph unicode="&#x11b;" horiz-adv-x="477" d="M346 263q-6 107 -99 107q-89 0 -113 -107h212zM131 199v-2q0 -26 15 -52.5t41 -43.5q38 -26 92 -26q41 0 75 10t69 33v-87q-64 -41 -155 -41q-53 0 -96 16t-73.5 46t-47 72t-16.5 94t16 95.5t44.5 74.5t68 48t87.5 17q90 0 139 -53.5t49 -150.5v-50h-308zM276 505h-62 l-116 149h88l59 -80l59 80h88z" />
<glyph unicode="&#x11c;" horiz-adv-x="590" d="M486 640h-85l-62 76l-62 -76h-85l116 143h62zM519 450q-71 62 -167 62q-47 0 -85 -15.5t-65.5 -44t-42.5 -68t-15 -87.5t15 -88.5t43 -69t67 -44.5t86 -16q49 0 84 14v180h102v-239q-77 -44 -189 -44q-71 0 -128.5 22t-98.5 62t-63.5 96.5t-22.5 125.5q0 68 22.5 124.5 t63.5 97.5t97.5 63.5t124.5 22.5q49 0 90 -11t82 -34v-109z" />
<glyph unicode="&#x11d;" d="M355 355q-29 11 -69 11q-72 0 -111.5 -37t-39.5 -104q0 -66 38.5 -103.5t105.5 -37.5q20 0 37 3.5t39 11.5v256zM92 -68q39 -20 73 -29.5t71 -9.5q57 0 88 29.5t31 85.5v10q-15 -8 -38 -12.5t-50 -4.5q-54 0 -97 15.5t-73 44.5t-46 70.5t-16 92.5q0 53 17.5 95.5t50 72 t79 45.5t104.5 16q83 0 167 -32v-419q0 -90 -57.5 -141t-157.5 -51q-39 0 -74.5 7.5t-71.5 23.5v91zM426 510h-87l-60 79l-60 -79h-87l116 150h62z" />
<glyph unicode="&#x11e;" horiz-adv-x="590" d="M519 450q-71 62 -167 62q-47 0 -85 -15.5t-65.5 -44t-42.5 -68t-15 -87.5t15 -88.5t43 -69t67 -44.5t86 -16q49 0 84 14v180h102v-239q-77 -44 -189 -44q-71 0 -128.5 22t-98.5 62t-63.5 96.5t-22.5 125.5q0 68 22.5 124.5t63.5 97.5t97.5 63.5t124.5 22.5q49 0 90 -11 t82 -34v-109zM462 776q-5 -133 -123 -133q-58 0 -92 37q-16 18 -22.5 39.5t-8.5 56.5h75q1 -35 12 -50.5t36 -15.5t36 15.5t12 50.5h75z" />
<glyph unicode="&#x11f;" d="M398 646q-2 -41 -11 -65t-30 -44q-32 -29 -82 -29q-56 0 -90 37q-17 20 -24 42t-9 59h75q1 -70 48 -70t48 70h75zM355 355q-29 11 -69 11q-72 0 -111.5 -37t-39.5 -104q0 -66 38.5 -103.5t105.5 -37.5q20 0 37 3.5t39 11.5v256zM92 -68q39 -20 73 -29.5t71 -9.5 q57 0 88 29.5t31 85.5v10q-15 -8 -38 -12.5t-50 -4.5q-54 0 -97 15.5t-73 44.5t-46 70.5t-16 92.5q0 53 17.5 95.5t50 72t79 45.5t104.5 16q83 0 167 -32v-419q0 -90 -57.5 -141t-157.5 -51q-39 0 -74.5 7.5t-71.5 23.5v91z" />
<glyph unicode="&#x120;" horiz-adv-x="590" d="M519 450q-71 62 -167 62q-47 0 -85 -15.5t-65.5 -44t-42.5 -68t-15 -87.5t15 -88.5t43 -69t67 -44.5t86 -16q49 0 84 14v180h102v-239q-77 -44 -189 -44q-71 0 -128.5 22t-98.5 62t-63.5 96.5t-22.5 125.5q0 68 22.5 124.5t63.5 97.5t97.5 63.5t124.5 22.5q49 0 90 -11 t82 -34v-109zM339 762q26 0 44 -18t18 -44t-18.5 -44t-44.5 -18q-25 0 -43 18t-18 44t18 44t44 18z" />
<glyph unicode="&#x121;" d="M275 640q26 0 44 -18t18 -44t-18.5 -44t-44.5 -18q-25 0 -43 18.5t-18 43.5q0 26 18 44t44 18zM355 355q-29 11 -69 11q-72 0 -111.5 -37t-39.5 -104q0 -66 38.5 -103.5t105.5 -37.5q20 0 37 3.5t39 11.5v256zM92 -68q39 -20 73 -29.5t71 -9.5q57 0 88 29.5t31 85.5v10 q-15 -8 -38 -12.5t-50 -4.5q-54 0 -97 15.5t-73 44.5t-46 70.5t-16 92.5q0 53 17.5 95.5t50 72t79 45.5t104.5 16q83 0 167 -32v-419q0 -90 -57.5 -141t-157.5 -51q-39 0 -74.5 7.5t-71.5 23.5v91z" />
<glyph unicode="&#x122;" horiz-adv-x="590" d="M519 450q-71 62 -167 62q-47 0 -85 -15.5t-65.5 -44t-42.5 -68t-15 -87.5t15 -88.5t43 -69t67 -44.5t86 -16q49 0 84 14v180h102v-239q-77 -44 -189 -44q-71 0 -128.5 22t-98.5 62t-63.5 96.5t-22.5 125.5q0 68 22.5 124.5t63.5 97.5t97.5 63.5t124.5 22.5q49 0 90 -11 t82 -34v-109zM395 -42q0 -92 -89 -143h-67q32 34 46 66t14 77h96z" />
<glyph unicode="&#x123;" d="M355 355q-29 11 -69 11q-72 0 -111.5 -37t-39.5 -104q0 -66 38.5 -103.5t105.5 -37.5q20 0 37 3.5t39 11.5v256zM92 -68q39 -20 73 -29.5t71 -9.5q57 0 88 29.5t31 85.5v10q-15 -8 -38 -12.5t-50 -4.5q-54 0 -97 15.5t-73 44.5t-46 70.5t-16 92.5q0 53 17.5 95.5t50 72 t79 45.5t104.5 16q83 0 167 -32v-419q0 -90 -57.5 -141t-157.5 -51q-39 0 -74.5 7.5t-71.5 23.5v91zM230 513q0 49 25 93.5t66 67.5h67q-63 -65 -63 -161h-95z" />
<glyph unicode="&#x124;" horiz-adv-x="659" d="M477 640h-85l-62 76l-62 -76h-85l116 143h62zM483 594h102v-594h-102v254h-307v-254h-102v594h102v-250h307v250z" />
<glyph unicode="&#x125;" horiz-adv-x="519" d="M405 713h-85l-62 76l-62 -76h-85l116 143h62zM68 680h99v-248q55 21 117 21q172 0 172 -168v-285h-98v276q0 87 -97 87q-24 0 -48 -3.5t-46 -11.5v-348h-99v680z" />
<glyph unicode="&#x126;" horiz-adv-x="679" d="M186 408v-98h307v98h-307zM84 594h102v-105h307v105h102v-105h64v-81h-64v-408h-102v226h-307v-226h-102v408h-64v81h64v105z" />
<glyph unicode="&#x127;" horiz-adv-x="527" d="M76 680h99v-91h118v-70h-118v-87q55 21 117 21q172 0 172 -168v-285h-98v276q0 87 -97 87q-24 0 -48 -3.5t-46 -11.5v-348h-99v519h-55v70h55v91z" />
<glyph unicode="&#x128;" horiz-adv-x="250" d="M269 763q-3 -125 -82 -125q-17 0 -32 7t-38 25q-16 13 -25.5 17.5t-17.5 4.5q-27 0 -28 -51h-66q3 125 82 125q17 0 32 -7t38 -25q17 -13 26.5 -17.5t17.5 -4.5q27 0 28 51h65zM176 0h-102v594h102v-594z" />
<glyph unicode="&#x129;" horiz-adv-x="235" d="M262 632q-3 -125 -82 -125q-17 0 -32 7t-38 25q-16 13 -25.5 17.5t-17.5 4.5q-27 0 -28 -51h-66q3 125 82 125q17 0 32 -7t38 -25q17 -13 26.5 -17.5t17.5 -4.5q26 0 28 51h65zM167 0h-99v443h99v-443z" />
<glyph unicode="&#x12a;" horiz-adv-x="250" d="M13 725h225v-74h-225v74zM176 0h-102v594h102v-594z" />
<glyph unicode="&#x12b;" horiz-adv-x="235" d="M6 601h225v-74h-225v74zM167 0h-99v443h99v-443z" />
<glyph unicode="&#x12c;" horiz-adv-x="250" d="M248 776q-5 -133 -123 -133q-58 0 -92 37q-16 18 -22.5 39.5t-8.5 56.5h75q1 -35 12 -50.5t36 -15.5t36 15.5t12 50.5h75zM176 0h-102v594h102v-594z" />
<glyph unicode="&#x12d;" horiz-adv-x="235" d="M241 646q-2 -41 -11 -65t-30 -44q-32 -29 -82 -29q-56 0 -90 37q-17 20 -24 42t-9 59h75q1 -70 48 -70t48 70h75zM167 0h-99v443h99v-443z" />
<glyph unicode="&#x12e;" horiz-adv-x="250" d="M176 0q-67 -46 -67 -91q0 -29 33 -29q23 0 44 10v-69q-23 -11 -59 -11q-46 0 -71 21.5t-25 59.5q0 63 64 109h-21v594h102v-594z" />
<glyph unicode="&#x12f;" horiz-adv-x="235" d="M68 443h99v-443q-70 -40 -70 -88q0 -32 32 -32q23 0 43 10v-69q-27 -11 -59 -11q-44 0 -69 21.5t-25 59.5q0 66 73 109h-24v443zM117 644q26 0 44 -18.5t18 -43.5q0 -26 -18 -44t-44 -18q-25 0 -43.5 18.5t-18.5 43.5t18.5 43.5t43.5 18.5z" />
<glyph unicode="&#x130;" horiz-adv-x="250" d="M125 762q26 0 44 -18t18 -44t-18.5 -44t-44.5 -18q-25 0 -43 18t-18 44t18 44t44 18zM176 0h-102v594h102v-594z" />
<glyph unicode="&#x131;" horiz-adv-x="235" d="M167 0h-99v443h99v-443z" />
<glyph unicode="&#x132;" horiz-adv-x="628" d="M267 138q29 -29 58.5 -42.5t63.5 -13.5q39 0 57 20t18 63v429h102v-442q0 -78 -43.5 -120t-124.5 -42q-41 0 -71.5 10t-59.5 33v105zM176 0h-102v594h102v-594z" />
<glyph unicode="&#x133;" horiz-adv-x="470" d="M352 640q26 0 44 -18t18 -43q0 -26 -18 -44.5t-44 -18.5t-44 18.5t-18 44.5q0 25 18 43t44 18zM176 -91q31 -15 65 -15q33 0 47.5 17.5t14.5 55.5v476h99v-489q0 -69 -38.5 -106.5t-110.5 -37.5q-38 0 -77 14v85zM117 640q26 0 44 -18t18 -43q0 -26 -18 -44.5t-44 -18.5 t-44 18.5t-18 44.5q0 25 18 43t44 18zM167 0h-99v443h99v-443z" />
<glyph unicode="&#x134;" horiz-adv-x="378" d="M412 640h-85l-62 76l-62 -76h-85l116 143h62zM17 138q29 -29 58.5 -42.5t63.5 -13.5q39 0 57 20t18 63v429h102v-442q0 -78 -43.5 -120t-124.5 -42q-41 0 -71.5 10t-59.5 33v105z" />
<glyph unicode="&#x135;" horiz-adv-x="235" d="M263 504h-87l-60 79l-60 -79h-87l116 150h62zM-59 -91q31 -15 65 -15q33 0 47.5 17.5t14.5 55.5v476h99v-489q0 -69 -38.5 -106.5t-110.5 -37.5q-38 0 -77 14v85z" />
<glyph unicode="&#x136;" horiz-adv-x="546" d="M407 594h122l-233 -292l249 -302h-124l-241 293zM74 594h102v-594h-102v594zM333 -42q0 -92 -89 -143h-67q32 34 46 66t14 77h96z" />
<glyph unicode="&#x137;" horiz-adv-x="489" d="M167 0h-99v680h99v-680zM171 240l187 203h122l-195 -201l199 -242h-118zM308 -42q0 -92 -89 -143h-67q32 34 46 66t14 77h96z" />
<glyph unicode="&#x138;" horiz-adv-x="489" d="M167 0h-99v443h99v-443zM171 240l187 203h122l-195 -201l199 -242h-118z" />
<glyph unicode="&#x139;" horiz-adv-x="438" d="M74 594h102v-504h242v-90h-344v594zM79 644l79 141h91l-79 -141h-91z" />
<glyph unicode="&#x13a;" horiz-adv-x="235" d="M167 0h-99v680h99v-680zM70 722l79 141h91l-79 -141h-91z" />
<glyph unicode="&#x13b;" horiz-adv-x="438" d="M74 594h102v-504h242v-90h-344v594zM299 -42q0 -92 -89 -143h-67q32 34 46 66t14 77h96z" />
<glyph unicode="&#x13c;" horiz-adv-x="235" d="M167 0h-99v680h99v-680zM168 -42q0 -92 -89 -143h-67q32 34 46 66t14 77h96z" />
<glyph unicode="&#x13d;" horiz-adv-x="438" d="M74 594h102v-504h242v-90h-344v594zM391 594l-43 -157h-80l43 157h80z" />
<glyph unicode="&#x13e;" horiz-adv-x="235" d="M167 0h-99v680h99v-680zM331 680l-43 -157h-80l43 157h80z" />
<glyph unicode="&#x13f;" horiz-adv-x="444" d="M331 387q26 0 44 -18t18 -44t-18.5 -44t-44.5 -18q-25 0 -43 18.5t-18 43.5q0 26 18 44t44 18zM74 594h102v-504h242v-90h-344v594z" />
<glyph unicode="&#x140;" horiz-adv-x="352" d="M291 398q26 0 44 -18t18 -44t-18.5 -44t-44.5 -18q-25 0 -43 18.5t-18 43.5q0 26 18 44t44 18zM167 0h-99v680h99v-680z" />
<glyph unicode="&#x141;" horiz-adv-x="445" d="M20 297l60 22v275h103v-242l127 47v-88l-127 -47v-174h242v-90h-345v232l-60 -23v88z" />
<glyph unicode="&#x142;" horiz-adv-x="273" d="M184 418l71 47v-81l-71 -48v-336h-98v286l-68 -45v82l68 45v312h98v-262z" />
<glyph unicode="&#x143;" horiz-adv-x="650" d="M477 155v439h99v-594h-98l-305 435v-435h-99v594h104zM275 644l79 141h91l-79 -141h-91z" />
<glyph unicode="&#x144;" horiz-adv-x="519" d="M68 415q105 38 203 38q94 0 139.5 -41t45.5 -127v-285h-98v276q0 87 -97 87q-51 0 -94 -13v-350h-99v415zM211 513l85 152h91l-85 -152h-91z" />
<glyph unicode="&#x145;" horiz-adv-x="650" d="M477 155v439h99v-594h-98l-305 435v-435h-99v594h104zM377 -42q0 -92 -89 -143h-67q32 34 46 66t14 77h96z" />
<glyph unicode="&#x146;" horiz-adv-x="519" d="M68 415q105 38 203 38q94 0 139.5 -41t45.5 -127v-285h-98v276q0 87 -97 87q-51 0 -94 -13v-350h-99v415zM313 -42q0 -92 -89 -143h-67q32 34 46 66t14 77h96z" />
<glyph unicode="&#x147;" horiz-adv-x="650" d="M477 155v439h99v-594h-98l-305 435v-435h-99v594h104zM358 643h-62l-116 142h85l62 -76l62 76h85z" />
<glyph unicode="&#x148;" horiz-adv-x="519" d="M68 415q105 38 203 38q94 0 139.5 -41t45.5 -127v-285h-98v276q0 87 -97 87q-51 0 -94 -13v-350h-99v415zM293 505h-62l-116 149h88l59 -80l59 80h88z" />
<glyph unicode="&#x14a;" horiz-adv-x="650" d="M576 -28q0 -78 -43.5 -120t-124.5 -42q-41 0 -71.5 10t-59.5 33v102q29 -29 58.5 -42.5t63.5 -13.5q39 0 57 20t18 63v24l-301 429v-435h-99v594h104l299 -439v439h99v-622z" />
<glyph unicode="&#x14b;" horiz-adv-x="519" d="M231 -91q33 -15 65 -15t47 17.5t15 55.5v309q0 87 -97 87q-51 0 -94 -13v-350h-99v415q105 38 203 38q94 0 139.5 -41t45.5 -127v-331q0 -69 -38 -106.5t-110 -37.5q-41 0 -77 14v85z" />
<glyph unicode="&#x14c;" horiz-adv-x="694" d="M347 512q-44 0 -81.5 -16t-64.5 -44.5t-42 -68t-15 -86.5t15 -86.5t42 -68t64.5 -44.5t81.5 -16q45 0 82 16t64 44.5t42 68.5t15 88q0 46 -15.5 85t-42.5 67.5t-64 44.5t-81 16zM347 604q66 0 122.5 -23t98 -64.5t64.5 -97.5t23 -122t-23 -122t-64.5 -97.5t-98 -64.5 t-122.5 -23q-67 0 -123.5 23t-97.5 64.5t-64 98t-23 124.5q0 65 23.5 121t64.5 96.5t97.5 63.5t122.5 23zM235 725h225v-74h-225v74z" />
<glyph unicode="&#x14d;" horiz-adv-x="527" d="M263 368q-57 0 -92.5 -40.5t-35.5 -106.5q0 -33 9.5 -59.5t26 -46t40 -30t52.5 -10.5q59 0 94 40.5t35 107.5q0 65 -35.5 105t-93.5 40zM263 453q51 0 93 -17t72 -48t47 -73.5t17 -93.5t-17 -93.5t-47.5 -73t-72.5 -47.5t-92 -17q-51 0 -93 17t-72 47.5t-46.5 73.5 t-16.5 95q0 50 17 92.5t47 73t72 47.5t92 17zM151 601h225v-74h-225v74z" />
<glyph unicode="&#x14e;" horiz-adv-x="694" d="M347 512q-44 0 -81.5 -16t-64.5 -44.5t-42 -68t-15 -86.5t15 -86.5t42 -68t64.5 -44.5t81.5 -16q45 0 82 16t64 44.5t42 68.5t15 88q0 46 -15.5 85t-42.5 67.5t-64 44.5t-81 16zM347 604q66 0 122.5 -23t98 -64.5t64.5 -97.5t23 -122t-23 -122t-64.5 -97.5t-98 -64.5 t-122.5 -23q-67 0 -123.5 23t-97.5 64.5t-64 98t-23 124.5q0 65 23.5 121t64.5 96.5t97.5 63.5t122.5 23zM470 776q-5 -133 -123 -133q-58 0 -92 37q-16 18 -22.5 39.5t-8.5 56.5h75q1 -35 12 -50.5t36 -15.5t36 15.5t12 50.5h75z" />
<glyph unicode="&#x14f;" horiz-adv-x="527" d="M386 646q-2 -41 -11 -65t-30 -44q-32 -29 -82 -29q-56 0 -90 37q-17 20 -24 42t-9 59h75q1 -70 48 -70t48 70h75zM263 368q-57 0 -92.5 -40.5t-35.5 -106.5q0 -33 9.5 -59.5t26 -46t40 -30t52.5 -10.5q59 0 94 40.5t35 107.5q0 65 -35.5 105t-93.5 40zM263 453 q51 0 93 -17t72 -48t47 -73.5t17 -93.5t-17 -93.5t-47.5 -73t-72.5 -47.5t-92 -17q-51 0 -93 17t-72 47.5t-46.5 73.5t-16.5 95q0 50 17 92.5t47 73t72 47.5t92 17z" />
<glyph unicode="&#x150;" horiz-adv-x="694" d="M367 644l79 141h84l-79 -141h-84zM235 644l79 141h84l-79 -141h-84zM347 512q-44 0 -81.5 -16t-64.5 -44.5t-42 -68t-15 -86.5t15 -86.5t42 -68t64.5 -44.5t81.5 -16q45 0 82 16t64 44.5t42 68.5t15 88q0 46 -15.5 85t-42.5 67.5t-64 44.5t-81 16zM347 604 q66 0 122.5 -23t98 -64.5t64.5 -97.5t23 -122t-23 -122t-64.5 -97.5t-98 -64.5t-122.5 -23q-67 0 -123.5 23t-97.5 64.5t-64 98t-23 124.5q0 65 23.5 121t64.5 96.5t97.5 63.5t122.5 23z" />
<glyph unicode="&#x151;" horiz-adv-x="527" d="M284 513l85 152h84l-85 -152h-84zM263 368q-57 0 -92.5 -40.5t-35.5 -106.5q0 -33 9.5 -59.5t26 -46t40 -30t52.5 -10.5q59 0 94 40.5t35 107.5q0 65 -35.5 105t-93.5 40zM263 453q51 0 93 -17t72 -48t47 -73.5t17 -93.5t-17 -93.5t-47.5 -73t-72.5 -47.5t-92 -17 q-51 0 -93 17t-72 47.5t-46.5 73.5t-16.5 95q0 50 17 92.5t47 73t72 47.5t92 17zM152 513l85 152h84l-85 -152h-84z" />
<glyph unicode="&#x152;" horiz-adv-x="813" d="M347 505q-45 0 -82.5 -15t-64 -42.5t-41.5 -66t-15 -84.5t15 -84.5t41.5 -66t64 -42.5t82.5 -15h50v416h-50zM347 0q-67 0 -123.5 22t-97.5 61.5t-64 94t-23 119.5t23 119.5t64 94t97.5 61.5t123.5 22h413v-90h-262v-160h242v-88h-242v-166h268v-90h-419z" />
<glyph unicode="&#x153;" horiz-adv-x="831" d="M700 263q-6 107 -99 107q-89 0 -113 -107h212zM263 368q-57 0 -92.5 -40.5t-35.5 -106.5q0 -33 9.5 -59.5t26 -46t40 -30t52.5 -10.5q59 0 94 40.5t35 107.5q0 65 -35.5 105t-93.5 40zM777 31q-64 -41 -154 -41q-119 0 -184 80q-31 -38 -77 -59t-100 -21q-50 0 -91.5 17 t-71.5 48t-47 73t-17 93t17 93.5t47 73.5t72 48t92 17q54 0 100 -21t76 -60q63 81 167 81q89 0 138 -53.5t49 -150.5v-50h-308v-2q0 -26 15 -52.5t41 -43.5q38 -26 92 -26q41 0 74.5 10t69.5 33v-87z" />
<glyph unicode="&#x154;" horiz-adv-x="524" d="M206 644l79 141h91l-79 -141h-91zM176 295h50q65 0 99 28.5t34 82.5t-35.5 81.5t-102.5 27.5q-10 0 -22 -0.5t-23 -1.5v-218zM176 0h-102v593q32 5 72 8t74 3q118 0 180.5 -49.5t62.5 -143.5q0 -127 -118 -177l179 -234h-123l-158 211h-67v-211z" />
<glyph unicode="&#x155;" horiz-adv-x="343" d="M167 0h-99v406q42 23 84.5 33.5t90.5 10.5q23 0 41.5 -2.5t41.5 -8.5v-96q-38 14 -83 14q-22 0 -39 -3t-37 -11v-343zM158 513l85 152h91l-85 -152h-91z" />
<glyph unicode="&#x156;" horiz-adv-x="524" d="M176 295h50q65 0 99 28.5t34 82.5t-35.5 81.5t-102.5 27.5q-10 0 -22 -0.5t-23 -1.5v-218zM176 0h-102v593q32 5 72 8t74 3q118 0 180.5 -49.5t62.5 -143.5q0 -127 -118 -177l179 -234h-123l-158 211h-67v-211zM321 -42q0 -92 -89 -143h-67q32 34 46 66t14 77h96z" />
<glyph unicode="&#x157;" horiz-adv-x="343" d="M167 0h-99v406q42 23 84.5 33.5t90.5 10.5q23 0 41.5 -2.5t41.5 -8.5v-96q-38 14 -83 14q-22 0 -39 -3t-37 -11v-343zM165 -42q0 -92 -89 -143h-67q32 34 46 66t14 77h96z" />
<glyph unicode="&#x158;" horiz-adv-x="524" d="M176 295h50q65 0 99 28.5t34 82.5t-35.5 81.5t-102.5 27.5q-10 0 -22 -0.5t-23 -1.5v-218zM176 0h-102v593q32 5 72 8t74 3q118 0 180.5 -49.5t62.5 -143.5q0 -127 -118 -177l179 -234h-123l-158 211h-67v-211zM289 643h-62l-116 142h85l62 -76l62 76h85z" />
<glyph unicode="&#x159;" horiz-adv-x="343" d="M167 0h-99v406q42 23 84.5 33.5t90.5 10.5q23 0 41.5 -2.5t41.5 -8.5v-96q-38 14 -83 14q-22 0 -39 -3t-37 -11v-343zM237 505h-62l-116 149h88l59 -80l59 80h88z" />
<glyph unicode="&#x15a;" horiz-adv-x="442" d="M171 644l79 141h91l-79 -141h-91zM40 138q45 -33 80 -47t77 -14q53 0 81.5 22t28.5 61q0 18 -5 31.5t-17.5 24.5t-33.5 20.5t-53 19.5q-45 15 -77 31.5t-51.5 37.5t-28.5 47.5t-9 59.5q0 39 13.5 71t38.5 54.5t60 34.5t79 12q42 0 78 -11t72 -34v-102q-42 32 -75.5 46 t-72.5 14q-43 0 -68 -21t-25 -56q0 -17 5 -29.5t17.5 -23t33.5 -20t53 -19.5q47 -15 71 -27t44 -30q51 -44 51 -123q0 -85 -54.5 -131.5t-154.5 -46.5q-91 0 -158 44v104z" />
<glyph unicode="&#x15b;" horiz-adv-x="391" d="M48 120q69 -50 136 -50q72 0 72 51q0 24 -17.5 37.5t-65.5 25.5q-20 5 -33.5 9.5t-23.5 8.5t-17.5 9t-15.5 11q-41 32 -41 95q0 65 42 100.5t118 35.5q36 0 65 -8t60 -26v-91q-35 24 -63 34.5t-60 10.5t-49.5 -13.5t-17.5 -37.5q0 -28 27 -41q7 -3 12 -5.5t12.5 -5 t19.5 -6t33 -8.5q55 -14 83 -46.5t28 -82.5q0 -66 -43.5 -101.5t-122.5 -35.5q-80 0 -138 36v94zM153 513l85 152h91l-85 -152h-91z" />
<glyph unicode="&#x15c;" horiz-adv-x="442" d="M370 640h-85l-62 76l-62 -76h-85l116 143h62zM40 138q45 -33 80 -47t77 -14q53 0 81.5 22t28.5 61q0 18 -5 31.5t-17.5 24.5t-33.5 20.5t-53 19.5q-45 15 -77 31.5t-51.5 37.5t-28.5 47.5t-9 59.5q0 39 13.5 71t38.5 54.5t60 34.5t79 12q42 0 78 -11t72 -34v-102 q-42 32 -75.5 46t-72.5 14q-43 0 -68 -21t-25 -56q0 -17 5 -29.5t17.5 -23t33.5 -20t53 -19.5q47 -15 71 -27t44 -30q51 -44 51 -123q0 -85 -54.5 -131.5t-154.5 -46.5q-91 0 -158 44v104z" />
<glyph unicode="&#x15d;" horiz-adv-x="391" d="M48 120q69 -50 136 -50q72 0 72 51q0 24 -17.5 37.5t-65.5 25.5q-20 5 -33.5 9.5t-23.5 8.5t-17.5 9t-15.5 11q-41 32 -41 95q0 65 42 100.5t118 35.5q36 0 65 -8t60 -26v-91q-35 24 -63 34.5t-60 10.5t-49.5 -13.5t-17.5 -37.5q0 -28 27 -41q7 -3 12 -5.5t12.5 -5 t19.5 -6t33 -8.5q55 -14 83 -46.5t28 -82.5q0 -66 -43.5 -101.5t-122.5 -35.5q-80 0 -138 36v94zM348 510h-87l-60 79l-60 -79h-87l116 150h62z" />
<glyph unicode="&#x15e;" horiz-adv-x="442" d="M267 -3q-4 -45 -23.5 -84t-46.5 -59h-89q32 29 51.5 64t24.5 72q-42 2 -78.5 13t-65.5 31v104q45 -33 80 -47t77 -14q53 0 81.5 22t28.5 61q0 18 -5 31.5t-17.5 24.5t-33.5 20.5t-53 19.5q-45 15 -77 31.5t-51.5 37.5t-28.5 47.5t-9 59.5q0 39 13.5 71t38.5 54.5t60 34.5 t79 12q42 0 78 -11t72 -34v-102q-42 32 -75.5 46t-72.5 14q-43 0 -68 -21t-25 -56q0 -17 5 -29.5t17.5 -23t33.5 -20t53 -19.5q47 -15 71 -27t44 -30q51 -44 51 -123q0 -68 -35.5 -108t-101.5 -62z" />
<glyph unicode="&#x15f;" horiz-adv-x="391" d="M327 328q-35 24 -63 34.5t-60 10.5t-49.5 -13.5t-17.5 -37.5q0 -28 27 -41q7 -3 12 -5.5t12.5 -5t19.5 -6t33 -8.5q55 -14 83 -46.5t28 -82.5q0 -107 -111 -131q-5 -45 -24 -84t-46 -58h-89q32 29 51.5 64.5t24.5 72.5q-32 3 -60.5 12t-49.5 23v94q69 -50 136 -50 q72 0 72 51q0 24 -17.5 37.5t-65.5 25.5q-20 5 -33.5 9.5t-23.5 8.5t-17.5 9t-15.5 11q-41 32 -41 95q0 65 42 100.5t118 35.5q36 0 65 -8t60 -26v-91z" />
<glyph unicode="&#x160;" horiz-adv-x="442" d="M254 643h-62l-116 142h85l62 -76l62 76h85zM40 138q45 -33 80 -47t77 -14q53 0 81.5 22t28.5 61q0 18 -5 31.5t-17.5 24.5t-33.5 20.5t-53 19.5q-45 15 -77 31.5t-51.5 37.5t-28.5 47.5t-9 59.5q0 39 13.5 71t38.5 54.5t60 34.5t79 12q42 0 78 -11t72 -34v-102 q-42 32 -75.5 46t-72.5 14q-43 0 -68 -21t-25 -56q0 -17 5 -29.5t17.5 -23t33.5 -20t53 -19.5q47 -15 71 -27t44 -30q51 -44 51 -123q0 -85 -54.5 -131.5t-154.5 -46.5q-91 0 -158 44v104z" />
<glyph unicode="&#x161;" horiz-adv-x="391" d="M48 120q69 -50 136 -50q72 0 72 51q0 24 -17.5 37.5t-65.5 25.5q-20 5 -33.5 9.5t-23.5 8.5t-17.5 9t-15.5 11q-41 32 -41 95q0 65 42 100.5t118 35.5q36 0 65 -8t60 -26v-91q-35 24 -63 34.5t-60 10.5t-49.5 -13.5t-17.5 -37.5q0 -28 27 -41q7 -3 12 -5.5t12.5 -5 t19.5 -6t33 -8.5q55 -14 83 -46.5t28 -82.5q0 -66 -43.5 -101.5t-122.5 -35.5q-80 0 -138 36v94zM229 505h-62l-116 149h88l59 -80l59 80h88z" />
<glyph unicode="&#x162;" horiz-adv-x="507" d="M305 0h-102v504h-188v90h477v-90h-187v-504zM302 -42q0 -92 -89 -143h-67q32 34 46 66t14 77h96z" />
<glyph unicode="&#x163;" horiz-adv-x="343" d="M8 443h67v108h98v-108h126v-83h-126v-211q0 -71 61 -71q20 0 39 5.5t42 19.5v-89q-50 -24 -106 -24q-66 0 -100 35t-34 102v233h-67v83zM257 -42q0 -92 -89 -143h-67q32 34 46 66t14 77h96z" />
<glyph unicode="&#x164;" horiz-adv-x="507" d="M305 0h-102v504h-188v90h477v-90h-187v-504zM285 643h-62l-116 142h85l62 -76l62 76h85z" />
<glyph unicode="&#x165;" horiz-adv-x="343" d="M8 443h67v108h98v-108h126v-83h-126v-211q0 -71 61 -71q20 0 39 5.5t42 19.5v-89q-50 -24 -106 -24q-66 0 -100 35t-34 102v233h-67v83zM340 664l-43 -157h-80l43 157h80z" />
<glyph unicode="&#x166;" horiz-adv-x="507" d="M203 504h-188v90h477v-90h-187v-154h106v-86h-106v-264h-102v264h-106v86h106v154z" />
<glyph unicode="&#x167;" horiz-adv-x="352" d="M303 283v-74h-126v-63q0 -71 62 -71q20 0 39 5.5t42 19.5v-86q-26 -13 -51.5 -18.5t-54.5 -5.5q-66 0 -100 35t-34 102v82h-67v74h67v85h-67v75h67v108h97v-108h126v-75h-126v-85h126z" />
<glyph unicode="&#x168;" horiz-adv-x="606" d="M532 17q-50 -13 -108 -20t-111 -7q-250 0 -250 213v391h102v-373q0 -76 35.5 -110t114.5 -34q29 0 56 2.5t59 7.5v507h102v-577zM442 763q-3 -125 -82 -125q-17 0 -32 7t-38 25q-16 13 -25.5 17.5t-17.5 4.5q-27 0 -28 -51h-66q3 125 82 125q17 0 32 -7t38 -25 q17 -13 26.5 -17.5t17.5 -4.5q27 0 28 51h65z" />
<glyph unicode="&#x169;" horiz-adv-x="505" d="M392 632q-3 -125 -82 -125q-17 0 -32 7t-38 25q-16 13 -25.5 17.5t-17.5 4.5q-27 0 -28 -51h-66q3 125 82 125q17 0 32 -7t38 -25q17 -13 26.5 -17.5t17.5 -4.5q26 0 28 51h65zM436 10q-86 -20 -172 -20q-106 0 -155.5 40t-49.5 125v288h98v-281q0 -90 105 -90q34 0 76 6 v365h98v-433z" />
<glyph unicode="&#x16a;" horiz-adv-x="606" d="M532 17q-50 -13 -108 -20t-111 -7q-250 0 -250 213v391h102v-373q0 -76 35.5 -110t114.5 -34q29 0 56 2.5t59 7.5v507h102v-577zM185 725h225v-74h-225v74z" />
<glyph unicode="&#x16b;" horiz-adv-x="505" d="M135 601h225v-74h-225v74zM436 10q-86 -20 -172 -20q-106 0 -155.5 40t-49.5 125v288h98v-281q0 -90 105 -90q34 0 76 6v365h98v-433z" />
<glyph unicode="&#x16c;" horiz-adv-x="606" d="M532 17q-50 -13 -108 -20t-111 -7q-250 0 -250 213v391h102v-373q0 -76 35.5 -110t114.5 -34q29 0 56 2.5t59 7.5v507h102v-577zM420 776q-5 -133 -123 -133q-58 0 -92 37q-16 18 -22.5 39.5t-8.5 56.5h75q1 -35 12 -50.5t36 -15.5t36 15.5t12 50.5h75z" />
<glyph unicode="&#x16d;" horiz-adv-x="505" d="M370 646q-2 -41 -11 -65t-30 -44q-32 -29 -82 -29q-56 0 -90 37q-17 20 -24 42t-9 59h75q1 -70 48 -70t48 70h75zM436 10q-86 -20 -172 -20q-106 0 -155.5 40t-49.5 125v288h98v-281q0 -90 105 -90q34 0 76 6v365h98v-433z" />
<glyph unicode="&#x16e;" horiz-adv-x="606" d="M298 760q-19 0 -30.5 -11t-11.5 -30q0 -20 11.5 -31t30.5 -11t30.5 11.5t11.5 30.5q0 18 -11.5 29.5t-30.5 11.5zM298 809q41 0 67 -25t26 -65t-26 -65.5t-67 -25.5q-42 0 -68 25.5t-26 66.5q0 38 26.5 63.5t67.5 25.5zM532 17q-50 -13 -108 -20t-111 -7q-250 0 -250 213 v391h102v-373q0 -76 35.5 -110t114.5 -34q29 0 56 2.5t59 7.5v507h102v-577z" />
<glyph unicode="&#x16f;" horiz-adv-x="505" d="M436 10q-86 -20 -172 -20q-106 0 -155.5 40t-49.5 125v288h98v-281q0 -90 105 -90q34 0 76 6v365h98v-433zM248 626q-20 0 -31 -11t-11 -31t11 -31t31 -11q19 0 30.5 11.5t11.5 31.5q0 18 -11.5 29.5t-30.5 11.5zM248 674q41 0 67 -25t26 -65t-26 -65t-67 -25 q-42 0 -68 25.5t-26 65.5q0 38 26.5 63.5t67.5 25.5z" />
<glyph unicode="&#x170;" horiz-adv-x="606" d="M318 644l79 141h84l-79 -141h-84zM186 644l79 141h84l-79 -141h-84zM532 17q-50 -13 -108 -20t-111 -7q-250 0 -250 213v391h102v-373q0 -76 35.5 -110t114.5 -34q29 0 56 2.5t59 7.5v507h102v-577z" />
<glyph unicode="&#x171;" horiz-adv-x="505" d="M266 513l85 152h84l-85 -152h-84zM134 513l85 152h84l-85 -152h-84zM436 10q-86 -20 -172 -20q-106 0 -155.5 40t-49.5 125v288h98v-281q0 -90 105 -90q34 0 76 6v365h98v-433z" />
<glyph unicode="&#x172;" horiz-adv-x="606" d="M525 -179q-23 -11 -59 -11q-45 0 -70.5 21t-25.5 59q0 59 61 109q-32 -5 -60 -7t-56 -2q-252 0 -252 213v391h102v-373q0 -76 35.5 -110t114.5 -34q29 0 56 2.5t59 7.5v507h102v-577q-44 -33 -64 -59.5t-20 -49.5q0 -28 32 -28q24 0 45 10v-69z" />
<glyph unicode="&#x173;" horiz-adv-x="505" d="M436 -179q-23 -11 -59 -11q-46 0 -71 21.5t-25 60.5q0 58 57 103q-23 -2 -41 -3.5t-33 -1.5q-106 0 -155.5 40t-49.5 125v288h98v-281q0 -90 105 -90q34 0 76 6v365h98v-433q-40 -29 -58.5 -53.5t-18.5 -47.5q0 -29 32 -29q24 0 45 10v-69z" />
<glyph unicode="&#x174;" horiz-adv-x="815" d="M554 640h-85l-62 76l-62 -76h-85l116 143h62zM463 594l119 -483l118 483h100l-152 -594h-130l-111 459l-112 -459h-129l-151 594h103l118 -483l118 483h109z" />
<glyph unicode="&#x175;" horiz-adv-x="671" d="M475 103l93 340h98l-130 -443h-111l-90 321l-90 -321h-110l-130 443h102l92 -340l93 340h89zM482 510h-87l-60 79l-60 -79h-87l116 150h62z" />
<glyph unicode="&#x176;" horiz-adv-x="542" d="M418 640h-85l-62 76l-62 -76h-85l116 143h62zM424 594h113l-215 -367v-227h-102v227l-215 367h113l154 -271z" />
<glyph unicode="&#x177;" horiz-adv-x="468" d="M384 510h-87l-60 79l-60 -79h-87l116 150h62zM237 94l124 349h102l-240 -623h-97l62 160l-183 463h106z" />
<glyph unicode="&#x178;" horiz-adv-x="542" d="M357 755q25 0 42.5 -17.5t17.5 -42.5t-17.5 -42.5t-43.5 -17.5q-24 0 -41.5 17.5t-17.5 42.5t17.5 42.5t42.5 17.5zM185 755q25 0 42.5 -17.5t17.5 -42.5t-17.5 -42.5t-43.5 -17.5q-24 0 -41.5 17.5t-17.5 42.5t17.5 42.5t42.5 17.5zM424 594h113l-215 -367v-227h-102 v227l-215 367h113l154 -271z" />
<glyph unicode="&#x179;" horiz-adv-x="493" d="M199 644l79 141h91l-79 -141h-91zM37 594h420v-89l-314 -415h323v-90h-438v90l309 414h-300v90z" />
<glyph unicode="&#x17a;" horiz-adv-x="421" d="M392 0h-360v81l230 280h-221v82h339v-83l-233 -278h245v-82zM167 513l85 152h91l-85 -152h-91z" />
<glyph unicode="&#x17b;" horiz-adv-x="493" d="M37 594h420v-89l-314 -415h323v-90h-438v90l309 414h-300v90zM252 762q26 0 44 -18t18 -44t-18.5 -44t-44.5 -18q-25 0 -43 18t-18 44t18 44t44 18z" />
<glyph unicode="&#x17c;" horiz-adv-x="421" d="M219 640q26 0 44 -18t18 -44t-18.5 -44t-44.5 -18q-25 0 -43 18.5t-18 43.5q0 26 18 44t44 18zM392 0h-360v81l230 280h-221v82h339v-83l-233 -278h245v-82z" />
<glyph unicode="&#x17d;" horiz-adv-x="493" d="M37 594h420v-89l-314 -415h323v-90h-438v90l309 414h-300v90zM282 643h-62l-116 142h85l62 -76l62 76h85z" />
<glyph unicode="&#x17e;" horiz-adv-x="421" d="M392 0h-360v81l230 280h-221v82h339v-83l-233 -278h245v-82zM249 505h-62l-116 149h88l59 -80l59 80h88z" />
<glyph unicode="&#x192;" horiz-adv-x="364" d="M113 440q24 164 156 164q39 0 69 -17v-94q-15 11 -29 15.5t-31 4.5q-55 0 -67 -76l-18 -116h92v-82h-105l-55 -359h-98l55 359h-62v82h75z" />
<glyph unicode="&#x1fa;" horiz-adv-x="599" d="M254 752l53 95h91l-53 -95h-91zM298 673q-20 0 -32 -11t-12 -28t12.5 -27.5t31.5 -10.5q20 0 32 10.5t12 27.5t-12 28t-32 11zM399 224l-101 274l-102 -274h203zM593 0h-111l-52 140h-265l-52 -140h-108l222 572q-28 25 -28 62q0 38 27.5 63t71.5 25t72 -25t28 -63 q0 -37 -28 -62z" />
<glyph unicode="&#x1fb;" horiz-adv-x="449" d="M291 194h-42q-56 0 -85 -17t-29 -49q0 -31 26 -47t75 -16q12 0 26.5 1.5t28.5 3.5v124zM291 297q0 34 -22.5 52t-64.5 18q-32 0 -61.5 -8t-64.5 -28v86q35 19 69.5 27.5t75.5 8.5q165 0 165 -151v-293q-35 -9 -74.5 -13.5t-78.5 -4.5q-98 0 -148 34t-50 100t52.5 100.5 t152.5 34.5h49v37zM227 600q-18 0 -30 -10t-12 -27q0 -16 11.5 -26t30.5 -10t30.5 10t11.5 26q0 17 -12 27t-30 10zM227 645q42 0 68.5 -23t26.5 -59t-26.5 -59t-68.5 -23t-68.5 23t-26.5 60q0 35 26.5 58t68.5 23zM273 677h-91l52 92h91z" />
<glyph unicode="&#x1fc;" horiz-adv-x="842" d="M507 644l79 141h91l-79 -141h-91zM426 518l-177 -294h177v294zM199 140l-84 -140h-110l359 594h426v-90h-262v-160h242v-88h-242v-166h267v-90h-369v140h-227z" />
<glyph unicode="&#x1fd;" horiz-adv-x="735" d="M318 513l85 152h91l-85 -152h-91zM247 192q-112 0 -112 -68q0 -28 20.5 -44t55.5 -16q65 0 107 47q-8 19 -13 38t-7 43h-51zM604 256q-7 114 -98 114q-47 0 -77.5 -30t-38.5 -84h214zM389 192q8 -56 46 -86.5t101 -30.5q42 0 75.5 10t69.5 33v-87q-64 -41 -155 -41 q-52 0 -94.5 15.5t-72.5 46.5q-69 -62 -158 -62q-75 0 -119.5 35.5t-44.5 95.5q0 66 52.5 100.5t152.5 34.5h57q1 8 2.5 16t3.5 18q-6 78 -94 78q-36 0 -66.5 -8.5t-66.5 -28.5v86q35 19 69.5 27.5t73.5 8.5q97 0 137 -63q58 63 150 63q90 0 139.5 -55t49.5 -155v-51h-308z " />
<glyph unicode="&#x1fe;" horiz-adv-x="700" d="M297 644l79 141h91l-79 -141h-91zM470 475q-28 20 -56.5 29.5t-63.5 9.5q-45 0 -82.5 -16.5t-64.5 -45.5t-42.5 -68.5t-15.5 -86.5q0 -39 9.5 -71.5t29.5 -61.5zM229 118q29 -20 57.5 -29t63.5 -9q44 0 81.5 16t65 45t43 69t15.5 87q0 38 -9.5 69.5t-30.5 62.5zM582 504 q39 -47 57.5 -97t18.5 -110q0 -66 -23 -122t-64.5 -97.5t-98 -64.5t-122.5 -23q-52 0 -96.5 14t-88.5 43l-43 -47h-86l82 90q-39 46 -57.5 95.5t-18.5 111.5q0 66 23 122.5t64.5 97.5t98 64t122.5 23q51 0 95 -14t88 -44l44 48h86z" />
<glyph unicode="&#x1ff;" horiz-adv-x="532" d="M216 513l85 152h91l-85 -152h-91zM191 94q31 -21 74 -21q30 0 54.5 10.5t42 30t27 46.5t9.5 60q0 24 -5 44.5t-16 40.5zM340 348q-32 22 -74 22q-59 0 -95 -41t-36 -108q0 -46 19 -84zM440 376q28 -35 41 -72t13 -83q0 -51 -17 -93t-47 -73t-72 -48t-92 -17 q-38 0 -70 9.5t-63 29.5l-31 -34h-74l63 71q-28 34 -40.5 71t-12.5 84q0 51 17 93.5t47 73.5t72 48t92 17q37 0 69 -9.5t64 -30.5l31 35h74z" />
<glyph unicode="&#x218;" horiz-adv-x="442" d="M40 138q45 -33 80 -47t77 -14q53 0 81.5 22t28.5 61q0 18 -5 31.5t-17.5 24.5t-33.5 20.5t-53 19.5q-45 15 -77 31.5t-51.5 37.5t-28.5 47.5t-9 59.5q0 39 13.5 71t38.5 54.5t60 34.5t79 12q42 0 78 -11t72 -34v-102q-42 32 -75.5 46t-72.5 14q-43 0 -68 -21t-25 -56 q0 -17 5 -29.5t17.5 -23t33.5 -20t53 -19.5q47 -15 71 -27t44 -30q51 -44 51 -123q0 -85 -54.5 -131.5t-154.5 -46.5q-91 0 -158 44v104zM264 -42q0 -92 -89 -143h-67q32 34 46 66t14 77h96z" />
<glyph unicode="&#x219;" horiz-adv-x="391" d="M48 120q69 -50 136 -50q72 0 72 51q0 24 -17.5 37.5t-65.5 25.5q-20 5 -33.5 9.5t-23.5 8.5t-17.5 9t-15.5 11q-41 32 -41 95q0 65 42 100.5t118 35.5q36 0 65 -8t60 -26v-91q-35 24 -63 34.5t-60 10.5t-49.5 -13.5t-17.5 -37.5q0 -28 27 -41q7 -3 12 -5.5t12.5 -5 t19.5 -6t33 -8.5q55 -14 83 -46.5t28 -82.5q0 -66 -43.5 -101.5t-122.5 -35.5q-80 0 -138 36v94zM249 -42q0 -92 -89 -143h-67q32 34 46 66t14 77h96z" />
<glyph unicode="&#x21a;" horiz-adv-x="507" d="M305 0h-102v504h-188v90h477v-90h-187v-504zM302 -42q0 -92 -89 -143h-67q32 34 46 66t14 77h96z" />
<glyph unicode="&#x21b;" horiz-adv-x="343" d="M8 443h67v108h98v-108h126v-83h-126v-211q0 -71 61 -71q20 0 39 5.5t42 19.5v-89q-50 -24 -106 -24q-66 0 -100 35t-34 102v233h-67v83zM257 -42q0 -92 -89 -143h-67q32 34 46 66t14 77h96z" />
<glyph unicode="&#x2c6;" horiz-adv-x="500" d="M397 510h-87l-60 79l-60 -79h-87l116 150h62z" />
<glyph unicode="&#x2c7;" horiz-adv-x="500" d="M281 505h-62l-116 149h88l59 -80l59 80h88z" />
<glyph unicode="&#x2c9;" horiz-adv-x="500" d="M137 601h225v-74h-225v74z" />
<glyph unicode="&#x2d8;" horiz-adv-x="500" d="M373 646q-2 -41 -11 -65t-30 -44q-32 -29 -82 -29q-56 0 -90 37q-17 20 -24 42t-9 59h75q1 -70 48 -70t48 70h75z" />
<glyph unicode="&#x2d9;" horiz-adv-x="500" d="M250 640q26 0 44 -18t18 -44t-18.5 -44t-44.5 -18q-25 0 -43 18.5t-18 43.5q0 26 18 44t44 18z" />
<glyph unicode="&#x2da;" horiz-adv-x="500" d="M250 626q-20 0 -31 -11t-11 -31t11 -31t31 -11q19 0 30.5 11.5t11.5 31.5q0 18 -11.5 29.5t-30.5 11.5zM250 674q41 0 67 -25t26 -65t-26 -65t-67 -25q-42 0 -68 25.5t-26 65.5q0 38 26.5 63.5t67.5 25.5z" />
<glyph unicode="&#x2db;" horiz-adv-x="500" d="M316 12q-70 -55 -70 -103q0 -29 33 -29q22 0 45 10v-69q-13 -5 -27.5 -8t-32.5 -3q-45 0 -70 21t-25 59q0 35 19.5 66.5t56.5 55.5h71z" />
<glyph unicode="&#x2dc;" horiz-adv-x="500" d="M394 632q-3 -125 -82 -125q-17 0 -32 7t-38 25q-16 13 -25.5 17.5t-17.5 4.5q-27 0 -28 -51h-66q3 125 82 125q17 0 32 -7t38 -25q17 -13 26.5 -17.5t17.5 -4.5q26 0 28 51h65z" />
<glyph unicode="&#x2dd;" horiz-adv-x="500" d="M231 513l85 152h84l-85 -152h-84zM99 513l85 152h84l-85 -152h-84z" />
<glyph unicode="&#x387;" horiz-adv-x="259" d="M129 329q29 0 49.5 -20t20.5 -49t-20.5 -49t-49.5 -20t-48.5 20.5t-19.5 49.5q0 28 20 48t48 20z" />
<glyph unicode="&#x394;" horiz-adv-x="599" d="M453 83l-155 420l-156 -420h311zM5 0l231 594h125l232 -594h-588z" />
<glyph unicode="&#x3c0;" horiz-adv-x="546" d="M501 1q-23 -11 -56 -11q-115 0 -115 126v236h-127v-352h-97v352h-74v91h470v-91h-75v-226q0 -52 38 -52q16 0 36 10v-83z" />
<glyph unicode="&#x1e80;" horiz-adv-x="815" d="M463 594l119 -483l118 483h100l-152 -594h-130l-111 459l-112 -459h-129l-151 594h103l118 -483l118 483h109zM365 644l-79 141h91l79 -141h-91z" />
<glyph unicode="&#x1e81;" horiz-adv-x="671" d="M288 513l-85 152h91l85 -152h-91zM475 103l93 340h98l-130 -443h-111l-90 321l-90 -321h-110l-130 443h102l92 -340l93 340h89z" />
<glyph unicode="&#x1e82;" horiz-adv-x="815" d="M463 594l119 -483l118 483h100l-152 -594h-130l-111 459l-112 -459h-129l-151 594h103l118 -483l118 483h109zM358 644l79 141h91l-79 -141h-91z" />
<glyph unicode="&#x1e83;" horiz-adv-x="671" d="M475 103l93 340h98l-130 -443h-111l-90 321l-90 -321h-110l-130 443h102l92 -340l93 340h89zM293 513l85 152h91l-85 -152h-91z" />
<glyph unicode="&#x1e84;" horiz-adv-x="815" d="M463 594l119 -483l118 483h100l-152 -594h-130l-111 459l-112 -459h-129l-151 594h103l118 -483l118 483h109zM493 755q25 0 42.5 -17.5t17.5 -42.5t-17.5 -42.5t-43.5 -17.5q-24 0 -41.5 17.5t-17.5 42.5t17.5 42.5t42.5 17.5zM321 755q25 0 42.5 -17.5t17.5 -42.5 t-17.5 -42.5t-43.5 -17.5q-24 0 -41.5 17.5t-17.5 42.5t17.5 42.5t42.5 17.5z" />
<glyph unicode="&#x1e85;" horiz-adv-x="671" d="M475 103l93 340h98l-130 -443h-111l-90 321l-90 -321h-110l-130 443h102l92 -340l93 340h89zM421 636q25 0 42.5 -17.5t17.5 -42.5t-17.5 -42.5t-43.5 -17.5q-24 0 -41.5 18t-17.5 42q0 25 17.5 42.5t42.5 17.5zM249 636q25 0 42.5 -17.5t17.5 -42.5t-17.5 -42.5 t-43.5 -17.5q-24 0 -41.5 18t-17.5 42q0 25 17.5 42.5t42.5 17.5z" />
<glyph unicode="&#x1ef2;" horiz-adv-x="542" d="M231 644l-79 141h91l79 -141h-91zM424 594h113l-215 -367v-227h-102v227l-215 367h113l154 -271z" />
<glyph unicode="&#x1ef3;" horiz-adv-x="468" d="M196 513l-85 152h91l85 -152h-91zM237 94l124 349h102l-240 -623h-97l62 160l-183 463h106z" />
<glyph unicode="&#x2011;" horiz-adv-x="355" d="M53 304h249v-88h-249v88z" />
<glyph unicode="&#x2012;" horiz-adv-x="572" d="M53 302h466v-75h-466v75z" />
<glyph unicode="&#x2013;" horiz-adv-x="572" d="M53 302h466v-75h-466v75z" />
<glyph unicode="&#x2014;" horiz-adv-x="952" d="M53 302h846v-75h-846v75z" />
<glyph unicode="&#x2015;" horiz-adv-x="952" d="M53 302h846v-75h-846v75z" />
<glyph unicode="&#x2018;" horiz-adv-x="228" d="M59 432q0 64 28 120.5t78 91.5h69q-38 -49 -56 -99.5t-18 -112.5h-101z" />
<glyph unicode="&#x2019;" horiz-adv-x="228" d="M195 644q0 -64 -28 -120.5t-77 -91.5h-70q38 49 56 99.5t18 112.5h101z" />
<glyph unicode="&#x201a;" horiz-adv-x="228" d="M174 101q0 -64 -28 -120.5t-77 -91.5h-70q38 49 56 99.5t18 112.5h101z" />
<glyph unicode="&#x201c;" horiz-adv-x="392" d="M224 432q0 65 28 121t77 91h70q-38 -49 -56 -99.5t-18 -112.5h-101zM59 432q0 64 28 120.5t78 91.5h69q-38 -49 -56 -99.5t-18 -112.5h-101z" />
<glyph unicode="&#x201d;" horiz-adv-x="392" d="M360 644q0 -64 -28 -120.5t-77 -91.5h-70q38 49 56 99.5t18 112.5h101zM195 644q0 -64 -28 -120.5t-77 -91.5h-70q38 49 56 99.5t18 112.5h101z" />
<glyph unicode="&#x201e;" horiz-adv-x="392" d="M339 101q0 -64 -28 -120.5t-77 -91.5h-70q38 49 56 99.5t18 112.5h101zM174 101q0 -64 -28 -120.5t-77 -91.5h-70q38 49 56 99.5t18 112.5h101z" />
<glyph unicode="&#x2020;" horiz-adv-x="274" d="M20 441v66h81v87h72v-87h81v-66h-81v-194h-72v194h-81z" />
<glyph unicode="&#x2021;" horiz-adv-x="274" d="M20 325v64h83v64h-83v64h83v77h68v-77h83v-64h-83v-64h83v-64h-83v-78h-68v78h-83z" />
<glyph unicode="&#x2022;" horiz-adv-x="331" d="M165 365q22 0 41 -8.5t33 -22.5t22.5 -33t8.5 -41t-8.5 -41t-22.5 -33t-33 -22t-41 -8q-44 0 -74 30t-30 75q0 21 8 40t22.5 33.5t33.5 22.5t40 8z" />
<glyph unicode="&#x2026;" horiz-adv-x="760" d="M631 129q30 0 50.5 -20.5t20.5 -49.5q0 -28 -21 -48t-50 -20q-28 0 -47.5 20t-19.5 48q0 29 19.5 49.5t47.5 20.5zM379 128q30 0 50 -20t20 -50q0 -28 -20.5 -47.5t-49.5 -19.5q-28 0 -47.5 20t-19.5 48q0 29 19.5 49t47.5 20zM127 129q29 0 49.5 -20.5t20.5 -49.5 q0 -28 -20.5 -48t-49.5 -20t-48.5 20t-19.5 48q0 29 19.5 49.5t48.5 20.5z" />
<glyph unicode="&#x2030;" horiz-adv-x="1012" d="M206 0h-75l357 594h75zM836 205q-31 0 -49 -19.5t-18 -51.5t18.5 -50.5t48.5 -18.5q32 0 50 19t18 51t-18.5 51t-49.5 19zM836 279q31 0 58 -11t46 -30.5t30 -46.5t11 -58q0 -30 -11 -56.5t-30.5 -45.5t-46 -30t-57.5 -11t-57 11t-45.5 30.5t-30.5 45.5t-11 57t11 57.5 t30 46t45.5 30.5t57.5 11zM518 205q-30 0 -48 -19t-18 -52q0 -32 18 -50.5t48 -18.5q32 0 50 19t18 51t-18.5 51t-49.5 19zM518 279q31 0 58 -11t46 -30.5t30 -46.5t11 -58q0 -30 -11 -56.5t-30.5 -45.5t-46 -30t-57.5 -11t-57 11t-45.5 30.5t-30.5 45.5t-11 57t11 57.5 t30.5 46t45.5 30.5t57 11zM175 530q-30 0 -48 -19.5t-18 -52.5q0 -31 18.5 -50t47.5 -19q31 0 49.5 19t18.5 51t-18.5 51.5t-49.5 19.5zM175 604q31 0 57.5 -11t46 -30.5t30.5 -46t11 -57.5t-11 -57t-30.5 -45.5t-46 -30.5t-57.5 -11t-57.5 11t-45.5 30t-30 45.5t-11 58.5 q0 31 11 57t30.5 45.5t45.5 30.5t57 11z" />
<glyph unicode="&#x2039;" horiz-adv-x="313" d="M145 215l122 -158h-98l-123 158l123 158h98z" />
<glyph unicode="&#x203a;" horiz-adv-x="313" d="M46 373h98l123 -158l-123 -158h-98l122 158z" />
<glyph unicode="&#x2044;" horiz-adv-x="198" d="M235 594h74l-346 -594h-75z" />
<glyph unicode="&#x2070;" horiz-adv-x="325" d="M163 530q-28 0 -44 -29t-16 -80t16 -80.5t44 -29.5t44 29.5t16 81.5q0 50 -16.5 79t-43.5 29zM163 599q31 0 57 -13t44.5 -37t28.5 -57t10 -73q0 -39 -10.5 -71.5t-29 -56t-44 -36.5t-56.5 -13t-57 13t-44.5 36.5t-29 56.5t-10.5 73q0 39 10 72t29 56.5t44.5 36.5 t57.5 13z" />
<glyph unicode="&#x2074;" horiz-adv-x="324" d="M84 387h94v121zM255 387h53v-60h-53v-79h-77v79h-163v61l161 206h79v-207z" />
<glyph unicode="&#x2075;" horiz-adv-x="252" d="M104 469q67 -9 98 -36.5t31 -78.5t-35 -81.5t-95 -30.5q-50 0 -89 25v71q24 -16 44 -23t41 -7q58 0 58 44q0 28 -28.5 42t-94.5 19l13 181h175v-70h-114z" />
<glyph unicode="&#x2076;" horiz-adv-x="296" d="M148 420q-24 0 -38.5 -15.5t-14.5 -41.5t15 -41t38 -15q26 0 41 15t15 41t-15 41.5t-41 15.5zM212 594l-56 -92l-23 -34q14 10 35 10q49 0 80.5 -32t31.5 -82q0 -54 -36.5 -88t-95.5 -34q-57 0 -92.5 34t-35.5 88q0 27 9.5 54.5t30.5 62.5l69 113h83z" />
<glyph unicode="&#x2077;" horiz-adv-x="257" d="M9 524v70h232v-70l-131 -276h-82l130 276h-149z" />
<glyph unicode="&#x2078;" horiz-adv-x="285" d="M143 392q-21 0 -34 -12.5t-13 -32.5t13 -31.5t34 -11.5t34 12t13 31q0 20 -13.5 32.5t-33.5 12.5zM143 538q-18 0 -29.5 -11t-11.5 -28q0 -18 11.5 -29.5t29.5 -11.5t29 11.5t11 29.5q0 17 -11.5 28t-28.5 11zM206 423q29 -10 45 -31t16 -50q0 -45 -34.5 -72.5 t-89.5 -27.5q-56 0 -90.5 27.5t-34.5 71.5q0 29 16.5 50.5t45.5 31.5q-48 24 -48 78q0 44 30.5 71t80.5 27t80.5 -27t30.5 -71q0 -53 -48 -78z" />
<glyph unicode="&#x2079;" horiz-adv-x="296" d="M147 535q-25 0 -40 -15t-15 -41t15 -41.5t40 -15.5t40 15.5t15 41.5q0 25 -15 40.5t-40 15.5zM84 248l56 93l23 33q-14 -10 -35 -10q-49 0 -80.5 32t-31.5 82q0 54 36.5 88t95.5 34q57 0 92.5 -34t35.5 -88q0 -28 -9 -54.5t-31 -62.5l-68 -113h-84z" />
<glyph unicode="&#x2080;" horiz-adv-x="325" d="M163 282q-28 0 -44 -29t-16 -80t16 -80t44 -29t44 29.5t16 80.5q0 50 -16.5 79t-43.5 29zM163 352q31 0 57 -13t44.5 -37t28.5 -57.5t10 -73.5q0 -39 -10.5 -71.5t-29 -56t-44 -36.5t-56.5 -13t-57 13t-44.5 36.5t-29 56.5t-10.5 73t10.5 73t29 56.5t44.5 36.5t57 13z " />
<glyph unicode="&#x2081;" horiz-adv-x="200" d="M13 328l145 24v-352h-81v264l-64 -8v72z" />
<glyph unicode="&#x2082;" horiz-adv-x="267" d="M249 70v-70h-239v60q42 34 70.5 59.5t45 45.5t23.5 36.5t7 32.5q0 21 -12.5 33t-35.5 12q-43 0 -90 -40v75q44 38 108 38q53 0 83.5 -27.5t30.5 -75.5q0 -45 -29 -86.5t-97 -92.5h135z" />
<glyph unicode="&#x2083;" horiz-adv-x="254" d="M21 319q25 17 48.5 25t52.5 8q50 0 78.5 -24.5t28.5 -66.5q0 -32 -17.5 -54t-49.5 -32q73 -19 73 -83q0 -45 -34 -71.5t-92 -26.5q-27 0 -49 5.5t-45 19.5v77q41 -34 88 -34q50 0 50 39q0 21 -15.5 30t-59.5 12v58q36 3 52.5 14t16.5 32q0 34 -40 34q-41 0 -86 -38v76z " />
<glyph unicode="&#x2084;" horiz-adv-x="324" d="M84 140h94v121zM255 140h53v-61h-53v-79h-77v79h-163v61l161 206h79v-206z" />
<glyph unicode="&#x2085;" horiz-adv-x="252" d="M104 221q67 -9 98 -36t31 -78t-35 -82t-95 -31q-50 0 -89 25v72q23 -17 43 -24t42 -7q58 0 58 44q0 28 -28.5 42.5t-94.5 19.5l13 180h175v-70h-114z" />
<glyph unicode="&#x2086;" horiz-adv-x="296" d="M148 172q-24 0 -38.5 -15t-14.5 -41t14.5 -41.5t39.5 -15.5t40 15.5t15 41.5t-15 41t-41 15zM212 346l-56 -92l-23 -34q14 11 35 11q49 0 80.5 -32t31.5 -82q0 -27 -10 -49.5t-27.5 -39t-41.5 -25.5t-53 -9q-28 0 -51.5 9t-40.5 25t-26.5 38.5t-9.5 49.5q0 28 9 55t31 62 l69 113h83z" />
<glyph unicode="&#x2087;" horiz-adv-x="257" d="M9 276v70h232v-70l-131 -276h-82l130 276h-149z" />
<glyph unicode="&#x2088;" horiz-adv-x="285" d="M143 144q-21 0 -34 -12.5t-13 -32.5t13 -31.5t34 -11.5q20 0 33.5 12t13.5 31q0 20 -13 32.5t-34 12.5zM143 290q-18 0 -29.5 -11t-11.5 -28q0 -18 11.5 -29.5t29.5 -11.5t29 11.5t11 29.5q0 17 -11.5 28t-28.5 11zM206 176q61 -23 61 -82q0 -45 -34.5 -72.5t-89.5 -27.5 q-56 0 -90.5 27.5t-34.5 72.5q0 59 62 82q-48 24 -48 78q0 44 30.5 71t80.5 27q49 0 80 -27.5t31 -71.5q0 -53 -48 -77z" />
<glyph unicode="&#x2089;" horiz-adv-x="296" d="M147 288q-25 0 -40 -15.5t-15 -41.5t15 -41.5t40 -15.5t40 16t15 42q0 25 -15.5 40.5t-39.5 15.5zM84 0l56 93l23 34q-14 -11 -35 -11q-49 0 -80.5 32t-31.5 83q0 54 36.5 87.5t95.5 33.5q57 0 92.5 -33.5t35.5 -88.5q0 -27 -9 -54t-31 -63l-68 -113h-84z" />
<glyph unicode="&#x20ac;" horiz-adv-x="511" d="M83 386q23 103 89 160.5t163 57.5q40 0 73 -9.5t66 -31.5v-112q-57 61 -135 61q-56 0 -94.5 -32t-56.5 -94h171l-12 -60h-169q-1 -8 -1 -14v-14v-13t1 -14h158l-12 -60h-136q17 -62 57 -95.5t98 -33.5q40 0 72 14.5t66 46.5v-110q-35 -23 -69.5 -33t-76.5 -10 q-98 0 -163 57t-90 164h-64v60h57q-1 10 -1 15.5v11.5v13t1 15h-57v60h65z" />
<glyph unicode="&#x2122;" horiz-adv-x="696" d="M437 317l-58 182l-30 -182h-67l46 277h80l59 -193l56 193h81l45 -277h-67l-32 182l-55 -182h-58zM185 317h-69v217h-85v60h239v-60h-85v-217z" />
<glyph unicode="&#x2126;" horiz-adv-x="594" d="M335 106q63 42 92.5 97.5t29.5 130.5q0 43 -11.5 78t-32.5 60t-50.5 39t-65.5 14t-65.5 -13.5t-50.5 -38.5t-32.5 -60.5t-11.5 -78.5q0 -75 29 -130t92 -98v-106h-216v86h126q-61 41 -94.5 107t-33.5 144q0 60 18.5 109t52.5 84.5t81.5 54.5t104.5 19t104.5 -19 t81.5 -54.5t52.5 -84.5t18.5 -109q0 -78 -33.5 -144t-94.5 -107h126v-86h-217v106z" />
<glyph unicode="&#x2153;" horiz-adv-x="698" d="M455 594h74l-346 -594h-75zM40 576l145 23v-351h-81v263l-64 -8v73zM434 319q25 17 48.5 25t52.5 8q50 0 78.5 -24.5t28.5 -66.5q0 -32 -17.5 -54t-49.5 -32q73 -19 73 -83q0 -45 -34 -71.5t-92 -26.5q-27 0 -49 5.5t-45 19.5v77q41 -34 88 -34q50 0 50 39q0 21 -15.5 30 t-59.5 12v58q36 3 52.5 14t16.5 32q0 34 -40 34q-41 0 -86 -38v76z" />
<glyph unicode="&#x2154;" horiz-adv-x="785" d="M542 594h74l-346 -594h-75zM289 318v-70h-239v59q43 35 71.5 60.5t45 45.5t23 36t6.5 32q0 22 -12.5 33.5t-35.5 11.5q-44 0 -90 -39v75q43 37 108 37q54 0 84 -27t30 -75q0 -45 -29 -86.5t-97 -92.5h135zM521 319q25 17 48.5 25t52.5 8q50 0 78.5 -24.5t28.5 -66.5 q0 -32 -17.5 -54t-49.5 -32q73 -19 73 -83q0 -45 -34 -71.5t-92 -26.5q-27 0 -49 5.5t-45 19.5v77q41 -34 88 -34q50 0 50 39q0 21 -15.5 30t-59.5 12v58q36 3 52.5 14t16.5 32q0 34 -40 34q-41 0 -86 -38v76z" />
<glyph unicode="&#x215b;" horiz-adv-x="705" d="M455 594h74l-346 -594h-75zM40 576l145 23v-351h-81v263l-64 -8v73zM531 144q-21 0 -34 -12.5t-13 -32.5t13 -31.5t34 -11.5q20 0 33.5 12t13.5 31q0 20 -13 32.5t-34 12.5zM531 290q-18 0 -29.5 -11t-11.5 -28q0 -18 11.5 -29.5t29.5 -11.5t29 11.5t11 29.5 q0 17 -11.5 28t-28.5 11zM594 176q61 -23 61 -82q0 -45 -34.5 -72.5t-89.5 -27.5q-56 0 -90.5 27.5t-34.5 72.5q0 59 62 82q-48 24 -48 78q0 44 30.5 71t80.5 27q49 0 80 -27.5t31 -71.5q0 -53 -48 -77z" />
<glyph unicode="&#x215c;" horiz-adv-x="754" d="M504 594h74l-346 -594h-75zM56 566q23 17 47.5 25t53.5 8q50 0 78.5 -24t28.5 -66q0 -32 -17.5 -54.5t-49.5 -31.5q73 -20 73 -83q0 -45 -34 -71.5t-92 -26.5q-27 0 -49 5.5t-45 19.5v77q41 -34 88 -34q50 0 50 39q0 21 -16 30t-59 12v58q36 3 52.5 14t16.5 32 q0 33 -40 33t-86 -37v75zM580 144q-21 0 -34 -12.5t-13 -32.5t13 -31.5t34 -11.5q20 0 33.5 12t13.5 31q0 20 -13 32.5t-34 12.5zM580 290q-18 0 -29.5 -11t-11.5 -28q0 -18 11.5 -29.5t29.5 -11.5t29 11.5t11 29.5q0 17 -11.5 28t-28.5 11zM643 176q61 -23 61 -82 q0 -45 -34.5 -72.5t-89.5 -27.5q-56 0 -90.5 27.5t-34.5 72.5q0 59 62 82q-48 24 -48 78q0 44 30.5 71t80.5 27q49 0 80 -27.5t31 -71.5q0 -53 -48 -77z" />
<glyph unicode="&#x215d;" horiz-adv-x="748" d="M498 594h74l-346 -594h-75zM574 144q-21 0 -34 -12.5t-13 -32.5t13 -31.5t34 -11.5q20 0 33.5 12t13.5 31q0 20 -13 32.5t-34 12.5zM574 290q-18 0 -29.5 -11t-11.5 -28q0 -18 11.5 -29.5t29.5 -11.5t29 11.5t11 29.5q0 17 -11.5 28t-28.5 11zM637 176q61 -23 61 -82 q0 -45 -34.5 -72.5t-89.5 -27.5q-56 0 -90.5 27.5t-34.5 72.5q0 59 62 82q-48 24 -48 78q0 44 30.5 71t80.5 27q49 0 80 -27.5t31 -71.5q0 -53 -48 -77zM137 469q67 -9 98 -36.5t31 -78.5t-35 -81.5t-95 -30.5q-50 0 -89 25v71q24 -16 44 -23t41 -7q58 0 58 44 q0 28 -28.5 42t-94.5 19l13 181h175v-70h-114z" />
<glyph unicode="&#x215e;" horiz-adv-x="701" d="M451 594h74l-346 -594h-75zM527 144q-21 0 -34 -12.5t-13 -32.5t13 -31.5t34 -11.5q20 0 33.5 12t13.5 31q0 20 -13 32.5t-34 12.5zM527 290q-18 0 -29.5 -11t-11.5 -28q0 -18 11.5 -29.5t29.5 -11.5t29 11.5t11 29.5q0 17 -11.5 28t-28.5 11zM590 176q61 -23 61 -82 q0 -45 -34.5 -72.5t-89.5 -27.5q-56 0 -90.5 27.5t-34.5 72.5q0 59 62 82q-48 24 -48 78q0 44 30.5 71t80.5 27q49 0 80 -27.5t31 -71.5q0 -53 -48 -77zM35 524v70h232v-70l-131 -276h-82l130 276h-149z" />
<glyph unicode="&#x2202;" horiz-adv-x="527" d="M263 366q-29 0 -52.5 -10.5t-40 -30t-26 -46t-9.5 -59.5q0 -66 35.5 -105.5t92.5 -39.5q59 0 94 40t35 107q0 65 -35.5 104.5t-93.5 39.5zM233 680q29 -24 51.5 -44.5t41 -39.5t35 -39t32.5 -42q48 -68 73 -138.5t25 -140.5q0 -56 -16 -101.5t-46 -77.5t-72 -49.5 t-94 -17.5q-50 0 -92 17t-72 47.5t-47 72.5t-17 92t16.5 92t45.5 72.5t70 47.5t89 17q35 0 60.5 -10.5t46.5 -33.5q-35 66 -101.5 138.5t-152.5 137.5h124z" />
<glyph unicode="&#x220f;" horiz-adv-x="603" d="M427 -180v683h-251v-683h-102v774h455v-774h-102z" />
<glyph unicode="&#x2211;" horiz-adv-x="443" d="M25 506v88h393v-88h-283l194 -299l-194 -299h283v-88h-393v88l192 299z" />
<glyph unicode="&#x2212;" horiz-adv-x="459" d="M40 331h379v-77h-379v77z" />
<glyph unicode="&#x221a;" horiz-adv-x="536" d="M516 594l-180 -594h-110l-107 295h-73v96h147l89 -276l139 479h95z" />
<glyph unicode="&#x221e;" horiz-adv-x="700" d="M435 244q32 -37 71 -37q32 0 52.5 22t20.5 56t-20 56t-52 22q-19 0 -38 -10t-34 -27l-35 -41zM265 326q-15 17 -33.5 27t-37.5 10q-32 0 -52.5 -22t-20.5 -56q0 -35 20.5 -56.5t52.5 -21.5q39 0 71 37l35 41zM323 196q-31 -35 -62.5 -51.5t-70.5 -16.5q-33 0 -61 11.5 t-47.5 32t-30.5 49.5t-11 64q0 34 11 63t30.5 49.5t47.5 32t61 11.5q39 0 70.5 -16t62.5 -51l27 -31l27 31q30 35 62 51t71 16q33 0 61 -11.5t47.5 -32t30.5 -49.5t11 -63q0 -35 -11 -64t-30.5 -49.5t-47.5 -32t-61 -11.5q-38 0 -70 16.5t-63 51.5l-27 31z" />
<glyph unicode="&#x222b;" horiz-adv-x="348" d="M-9 -81q17 -11 31 -16t31 -5q56 0 56 68v483q0 74 37 114.5t105 40.5q23 0 40 -4t34 -15v-90q-17 11 -31 16t-31 5q-56 0 -56 -68v-483q0 -75 -37 -115t-105 -40q-23 0 -40 4t-34 15v90z" />
<glyph unicode="&#x2248;" horiz-adv-x="469" d="M45 250q29 18 53 26t50 8q17 0 36.5 -3.5t49.5 -12.5q32 -10 49.5 -13.5t35.5 -3.5q27 0 51.5 8t53.5 26v-74q-29 -18 -53.5 -26t-51.5 -8q-17 0 -36 4t-49 13q-32 10 -50 13t-36 3q-26 0 -50 -8t-53 -26v74zM45 379q29 18 53 26t50 8q17 0 36.5 -3.5t49.5 -12.5 q32 -10 49.5 -13.5t35.5 -3.5q27 0 51.5 8t53.5 26v-74q-29 -18 -53.5 -26t-51.5 -8q-17 0 -36 4t-49 13q-32 10 -50 13t-36 3q-26 0 -50 -8t-53 -26v74z" />
<glyph unicode="&#x2260;" horiz-adv-x="469" d="M222 328h-177v70h225l58 86h71l-58 -86h83v-70h-131l-46 -69h177v-70h-225l-58 -86h-71l58 86h-83v70h131z" />
<glyph unicode="&#x2264;" horiz-adv-x="343" d="M25 145h278v-76h-278v76zM25 334l278 154v-88l-137 -70l137 -69v-88l-278 153v8z" />
<glyph unicode="&#x2265;" horiz-adv-x="343" d="M318 69h-278v76h278v-76zM318 326l-278 -153v88l137 69l-137 70v88l278 -154v-8z" />
<glyph unicode="&#x22c5;" horiz-adv-x="259" d="M129 329q29 0 49.5 -20t20.5 -49t-20.5 -49t-49.5 -20t-48.5 20.5t-19.5 49.5q0 28 20 48t48 20z" />
<glyph unicode="&#x25ca;" horiz-adv-x="486" d="M243 505l-117 -208l117 -207l116 207zM201 594h83l175 -297l-175 -297h-83l-174 297z" />
<glyph unicode="&#x25fc;" horiz-adv-x="445" d="M0 445h445v-445h-445v445z" />
<glyph unicode="&#xf6be;" horiz-adv-x="235" d="M-59 -91q31 -15 65 -15q33 0 47.5 17.5t14.5 55.5v476h99v-489q0 -69 -38.5 -106.5t-110.5 -37.5q-38 0 -77 14v85z" />
<glyph unicode="&#xf6c3;" horiz-adv-x="500" d="M337 -42q0 -92 -89 -143h-67q32 34 46 66t14 77h96z" />
<glyph unicode="&#xfb00;" horiz-adv-x="575" d="M181 0h-98v360h-69v83h69v73q0 76 38.5 118t109.5 42q38 0 71 -16v-90q-26 17 -58 17q-63 0 -63 -75v-69h179v83q0 79 39.5 121.5t114.5 42.5q26 0 46 -5t40 -17v-92q-23 14 -40 19.5t-37 5.5q-65 0 -65 -75v-83h114v-83h-114v-360h-98v360h-179v-360z" />
<glyph unicode="&#xfb01;" horiz-adv-x="526" d="M408 640q26 0 44 -18t18 -43q0 -26 -18 -44.5t-44 -18.5t-44 18.5t-18 44.5q0 25 18 43t44 18zM458 0h-99v443h99v-443zM83 530q0 76 38.5 118t109.5 42q37 0 67 -15v-90q-13 8 -25 11.5t-30 3.5q-62 0 -62 -74v-83h102v-83h-102v-360h-98v360h-69v83h69v87z" />
<glyph unicode="&#xfb02;" horiz-adv-x="527" d="M458 0h-98v680h98v-680zM83 530q0 76 38.5 118t109.5 42q37 0 67 -15v-90q-13 8 -25 11.5t-30 3.5q-62 0 -62 -74v-83h102v-83h-102v-360h-98v360h-69v83h69v87z" />
<glyph unicode="&#xfb03;" horiz-adv-x="804" d="M686 640q26 0 44 -18t18 -43q0 -26 -18 -44.5t-44 -18.5t-44 18.5t-18 44.5q0 25 18 43t44 18zM736 0h-99v443h99v-443zM458 0h-98v360h-179v-360h-98v360h-69v83h69v73q0 76 38.5 118t109.5 42q38 0 71 -16v-90q-26 17 -58 17q-63 0 -63 -75v-69h179v87q0 76 38.5 118 t109.5 42q20 0 35.5 -3.5t32.5 -11.5v-90q-14 8 -26.5 11.5t-29.5 3.5q-62 0 -62 -74v-83h102v-83h-102v-360z" />
<glyph unicode="&#xfb04;" horiz-adv-x="804" d="M736 0h-99v680h99v-680zM458 0h-98v360h-179v-360h-98v360h-69v83h69v73q0 76 38.5 118t109.5 42q38 0 71 -16v-90q-26 17 -58 17q-63 0 -63 -75v-69h179v87q0 76 38.5 118t109.5 42q20 0 35.5 -3.5t32.5 -11.5v-90q-14 8 -26.5 11.5t-29.5 3.5q-62 0 -62 -74v-83h102 v-83h-102v-360z" />
<glyph horiz-adv-x="804" d="M510 -91q31 -15 65 -15q33 0 47.5 17.5t14.5 55.5v476h99v-489q0 -69 -38.5 -106.5t-110.5 -37.5q-38 0 -77 14v85zM686 640q26 0 44 -18t18 -43q0 -26 -18 -44.5t-44 -18.5t-44 18.5t-18 44.5q0 25 18 43t44 18zM458 0h-98v360h-179v-360h-98v360h-69v83h69v73 q0 76 38.5 118t109.5 42q38 0 71 -16v-90q-26 17 -58 17q-63 0 -63 -75v-69h179v87q0 76 38.5 118t109.5 42q20 0 35.5 -3.5t32.5 -11.5v-90q-14 8 -26.5 11.5t-29.5 3.5q-62 0 -62 -74v-83h102v-83h-102v-360z" />
<glyph horiz-adv-x="526" d="M232 -91q31 -15 65 -15q33 0 47.5 17.5t14.5 55.5v476h99v-489q0 -69 -38.5 -106.5t-110.5 -37.5q-38 0 -77 14v85zM408 640q26 0 44 -18t18 -43q0 -26 -18 -44.5t-44 -18.5t-44 18.5t-18 44.5q0 25 18 43t44 18zM83 530q0 76 38.5 118t109.5 42q37 0 67 -15v-90 q-13 8 -25 11.5t-30 3.5q-62 0 -62 -74v-83h102v-83h-102v-360h-98v360h-69v83h69v87z" />
<glyph horiz-adv-x="819" d="M459 84q31 -9 68 -9q74 0 115.5 39.5t41.5 110.5q0 63 -37.5 101t-100.5 38q-48 0 -87 -21v-259zM360 680h99v-249q46 22 103 22q50 0 91 -16t70 -45.5t45 -71t16 -91.5q0 -56 -18 -100t-52 -75t-82 -47.5t-108 -16.5q-42 0 -81 7t-83 22v661zM83 530q0 76 38.5 118 t109.5 42q37 0 67 -15v-90q-13 8 -25 11.5t-30 3.5q-62 0 -62 -74v-83h102v-83h-102v-360h-98v360h-69v83h69v87z" />
<glyph horiz-adv-x="781" d="M459 0h-99v680h99v-680zM463 240l187 203h122l-195 -201l199 -242h-118zM83 530q0 76 38.5 118t109.5 42q37 0 67 -15v-90q-13 8 -25 11.5t-30 3.5q-62 0 -62 -74v-83h102v-83h-102v-360h-98v360h-69v83h69v87z" />
<glyph horiz-adv-x="811" d="M360 680h99v-248q55 21 117 21q172 0 172 -168v-285h-98v276q0 87 -97 87q-24 0 -48 -3.5t-46 -11.5v-348h-99v680zM83 530q0 76 38.5 118t109.5 42q37 0 67 -15v-90q-13 8 -25 11.5t-30 3.5q-62 0 -62 -74v-83h102v-83h-102v-360h-98v360h-69v83h69v87z" />
<glyph horiz-adv-x="1096" d="M736 84q31 -9 68 -9q74 0 115.5 39.5t41.5 110.5q0 63 -37.5 101t-100.5 38q-48 0 -87 -21v-259zM637 680h99v-249q46 22 103 22q50 0 91 -16t70 -45.5t45 -71t16 -91.5q0 -56 -18 -100t-52 -75t-82 -47.5t-108 -16.5q-42 0 -81 7t-83 22v661zM458 0h-98v360h-179v-360 h-98v360h-69v83h69v73q0 76 38.5 118t109.5 42q38 0 71 -16v-90q-26 17 -58 17q-63 0 -63 -75v-69h179v87q0 76 38.5 118t109.5 42q20 0 35.5 -3.5t32.5 -11.5v-90q-14 8 -26.5 11.5t-29.5 3.5q-62 0 -62 -74v-83h102v-83h-102v-360z" />
<glyph horiz-adv-x="1088" d="M637 680h99v-248q55 21 117 21q172 0 172 -168v-285h-98v276q0 87 -97 87q-24 0 -48 -3.5t-46 -11.5v-348h-99v680zM458 0h-98v360h-179v-360h-98v360h-69v83h69v73q0 76 38.5 118t109.5 42q38 0 71 -16v-90q-26 17 -58 17q-63 0 -63 -75v-69h179v87q0 76 38.5 118 t109.5 42q20 0 35.5 -3.5t32.5 -11.5v-90q-14 8 -26.5 11.5t-29.5 3.5q-62 0 -62 -74v-83h102v-83h-102v-360z" />
<glyph horiz-adv-x="1058" d="M736 0h-99v680h99v-680zM740 240l187 203h122l-195 -201l199 -242h-118zM458 0h-98v360h-179v-360h-98v360h-69v83h69v73q0 76 38.5 118t109.5 42q38 0 71 -16v-90q-26 17 -58 17q-63 0 -63 -75v-69h179v87q0 76 38.5 118t109.5 42q20 0 35.5 -3.5t32.5 -11.5v-90 q-14 8 -26.5 11.5t-29.5 3.5q-62 0 -62 -74v-83h102v-83h-102v-360z" />
<glyph horiz-adv-x="549" d="M274 378q-31 0 -56.5 -11t-44 -31t-29 -48t-10.5 -61q0 -32 10.5 -59t29 -47t44.5 -31t56 -11q31 0 56.5 11t44.5 31t29.5 47.5t10.5 60.5t-10.5 60t-29.5 47t-44.5 31t-56.5 11zM274 467q51 0 95 -18t76 -49.5t50 -75.5t18 -95t-18 -95t-50 -76t-76 -50t-95 -18 q-52 0 -95.5 18t-75 50.5t-49.5 76.5t-18 96q0 51 18 94t50 74.5t75.5 49.5t94.5 18z" />
<glyph horiz-adv-x="319" d="M22 430l217 37v-467h-101v355l-116 -16v91z" />
<glyph horiz-adv-x="427" d="M398 88v-88h-365v81l52 36q24 17 42.5 29.5t32 23t24 18.5t19.5 16q32 29 47.5 54.5t15.5 52.5q0 65 -76 65q-38 0 -74.5 -17t-77.5 -55v99q69 64 168 64q76 0 120.5 -38t44.5 -104t-46.5 -121.5t-152.5 -115.5h226z" />
<glyph horiz-adv-x="411" d="M29 405q71 62 165 62q80 0 126.5 -41t46.5 -110q0 -56 -30.5 -95t-87.5 -56q130 -32 130 -146q0 -38 -14.5 -68.5t-41.5 -52t-65 -33.5t-84 -12q-92 0 -154 43v95q38 -29 73 -41.5t74 -12.5q52 0 81 23t29 65q0 45 -32.5 66.5t-114.5 31.5v76q71 11 102.5 35.5t31.5 69.5 q0 35 -22.5 54.5t-61.5 19.5q-72 0 -151 -72v99z" />
<glyph horiz-adv-x="526" d="M120 98h187v247zM405 98h97v-81h-97v-152h-98v152h-286v83l280 359h104v-361z" />
<glyph horiz-adv-x="402" d="M149 239q51 -8 81.5 -17.5t58.5 -25.5q87 -50 87 -156q0 -87 -57.5 -137t-156.5 -50q-84 0 -145 41v92q37 -26 71 -37.5t70 -11.5q58 0 89.5 25.5t31.5 72.5q0 29 -12 50.5t-39 37.5t-69.5 26t-103.5 17l21 291h286v-90h-204z" />
<glyph horiz-adv-x="494" d="M247 306q-51 0 -82 -32t-31 -85q0 -51 31.5 -83t80.5 -32q51 0 82.5 32t31.5 84t-31 84t-82 32zM338 594l-106 -169l-46 -68q31 30 82 30q41 0 76 -14.5t60.5 -40.5t39.5 -61.5t14 -77.5q0 -45 -15.5 -82t-44 -64t-68 -42t-86.5 -15q-46 0 -84 14.5t-65 41.5t-42 64 t-15 82q0 46 17 95.5t54 108.5l123 198h106z" />
<glyph horiz-adv-x="432" d="M11 367v90h383v-91l-242 -503h-105l240 504h-276z" />
<glyph horiz-adv-x="478" d="M239 264q-46 0 -74.5 -27t-28.5 -71t28 -69t76 -25q46 0 74 26t28 68q0 44 -28.5 71t-74.5 27zM239 522q-38 0 -61 -23t-23 -61t23.5 -60.5t61.5 -22.5q36 0 59 23t23 60q0 38 -23 61t-60 23zM327 308q55 -17 85 -55.5t30 -92.5q0 -38 -15 -69t-41.5 -53.5t-64 -35 t-82.5 -12.5t-82.5 12.5t-64.5 35t-42 53.5t-15 69q0 54 30 92.5t86 55.5q-88 38 -88 135q0 36 13 65.5t36 50.5t55.5 33t71.5 12t71 -11.5t55.5 -33t36 -51t12.5 -65.5q0 -97 -87 -135z" />
<glyph horiz-adv-x="494" d="M249 383q-51 0 -82.5 -32t-31.5 -84t31 -84t82 -32t82 32t31 85q0 51 -31.5 83t-80.5 32zM157 -137l106 169l46 68q-31 -30 -82 -30q-41 0 -76 14.5t-60.5 40.5t-39.5 61.5t-14 77.5q0 45 15.5 82t44 64t68 42t86.5 15q46 0 84 -14.5t65 -41.5t42 -64t15 -82 q0 -89 -71 -204l-123 -198h-106z" />
<glyph horiz-adv-x="500" d="M179 513q0 49 25 93.5t66 67.5h67q-63 -65 -63 -161h-95z" />
<glyph horiz-adv-x="698" d="M349 567q-58 0 -106.5 -20t-83.5 -56.5t-54.5 -86.5t-19.5 -110q0 -58 19.5 -107t55 -84.5t84 -55.5t105.5 -20q58 0 106.5 20t83.5 56t54.5 85.5t19.5 108.5t-19.5 108.5t-54.5 85.5t-83.5 56t-106.5 20zM349 604q65 0 121 -23t96.5 -64.5t63.5 -97.5t23 -122t-23 -122 t-63.5 -97t-96.5 -64.5t-121 -23.5q-66 0 -121.5 23.5t-96 64.5t-63.5 98t-23 124q0 64 23.5 120t64 96.5t96 64t120.5 23.5zM308 300h28q68 0 68 55t-67 55q-8 0 -14.5 -0.5t-14.5 -1.5v-108zM308 124h-80v346q26 5 54 8t52 3q72 0 111.5 -31.5t39.5 -90.5q0 -73 -65 -103 l98 -132h-95l-82 114h-33v-114z" />
<glyph horiz-adv-x="459" d="M191 422h77v-151h151v-77h-151v-151h-77v151h-151v77h151v151z" />
<glyph horiz-adv-x="459" d="M40 271h379v-77h-379v77z" />
<glyph horiz-adv-x="395" d="M35 340l53 53l109 -110l110 110l53 -53l-110 -110l110 -109l-53 -53l-110 110l-109 -110l-53 53l110 109z" />
<glyph horiz-adv-x="459" d="M229 444q24 0 41.5 -17t17.5 -41t-17.5 -41.5t-41.5 -17.5t-41 17.5t-17 41.5t17 41t41 17zM229 138q24 0 41.5 -17t17.5 -41t-17.5 -41.5t-41.5 -17.5t-41 17.5t-17 41.5t17 41t41 17zM40 271h379v-77h-379v77z" />
<glyph horiz-adv-x="469" d="M45 339h379v-72h-379v72zM45 200h379v-72h-379v72z" />
<glyph horiz-adv-x="343" d="M25 235l278 173v-89l-150 -88l150 -88v-89l-278 173v8z" />
<glyph horiz-adv-x="343" d="M318 227l-278 -173v89l150 88l-150 88v89l278 -173v-8z" />
<glyph horiz-adv-x="235" d="M118 640q26 0 44 -18t18 -44t-18.5 -44t-44.5 -18q-25 0 -43 18.5t-18 43.5q0 26 18 44t44 18zM167 0h-99v443h99v-443z" />
<glyph d="M211 90q22 -13 49 -13q58 0 92.5 59.5t34.5 159.5q0 53 -9.5 93t-30.5 74zM309 503q-24 14 -49 14q-59 0 -93 -59.5t-34 -160.5q0 -55 9.5 -94.5t30.5 -71.5zM260 604q51 0 93 -22t72 -62.5t46.5 -97t16.5 -125.5t-16.5 -125.5t-46.5 -97t-72.5 -62.5t-94.5 -22 q-50 0 -91.5 22.5t-71.5 63t-46.5 97t-16.5 124.5q0 69 16.5 125.5t46.5 97t72 62.5t93 22z" />
<glyph d="M260 517q-59 0 -92.5 -59.5t-33.5 -163.5q0 -99 34.5 -158t91.5 -59q58 0 92 59t34 161t-34 161t-92 59zM260 604q51 0 93 -22t72 -62.5t46.5 -97t16.5 -125.5t-16.5 -125.5t-46.5 -97t-72 -62.5t-93 -22t-93 22.5t-72 63t-46.5 97.5t-16.5 127q0 67 16.5 123t46.5 96.5 t72 62.5t93 22z" />
<glyph d="M84 559l262 44v-603h-101v491l-161 -23v91z" />
<glyph d="M446 90v-90h-393v75q40 35 69 60.5t51 45.5t38 36.5t31 33.5q43 48 63 89t20 79q0 44 -25 67.5t-72 23.5q-40 0 -78.5 -17.5t-79.5 -55.5v101q75 66 178 66q85 0 134 -46t49 -125q0 -81 -59 -163t-187 -180h261z" />
<glyph d="M88 542q71 62 165 62q79 0 126 -41t47 -110q0 -55 -30.5 -94t-87.5 -57q130 -32 130 -147q0 -37 -15 -67.5t-42 -52t-65 -33.5t-84 -12q-91 0 -153 43v95q38 -29 72.5 -41.5t73.5 -12.5q52 0 81 23t29 65q0 22 -7.5 38.5t-24.5 28t-45 19t-69 12.5v76q70 11 101.5 35.5 t31.5 69.5q0 34 -22.5 54t-60.5 20q-72 0 -151 -72v99z" />
<glyph d="M121 233h183v247zM402 233h88v-81h-88v-152h-98v152h-279v83l273 359h104v-361z" />
<glyph d="M205 376q26 -4 46 -8.5t36 -9.5t30 -11t28 -14q88 -51 88 -156q0 -43 -15 -77.5t-43 -59t-68 -37.5t-89 -13q-84 0 -145 41v92q38 -26 71.5 -37.5t69.5 -11.5q58 0 89.5 25.5t31.5 72.5q0 29 -12 50.5t-38.5 37.5t-69 26t-103.5 17l20 291h286v-90h-204z" />
<glyph d="M257 306q-51 0 -82 -32t-31 -85q0 -51 31.5 -83t80.5 -32q51 0 82.5 32t31.5 84t-31 84t-82 32zM349 594l-107 -169l-46 -68q31 30 83 30q41 0 76 -14.5t60 -40t39 -61.5t14 -78q0 -45 -15.5 -82t-44 -64t-68 -42t-86.5 -15q-46 0 -84 14.5t-65 41.5t-42 64t-15 82 q0 46 17 95.5t54 108.5l123 198h107z" />
<glyph d="M56 504v90h407v-91l-256 -503h-104l256 504h-303z" />
<glyph d="M260 264q-46 0 -74.5 -27t-28.5 -71t28 -69t76 -25q46 0 74 25.5t28 68.5q0 44 -28.5 71t-74.5 27zM260 522q-38 0 -61 -23t-23 -61q0 -37 23.5 -60t61.5 -23q36 0 59.5 23.5t23.5 59.5q0 38 -23.5 61t-60.5 23zM348 308q56 -17 86 -56t30 -92q0 -38 -15 -69t-42 -53.5 t-64.5 -35t-82.5 -12.5t-82.5 12.5t-64.5 35t-42 53.5t-15 69q0 53 30 92t86 56q-88 38 -88 135q0 36 13 65.5t36 50.5t55.5 33t71.5 12t71 -11.5t55.5 -33t36 -51t12.5 -65.5q0 -97 -87 -135z" />
<glyph d="M262 520q-51 0 -82.5 -32t-31.5 -84t31 -84t82 -32t82 32t31 85q0 51 -31.5 83t-80.5 32zM169 0l107 169l46 68q-31 -30 -83 -30q-41 0 -76 14.5t-60 40t-39 61.5t-14 78q0 45 15.5 82t44 64t68 42t86.5 15q46 0 84 -14.5t65 -41.5t42 -64t15 -82q0 -89 -71 -204 l-123 -198h-107z" />
<glyph d="M199 94q15 -8 29 -11.5t31 -3.5q59 0 94.5 41t35.5 108q0 59 -31 102zM320 363q-29 15 -60 15q-58 0 -93.5 -41.5t-35.5 -108.5q0 -59 31 -102zM260 467q49 0 90.5 -18t72 -49.5t47.5 -75t17 -95.5t-17 -96t-47.5 -75.5t-72.5 -49.5t-92 -18q-48 0 -89.5 18t-71.5 50 t-47 76t-17 95q0 52 17 96t47 75.5t71.5 49t91.5 17.5z" />
<glyph d="M260 378q-58 0 -93.5 -41.5t-35.5 -110.5q0 -32 9.5 -59t26.5 -46.5t40.5 -30.5t52.5 -11q58 0 93.5 41.5t35.5 107.5q0 67 -35.5 108.5t-93.5 41.5zM260 467q49 0 90.5 -18t72 -49.5t47.5 -75t17 -95.5t-17 -95.5t-47.5 -75.5t-72 -50t-90.5 -18q-50 0 -91.5 18 t-71.5 50t-47 76.5t-17 97.5q0 51 17 94t47 74.5t71.5 49t91.5 17.5z" />
<glyph d="M101 426l252 41v-467h-101v355l-151 -22v93z" />
<glyph d="M440 88v-88h-365v81q17 12 26 18.5t26 17.5q49 33 74.5 52t43.5 35q32 29 47.5 54.5t15.5 52.5q0 65 -77 65q-75 0 -151 -72v99q69 64 167 64q77 0 121.5 -38t44.5 -104t-46.5 -121.5t-152.5 -115.5h226z" />
<glyph d="M80 405q69 62 165 62q80 0 126.5 -41t46.5 -110q0 -56 -30.5 -94.5t-87.5 -56.5q130 -32 130 -146q0 -38 -15 -68.5t-42 -52t-65 -33.5t-84 -12q-91 0 -153 43v95q38 -29 72.5 -41.5t73.5 -12.5q52 0 81 23.5t29 65.5q0 22 -7.5 38t-24.5 27.5t-45 19t-69 12.5v76 q69 11 101 35.5t32 69.5q0 35 -22.5 55t-60.5 20t-74.5 -18t-76.5 -55v99z" />
<glyph d="M122 97h183v248zM402 97h88v-81h-88v-151h-97v151h-280v83l273 360h104v-362z" />
<glyph d="M206 239q25 -4 44.5 -8t35.5 -8.5t30 -10.5t28 -14q89 -51 89 -158q0 -43 -15 -77.5t-43 -59t-67.5 -37.5t-88.5 -13q-83 0 -145 41v92q38 -26 72 -37.5t69 -11.5q57 0 89 26t32 73q0 58 -51.5 88t-172.5 42l21 291h286v-90h-204z" />
<glyph d="M258 306q-51 0 -81.5 -32t-30.5 -85q0 -51 31 -83t81 -32q51 0 82.5 32t31.5 84t-31.5 84t-82.5 32zM350 594l-107 -169l-46 -68q31 30 83 30q41 0 76 -14.5t60.5 -40.5t39.5 -61.5t14 -77.5q0 -45 -15.5 -82t-44 -64t-68 -42t-86.5 -15q-46 0 -84 15t-65.5 41.5 t-42.5 63.5t-15 82q0 46 17 95t55 109l123 198h106z" />
<glyph d="M52 367v90h404v-90l-256 -504h-104l256 504h-300z" />
<glyph d="M260 264q-46 0 -74.5 -27t-28.5 -71t28 -69t76 -25q46 0 74 25.5t28 68.5q0 44 -28.5 71t-74.5 27zM260 522q-38 0 -61 -23t-23 -61q0 -37 23.5 -60t61.5 -23q36 0 59.5 23.5t23.5 59.5q0 38 -23.5 61t-60.5 23zM348 308q56 -17 86 -56t30 -92q0 -38 -15 -69t-42 -53.5 t-64.5 -35t-82.5 -12.5t-82.5 12.5t-64.5 35t-42 53.5t-15 69q0 53 30 92t86 56q-88 38 -88 135q0 36 13 65.5t36 50.5t55.5 33t71.5 12t71 -11.5t55.5 -33t36 -51t12.5 -65.5q0 -97 -87 -135z" />
<glyph d="M261 384q-51 0 -82.5 -32.5t-31.5 -84.5q0 -51 31.5 -83.5t82.5 -32.5q50 0 81 32.5t31 85.5q0 51 -31 83t-81 32zM169 -137l107 170l46 68q-31 -31 -83 -31q-41 0 -76 14.5t-60.5 40.5t-39.5 61.5t-14 77.5q0 45 15.5 82.5t44 64t68 41.5t86.5 15q46 0 84 -14.5 t65.5 -41.5t42.5 -64t15 -82q0 -46 -17 -93.5t-55 -109.5l-123 -199h-106z" />
<glyph horiz-adv-x="260" d="M129 129q29 0 49.5 -20t20.5 -49t-20.5 -49t-49.5 -20t-48.5 20.5t-19.5 49.5q0 28 20 48t48 20z" />
<glyph horiz-adv-x="260" d="M180 101q0 -68 -27 -127t-74 -92h-73q70 89 70 219h104z" />
<glyph horiz-adv-x="260" d="M129 428q29 0 49 -20t20 -49q0 -28 -20 -48t-49 -20t-48.5 20t-19.5 49q0 28 20 48t48 20zM129 129q29 0 49.5 -20t20.5 -49t-20.5 -49t-49.5 -20t-48.5 20.5t-19.5 49.5q0 28 20 48t48 20z" />
<glyph horiz-adv-x="260" d="M129 428q29 0 49 -20t20 -49q0 -28 -20 -48t-49 -20t-48.5 20t-19.5 49q0 28 20 48t48 20zM180 101q0 -68 -27 -127t-74 -92h-73q70 89 70 219h104z" />
<glyph horiz-adv-x="549" d="M212 92q29 -14 62 -14q31 0 56.5 11t44.5 31.5t29.5 48t10.5 60.5q0 61 -39 106zM336 365q-31 14 -63 14q-30 0 -55.5 -11.5t-44 -31.5t-29 -47.5t-10.5 -59.5q0 -65 39 -107zM274 467q51 0 95 -18t76 -49.5t50 -75.5t18 -95q0 -52 -18 -95.5t-50.5 -75.5t-76.5 -50 t-96 -18q-51 0 -94 18t-74.5 50.5t-49.5 76t-18 94.5t18 95t49.5 75.5t75.5 49.5t95 18z" />
<glyph horiz-adv-x="260" />
<glyph horiz-adv-x="459" d="M45 109h369v-77h-369v77zM191 449h77v-111h146v-76h-146v-112h-77v112h-146v76h146v111z" />
<glyph horiz-adv-x="343" d="M25 96h278v-77h-278v77zM25 285l278 153v-88l-137 -69l137 -70v-88l-278 154v8z" />
<glyph horiz-adv-x="343" d="M318 19h-278v77h278v-77zM318 277l-278 -154v88l137 70l-137 69v88l278 -153v-8z" />
<glyph horiz-adv-x="469" d="M222 273h-177v69h224l59 87h71l-59 -87h84v-69h-131l-46 -69h177v-70h-225l-58 -86h-71l58 86h-83v70h131z" />
<glyph horiz-adv-x="469" d="M45 189q29 18 53 26t50 8q17 0 36.5 -3.5t49.5 -12.5q32 -10 49.5 -13.5t35.5 -3.5q27 0 51.5 8t53.5 26v-74q-29 -18 -53.5 -26t-51.5 -8q-17 0 -36 4t-49 13q-32 10 -50 13t-36 3q-26 0 -50 -8t-53 -26v74zM45 318q29 18 53 26t50 8q17 0 36.5 -3.5t49.5 -12.5 q32 -10 49.5 -13.5t35.5 -3.5q27 0 51.5 8t53.5 26v-74q-29 -18 -53.5 -26t-51.5 -8q-17 0 -36 4t-49 13q-32 10 -50 13t-36 3q-26 0 -50 -8t-53 -26v74z" />
<glyph d="M221 482h77v-151h151v-77h-151v-151h-77v151h-151v77h151v151z" />
<glyph d="M70 331h379v-77h-379v77z" />
<glyph d="M97 400l53 53l109 -110l110 110l53 -53l-110 -110l110 -109l-53 -53l-110 110l-109 -110l-53 53l110 109z" />
<glyph d="M259 504q24 0 41.5 -17t17.5 -41t-17.5 -41.5t-41.5 -17.5t-41 17.5t-17 41.5t17 41t41 17zM259 198q24 0 41.5 -17t17.5 -41t-17.5 -41.5t-41.5 -17.5t-41 17.5t-17 41.5t17 41t41 17zM70 331h379v-77h-379v77z" />
<glyph d="M70 399h379v-72h-379v72zM70 260h379v-72h-379v72z" />
<glyph d="M120 295l279 173v-89l-151 -88l151 -88v-89l-279 173v8z" />
<glyph d="M399 287l-279 -173v89l151 88l-151 88v89l279 -173v-8z" />
<glyph d="M75 164h369v-76h-369v76zM221 505h77v-112h146v-76h-146v-111h-77v111h-146v76h146v112z" />
<glyph d="M120 145h279v-76h-279v76zM120 334l279 154v-88l-137 -70l137 -69v-88l-279 153v8z" />
<glyph d="M399 69h-279v76h279v-76zM399 326l-279 -153v88l137 69l-137 70v88l279 -154v-8z" />
<glyph d="M247 328h-177v70h225l58 86h71l-58 -86h83v-70h-131l-46 -69h177v-70h-225l-58 -86h-71l58 86h-83v70h131z" />
<glyph d="M70 250q29 18 53 26t50 8q17 0 36.5 -3.5t49.5 -12.5q32 -10 49.5 -13.5t35.5 -3.5q27 0 51.5 8t53.5 26v-74q-29 -18 -53.5 -26t-51.5 -8q-17 0 -36 4t-49 13q-32 10 -50 13t-36 3q-26 0 -50 -8t-53 -26v74zM70 379q29 18 53 26t50 8q17 0 36.5 -3.5t49.5 -12.5 q32 -10 49.5 -13.5t35.5 -3.5q27 0 51.5 8t53.5 26v-74q-29 -18 -53.5 -26t-51.5 -8q-17 0 -36 4t-49 13q-32 10 -50 13t-36 3q-26 0 -50 -8t-53 -26v74z" />
<glyph d="M221 422h77v-151h151v-77h-151v-151h-77v151h-151v77h151v151z" />
<glyph d="M70 271h379v-77h-379v77z" />
<glyph d="M97 340l53 53l109 -110l110 110l53 -53l-110 -110l110 -109l-53 -53l-110 110l-109 -110l-53 53l110 109z" />
<glyph d="M259 444q24 0 41.5 -17t17.5 -41t-17.5 -41.5t-41.5 -17.5t-41 17.5t-17 41.5t17 41t41 17zM259 138q24 0 41.5 -17t17.5 -41t-17.5 -41.5t-41.5 -17.5t-41 17.5t-17 41.5t17 41t41 17zM70 271h379v-77h-379v77z" />
<glyph d="M70 339h379v-72h-379v72zM70 200h379v-72h-379v72z" />
<glyph d="M120 235l279 173v-89l-151 -88l151 -88v-89l-279 173v8z" />
<glyph d="M399 227l-279 -173v89l151 88l-151 88v89l279 -173v-8z" />
<glyph d="M75 109h369v-77h-369v77zM221 449h77v-111h146v-76h-146v-112h-77v112h-146v76h146v111z" />
<glyph d="M120 96h279v-77h-279v77zM120 285l279 153v-88l-137 -69l137 -70v-88l-279 154v8z" />
<glyph d="M399 19h-279v77h279v-77zM399 277l-279 -154v88l137 70l-137 69v88l279 -153v-8z" />
<glyph d="M247 273h-177v69h224l59 87h71l-59 -87h84v-69h-131l-46 -69h177v-70h-225l-58 -86h-71l58 86h-83v70h131z" />
<glyph d="M70 189q29 18 53 26t50 8q17 0 36.5 -3.5t49.5 -12.5q32 -10 49.5 -13.5t35.5 -3.5q27 0 51.5 8t53.5 26v-74q-29 -18 -53.5 -26t-51.5 -8q-17 0 -36 4t-49 13q-32 10 -50 13t-36 3q-26 0 -50 -8t-53 -26v74zM70 318q29 18 53 26t50 8q17 0 36.5 -3.5t49.5 -12.5 q32 -10 49.5 -13.5t35.5 -3.5q27 0 51.5 8t53.5 26v-74q-29 -18 -53.5 -26t-51.5 -8q-17 0 -36 4t-49 13q-32 10 -50 13t-36 3q-26 0 -50 -8t-53 -26v74z" />
<glyph horiz-adv-x="434" d="M248 680h90v-818h-90v818zM95 680h91v-818h-91v818z" />
<glyph horiz-adv-x="698" d="M349 567q-58 0 -106.5 -20t-83.5 -56.5t-54.5 -86.5t-19.5 -110q0 -58 19.5 -107t55 -84.5t84 -55.5t105.5 -20q58 0 106.5 20t83.5 56t54.5 85.5t19.5 108.5t-19.5 108.5t-54.5 85.5t-83.5 56t-106.5 20zM349 604q65 0 121 -23t96.5 -64.5t63.5 -97.5t23 -122t-23 -122 t-63.5 -97t-96.5 -64.5t-121 -23.5q-66 0 -121.5 23.5t-96 64.5t-63.5 98t-23 124q0 64 23.5 120t64 96.5t96 64t120.5 23.5zM325 296q8 -1 15 -1.5t15 -0.5q66 0 66 57q0 27 -18 42.5t-50 15.5q-7 0 -13.5 -0.5t-14.5 -1.5v-111zM325 122h-80v347q29 5 56 7.5t49 2.5 q72 0 112 -33.5t40 -94.5q0 -60 -36.5 -92t-102.5 -32h-23.5t-14.5 2v-107z" />
<glyph horiz-adv-x="534" d="M218 90q23 -13 49 -13q29 0 52.5 15.5t40.5 44t26 68.5t9 90q0 54 -10 94.5t-31 73.5zM316 503q-24 14 -49 14q-59 0 -93 -59.5t-34 -160.5q0 -55 9.5 -94.5t30.5 -71.5zM267 604q51 0 93 -22t72 -62.5t46.5 -97t16.5 -125.5t-16.5 -125.5t-46.5 -97t-72.5 -62.5 t-94.5 -22q-50 0 -91.5 22.5t-71.5 63t-46.5 97t-16.5 124.5q0 69 16.5 125.5t46.5 97t72 62.5t93 22z" />
<glyph horiz-adv-x="500" d="M127 512q2 40 11 64t29 43q33 30 83 30q58 0 91 -38q17 -19 23.5 -40.5t8.5 -58.5h-75q-1 70 -48 70t-48 -70h-75z" />
<glyph horiz-adv-x="500" d="M184 513l-85 152h84l85 -152h-84zM316 513l-85 152h84l85 -152h-84z" />
<glyph horiz-adv-x="500" d="M311 680l-43 -157h-80l43 157h80z" />
<glyph horiz-adv-x="500" d="M250 -59q26 0 43.5 -18t17.5 -44q0 -25 -18 -43t-44 -18q-24 0 -42.5 18.5t-18.5 42.5q0 26 18 44t44 18z" />
<glyph horiz-adv-x="500" d="M317 0q-4 -46 -23.5 -86t-46.5 -60h-89q69 65 77 146h82z" />
<glyph horiz-adv-x="500" d="M244 644l-79 141h91l79 -141h-91z" />
<glyph horiz-adv-x="500" d="M165 644l79 141h91l-79 -141h-91z" />
<glyph horiz-adv-x="500" d="M397 640h-85l-62 76l-62 -76h-85l116 143h62z" />
<glyph horiz-adv-x="500" d="M394 763q-3 -125 -82 -125q-17 0 -32 7t-38 25q-16 13 -25.5 17.5t-17.5 4.5q-27 0 -28 -51h-66q3 125 82 125q17 0 32 -7t38 -25q17 -13 26.5 -17.5t17.5 -4.5q27 0 28 51h65z" />
<glyph horiz-adv-x="500" d="M137 725h225v-74h-225v74z" />
<glyph horiz-adv-x="500" d="M373 776q-5 -133 -123 -133q-58 0 -92 37q-16 18 -22.5 39.5t-8.5 56.5h75q1 -35 12 -50.5t36 -15.5t36 15.5t12 50.5h75z" />
<glyph horiz-adv-x="500" d="M127 643q5 133 123 133q58 0 92 -37q16 -18 22.5 -39.5t8.5 -56.5h-75q-1 35 -12 50.5t-36 15.5t-36 -15.5t-12 -50.5h-75z" />
<glyph horiz-adv-x="500" d="M250 762q26 0 44 -18t18 -44t-18.5 -44t-44.5 -18q-25 0 -43 18t-18 44t18 44t44 18z" />
<glyph horiz-adv-x="500" d="M336 755q25 0 42.5 -17.5t17.5 -42.5t-17.5 -42.5t-43.5 -17.5q-24 0 -41.5 17.5t-17.5 42.5t17.5 42.5t42.5 17.5zM164 755q25 0 42.5 -17.5t17.5 -42.5t-17.5 -42.5t-43.5 -17.5q-24 0 -41.5 17.5t-17.5 42.5t17.5 42.5t42.5 17.5z" />
<glyph horiz-adv-x="500" d="M250 760q-19 0 -30.5 -11t-11.5 -30q0 -20 11.5 -31t30.5 -11t30.5 11.5t11.5 30.5q0 18 -11.5 29.5t-30.5 11.5zM250 809q41 0 67 -25t26 -65t-26 -65.5t-67 -25.5q-42 0 -68 25.5t-26 66.5q0 38 26.5 63.5t67.5 25.5z" />
<glyph horiz-adv-x="500" d="M231 644l79 141h84l-79 -141h-84zM99 644l79 141h84l-79 -141h-84z" />
<glyph horiz-adv-x="500" d="M178 644l-79 141h84l79 -141h-84zM310 644l-79 141h84l79 -141h-84z" />
<glyph horiz-adv-x="500" d="M281 643h-62l-116 142h85l62 -76l62 76h85z" />
<glyph horiz-adv-x="263" d="M131 604q29 0 49.5 -20t20.5 -49t-20.5 -49t-49.5 -20t-48.5 20.5t-19.5 49.5q0 28 20 48t48 20zM180 0h-97v409h97v-409z" />
<glyph horiz-adv-x="381" d="M227 603q29 0 48.5 -20t19.5 -49t-19.5 -49t-48.5 -20t-49.5 20.5t-20.5 49.5q0 28 20.5 48t49.5 20zM361 52q-65 -62 -162 -62q-83 0 -131.5 45t-48.5 123q0 68 38.5 111t123.5 70v69h93v-116q-47 -15 -77 -28t-48 -27t-25 -31.5t-7 -40.5q0 -39 26 -62.5t70 -23.5 q38 0 72 15.5t76 53.5v-96z" />
<glyph horiz-adv-x="313" d="M145 295l122 -158h-98l-123 158l123 158h98z" />
<glyph horiz-adv-x="313" d="M46 453h98l123 -158l-123 -158h-98l122 158z" />
<glyph horiz-adv-x="475" d="M307 295l122 -158h-98l-123 158l123 158h98zM145 295l122 -158h-98l-123 158l123 158h98z" />
<glyph horiz-adv-x="475" d="M208 453h98l123 -158l-123 -158h-98l122 158zM46 453h98l123 -158l-123 -158h-98l122 158z" />
<glyph horiz-adv-x="429" d="M314 680h99l-298 -780h-99z" />
<glyph horiz-adv-x="429" d="M413 -100h-99l-298 780h99z" />
<glyph horiz-adv-x="281" d="M95 680h91v-780h-91v780z" />
<glyph horiz-adv-x="434" d="M248 680h90v-780h-90v780zM95 680h91v-780h-91v780z" />
<glyph horiz-adv-x="281" d="M95 221h91v-321h-91v321zM95 680h91v-321h-91v321z" />
<glyph horiz-adv-x="331" d="M165 398q22 0 41.5 -8.5t33.5 -22.5t22.5 -33t8.5 -41t-8.5 -41t-22.5 -33.5t-33 -22.5t-41 -8t-41 8t-33.5 22.5t-22.5 33.5t-8 42q0 21 8 40t22.5 33.5t33.5 22.5t40 8z" />
<glyph horiz-adv-x="259" d="M129 362q29 0 49.5 -20t20.5 -49t-20.5 -49t-49.5 -20t-48.5 20.5t-19.5 49.5q0 28 20 48t48 20z" />
<glyph horiz-adv-x="355" d="M53 340h249v-87h-249v87z" />
<glyph horiz-adv-x="572" d="M53 335h466v-76h-466v76z" />
<glyph horiz-adv-x="952" d="M53 335h846v-76h-846v76z" />
<glyph horiz-adv-x="364" d="M243 -100q-46 43 -74 81.5t-51 89.5q-47 103 -47 219q0 70 17.5 136.5t51.5 126.5q11 19 21.5 34.5t22.5 30.5t26 29.5t33 32.5h111q-49 -48 -84.5 -94.5t-58.5 -94t-34 -97.5t-11 -104t11 -104t34 -97.5t58.5 -94t84.5 -94.5h-111z" />
<glyph horiz-adv-x="364" d="M121 680q23 -21 41 -41t33 -40t27 -42t24 -48q47 -103 47 -219q0 -70 -17.5 -136.5t-51.5 -126.5q-11 -19 -21.5 -34.5t-22.5 -30t-26 -29.5t-33 -33h-111q49 48 84.5 94.5t58.5 94t34 97.5t11 104t-11 104t-34 97.5t-58.5 94t-84.5 94.5h111z" />
<glyph horiz-adv-x="339" d="M183 -23h106v-77h-196v780h196v-77h-106v-626z" />
<glyph horiz-adv-x="339" d="M156 603h-106v77h196v-780h-196v77h106v626z" />
<glyph horiz-adv-x="366" d="M238 422q0 -55 -28.5 -90t-78.5 -42q50 -7 78.5 -42t28.5 -90v-113q0 -68 56 -68h30v-77h-39q-138 0 -138 145v117q0 89 -78 89h-29v78h29q78 0 78 89v117q0 145 138 145h39v-77h-30q-56 0 -56 -68v-113z" />
<glyph horiz-adv-x="366" d="M128 158q0 55 28.5 90t78.5 42q-50 7 -78.5 42t-28.5 90v113q0 68 -56 68h-30v77h39q138 0 138 -145v-117q0 -89 78 -89h29v-78h-29q-78 0 -78 -89v-117q0 -145 -138 -145h-39v77h30q56 0 56 68v113z" />
<glyph horiz-adv-x="769" d="M471 407q-11 3 -21.5 4.5t-26.5 1.5q-60 0 -95.5 -33t-35.5 -90q0 -58 36 -92t98 -34q15 0 24.5 0.5t20.5 2.5v240zM550 176q109 50 109 186q0 54 -17.5 97t-50 73t-79 46t-104.5 16q-68 0 -123 -21.5t-94.5 -61t-61 -95t-21.5 -123.5q0 -71 23.5 -127t67 -95 t106.5 -59.5t143 -20.5q53 0 98.5 8t96.5 27v-60q-86 -34 -198 -34q-93 0 -167.5 25t-126.5 71.5t-80 113.5t-28 150q0 80 26.5 146.5t75 114t116 73.5t148.5 26q72 0 131 -20.5t100 -58t63.5 -91.5t22.5 -120q0 -62 -20.5 -112t-58.5 -85t-92.5 -54t-121.5 -19 q-107 0 -166.5 52t-59.5 146q0 45 15.5 82.5t43.5 63.5t67.5 40.5t87.5 14.5q33 0 66 -6t63 -18v-291z" />
<glyph horiz-adv-x="325" d="M163 102q-28 0 -44 -29t-16 -80t16 -80t44 -29t44 29.5t16 80.5q0 50 -16.5 79t-43.5 29zM163 172q31 0 57 -13t44.5 -37t28.5 -57.5t10 -73.5q0 -39 -10.5 -71.5t-29 -56t-44 -36.5t-56.5 -13t-57 13t-44.5 36.5t-29 56.5t-10.5 73t10.5 73t29 56.5t44.5 36.5t57 13z " />
<glyph horiz-adv-x="200" d="M13 148l145 24v-352h-81v264l-64 -8v72z" />
<glyph horiz-adv-x="267" d="M249 -110v-70h-239v60q42 34 70.5 59.5t45 45.5t23.5 36.5t7 32.5q0 21 -12.5 33t-35.5 12q-43 0 -90 -40v75q44 38 108 38q53 0 83.5 -27.5t30.5 -75.5q0 -45 -29 -86.5t-97 -92.5h135z" />
<glyph horiz-adv-x="254" d="M21 139q25 17 48.5 25t52.5 8q50 0 78.5 -24.5t28.5 -66.5q0 -32 -17.5 -54t-49.5 -32q73 -19 73 -83q0 -45 -34 -71.5t-92 -26.5q-27 0 -49 5.5t-45 19.5v77q41 -34 88 -34q50 0 50 39q0 21 -15.5 30t-59.5 12v58q36 3 52.5 14t16.5 32q0 34 -40 34q-41 0 -86 -38v76z " />
<glyph horiz-adv-x="324" d="M84 -40h94v121zM255 -40h53v-61h-53v-79h-77v79h-163v61l161 206h79v-206z" />
<glyph horiz-adv-x="252" d="M104 41q67 -9 98 -36t31 -78t-35 -82t-95 -31q-50 0 -89 25v72q23 -17 43 -24t42 -7q58 0 58 44q0 28 -28.5 42.5t-94.5 19.5l13 180h175v-70h-114z" />
<glyph horiz-adv-x="296" d="M148 -8q-24 0 -38.5 -15t-14.5 -41t14.5 -41.5t39.5 -15.5t40 15.5t15 41.5t-15 41t-41 15zM212 166l-56 -92l-23 -34q14 11 35 11q49 0 80.5 -32t31.5 -82q0 -27 -10 -49.5t-27.5 -39t-41.5 -25.5t-53 -9q-28 0 -51.5 9t-40.5 25t-26.5 38.5t-9.5 49.5q0 28 9 55t31 62 l69 113h83z" />
<glyph horiz-adv-x="257" d="M9 96v70h232v-70l-131 -276h-82l130 276h-149z" />
<glyph horiz-adv-x="285" d="M143 -36q-21 0 -34 -12.5t-13 -32.5t13 -31.5t34 -11.5q20 0 33.5 12t13.5 31q0 20 -13 32.5t-34 12.5zM143 110q-18 0 -29.5 -11t-11.5 -28q0 -18 11.5 -29.5t29.5 -11.5t29 11.5t11 29.5q0 17 -11.5 28t-28.5 11zM206 -4q61 -23 61 -82q0 -45 -34.5 -72.5t-89.5 -27.5 q-56 0 -90.5 27.5t-34.5 72.5q0 59 62 82q-48 24 -48 78q0 44 30.5 71t80.5 27q49 0 80 -27.5t31 -71.5q0 -53 -48 -77z" />
<glyph horiz-adv-x="296" d="M147 108q-25 0 -40 -15.5t-15 -41.5t15 -41.5t40 -15.5t40 16t15 42q0 25 -15.5 40.5t-39.5 15.5zM84 -180l56 93l23 34q-14 -11 -35 -11q-49 0 -80.5 32t-31.5 83q0 54 36.5 87.5t95.5 33.5q57 0 92.5 -33.5t35.5 -88.5q0 -27 -9 -54t-31 -63l-68 -113h-84z" />
</font>
</defs>
</svg>
