<?xml version="1.0" standalone="no"?>
<!DOCTYPE svg PUBLIC "-//W3C//DTD SVG 1.1//EN" "http://www.w3.org/Graphics/SVG/1.1/DTD/svg11.dtd" >
<svg xmlns="http://www.w3.org/2000/svg">
<metadata></metadata>
<defs>
<font id="fsecure_officebold" horiz-adv-x="1065" vert-adv-y="2048" >
<font-face units-per-em="2048" ascent="1536" descent="-512" />
<missing-glyph horiz-adv-x="389" />
<glyph unicode="&#xfb01;" horiz-adv-x="1159" vert-adv-y="2457" d="M16 680v242h145v125q0 190 108 287q88 80 232 80q76 0 142 -29v-264q-44 21 -95 21q-96 0 -96 -109v-111h166v-242h-166v-680h-291v680h-145zM721 1198q0 68 48 117q48 50 118 50q69 0 119 -50q48 -50 48 -117t-48 -116q-49 -50 -120 -50q-69 0 -117 50q-48 49 -48 116z M743 0v922h291v-922h-291z" />
<glyph unicode="&#xfb02;" horiz-adv-x="1157" vert-adv-y="2457" d="M16 680v242h145v125q0 190 108 287q88 80 232 80q76 0 142 -29v-264q-44 21 -95 21q-96 0 -96 -109v-111h166v-242h-166v-680h-291v680h-145zM743 0v1393h291v-1393h-291z" />
<glyph unicode="&#xfb03;" horiz-adv-x="1741" vert-adv-y="2457" d="M16 680v242h145v92q0 190 108 287q88 80 230 80q86 0 160 -35v-266q-47 31 -107 31q-100 0 -100 -111v-78h291v125q0 188 107 286q89 81 235 81q78 0 139 -29v-264q-43 21 -94 21q-96 0 -96 -109v-111h166v-242h-166v-680h-291v680h-291v-680h-291v680h-145zM1302 1198 q0 68 48 117q48 50 118 50q69 0 119 -50q48 -50 48 -117t-48 -116q-49 -50 -120 -50q-69 0 -117 50q-48 49 -48 116zM1324 0v922h291v-922h-291z" />
<glyph unicode="&#xfb04;" horiz-adv-x="1739" vert-adv-y="2457" d="M16 680v242h145v92q0 190 108 287q88 80 230 80q86 0 160 -35v-266q-47 31 -107 31q-100 0 -100 -111v-78h291v125q0 188 107 286q89 81 235 81q78 0 139 -29v-264q-43 21 -94 21q-96 0 -96 -109v-111h166v-242h-166v-680h-291v680h-291v-680h-291v680h-145zM1324 0v1393 h291v-1393h-291z" />
<glyph horiz-adv-x="2048" vert-adv-y="0" />
<glyph horiz-adv-x="2048" vert-adv-y="0" />
<glyph unicode="&#xd;" horiz-adv-x="2048" vert-adv-y="0" />
<glyph unicode=" " horiz-adv-x="389" vert-adv-y="2457" />
<glyph unicode="!" horiz-adv-x="524" vert-adv-y="2457" d="M76 170q0 76 54 131q54 54 130 54q78 0 132 -55q55 -55 55 -132q0 -76 -54 -129q-55 -55 -133 -55q-76 0 -130 54q-54 53 -54 132zM117 422v795h291v-795h-291z" />
<glyph unicode="&#x22;" horiz-adv-x="782" vert-adv-y="2457" d="M102 834l41 485h248l-82 -485h-207zM432 834l41 485h247l-88 -485h-200z" />
<glyph unicode="#" horiz-adv-x="1124" vert-adv-y="2457" d="M61 313v190h180l44 220h-158v190h197l61 304h217l-61 -304h172l61 304h217l-61 -304h132v-190h-171l-44 -220h150v-190h-188l-64 -313h-217l64 313h-172l-64 -313h-217l64 313h-142zM458 503h172l44 220h-172z" />
<glyph unicode="$" horiz-adv-x="928" vert-adv-y="2457" d="M41 844q0 210 170 309q65 38 147 53v187h225v-183q119 -17 228 -79v-289q-159 123 -326 123q-144 0 -144 -96q0 -50 49 -80q35 -21 154 -50q209 -51 285 -158q58 -82 58 -205q0 -283 -304 -358v-213h-225v196q-163 9 -292 82v289q174 -121 341 -121q174 0 174 105 q0 51 -49 80q-34 21 -139 47q-217 53 -293 159q-59 82 -59 202z" />
<glyph unicode="%" horiz-adv-x="1425" vert-adv-y="2457" d="M41 927q0 131 89 220q89 90 224 90t225 -90q89 -89 89 -223t-89 -223q-90 -90 -224 -90q-135 0 -225 90q-89 88 -89 226zM250 0l731 1217h193l-732 -1217h-192zM252 923q0 -48 29 -77q29 -28 74 -28q46 0 75 29t29 77q0 50 -30 80q-28 28 -74 28q-45 0 -73 -28 q-30 -29 -30 -81zM758 293q0 133 89 223t224 90q134 0 224 -90q89 -89 89 -226q0 -131 -89 -220q-90 -90 -224 -90t-224 90q-89 89 -89 223zM969 293q0 -49 29 -78q28 -28 73 -28q47 0 75 29q29 29 29 78t-29 79q-28 28 -75 28q-44 0 -72 -28q-30 -29 -30 -80z" />
<glyph unicode="&#x26;" horiz-adv-x="1231" vert-adv-y="2457" d="M43 330q0 174 134 265q38 25 96 49q-97 120 -97 259q0 140 90 229q104 105 280 105q152 0 252 -80q107 -86 107 -236q0 -212 -212 -330l146 -160q41 79 56 206h246q-12 -138 -41 -217q-35 -95 -94 -173l225 -247h-350l-69 72q-159 -92 -347 -92q-227 0 -340 123 q-82 88 -82 227zM332 340q0 -131 166 -131q79 0 153 33l-233 247q-86 -53 -86 -149zM455 914q0 -43 33 -89q21 -32 64 -78q93 62 93 163q0 45 -25 71q-27 26 -70 26q-42 0 -69 -27q-26 -26 -26 -66z" />
<glyph unicode="'" horiz-adv-x="453" vert-adv-y="2457" d="M102 834l41 485h248l-82 -485h-207z" />
<glyph unicode="(" horiz-adv-x="862" vert-adv-y="2457" d="M172 556q0 290 143 559q77 145 209 278h318q-168 -174 -255 -341q-128 -244 -128 -497q0 -270 145 -529q84 -149 238 -309h-318q-108 110 -172 213q-180 295 -180 626z" />
<glyph unicode=")" horiz-adv-x="862" vert-adv-y="2457" d="M20 -283q168 174 255 341q128 244 128 497q0 271 -146 529q-83 149 -237 309h317q109 -109 172 -212q181 -294 181 -626q0 -291 -143 -559q-77 -145 -210 -279h-317z" />
<glyph unicode="*" horiz-adv-x="819" vert-adv-y="2457" d="M61 1057l63 203l193 -70l-4 203h213l-6 -205l190 68l68 -201l-197 -59l123 -162l-170 -125l-117 170l-116 -166l-170 121l123 164z" />
<glyph unicode="+" vert-adv-y="2457" d="M143 494v211h283v282h211v-282h282v-211h-282v-283h-211v283h-283z" />
<glyph unicode="," horiz-adv-x="559" vert-adv-y="2457" d="M18 -229q72 117 100 231q25 101 27 254h295q-5 -177 -62 -297q-51 -106 -151 -188h-209z" />
<glyph unicode="-" horiz-adv-x="727" vert-adv-y="2457" d="M70 406v258h588v-258h-588z" />
<glyph unicode="." horiz-adv-x="559" vert-adv-y="2457" d="M94 170q0 76 54 131q54 54 130 54q78 0 132 -55q55 -55 55 -132q0 -76 -54 -129q-55 -55 -133 -55q-76 0 -130 54q-54 53 -54 132z" />
<glyph unicode="/" horiz-adv-x="940" vert-adv-y="2457" d="M-25 -283l643 1676h299l-643 -1676h-299z" />
<glyph unicode="0" vert-adv-y="2457" d="M47 615q0 228 96 391q136 231 389 231q225 0 359 -186q125 -173 125 -444q0 -286 -140 -461q-132 -166 -344 -166q-226 0 -362 188q-123 170 -123 447zM350 603q0 -160 39 -252q48 -113 143 -113q81 0 128 82q55 98 55 285q0 166 -40 260q-48 114 -143 114 q-97 0 -145 -118q-37 -92 -37 -258z" />
<glyph unicode="1" vert-adv-y="2457" d="M135 863v274l612 98v-1235h-301v904z" />
<glyph unicode="2" vert-adv-y="2457" d="M88 0v223q253 218 344 318q145 157 145 276q0 65 -41 101q-43 38 -120 38q-142 0 -305 -134v286q160 129 385 129q196 0 308 -111q99 -99 99 -256q0 -191 -160 -373q-88 -100 -257 -229h448v-268h-846z" />
<glyph unicode="3" vert-adv-y="2457" d="M143 70v282q152 -122 310 -122q163 0 163 121q0 80 -80 111q-52 20 -174 21v238q232 5 232 147q0 105 -123 105q-139 0 -303 -129v281q155 112 353 112q201 0 302 -109q76 -83 76 -215t-79 -215q-42 -45 -120 -83q98 -36 148 -88q73 -77 73 -199q0 -190 -160 -282 q-116 -66 -284 -66q-183 0 -334 90z" />
<glyph unicode="4" vert-adv-y="2457" d="M45 279v246l540 694h289v-702h144v-238h-144v-279h-291v279h-538zM319 517h264v352z" />
<glyph unicode="5" vert-adv-y="2457" d="M137 70v268q153 -108 303 -108q193 0 193 140q0 97 -111 148q-90 41 -315 60l45 639h637v-270h-393l-13 -154q164 -26 255 -79q178 -104 178 -331q0 -185 -123 -294q-124 -109 -337 -109q-191 0 -319 90z" />
<glyph unicode="6" vert-adv-y="2457" d="M72 411q0 111 54 242q31 74 96 185l221 379h315l-162 -277l-82 -131q29 8 70 8q168 0 283 -114q112 -112 112 -288q0 -184 -121 -305q-130 -130 -342 -130q-201 0 -323 123q-121 121 -121 308zM353 404q0 -79 49 -128q47 -46 119 -46q73 0 120 47q49 48 49 129t-50 130 q-46 47 -119 47q-72 0 -119 -47q-49 -49 -49 -132z" />
<glyph unicode="7" vert-adv-y="2457" d="M90 947v270h883v-272l-516 -945h-312l519 947h-574z" />
<glyph unicode="8" vert-adv-y="2457" d="M102 332q0 125 88 210q44 42 115 71q-160 89 -160 275q0 145 95 240q110 109 293 109q181 0 289 -107q95 -94 95 -242q0 -186 -156 -275q75 -31 122 -80q79 -83 79 -201q0 -168 -136 -267q-118 -85 -294 -85q-188 0 -309 97q-121 98 -121 255zM397 350q0 -54 34 -88 q37 -38 102 -38q63 0 100 38q34 34 34 88q0 57 -36 93q-36 37 -99 37q-62 0 -99 -37q-36 -36 -36 -93zM411 871q0 -57 34 -90q33 -33 88 -33q53 0 86 33q34 33 34 90q0 53 -33 87q-33 33 -88 33t-88 -33t-33 -87z" />
<glyph unicode="9" vert-adv-y="2457" d="M80 802q0 184 121 305q130 130 342 130q201 0 323 -123q121 -122 121 -308q0 -112 -54 -242q-31 -75 -95 -185l-221 -379h-316l162 277l82 131q-31 -8 -70 -8q-168 0 -283 114q-112 112 -112 288zM369 811q0 -81 50 -130q47 -47 119 -47t119 47q49 49 49 132 q0 78 -49 128q-46 46 -119 46t-120 -47q-49 -49 -49 -129z" />
<glyph unicode=":" horiz-adv-x="559" vert-adv-y="2457" d="M94 170q0 76 54 131q54 54 130 54q78 0 132 -55q55 -55 55 -132q0 -76 -54 -129q-55 -55 -133 -55q-76 0 -130 54q-54 53 -54 132zM94 698q0 76 54 131q54 54 130 54q78 0 132 -55q55 -55 55 -132q0 -76 -54 -130t-133 -54q-76 0 -130 54t-54 132z" />
<glyph unicode=";" horiz-adv-x="559" vert-adv-y="2457" d="M18 -229q72 117 100 231q25 101 27 254h295q-5 -177 -62 -297q-51 -106 -151 -188h-209zM110 698q0 76 55 131q53 54 129 54q78 0 132 -55q55 -55 55 -132q0 -76 -54 -130t-133 -54q-76 0 -130 54t-54 132z" />
<glyph unicode="&#x3c;" vert-adv-y="2457" d="M236 588v16l592 377v-240l-254 -145l254 -145v-240z" />
<glyph unicode="=" vert-adv-y="2457" d="M143 344v190h776v-190h-776zM143 672v190h776v-190h-776z" />
<glyph unicode="&#x3e;" vert-adv-y="2457" d="M236 211v240l254 145l-254 145v240l592 -377v-16z" />
<glyph unicode="?" horiz-adv-x="782" vert-adv-y="2457" d="M31 844v275q144 118 353 118q198 0 297 -107q81 -89 81 -238q0 -277 -311 -361v-109h-268v248q161 45 206 68q82 43 82 123q0 112 -136 112q-88 0 -181 -49q-49 -26 -123 -80zM135 167q0 79 56 136q51 52 125 52q80 0 135 -55t55 -134q0 -74 -52 -126q-57 -56 -139 -56 q-73 0 -126 52q-54 54 -54 131z" />
<glyph unicode="@" horiz-adv-x="1577" vert-adv-y="2457" d="M82 429q0 334 206 541q207 208 550 208q319 0 498 -178q159 -159 159 -414q0 -270 -171 -423q-162 -145 -433 -145q-256 0 -382 138q-97 106 -97 276q0 187 116 301q126 123 340 123q146 0 273 -49v-569q192 97 192 354q0 208 -134 327q-131 116 -362 116 q-272 0 -433 -162q-162 -164 -162 -436q0 -345 256 -494q167 -97 420 -97q213 0 409 72v-147q-178 -70 -418 -70q-435 0 -656 240q-171 187 -171 488zM654 431q0 -93 56 -150q58 -58 157 -58h8q20 0 43 2v406q-19 4 -50 4q-100 0 -158 -58q-56 -56 -56 -146z" />
<glyph unicode="A" horiz-adv-x="1313" vert-adv-y="2457" d="M0 0l473 1217h367l473 -1217h-334l-82 231h-491l-84 -231h-322zM497 479h312l-154 432z" />
<glyph unicode="B" horiz-adv-x="1100" vert-adv-y="2457" d="M125 8v1197q200 32 373 32q211 0 335 -71q150 -85 150 -271q0 -103 -59 -174q-56 -67 -158 -90q139 -20 208 -98q69 -76 69 -191q0 -358 -583 -358q-165 0 -335 24zM418 237q59 -3 101 -3q213 0 213 131q0 122 -177 122h-137v-250zM418 729h88q178 0 178 132 q0 120 -156 120q-63 0 -110 -8v-244z" />
<glyph unicode="C" horiz-adv-x="1128" vert-adv-y="2457" d="M66 608q0 281 173 455t460 174q185 0 325 -77v-326q-137 128 -326 128q-148 0 -234 -97q-85 -96 -85 -256q0 -168 97 -265q89 -90 239 -90q114 0 209 46q50 24 125 81v-311q-158 -90 -350 -90q-288 0 -460 172q-173 174 -173 456z" />
<glyph unicode="D" horiz-adv-x="1280" vert-adv-y="2457" d="M125 12v1195q208 30 400 30q361 0 543 -198q146 -158 146 -422q0 -308 -187 -474q-179 -160 -521 -160q-234 0 -381 29zM430 256q58 -7 127 -7q169 0 259 100q85 95 85 266q0 169 -99 258q-92 83 -251 83q-63 0 -121 -5v-695z" />
<glyph unicode="E" horiz-adv-x="1034" vert-adv-y="2457" d="M125 0v1217h805v-268h-504v-210h459v-262h-459v-209h518v-268h-819z" />
<glyph unicode="F" horiz-adv-x="924" vert-adv-y="2457" d="M125 0v1217h739v-268h-434v-259h387v-264h-387v-426h-305z" />
<glyph unicode="G" horiz-adv-x="1202" vert-adv-y="2457" d="M66 604q0 283 175 458t462 175q214 0 371 -92v-314q-153 133 -355 133q-163 0 -255 -103q-85 -95 -85 -253q0 -173 101 -274q92 -92 239 -92q64 0 103 10v317h299v-497q-155 -92 -409 -92q-321 0 -496 192q-150 165 -150 432z" />
<glyph unicode="H" horiz-adv-x="1348" vert-adv-y="2457" d="M125 0v1217h305v-478h488v478h305v-1217h-305v469h-488v-469h-305z" />
<glyph unicode="I" horiz-adv-x="555" vert-adv-y="2457" d="M125 0v1217h305v-1217h-305z" />
<glyph unicode="J" horiz-adv-x="807" vert-adv-y="2457" d="M41 47v297q110 -83 224 -83q47 0 75 12q55 24 55 102v842h305v-877q0 -173 -107 -268q-104 -92 -290 -92q-152 0 -262 67z" />
<glyph unicode="K" horiz-adv-x="1184" vert-adv-y="2457" d="M125 0v1217h305v-1217h-305zM436 602l371 615h352l-391 -590l418 -627h-359z" />
<glyph unicode="L" horiz-adv-x="934" vert-adv-y="2457" d="M125 0v1217h305v-949h463v-268h-768z" />
<glyph unicode="M" horiz-adv-x="1692" vert-adv-y="2457" d="M68 0l166 1217h364l254 -824l240 824h367l165 -1217h-303l-106 764l-236 -764h-270l-235 764l-105 -764h-301z" />
<glyph unicode="N" horiz-adv-x="1341" vert-adv-y="2457" d="M125 0v1217h307l490 -746v746h295v-1217h-289l-508 731v-731h-295z" />
<glyph unicode="O" horiz-adv-x="1399" vert-adv-y="2457" d="M66 615q0 262 179 441q89 90 216 138q111 43 238 43q273 0 455 -181q180 -178 180 -447q0 -270 -180 -448q-182 -181 -455 -181t-454 181q-179 178 -179 454zM379 609q0 -166 99 -265q88 -89 221 -89q134 0 222 89q98 98 98 268q0 162 -98 261q-87 89 -222 89 q-133 0 -221 -89q-99 -99 -99 -264z" />
<glyph unicode="P" horiz-adv-x="1077" vert-adv-y="2457" d="M125 0v1207q207 30 387 30q288 0 423 -148q103 -113 103 -295q0 -258 -195 -370q-125 -72 -303 -72q-58 0 -110 4v-356h-305zM430 617q36 -5 92 -5q209 0 209 175q0 103 -78 148q-52 30 -131 30q-50 0 -92 -6v-342z" />
<glyph unicode="Q" horiz-adv-x="1399" vert-adv-y="2457" d="M66 608q0 270 179 448q181 181 454 181t455 -181q180 -178 180 -448t-180 -448q-82 -81 -184 -125l276 -330h-355l-229 275q-217 15 -370 138q-121 97 -179 242q-47 116 -47 248zM379 608q0 -166 99 -265q88 -89 221 -89q134 0 222 89q98 99 98 269q0 161 -98 261 q-87 89 -222 89q-133 0 -221 -89q-99 -99 -99 -265z" />
<glyph unicode="R" horiz-adv-x="1137" vert-adv-y="2457" d="M125 0v1211q172 26 376 26q216 0 345 -75q184 -106 184 -345q0 -238 -219 -362l326 -455h-359l-262 389h-88v-389h-303zM428 639h76q217 0 217 167t-208 167q-49 0 -85 -4v-330z" />
<glyph unicode="S" horiz-adv-x="938" vert-adv-y="2457" d="M53 856q0 162 100 263q118 118 328 118q176 0 330 -88v-299q-159 127 -321 127q-140 0 -140 -100q0 -51 49 -82q33 -21 150 -51q202 -54 276 -160q60 -85 60 -215q0 -222 -171 -320q-120 -69 -295 -69q-192 0 -341 86v299q171 -125 336 -125q172 0 172 109q0 52 -49 82 q-34 21 -138 49q-210 55 -286 160q-60 85 -60 216z" />
<glyph unicode="T" horiz-adv-x="1094" vert-adv-y="2457" d="M31 949v268h1032v-268h-364v-949h-303v949h-365z" />
<glyph unicode="U" horiz-adv-x="1257" vert-adv-y="2457" d="M111 436v781h305v-713q0 -158 70 -222q53 -48 160 -48q67 0 182 16v967h305v-1174q-97 -27 -230 -44q-151 -19 -267 -19q-286 0 -421 147q-104 114 -104 309z" />
<glyph unicode="V" horiz-adv-x="1276" vert-adv-y="2457" d="M0 1217h328l313 -908l309 908h326l-453 -1217h-370z" />
<glyph unicode="W" horiz-adv-x="1792" vert-adv-y="2457" d="M41 1217h305l193 -865l207 865h307l211 -865l190 865h297l-289 -1217h-379l-190 789l-188 -789h-375z" />
<glyph unicode="X" horiz-adv-x="1202" vert-adv-y="2457" d="M0 0l432 629l-397 588h352l217 -342l225 342h340l-397 -588l430 -629h-350l-250 383l-260 -383h-342z" />
<glyph unicode="Y" horiz-adv-x="1178" vert-adv-y="2457" d="M0 1217h336l258 -484l245 484h338l-438 -774v-443h-303v443z" />
<glyph unicode="Z" horiz-adv-x="1044" vert-adv-y="2457" d="M61 949v268h909v-268l-559 -681h570v-268h-918v268l547 681h-549z" />
<glyph unicode="[" horiz-adv-x="776" vert-adv-y="2457" d="M211 -283v1676h463v-227h-193v-1222h193v-227h-463z" />
<glyph unicode="\" horiz-adv-x="940" vert-adv-y="2457" d="M23 1393h299l643 -1676h-299z" />
<glyph unicode="]" horiz-adv-x="776" vert-adv-y="2457" d="M102 -56h193v1222h-193v227h463v-1676h-463v227z" />
<glyph unicode="^" horiz-adv-x="934" vert-adv-y="2457" d="M41 692l299 525h254l299 -525h-274l-152 275l-152 -275h-274z" />
<glyph unicode="_" horiz-adv-x="946" vert-adv-y="2457" d="M102 -79h741v-238h-741v238z" />
<glyph unicode="`" horiz-adv-x="1024" vert-adv-y="2457" d="M293 1362h262l174 -311h-262z" />
<glyph unicode="a" horiz-adv-x="965" vert-adv-y="2457" d="M70 268q0 283 403 283h98v37q0 108 -159 108q-133 0 -260 -75v246q137 75 318 75q388 0 388 -342v-580q-191 -40 -376 -40q-412 0 -412 288zM358 283q0 -94 121 -94q50 0 92 8v178h-78q-135 0 -135 -92z" />
<glyph unicode="b" horiz-adv-x="1120" vert-adv-y="2457" d="M125 53v1340h291v-496q87 45 203 45q193 0 318 -125q126 -126 126 -332q0 -240 -152 -376q-144 -129 -402 -129q-194 0 -384 73zM416 246q52 -18 112 -18q116 0 180 70q58 64 58 178q0 92 -57 148q-56 56 -145 56q-82 0 -148 -47v-387z" />
<glyph unicode="c" horiz-adv-x="885" vert-adv-y="2457" d="M57 457q0 215 135 349q136 136 358 136q143 0 259 -67v-271q-105 84 -226 84q-117 0 -179 -69q-54 -59 -54 -155q0 -103 63 -165q65 -65 178 -65q123 0 222 79v-266q-109 -67 -264 -67q-244 0 -377 147q-115 127 -115 330z" />
<glyph unicode="d" horiz-adv-x="1112" vert-adv-y="2457" d="M57 457q0 221 133 354q130 131 346 131q98 0 160 -24v475h291v-1366q-190 -47 -392 -47q-283 0 -425 154q-113 123 -113 323zM352 468q0 -120 71 -183q63 -57 173 -57q50 0 100 8v426q-58 26 -132 26q-104 0 -160 -63q-52 -58 -52 -157z" />
<glyph unicode="e" horiz-adv-x="989" vert-adv-y="2457" d="M56 450q0 231 135 367q124 125 324 125q194 0 297 -116q103 -114 103 -330v-125h-578v-4q45 -139 256 -139q151 0 297 73v-240q-133 -81 -334 -81q-240 0 -374 132q-126 125 -126 338zM339 535h309q-5 169 -142 169q-134 0 -167 -169z" />
<glyph unicode="f" horiz-adv-x="680" vert-adv-y="2457" d="M16 680v242h145v113q0 198 109 296q92 83 249 83q104 0 197 -46v-264q-78 46 -150 46q-114 0 -114 -111v-117h215v-242h-215v-680h-291v680h-145z" />
<glyph unicode="g" horiz-adv-x="1087" vert-adv-y="2457" d="M57 471q0 222 141 349q137 122 380 122q198 0 392 -73v-846q0 -238 -182 -343q-121 -69 -295 -69q-165 0 -323 72v268q84 -49 142 -68q83 -28 172 -28q105 0 155 55q40 43 40 113v20q-60 -29 -165 -29q-222 0 -347 137q-110 121 -110 320zM352 474q0 -104 59 -163 q55 -55 146 -55q54 0 122 23v395q-46 16 -108 16q-113 0 -169 -63q-50 -55 -50 -153z" />
<glyph unicode="h" horiz-adv-x="1096" vert-adv-y="2457" d="M125 0v1393h291v-487q92 36 210 36q181 0 273 -103q86 -96 86 -276v-563h-291v551q0 131 -138 131q-80 0 -140 -20v-662h-291z" />
<glyph unicode="i" horiz-adv-x="541" vert-adv-y="2457" d="M102 1198q0 68 48 117q48 50 118 50q69 0 119 -50q48 -50 48 -117t-48 -116q-49 -50 -120 -50q-69 0 -117 50q-48 49 -48 116zM125 0v922h291v-922h-291z" />
<glyph unicode="j" horiz-adv-x="541" vert-adv-y="2457" d="M-115 -116q82 -27 134 -27q57 0 82 27q24 27 24 90v948h291v-997q0 -150 -93 -232t-259 -82q-86 0 -179 31v242zM102 1198q0 68 48 117q48 50 118 50q69 0 119 -50q48 -50 48 -117t-48 -116q-49 -50 -120 -50q-69 0 -118 50q-47 49 -47 116z" />
<glyph unicode="k" horiz-adv-x="1077" vert-adv-y="2457" d="M125 0v1393h291v-1393h-291zM426 500l305 422h338l-323 -418l331 -504h-329z" />
<glyph unicode="l" horiz-adv-x="541" vert-adv-y="2457" d="M125 0v1393h291v-1393h-291z" />
<glyph unicode="m" horiz-adv-x="1589" vert-adv-y="2457" d="M125 0v861q228 81 425 81q162 0 261 -73q149 73 304 73q195 0 282 -97q80 -89 80 -271v-574h-291v561q0 72 -33 101q-28 26 -85 26q-72 0 -138 -30q14 -34 14 -76v-582h-291v561q0 127 -119 127q-45 0 -118 -18v-670h-291z" />
<glyph unicode="n" horiz-adv-x="1096" vert-adv-y="2457" d="M125 0v856q227 86 461 86q219 0 316 -107q83 -92 83 -272v-563h-291v551q0 131 -134 131q-79 0 -144 -22v-660h-291z" />
<glyph unicode="o" horiz-adv-x="1092" vert-adv-y="2457" d="M57 465q0 202 136 339q137 138 352 138t354 -139q135 -135 135 -342t-135 -342q-139 -139 -354 -139q-214 0 -352 138q-136 135 -136 347zM350 461q0 -116 64 -179q52 -52 131 -52q80 0 132 52q64 63 64 182q0 112 -64 176q-52 52 -132 52q-79 0 -131 -52 q-64 -63 -64 -179z" />
<glyph unicode="p" horiz-adv-x="1108" vert-adv-y="2457" d="M115 -369v1228q207 83 424 83q250 0 390 -141q122 -122 122 -324q0 -244 -147 -377q-134 -121 -368 -121q-77 0 -130 13v-361h-291zM406 246q45 -15 105 -15q124 0 189 72q56 61 56 167q0 97 -56 152q-59 60 -163 60q-72 0 -131 -20v-416z" />
<glyph unicode="q" horiz-adv-x="1104" vert-adv-y="2457" d="M57 457q0 229 148 361q140 124 386 124q194 0 396 -75v-1236h-291v367q-69 -19 -156 -19q-223 0 -353 130t-130 348zM354 459q0 -109 61 -171q57 -57 155 -57q59 0 126 23v416q-59 16 -114 16q-116 0 -176 -67q-52 -58 -52 -160z" />
<glyph unicode="r" horiz-adv-x="735" vert-adv-y="2457" d="M125 0v854q167 82 382 82q102 0 200 -26v-281q-86 35 -187 35q-48 0 -104 -12v-652h-291z" />
<glyph unicode="s" horiz-adv-x="860" vert-adv-y="2457" d="M80 628q0 179 140 260q93 54 235 54q143 0 274 -69v-248q-139 85 -262 85q-104 0 -104 -60q0 -29 29 -45q19 -10 65 -18q214 -37 283 -127q52 -67 52 -174q0 -175 -132 -251q-96 -55 -249 -55q-179 0 -315 75v256q158 -99 307 -99q106 0 106 58q0 31 -32 48 q-22 12 -80 21q-147 23 -217 72q-100 70 -100 217z" />
<glyph unicode="t" horiz-adv-x="766" vert-adv-y="2457" d="M0 680v242h137v227h289v-227h264v-242h-264v-303q0 -129 122 -129q86 0 167 51v-266q-108 -53 -244 -53q-174 0 -261 96q-73 80 -73 217v387h-137z" />
<glyph unicode="u" horiz-adv-x="1069" vert-adv-y="2457" d="M106 346v576h291v-549q0 -92 37 -125q33 -30 109 -30q49 0 110 12v692h291v-889q-186 -53 -404 -53q-252 0 -354 111q-80 88 -80 255z" />
<glyph unicode="v" horiz-adv-x="1067" vert-adv-y="2457" d="M10 922h315l213 -633l213 633h306l-353 -922h-342z" />
<glyph unicode="w" horiz-adv-x="1470" vert-adv-y="2457" d="M10 922h299l150 -598l157 598h246l156 -598l151 598h291l-262 -922h-318l-147 539l-148 -539h-313z" />
<glyph unicode="x" horiz-adv-x="1030" vert-adv-y="2457" d="M8 0l340 473l-320 449h347l145 -230l147 230h334l-319 -447l340 -475h-338l-178 256l-174 -256h-324z" />
<glyph unicode="y" horiz-adv-x="1055" vert-adv-y="2457" d="M10 922h313l211 -600l207 600h303l-504 -1291h-286l133 350z" />
<glyph unicode="z" horiz-adv-x="891" vert-adv-y="2457" d="M59 0v234l395 448h-385v240h738v-242l-400 -440h434v-240h-782z" />
<glyph unicode="{" horiz-adv-x="821" vert-adv-y="2457" d="M115 436v238h55q152 0 152 168v242q0 158 89 239q77 70 210 70h119v-227h-74q-46 0 -61 -26q-9 -16 -9 -58v-217q0 -141 -86 -230q-68 -70 -180 -80q112 -10 180 -80q86 -89 86 -230v-217q0 -37 7 -53q13 -31 63 -31h74v-227h-119q-149 0 -228 88q-71 79 -71 221v242 q0 168 -152 168h-55z" />
<glyph unicode="|" horiz-adv-x="633" vert-adv-y="2457" d="M180 -283v1676h272v-1676h-272z" />
<glyph unicode="}" horiz-adv-x="821" vert-adv-y="2457" d="M82 -56h74q45 0 60 26q9 16 9 58v217q0 141 86 230q68 70 180 80q-112 10 -180 80q-86 89 -86 230v217q0 37 -7 53q-13 31 -62 31h-74v227h119q148 0 227 -88q71 -79 71 -221v-242q0 -168 152 -168h56v-238h-56q-152 0 -152 -168v-242q0 -159 -89 -239q-77 -70 -209 -70 h-119v227z" />
<glyph unicode="~" horiz-adv-x="854" vert-adv-y="2457" d="M72 397q8 330 217 330q69 0 145 -59q51 -39 82 -39q58 0 60 88h207q-8 -330 -217 -330q-69 0 -145 59q-49 39 -81 39q-59 0 -61 -88h-207z" />
<glyph unicode="&#xa0;" horiz-adv-x="389" vert-adv-y="2457" />
<glyph unicode="&#xa1;" horiz-adv-x="524" vert-adv-y="2457" d="M76 772q0 75 54 129q53 54 130 54q78 0 133 -55q54 -53 54 -130q0 -76 -55 -131q-54 -55 -132 -55q-76 0 -130 54q-54 55 -54 134zM117 -279v795h291v-795h-291z" />
<glyph unicode="&#xa2;" horiz-adv-x="879" vert-adv-y="2457" d="M51 457q0 215 134 349q88 87 218 120v184h225v-174q89 -12 175 -62v-270q-105 84 -226 84q-117 0 -179 -69q-54 -59 -54 -155q0 -103 63 -166q65 -65 177 -65q123 0 223 80v-266q-79 -49 -179 -63v-179h-225v188q-78 18 -139 53q-213 126 -213 411z" />
<glyph unicode="&#xa3;" horiz-adv-x="934" vert-adv-y="2457" d="M51 -2v262q81 42 111 106q19 41 27 122h-138v229h141v96q0 216 124 328q107 96 283 96t277 -84v-303q-101 106 -237 106q-158 0 -158 -165v-74h270v-229h-273q-16 -137 -122 -228h537v-262h-842z" />
<glyph unicode="&#xa4;" horiz-adv-x="1192" vert-adv-y="2457" d="M109 244l150 151q-66 106 -66 230q0 126 68 231l-150 150l107 106l149 -151q109 67 229 67q123 0 228 -67l151 149l107 -106l-150 -150q68 -106 68 -230q0 -125 -68 -231l152 -147l-109 -107l-149 150q-109 -68 -230 -68q-120 0 -229 68l-152 -152zM445 621 q0 -68 46 -115q43 -43 106 -43t107 44q46 46 46 116q0 71 -46 118q-43 43 -107 43q-63 0 -106 -43q-46 -46 -46 -120z" />
<glyph unicode="&#xa5;" horiz-adv-x="1137" vert-adv-y="2457" d="M20 1217h325l227 -482l215 482h328l-331 -630h179v-143h-246v-104h246v-143h-246v-197h-303v197h-244v143h244v104h-244v143h178z" />
<glyph unicode="&#xa6;" horiz-adv-x="633" vert-adv-y="2457" d="M180 -283v699h272v-699h-272zM180 694v699h272v-699h-272z" />
<glyph unicode="&#xa7;" horiz-adv-x="1008" vert-adv-y="2457" d="M61 481q0 181 174 267q-72 76 -72 190q0 167 134 243q98 56 242 56q145 0 274 -69v-248q-140 85 -263 85q-104 0 -104 -59q0 -30 42 -50q27 -14 116 -42q159 -52 231 -108q111 -85 111 -230q0 -183 -176 -266q74 -75 74 -192q0 -165 -134 -242q-97 -56 -242 -56 q-144 0 -274 70v248q140 -87 263 -87q104 0 104 59q0 30 -42 50q-28 14 -116 43q-177 58 -252 125q-90 81 -90 213zM329 509q0 -46 40 -74q34 -23 157 -64l31 -10q121 54 121 125q0 48 -40 77q-52 36 -157 64l-31 8q-52 -21 -77 -42q-44 -34 -44 -84z" />
<glyph unicode="&#xa8;" horiz-adv-x="1024" vert-adv-y="2457" d="M160 1190q0 66 46 113q45 46 111 46q67 0 114 -47q46 -47 46 -112q0 -63 -46 -110q-48 -48 -116 -48q-63 0 -109 47t-46 111zM545 1190q0 66 46 113q45 46 111 46q68 0 114 -47q46 -46 46 -111t-46 -111q-47 -48 -116 -48q-63 0 -109 47t-46 111z" />
<glyph unicode="&#xa9;" horiz-adv-x="1430" vert-adv-y="2457" d="M92 615q0 264 181 446q176 176 441 176t442 -176q181 -181 181 -452q0 -272 -181 -453q-177 -176 -441 -176q-265 0 -442 176q-181 181 -181 459zM174 603q0 -239 155 -394q152 -153 385 -153q234 0 386 153q155 156 155 400q0 242 -155 399q-151 153 -385 153t-386 -153 q-155 -156 -155 -405zM345 608q0 183 112 296q114 114 302 114q112 0 207 -55v-248q-85 84 -194 84q-79 0 -129 -50q-52 -53 -52 -140q0 -88 52 -141q50 -50 129 -50q109 0 199 84v-248q-100 -55 -212 -55q-188 0 -302 114q-112 113 -112 295z" />
<glyph unicode="&#xaa;" horiz-adv-x="727" vert-adv-y="2457" d="M45 722q0 216 309 216h74v16q0 82 -118 82q-103 0 -199 -57v201q104 57 243 57q305 0 305 -262v-443q-157 -30 -297 -30q-317 0 -317 220zM286 735q0 -61 80 -61q31 0 62 6v117h-51q-91 0 -91 -62z" />
<glyph unicode="&#xab;" horiz-adv-x="1038" vert-adv-y="2457" d="M61 440l252 324h274l-250 -324l250 -323h-274zM450 440l252 324h274l-249 -324l249 -323h-274z" />
<glyph unicode="&#xad;" horiz-adv-x="727" vert-adv-y="2457" d="M70 406v258h588v-258h-588z" />
<glyph unicode="&#xae;" horiz-adv-x="932" vert-adv-y="2457" d="M82 848q0 167 112 280q108 109 271 109q164 0 273 -109q112 -112 112 -280q0 -167 -112 -278q-109 -109 -276 -109q-159 0 -268 109q-112 111 -112 278zM162 849q0 -138 90 -229q85 -87 216 -87q126 0 212 87q90 91 90 229t-90 230q-85 86 -215 86q-127 0 -212 -86 q-91 -91 -91 -230zM311 659v380q71 16 147 16q69 0 115 -26q66 -38 66 -117q0 -86 -80 -119l104 -134h-133l-77 111h-25v-111h-117zM428 860h27q61 0 61 44q0 45 -56 45q-11 0 -32 -4v-85z" />
<glyph unicode="&#xaf;" horiz-adv-x="1024" vert-adv-y="2457" d="M266 1057v209h489v-209h-489z" />
<glyph unicode="&#xb0;" horiz-adv-x="627" vert-adv-y="2457" d="M51 981q0 105 75 180q75 76 187 76q111 0 187 -76q75 -74 75 -182t-75 -182q-76 -76 -187 -76t-187 76q-75 74 -75 184zM203 978q0 -51 32 -84q30 -30 78 -30t78 30q32 33 32 85t-32 85q-30 30 -78 30q-47 0 -78 -30q-32 -32 -32 -86z" />
<glyph unicode="&#xb1;" vert-adv-y="2457" d="M164 160v211h735v-211h-735zM164 651v211h262v201h211v-201h262v-211h-262v-200h-211v200h-262z" />
<glyph unicode="&#xb2;" horiz-adv-x="584" vert-adv-y="2457" d="M23 471v166q139 108 197 166q84 86 84 146q0 75 -83 75q-92 0 -190 -77v205q103 77 247 77q137 0 208 -77q54 -59 54 -152q0 -110 -85 -207q-46 -54 -145 -129h248v-193h-535z" />
<glyph unicode="&#xb3;" horiz-adv-x="559" vert-adv-y="2457" d="M27 515v217q88 -83 196 -83q77 0 77 55q0 35 -33 47q-26 9 -107 9v156q127 2 127 63q0 49 -66 49q-88 0 -176 -71v209q104 63 228 63q132 0 195 -69q48 -52 48 -133q0 -67 -40 -118q-35 -44 -97 -63q150 -43 150 -175q0 -113 -98 -169q-75 -43 -187 -43q-116 0 -217 56z " />
<glyph unicode="&#xb4;" horiz-adv-x="1024" vert-adv-y="2457" d="M293 1051l174 311h262l-174 -311h-262z" />
<glyph unicode="&#xb5;" horiz-adv-x="1069" vert-adv-y="2457" d="M106 -369v1291h291v-549q0 -93 37 -126q33 -30 109 -30q50 0 110 13v692h291v-889q-185 -54 -376 -54q-106 0 -171 27v-375h-291z" />
<glyph unicode="&#xb6;" horiz-adv-x="1063" vert-adv-y="2457" d="M41 840q0 158 99 259q117 118 315 118h217v-1434h-217v680q-112 5 -178 30q-118 46 -179 141q-57 87 -57 206zM742 -217v1434h217v-1434h-217z" />
<glyph unicode="&#xb7;" horiz-adv-x="575" vert-adv-y="2457" d="M102 536q0 76 54 131q54 54 130 54q78 0 132 -55q55 -55 55 -131q0 -77 -54 -130q-55 -55 -133 -55q-76 0 -130 54t-54 132z" />
<glyph unicode="&#xb8;" horiz-adv-x="1024" vert-adv-y="2457" d="M315 -299q153 148 160 332h233q-7 -223 -145 -332h-248z" />
<glyph unicode="&#xb9;" horiz-adv-x="444" vert-adv-y="2457" d="M23 971v201l354 57v-758h-227v514z" />
<glyph unicode="&#xba;" horiz-adv-x="827" vert-adv-y="2457" d="M41 874q0 154 103 257q104 106 269 106t270 -106q103 -102 103 -261t-104 -263q-106 -105 -268 -105q-163 0 -269 105q-104 104 -104 267zM283 871q0 -77 43 -119q35 -35 87 -35t87 35q42 42 42 120q0 75 -42 117q-35 35 -87 35q-53 0 -87 -35q-43 -42 -43 -118z" />
<glyph unicode="&#xbb;" horiz-adv-x="1038" vert-adv-y="2457" d="M61 117l250 323l-250 324h274l252 -324l-252 -323h-274zM450 117l250 323l-250 324h275l251 -324l-251 -323h-275z" />
<glyph unicode="&#xbc;" horiz-adv-x="1513" vert-adv-y="2457" d="M82 971v201l354 57v-758h-227v514zM234 0l731 1217h192l-731 -1217h-192zM750 147v164l342 434h213v-434h106v-164h-106v-147h-213v147h-342zM928 311h164v203z" />
<glyph unicode="&#xbd;" horiz-adv-x="1538" vert-adv-y="2457" d="M82 971v201l354 57v-758h-227v514zM234 0l731 1217h192l-731 -1217h-192zM901 0v166q137 107 197 166q84 86 84 146q0 75 -83 75q-91 0 -190 -77v204q104 78 248 78q136 0 207 -77q54 -59 54 -152q0 -110 -85 -207q-47 -55 -145 -129h248v-193h-535z" />
<glyph unicode="&#xbe;" horiz-adv-x="1593" vert-adv-y="2457" d="M102 515v217q88 -83 196 -83q77 0 77 55q0 35 -33 47q-26 9 -107 9v156q127 2 127 63q0 49 -66 49q-88 0 -176 -71v209q104 63 228 63q132 0 195 -69q48 -52 48 -133q0 -67 -40 -118q-35 -44 -97 -63q150 -43 150 -175q0 -113 -98 -169q-75 -43 -187 -43q-116 0 -217 56z M325 0l731 1217h193l-731 -1217h-193zM829 147v164l342 434h213v-434h107v-164h-107v-147h-213v147h-342zM1007 311h164v203z" />
<glyph unicode="&#xbf;" horiz-adv-x="782" vert-adv-y="2457" d="M31 46q0 276 311 361v109h268v-248q-160 -44 -206 -68q-82 -43 -82 -123q0 -112 136 -112q87 0 181 50q48 25 123 79v-274q-145 -119 -353 -119q-198 0 -297 107q-81 88 -81 238zM287 773q0 74 52 126q56 56 139 56q73 0 126 -53q54 -53 54 -130q0 -79 -56 -136 q-52 -52 -125 -52q-80 0 -135 55t-55 134z" />
<glyph unicode="&#xc0;" horiz-adv-x="1313" vert-adv-y="2457" d="M0 0l473 1217h367l473 -1217h-334l-82 231h-491l-84 -231h-322zM346 1622h262l172 -309h-262zM497 479h312l-154 432z" />
<glyph unicode="&#xc1;" horiz-adv-x="1313" vert-adv-y="2457" d="M0 0l473 1217h367l473 -1217h-334l-82 231h-491l-84 -231h-322zM497 479h312l-154 432zM528 1313l172 309h263l-172 -309h-263z" />
<glyph unicode="&#xc2;" horiz-adv-x="1313" vert-adv-y="2457" d="M0 0l473 1217h367l473 -1217h-334l-82 231h-491l-84 -231h-322zM311 1309l240 315h197l239 -315h-229l-109 147l-108 -147h-230zM497 479h312l-154 432z" />
<glyph unicode="&#xc3;" horiz-adv-x="1313" vert-adv-y="2457" d="M0 0l473 1217h367l473 -1217h-334l-82 231h-491l-84 -231h-322zM348 1313q3 105 32 167q49 107 156 107q58 0 126 -47q44 -30 71 -30q50 0 51 69h179q-3 -105 -32 -167q-49 -107 -156 -107q-58 0 -125 47q-43 30 -70 30q-52 0 -54 -69h-178zM497 479h312l-154 432z" />
<glyph unicode="&#xc4;" horiz-adv-x="1313" vert-adv-y="2457" d="M0 0l473 1217h367l473 -1217h-334l-82 231h-491l-84 -231h-322zM303 1445q0 65 46 113q46 47 110 47q67 0 115 -48q46 -47 46 -112q0 -63 -45 -109q-47 -48 -117 -48q-64 0 -110 47q-45 46 -45 110zM497 479h312l-154 432zM688 1445q0 65 46 113q46 47 111 47 q67 0 114 -47q46 -47 46 -113q0 -64 -45 -110q-47 -47 -116 -47q-65 0 -111 47q-45 46 -45 110z" />
<glyph unicode="&#xc5;" horiz-adv-x="1313" vert-adv-y="2457" d="M0 0l473 1217h367l473 -1217h-334l-82 231h-491l-84 -231h-322zM444 1480q0 85 56 142q59 59 155 59q97 0 156 -59q57 -56 57 -144t-57 -145q-59 -59 -156 -59q-96 0 -154 59q-57 57 -57 147zM497 479h312l-154 432zM577 1479q0 -38 23 -61q22 -21 56 -21t56 21 q23 23 23 61q0 34 -23 57q-21 22 -57 22q-34 0 -55 -21q-23 -23 -23 -58z" />
<glyph unicode="&#xc6;" horiz-adv-x="1778" vert-adv-y="2457" d="M0 0l671 1217h1002v-268h-504v-210h459v-262h-459v-209h519v-268h-820v231h-420l-127 -231h-321zM584 479h284v517z" />
<glyph unicode="&#xc7;" horiz-adv-x="1128" vert-adv-y="2457" d="M66 608q0 281 173 455t460 174q185 0 325 -77v-326q-137 128 -326 128q-148 0 -234 -97q-85 -96 -85 -256q0 -168 97 -265q89 -90 239 -90q114 0 209 46q49 24 125 81v-311q-133 -76 -292 -89q-22 -185 -143 -280h-247q144 140 157 297q-138 31 -241 115 q-217 175 -217 495z" />
<glyph unicode="&#xc8;" horiz-adv-x="1034" vert-adv-y="2457" d="M125 0v1217h805v-268h-504v-210h459v-262h-459v-209h518v-268h-819zM234 1612h262l172 -309h-262z" />
<glyph unicode="&#xc9;" horiz-adv-x="1034" vert-adv-y="2457" d="M125 0v1217h805v-268h-504v-210h459v-262h-459v-209h518v-268h-819zM375 1313l172 309h262l-172 -309h-262z" />
<glyph unicode="&#xca;" horiz-adv-x="1034" vert-adv-y="2457" d="M125 0v1217h805v-268h-504v-210h459v-262h-459v-209h518v-268h-819zM201 1309l239 315h197l240 -315h-230l-108 147l-109 -147h-229z" />
<glyph unicode="&#xcb;" horiz-adv-x="1034" vert-adv-y="2457" d="M125 0v1217h805v-268h-504v-210h459v-262h-459v-209h518v-268h-819zM184 1445q0 65 46 113q46 47 110 47q67 0 115 -48q46 -47 46 -112q0 -63 -45 -109q-48 -48 -117 -48q-64 0 -110 47q-45 46 -45 110zM569 1445q0 65 46 113q45 47 111 47q67 0 114 -47q46 -47 46 -113 q0 -64 -45 -110q-47 -47 -116 -47q-65 0 -111 47q-45 46 -45 110z" />
<glyph unicode="&#xcc;" horiz-adv-x="555" vert-adv-y="2457" d="M-23 1622h262l172 -309h-262zM124 0v1217h305v-1217h-305z" />
<glyph unicode="&#xcd;" horiz-adv-x="555" vert-adv-y="2457" d="M125 0v1217h305v-1217h-305zM129 1313l172 309h262l-172 -309h-262z" />
<glyph unicode="&#xce;" horiz-adv-x="555" vert-adv-y="2457" d="M-61 1309l240 315h196l240 -315h-230l-108 147l-109 -147h-229zM125 0v1217h305v-1217h-305z" />
<glyph unicode="&#xcf;" horiz-adv-x="555" vert-adv-y="2457" d="M-76 1445q0 65 46 113q45 47 110 47q67 0 114 -48q47 -47 47 -112q0 -63 -45 -109q-48 -48 -117 -48q-64 0 -110 47q-45 46 -45 110zM125 0v1217h305v-1217h-305zM309 1445q0 65 46 113q45 47 111 47q67 0 114 -47q46 -47 46 -113q0 -64 -45 -110q-47 -47 -116 -47 q-65 0 -111 47q-45 46 -45 110z" />
<glyph unicode="&#xd0;" horiz-adv-x="1303" vert-adv-y="2457" d="M41 485v246h106v476q208 30 399 30q363 0 545 -198q146 -158 146 -423q0 -308 -187 -474q-179 -159 -521 -159q-235 0 -382 29v473h-106zM452 256q56 -7 128 -7q169 0 258 100q86 95 86 266q0 169 -99 258q-92 83 -251 83q-63 0 -122 -5v-220h222v-246h-222v-229z" />
<glyph unicode="&#xd1;" horiz-adv-x="1341" vert-adv-y="2457" d="M125 0v1217h307l490 -746v746h295v-1217h-289l-508 731v-731h-295zM371 1313q3 105 31 167q49 107 156 107q59 0 127 -47q44 -30 71 -30q50 0 51 69h178q-3 -105 -31 -167q-49 -107 -156 -107q-59 0 -126 47q-43 30 -70 30q-51 0 -53 -69h-178z" />
<glyph unicode="&#xd2;" horiz-adv-x="1399" vert-adv-y="2457" d="M66 615q0 262 179 441q89 90 216 138q111 43 238 43q273 0 455 -181q180 -178 180 -447q0 -270 -180 -448q-182 -181 -455 -181t-454 181q-179 178 -179 454zM379 609q0 -166 99 -265q88 -89 221 -89q134 0 222 89q98 98 98 268q0 162 -98 261q-87 89 -222 89 q-133 0 -221 -89q-99 -99 -99 -264zM400 1622h262l172 -309h-262z" />
<glyph unicode="&#xd3;" horiz-adv-x="1399" vert-adv-y="2457" d="M66 615q0 262 179 441q89 90 216 138q111 43 238 43q273 0 455 -181q180 -178 180 -447q0 -270 -180 -448q-182 -181 -455 -181t-454 181q-179 178 -179 454zM379 609q0 -166 99 -265q88 -89 221 -89q134 0 222 89q98 98 98 268q0 162 -98 261q-87 89 -222 89 q-133 0 -221 -89q-99 -99 -99 -264zM551 1313l172 309h263l-172 -309h-263z" />
<glyph unicode="&#xd4;" horiz-adv-x="1399" vert-adv-y="2457" d="M66 615q0 262 179 441q89 90 216 138q111 43 238 43q273 0 455 -181q180 -178 180 -447q0 -270 -180 -448q-182 -181 -455 -181t-454 181q-179 178 -179 454zM361 1309l240 315h196l240 -315h-230l-108 147l-109 -147h-229zM379 609q0 -166 99 -265q88 -89 221 -89 q134 0 222 89q98 98 98 268q0 162 -98 261q-87 89 -222 89q-133 0 -221 -89q-99 -99 -99 -264z" />
<glyph unicode="&#xd5;" horiz-adv-x="1399" vert-adv-y="2457" d="M66 615q0 262 179 441q89 90 216 138q111 43 238 43q273 0 455 -181q180 -178 180 -447q0 -270 -180 -448q-182 -181 -455 -181t-454 181q-179 178 -179 454zM379 609q0 -166 99 -265q88 -89 221 -89q134 0 222 89q98 98 98 268q0 162 -98 261q-87 89 -222 89 q-133 0 -221 -89q-99 -99 -99 -264zM392 1313q2 105 31 167q49 107 156 107q58 0 127 -47q43 -30 71 -30q50 0 51 69h178q-3 -105 -31 -167q-49 -107 -157 -107q-58 0 -125 47q-43 30 -70 30q-51 0 -53 -69h-178z" />
<glyph unicode="&#xd6;" horiz-adv-x="1399" vert-adv-y="2457" d="M66 615q0 262 179 441q89 90 216 138q111 43 238 43q273 0 455 -181q180 -178 180 -447q0 -270 -180 -448q-182 -181 -455 -181t-454 181q-179 178 -179 454zM342 1445q0 65 46 113q46 47 110 47q67 0 115 -48q46 -47 46 -112q0 -63 -45 -109q-47 -48 -117 -48 q-64 0 -110 47q-45 46 -45 110zM379 609q0 -166 99 -265q88 -89 221 -89q134 0 222 89q98 98 98 268q0 162 -98 261q-87 89 -222 89q-133 0 -221 -89q-99 -99 -99 -264zM728 1445q0 65 46 113q46 47 111 47q67 0 114 -47q46 -47 46 -113q0 -64 -45 -110q-47 -47 -116 -47 q-65 0 -111 47q-45 46 -45 110z" />
<glyph unicode="&#xd7;" vert-adv-y="2457" d="M186 396l203 202l-203 203l143 144l203 -203l203 203l143 -144l-203 -203l203 -202l-143 -144l-203 203l-203 -203z" />
<glyph unicode="&#xd8;" horiz-adv-x="1423" vert-adv-y="2457" d="M78 0l158 182q-158 184 -158 426q0 270 179 448q181 181 454 181q185 0 346 -96l65 76h224l-158 -184q158 -184 158 -424q0 -270 -180 -448q-182 -181 -454 -181q-181 0 -347 94l-64 -74h-223zM383 607q0 -107 47 -197l445 518q-74 43 -162 43q-135 0 -227 -93 q-103 -103 -103 -271zM547 287q76 -41 162 -41q134 0 225 90q105 104 105 273q0 106 -46 196z" />
<glyph unicode="&#xd9;" horiz-adv-x="1257" vert-adv-y="2457" d="M111 436v781h305v-713q0 -158 70 -222q53 -48 160 -48q67 0 182 16v967h305v-1174q-97 -27 -230 -44q-151 -19 -267 -19q-286 0 -421 147q-104 114 -104 309zM326 1622h262l172 -309h-262z" />
<glyph unicode="&#xda;" horiz-adv-x="1257" vert-adv-y="2457" d="M111 436v781h305v-713q0 -158 70 -222q53 -48 160 -48q67 0 182 16v967h305v-1174q-97 -27 -230 -44q-151 -19 -267 -19q-286 0 -421 147q-104 114 -104 309zM473 1313l173 309h262l-172 -309h-263z" />
<glyph unicode="&#xdb;" horiz-adv-x="1257" vert-adv-y="2457" d="M111 436v781h305v-713q0 -158 70 -222q53 -48 160 -48q67 0 182 16v967h305v-1174q-97 -27 -230 -44q-151 -19 -267 -19q-286 0 -421 147q-104 114 -104 309zM283 1309l240 315h196l240 -315h-230l-108 147l-109 -147h-229z" />
<glyph unicode="&#xdc;" horiz-adv-x="1257" vert-adv-y="2457" d="M111 436v781h305v-713q0 -158 70 -222q53 -48 160 -48q67 0 182 16v967h305v-1174q-97 -27 -230 -44q-151 -19 -267 -19q-286 0 -421 147q-104 114 -104 309zM265 1445q0 65 46 113q45 47 110 47q67 0 114 -48q47 -47 47 -112q0 -63 -45 -109q-48 -48 -117 -48 q-64 0 -110 47q-45 46 -45 110zM650 1445q0 65 46 113q45 47 111 47q67 0 114 -47q46 -47 46 -113q0 -64 -45 -110q-47 -47 -116 -47q-65 0 -111 47q-45 46 -45 110z" />
<glyph unicode="&#xdd;" horiz-adv-x="1178" vert-adv-y="2457" d="M0 1217h336l258 -484l245 484h338l-438 -774v-443h-303v443zM440 1313l172 309h262l-172 -309h-262z" />
<glyph unicode="&#xde;" horiz-adv-x="1077" vert-adv-y="2457" d="M125 0v1217h305v-176q31 2 69 2h23q278 0 413 -148q103 -114 103 -295q0 -258 -195 -370q-125 -72 -303 -72q-51 0 -110 4v-162h-305zM430 422q36 -4 92 -4q209 0 209 175q0 103 -78 147q-52 30 -131 30q-53 0 -92 -6v-342z" />
<glyph unicode="&#xdf;" horiz-adv-x="1194" vert-adv-y="2457" d="M125 0v944q0 240 136 364q115 105 311 105q187 0 305 -94q117 -94 117 -240q0 -76 -36 -143q-23 -43 -80 -102q-54 -56 -54 -85q0 -32 84 -78q237 -130 237 -349q0 -145 -93 -237q-106 -105 -289 -105q-136 0 -222 55v250q110 -69 202 -69q67 0 98 35q25 26 25 67 q0 37 -24 68q-25 34 -110 86q-120 74 -156 135q-31 53 -31 112q0 36 12 71q18 49 79 122q31 38 51 69q22 35 22 76q0 48 -35 78q-35 32 -97 32q-91 0 -131 -71q-30 -52 -30 -133v-963h-291z" />
<glyph unicode="&#xe0;" horiz-adv-x="965" vert-adv-y="2457" d="M70 268q0 283 403 283h98v37q0 108 -159 108q-133 0 -260 -75v246q137 75 318 75q388 0 388 -342v-580q-191 -40 -376 -40q-412 0 -412 288zM195 1362h262l174 -311h-262zM358 283q0 -94 121 -94q50 0 92 8v178h-78q-135 0 -135 -92z" />
<glyph unicode="&#xe1;" horiz-adv-x="965" vert-adv-y="2457" d="M70 268q0 283 403 283h98v37q0 108 -159 108q-133 0 -260 -75v246q137 75 318 75q388 0 388 -342v-580q-191 -40 -376 -40q-412 0 -412 288zM330 1051l174 311h262l-174 -311h-262zM358 283q0 -94 121 -94q50 0 92 8v178h-78q-135 0 -135 -92z" />
<glyph unicode="&#xe2;" horiz-adv-x="965" vert-adv-y="2457" d="M70 268q0 283 403 283h98v37q0 108 -159 108q-133 0 -260 -75v246q137 75 318 75q388 0 388 -342v-580q-191 -40 -376 -40q-412 0 -412 288zM144 1038l239 324h197l240 -324h-230l-108 142l-109 -142h-229zM358 283q0 -94 121 -94q50 0 92 8v178h-78q-135 0 -135 -92z " />
<glyph unicode="&#xe3;" horiz-adv-x="965" vert-adv-y="2457" d="M70 268q0 283 403 283h98v37q0 108 -159 108q-133 0 -260 -75v246q137 75 318 75q388 0 388 -342v-580q-191 -40 -376 -40q-412 0 -412 288zM168 1038q3 105 32 168q49 107 156 107q58 0 126 -47q44 -30 71 -30q50 0 52 69h178q-3 -105 -32 -167q-49 -108 -156 -108 q-58 0 -125 47q-43 31 -70 31q-52 0 -54 -70h-178zM358 283q0 -94 121 -94q50 0 92 8v178h-78q-135 0 -135 -92z" />
<glyph unicode="&#xe4;" horiz-adv-x="965" vert-adv-y="2457" d="M70 268q0 283 403 283h98v37q0 108 -159 108q-133 0 -260 -75v246q137 75 318 75q388 0 388 -342v-580q-191 -40 -376 -40q-412 0 -412 288zM131 1190q0 66 46 113q45 46 111 46q67 0 114 -47q46 -47 46 -112q0 -63 -46 -110q-48 -48 -116 -48q-63 0 -109 47t-46 111z M358 283q0 -94 121 -94q50 0 92 8v178h-78q-135 0 -135 -92zM516 1190q0 66 46 113q45 46 111 46q68 0 114 -47q46 -46 46 -111t-46 -111q-47 -48 -116 -48q-63 0 -109 47t-46 111z" />
<glyph unicode="&#xe5;" horiz-adv-x="965" vert-adv-y="2457" d="M70 268q0 283 403 283h98v37q0 108 -159 108q-133 0 -260 -75v246q137 75 318 75q388 0 388 -342v-580q-191 -40 -376 -40q-412 0 -412 288zM269 1210q0 85 56 142q59 59 155 59q97 0 156 -59q57 -57 57 -144q0 -88 -57 -145q-58 -59 -155 -59t-155 59q-57 57 -57 147z M358 283q0 -94 121 -94q50 0 92 8v178h-78q-135 0 -135 -92zM402 1209q0 -38 23 -61q22 -21 56 -21t56 22q23 22 23 60q0 35 -23 57q-22 22 -57 22q-34 0 -55 -21q-23 -23 -23 -58z" />
<glyph unicode="&#xe6;" horiz-adv-x="1518" vert-adv-y="2457" d="M70 266q0 269 404 269h127q4 27 8 46q-15 119 -183 119q-141 0 -274 -79v246q138 75 311 75q195 0 283 -106q114 106 298 106q195 0 298 -116q102 -113 102 -330v-125h-577q38 -143 250 -143q157 0 303 73v-240q-133 -81 -334 -81q-203 0 -332 100q-145 -100 -320 -100 q-137 0 -233 55q-131 75 -131 231zM359 278q0 -51 42 -75q27 -16 69 -16q83 0 164 52q-23 59 -33 132h-117q-125 0 -125 -93zM864 535h314q-7 169 -141 169q-139 0 -173 -169z" />
<glyph unicode="&#xe7;" horiz-adv-x="885" vert-adv-y="2457" d="M57 457q0 215 135 349q136 136 358 136q143 0 259 -67v-271q-105 84 -226 84q-117 0 -179 -69q-54 -59 -54 -155q0 -103 63 -165q65 -65 178 -65q123 0 222 79v-266q-84 -52 -191 -64q-22 -186 -143 -282h-248q144 139 158 298q-133 35 -217 128q-115 127 -115 330z" />
<glyph unicode="&#xe8;" horiz-adv-x="989" vert-adv-y="2457" d="M56 450q0 231 135 367q124 125 324 125q194 0 297 -116q103 -114 103 -330v-125h-578v-4q45 -139 256 -139q151 0 297 73v-240q-133 -81 -334 -81q-240 0 -374 132q-126 125 -126 338zM235 1362h262l174 -311h-262zM339 535h309q-5 169 -142 169q-134 0 -167 -169z" />
<glyph unicode="&#xe9;" horiz-adv-x="989" vert-adv-y="2457" d="M56 450q0 231 135 367q124 125 324 125q194 0 297 -116q103 -114 103 -330v-125h-578v-4q45 -139 256 -139q151 0 297 73v-240q-133 -81 -334 -81q-240 0 -374 132q-126 125 -126 338zM339 535h309q-5 169 -142 169q-134 0 -167 -169zM401 1051l174 311h262l-174 -311 h-262z" />
<glyph unicode="&#xea;" horiz-adv-x="989" vert-adv-y="2457" d="M56 450q0 231 135 367q124 125 324 125q194 0 297 -116q103 -114 103 -330v-125h-578v-4q45 -139 256 -139q151 0 297 73v-240q-133 -81 -334 -81q-240 0 -374 132q-126 125 -126 338zM168 1038l239 324h197l239 -324h-229l-109 142l-108 -142h-229zM339 535h309 q-5 169 -142 169q-134 0 -167 -169z" />
<glyph unicode="&#xeb;" horiz-adv-x="989" vert-adv-y="2457" d="M56 450q0 231 135 367q124 125 324 125q194 0 297 -116q103 -114 103 -330v-125h-578v-4q45 -139 256 -139q151 0 297 73v-240q-133 -81 -334 -81q-240 0 -374 132q-126 125 -126 338zM168 1190q0 66 46 113q45 46 111 46q67 0 114 -47q46 -47 46 -112q0 -63 -46 -110 q-48 -48 -116 -48q-63 0 -109 47t-46 111zM339 535h309q-5 169 -142 169q-134 0 -167 -169zM553 1190q0 66 46 113q45 46 111 46q68 0 114 -47q46 -46 46 -111t-46 -111q-47 -48 -116 -48q-63 0 -109 47t-46 111z" />
<glyph unicode="&#xec;" horiz-adv-x="541" vert-adv-y="2457" d="M-35 1362h262l174 -311h-262zM125 0v922h291v-922h-291z" />
<glyph unicode="&#xed;" horiz-adv-x="541" vert-adv-y="2457" d="M125 0v922h291v-922h-291zM143 1051l175 311h262l-174 -311h-263z" />
<glyph unicode="&#xee;" horiz-adv-x="541" vert-adv-y="2457" d="M-68 1038l240 324h196l240 -324h-230l-108 142l-109 -142h-229zM125 0v922h291v-922h-291z" />
<glyph unicode="&#xef;" horiz-adv-x="541" vert-adv-y="2457" d="M-82 1190q0 66 46 113q45 46 111 46q67 0 114 -47q46 -47 46 -112q0 -63 -46 -110q-48 -48 -116 -48q-63 0 -109 47t-46 111zM125 0v922h291v-922h-291zM303 1190q0 66 46 113q45 46 111 46q68 0 114 -47q46 -46 46 -111t-46 -111q-47 -48 -116 -48q-63 0 -109 47 t-46 111z" />
<glyph unicode="&#xf0;" horiz-adv-x="1092" vert-adv-y="2457" d="M57 454q0 202 129 331q131 131 335 131q81 0 124 -23q-48 77 -113 151l-350 -110v178l221 69q-103 104 -237 212h358q94 -84 139 -130l248 77v-178l-125 -39q248 -324 248 -630q0 -237 -141 -378q-135 -135 -348 -135q-215 0 -353 136q-135 133 -135 338zM350 457 q0 -113 63 -175q52 -52 131 -52q82 0 135 52q62 63 62 177q0 110 -62 172q-52 53 -135 53q-79 0 -131 -52q-63 -62 -63 -175z" />
<glyph unicode="&#xf1;" horiz-adv-x="1096" vert-adv-y="2457" d="M125 0v856q227 86 461 86q219 0 316 -107q83 -92 83 -272v-563h-291v551q0 131 -134 131q-79 0 -144 -22v-660h-291zM248 1038q3 105 31 168q49 107 156 107q59 0 127 -47q44 -30 71 -30q50 0 51 69h178q-3 -105 -31 -167q-49 -108 -156 -108q-59 0 -125 47 q-44 31 -71 31q-51 0 -53 -70h-178z" />
<glyph unicode="&#xf2;" horiz-adv-x="1092" vert-adv-y="2457" d="M57 465q0 202 136 339q137 138 352 138t354 -139q135 -135 135 -342t-135 -342q-139 -139 -354 -139q-214 0 -352 138q-136 135 -136 347zM254 1362h262l174 -311h-262zM350 461q0 -116 64 -179q52 -52 131 -52q80 0 132 52q64 63 64 182q0 112 -64 176q-52 52 -132 52 q-79 0 -131 -52q-64 -63 -64 -179z" />
<glyph unicode="&#xf3;" horiz-adv-x="1092" vert-adv-y="2457" d="M57 465q0 202 136 339q137 138 352 138t354 -139q135 -135 135 -342t-135 -342q-139 -139 -354 -139q-214 0 -352 138q-136 135 -136 347zM350 461q0 -116 64 -179q52 -52 131 -52q80 0 132 52q64 63 64 182q0 112 -64 176q-52 52 -132 52q-79 0 -131 -52 q-64 -63 -64 -179zM411 1051l174 311h263l-175 -311h-262z" />
<glyph unicode="&#xf4;" horiz-adv-x="1092" vert-adv-y="2457" d="M57 465q0 202 136 339q137 138 352 138t354 -139q135 -135 135 -342t-135 -342q-139 -139 -354 -139q-214 0 -352 138q-136 135 -136 347zM207 1038l239 324h197l239 -324h-229l-109 142l-108 -142h-229zM350 461q0 -116 64 -179q52 -52 131 -52q80 0 132 52 q64 63 64 182q0 112 -64 176q-52 52 -132 52q-79 0 -131 -52q-64 -63 -64 -179z" />
<glyph unicode="&#xf5;" horiz-adv-x="1092" vert-adv-y="2457" d="M57 465q0 202 136 339q137 138 352 138t354 -139q135 -135 135 -342t-135 -342q-139 -139 -354 -139q-214 0 -352 138q-136 135 -136 347zM237 1038q3 105 32 168q48 107 156 107q58 0 126 -47q44 -30 71 -30q50 0 51 69h179q-3 -105 -32 -167q-49 -108 -156 -108 q-58 0 -125 47q-43 31 -70 31q-52 0 -54 -70h-178zM350 461q0 -116 64 -179q52 -52 131 -52q80 0 132 52q64 63 64 182q0 112 -64 176q-52 52 -132 52q-79 0 -131 -52q-64 -63 -64 -179z" />
<glyph unicode="&#xf6;" horiz-adv-x="1092" vert-adv-y="2457" d="M57 465q0 202 136 339q137 138 352 138t354 -139q135 -135 135 -342t-135 -342q-139 -139 -354 -139q-214 0 -352 138q-136 135 -136 347zM196 1190q0 66 46 113q45 46 111 46q67 0 114 -47q46 -47 46 -112q0 -63 -46 -110q-48 -48 -116 -48q-63 0 -109 47t-46 111z M350 461q0 -116 64 -179q52 -52 131 -52q80 0 132 52q64 63 64 182q0 112 -64 176q-52 52 -132 52q-79 0 -131 -52q-64 -63 -64 -179zM581 1190q0 66 46 113q45 46 111 46q68 0 114 -47q46 -46 46 -111t-46 -111q-47 -48 -116 -48q-63 0 -109 47t-46 111z" />
<glyph unicode="&#xf7;" vert-adv-y="2457" d="M143 494v211h776v-211h-776zM389 270q0 57 43 100q42 42 99 42q58 0 101 -43q42 -42 42 -100q0 -57 -42 -99q-43 -43 -101 -43t-100 42q-42 43 -42 101zM389 929q0 57 43 100q41 42 99 42t101 -42q42 -43 42 -101q0 -57 -42 -99q-43 -43 -101 -43t-100 42t-42 101z" />
<glyph unicode="&#xf8;" horiz-adv-x="1112" vert-adv-y="2457" d="M47 0l131 145q-111 138 -111 315q0 209 136 344q138 138 352 138q146 0 272 -75l49 55h189l-131 -146q110 -137 110 -315q0 -207 -135 -342q-139 -139 -354 -139q-146 0 -270 73l-50 -53h-188zM350 460q0 -55 16 -106l289 322q-44 24 -99 24q-84 0 -139 -55 q-67 -66 -67 -185zM455 244q46 -22 100 -22q86 0 143 56q65 65 65 183q0 57 -16 107z" />
<glyph unicode="&#xf9;" horiz-adv-x="1069" vert-adv-y="2457" d="M106 346v576h291v-549q0 -92 37 -125q33 -30 109 -30q49 0 110 12v692h291v-889q-186 -53 -404 -53q-252 0 -354 111q-80 88 -80 255zM233 1362h262l174 -311h-262z" />
<glyph unicode="&#xfa;" horiz-adv-x="1069" vert-adv-y="2457" d="M106 346v576h291v-549q0 -92 37 -125q33 -30 109 -30q49 0 110 12v692h291v-889q-186 -53 -404 -53q-252 0 -354 111q-80 88 -80 255zM380 1051l175 311h262l-174 -311h-263z" />
<glyph unicode="&#xfb;" horiz-adv-x="1069" vert-adv-y="2457" d="M106 346v576h291v-549q0 -92 37 -125q33 -30 109 -30q49 0 110 12v692h291v-889q-186 -53 -404 -53q-252 0 -354 111q-80 88 -80 255zM186 1038l239 324h197l240 -324h-230l-108 142l-109 -142h-229z" />
<glyph unicode="&#xfc;" horiz-adv-x="1069" vert-adv-y="2457" d="M106 346v576h291v-549q0 -92 37 -125q33 -30 109 -30q49 0 110 12v692h291v-889q-186 -53 -404 -53q-252 0 -354 111q-80 88 -80 255zM186 1190q0 66 46 113q45 46 111 46q67 0 114 -47q46 -47 46 -112q0 -63 -46 -110q-48 -48 -116 -48q-63 0 -109 47t-46 111zM571 1190 q0 66 46 113q45 46 111 46q68 0 114 -47q46 -46 46 -111t-46 -111q-47 -48 -116 -48q-63 0 -109 47t-46 111z" />
<glyph unicode="&#xfd;" horiz-adv-x="1055" vert-adv-y="2457" d="M10 922h313l211 -600l207 600h303l-504 -1291h-286l133 350zM395 1051l174 311h262l-174 -311h-262z" />
<glyph unicode="&#xfe;" horiz-adv-x="1120" vert-adv-y="2457" d="M125 -369v1762h291v-496q87 45 203 45q193 0 318 -125q126 -126 126 -336q0 -246 -151 -382q-135 -120 -366 -120q-77 0 -130 13v-361h-291zM416 246q45 -15 105 -15q122 0 187 72q58 64 58 174q0 92 -55 147q-56 56 -146 56q-83 0 -149 -47v-387z" />
<glyph unicode="&#xff;" horiz-adv-x="1055" vert-adv-y="2457" d="M10 922h313l211 -600l207 600h303l-504 -1291h-286l133 350zM186 1190q0 66 46 113q45 46 111 46q67 0 114 -47q46 -47 46 -112q0 -63 -46 -110q-48 -48 -116 -48q-63 0 -109 47t-46 111zM571 1190q0 66 46 113q45 46 111 46q68 0 114 -47q46 -46 46 -111t-46 -111 q-47 -48 -116 -48q-63 0 -109 47t-46 111z" />
<glyph unicode="&#x100;" horiz-adv-x="1313" vert-adv-y="2457" d="M0 0l473 1217h367l473 -1217h-334l-82 231h-491l-84 -231h-322zM412 1315v209h489v-209h-489zM497 479h312l-154 432z" />
<glyph unicode="&#x101;" horiz-adv-x="965" vert-adv-y="2457" d="M70 268q0 283 403 283h98v37q0 108 -159 108q-133 0 -260 -75v246q137 75 318 75q388 0 388 -342v-580q-191 -40 -376 -40q-412 0 -412 288zM232 1057v209h489v-209h-489zM358 283q0 -94 121 -94q50 0 92 8v178h-78q-135 0 -135 -92z" />
<glyph unicode="&#x102;" horiz-adv-x="1313" vert-adv-y="2457" d="M0 0l473 1217h367l473 -1217h-334l-82 231h-491l-84 -231h-322zM377 1597h207q2 -103 71 -103q70 0 72 103h207q-4 -83 -21 -128q-41 -104 -142 -143q-53 -20 -116 -20q-133 0 -209 85q-46 51 -61 119q-6 30 -8 87zM497 479h312l-154 432z" />
<glyph unicode="&#x103;" horiz-adv-x="965" vert-adv-y="2457" d="M70 268q0 283 403 283h98v37q0 108 -159 108q-133 0 -260 -75v246q137 75 318 75q388 0 388 -342v-580q-191 -40 -376 -40q-412 0 -412 288zM205 1341h207q2 -110 72 -110q69 0 71 110h207q-4 -107 -41 -171q-74 -127 -237 -127q-122 0 -198 75q-46 47 -66 114 q-12 37 -15 109zM358 283q0 -94 121 -94q50 0 92 8v178h-78q-135 0 -135 -92z" />
<glyph unicode="&#x104;" horiz-adv-x="1313" vert-adv-y="2457" d="M0 0l473 1217h366l473 -1217h-143q-117 -80 -117 -146q0 -46 59 -46q45 0 95 22v-190q-59 -29 -151 -29q-85 0 -140 32q-80 46 -80 148q0 128 131 238l-69 202h-492l-84 -231h-321zM497 479h312l-154 432z" />
<glyph unicode="&#x105;" horiz-adv-x="965" vert-adv-y="2457" d="M70 268q0 283 403 283h98v37q0 108 -159 108q-133 0 -260 -75v246q137 75 318 75q388 0 388 -342v-580q-148 -80 -148 -165q0 -47 59 -47q41 0 96 22v-190q-63 -29 -152 -29q-84 0 -138 32q-82 47 -82 155q0 112 86 186q-38 -4 -92 -4q-417 0 -417 288zM358 283 q0 -94 121 -94q50 0 92 8v178h-78q-135 0 -135 -92z" />
<glyph unicode="&#x106;" horiz-adv-x="1128" vert-adv-y="2457" d="M66 608q0 281 173 455t460 174q185 0 325 -77v-326q-137 128 -326 128q-148 0 -234 -97q-85 -96 -85 -256q0 -168 97 -265q89 -90 239 -90q114 0 209 46q50 24 125 81v-311q-158 -90 -350 -90q-288 0 -460 172q-173 174 -173 456zM558 1313l172 309h262l-172 -309h-262z " />
<glyph unicode="&#x107;" horiz-adv-x="885" vert-adv-y="2457" d="M57 457q0 215 135 349q136 136 358 136q143 0 259 -67v-271q-105 84 -226 84q-117 0 -179 -69q-54 -59 -54 -155q0 -103 63 -165q65 -65 178 -65q123 0 222 79v-266q-109 -67 -264 -67q-244 0 -377 147q-115 127 -115 330zM385 1051l174 311h262l-174 -311h-262z" />
<glyph unicode="&#x108;" horiz-adv-x="1128" vert-adv-y="2457" d="M66 608q0 281 173 455t460 174q185 0 325 -77v-326q-137 128 -326 128q-148 0 -234 -97q-85 -96 -85 -256q0 -168 97 -265q89 -90 239 -90q114 0 209 46q50 24 125 81v-311q-158 -90 -350 -90q-288 0 -460 172q-173 174 -173 456zM338 1309l240 315h197l239 -315h-229 l-109 147l-108 -147h-230z" />
<glyph unicode="&#x109;" horiz-adv-x="885" vert-adv-y="2457" d="M57 457q0 215 135 349q136 136 358 136q143 0 259 -67v-271q-105 84 -226 84q-117 0 -179 -69q-54 -59 -54 -155q0 -103 63 -165q65 -65 178 -65q123 0 222 79v-266q-109 -67 -264 -67q-244 0 -377 147q-115 127 -115 330zM174 1038l239 324h197l240 -324h-230l-108 142 l-109 -142h-229z" />
<glyph unicode="&#x10a;" horiz-adv-x="1128" vert-adv-y="2457" d="M66 608q0 281 173 455t460 174q185 0 325 -77v-326q-137 128 -326 128q-148 0 -234 -97q-85 -96 -85 -256q0 -168 97 -265q89 -90 239 -90q114 0 209 46q50 24 125 81v-311q-158 -90 -350 -90q-288 0 -460 172q-173 174 -173 456zM508 1464q0 68 48 117q48 50 118 50 q69 0 119 -50q48 -50 48 -117t-48 -116q-49 -50 -120 -50q-69 0 -118 50q-47 49 -47 116z" />
<glyph unicode="&#x10b;" horiz-adv-x="885" vert-adv-y="2457" d="M57 457q0 215 135 349q136 136 358 136q143 0 259 -67v-271q-105 84 -226 84q-117 0 -179 -69q-54 -59 -54 -155q0 -103 63 -165q65 -65 178 -65q123 0 222 79v-266q-109 -67 -264 -67q-244 0 -377 147q-115 127 -115 330zM350 1198q0 68 48 117q48 50 118 50 q69 0 119 -50q48 -50 48 -117t-48 -116q-49 -50 -120 -50q-69 0 -117 50q-48 49 -48 116z" />
<glyph unicode="&#x10c;" horiz-adv-x="1128" vert-adv-y="2457" d="M66 608q0 281 173 455t460 174q185 0 325 -77v-326q-137 128 -326 128q-148 0 -234 -97q-85 -96 -85 -256q0 -168 97 -265q89 -90 239 -90q114 0 209 46q50 24 125 81v-311q-158 -90 -350 -90q-288 0 -460 172q-173 174 -173 456zM338 1628h230l108 -147l109 147h229 l-239 -315h-197z" />
<glyph unicode="&#x10d;" horiz-adv-x="885" vert-adv-y="2457" d="M57 457q0 215 135 349q136 136 358 136q143 0 259 -67v-271q-105 84 -226 84q-117 0 -179 -69q-54 -59 -54 -155q0 -103 63 -165q65 -65 178 -65q123 0 222 79v-266q-109 -67 -264 -67q-244 0 -377 147q-115 127 -115 330zM176 1362h235l103 -150l102 150h236l-240 -324 h-197z" />
<glyph unicode="&#x10e;" horiz-adv-x="1280" vert-adv-y="2457" d="M125 12v1195q208 30 400 30q361 0 543 -198q146 -158 146 -422q0 -308 -187 -474q-179 -160 -521 -160q-234 0 -381 29zM275 1628h229l108 -147l109 147h229l-239 -315h-197zM430 256q58 -7 127 -7q169 0 259 100q85 95 85 266q0 169 -99 258q-92 83 -251 83 q-63 0 -121 -5v-695z" />
<glyph unicode="&#x10f;" horiz-adv-x="1112" vert-adv-y="2457" d="M57 457q0 221 133 354q130 131 346 131q98 0 160 -24v475h291v-1366q-190 -47 -392 -47q-283 0 -425 154q-113 123 -113 323zM352 468q0 -120 71 -183q63 -57 173 -57q50 0 100 8v426q-58 26 -132 26q-104 0 -160 -63q-52 -58 -52 -157zM1048 1051l96 342h230l-96 -342 h-230z" />
<glyph unicode="&#x110;" horiz-adv-x="1303" vert-adv-y="2457" d="M41 485v246h106v476q208 30 399 30q363 0 545 -198q146 -158 146 -423q0 -308 -187 -474q-179 -159 -521 -159q-235 0 -382 29v473h-106zM452 256q56 -7 128 -7q169 0 258 100q86 95 86 266q0 169 -99 258q-92 83 -251 83q-63 0 -122 -5v-220h222v-246h-222v-229z" />
<glyph unicode="&#x111;" horiz-adv-x="1133" vert-adv-y="2457" d="M57 458q0 220 133 353q130 131 346 131q98 0 160 -24v137h-229v188h229v150h291v-150h125v-188h-125v-1028q-190 -47 -392 -47q-283 0 -425 154q-113 123 -113 324zM352 468q0 -120 71 -183q63 -57 173 -57q50 0 100 8v426q-58 26 -132 26q-104 0 -160 -63 q-52 -58 -52 -157z" />
<glyph unicode="&#x112;" horiz-adv-x="1034" vert-adv-y="2457" d="M125 0v1217h805v-268h-504v-210h459v-262h-459v-209h518v-268h-819zM287 1315v209h489v-209h-489z" />
<glyph unicode="&#x113;" horiz-adv-x="989" vert-adv-y="2457" d="M56 450q0 231 135 367q124 125 324 125q194 0 297 -116q103 -114 103 -330v-125h-578v-4q45 -139 256 -139q151 0 297 73v-240q-133 -81 -334 -81q-240 0 -374 132q-126 125 -126 338zM250 1057v209h489v-209h-489zM339 535h309q-5 169 -142 169q-134 0 -167 -169z" />
<glyph unicode="&#x114;" horiz-adv-x="1034" vert-adv-y="2457" d="M125 0v1217h805v-268h-504v-210h459v-262h-459v-209h518v-268h-819zM260 1597h207q2 -103 72 -103q69 0 71 103h207q-3 -83 -21 -128q-41 -104 -142 -143q-52 -20 -115 -20q-134 0 -210 85q-46 51 -60 119q-6 30 -9 87z" />
<glyph unicode="&#x115;" horiz-adv-x="989" vert-adv-y="2457" d="M56 450q0 231 135 367q124 125 324 125q194 0 297 -116q103 -114 103 -330v-125h-578v-4q45 -139 256 -139q151 0 297 73v-240q-133 -81 -334 -81q-240 0 -374 132q-126 125 -126 338zM235 1341h207q2 -110 72 -110q69 0 71 110h207q-4 -107 -41 -171q-74 -127 -237 -127 q-122 0 -198 75q-46 47 -66 114q-12 37 -15 109zM339 535h309q-5 169 -142 169q-134 0 -167 -169z" />
<glyph unicode="&#x116;" horiz-adv-x="1034" vert-adv-y="2457" d="M125 0v1217h805v-268h-504v-210h459v-262h-459v-209h518v-268h-819zM373 1464q0 68 48 117q48 50 118 50q69 0 119 -50q48 -50 48 -117t-48 -116q-49 -50 -120 -50q-69 0 -118 50q-47 49 -47 116z" />
<glyph unicode="&#x117;" horiz-adv-x="989" vert-adv-y="2457" d="M56 450q0 231 135 367q124 125 324 125q194 0 297 -116q103 -114 103 -330v-125h-578v-4q45 -139 256 -139q151 0 297 73v-240q-133 -81 -334 -81q-240 0 -374 132q-126 125 -126 338zM339 535h309q-5 169 -142 169q-134 0 -167 -169zM348 1198q0 68 48 117q48 50 118 50 q69 0 119 -50q48 -50 48 -117t-48 -116q-49 -50 -120 -50q-69 0 -117 50q-48 49 -48 116z" />
<glyph unicode="&#x118;" horiz-adv-x="1034" vert-adv-y="2457" d="M125 0v1217h805v-268h-504v-210h459v-262h-459v-209h518v-268h-63q-97 -72 -97 -145q0 -47 59 -47q46 0 95 22v-190q-58 -29 -151 -29q-85 0 -140 32q-80 46 -80 146q0 126 109 211h-551z" />
<glyph unicode="&#x119;" horiz-adv-x="989" vert-adv-y="2457" d="M57 450q0 231 135 367q124 125 324 125q194 0 297 -116q102 -114 102 -330v-125h-577v-4q45 -139 256 -139q150 0 297 73v-240q-15 -10 -41 -22q-14 -7 -25 -12q-125 -73 -125 -161q0 -58 62 -58q44 0 94 22v-190q-59 -29 -151 -29q-83 0 -137 31q-83 48 -83 157 q0 107 82 183q-7 -2 -25 -2q-243 5 -372 146q-113 124 -113 324zM340 535h309q-5 169 -142 169q-134 0 -167 -169z" />
<glyph unicode="&#x11a;" horiz-adv-x="1034" vert-adv-y="2457" d="M125 0v1217h805v-268h-504v-210h459v-262h-459v-209h518v-268h-819zM201 1628h229l109 -147l108 147h230l-240 -315h-197z" />
<glyph unicode="&#x11b;" horiz-adv-x="989" vert-adv-y="2457" d="M56 450q0 231 135 367q124 125 324 125q194 0 297 -116q103 -114 103 -330v-125h-578v-4q45 -139 256 -139q151 0 297 73v-240q-133 -81 -334 -81q-240 0 -374 132q-126 125 -126 338zM157 1362h236l102 -150l103 150h235l-239 -324h-197zM339 535h309q-5 169 -142 169 q-134 0 -167 -169z" />
<glyph unicode="&#x11c;" horiz-adv-x="1202" vert-adv-y="2457" d="M66 604q0 283 175 458t462 175q214 0 371 -92v-314q-153 133 -355 133q-163 0 -255 -103q-85 -95 -85 -253q0 -173 101 -274q92 -92 239 -92q64 0 103 10v317h299v-497q-155 -92 -409 -92q-321 0 -496 192q-150 165 -150 432zM347 1309l239 315h197l239 -315h-229 l-109 147l-108 -147h-229z" />
<glyph unicode="&#x11d;" horiz-adv-x="1087" vert-adv-y="2457" d="M57 471q0 222 141 349q137 122 380 122q198 0 392 -73v-846q0 -238 -182 -343q-121 -69 -295 -69q-165 0 -323 72v268q84 -49 142 -68q83 -28 172 -28q105 0 155 55q40 43 40 113v20q-60 -29 -165 -29q-222 0 -347 137q-110 121 -110 320zM241 1038l240 324h197l239 -324 h-229l-109 142l-108 -142h-230zM352 474q0 -104 59 -163q55 -55 146 -55q54 0 122 23v395q-46 16 -108 16q-113 0 -169 -63q-50 -55 -50 -153z" />
<glyph unicode="&#x11e;" horiz-adv-x="1202" vert-adv-y="2457" d="M66 604q0 283 175 458t462 175q214 0 371 -92v-314q-153 133 -355 133q-163 0 -255 -103q-85 -95 -85 -253q0 -173 101 -274q92 -92 239 -92q64 0 103 10v317h299v-497q-155 -92 -409 -92q-321 0 -496 192q-150 165 -150 432zM404 1597h207q2 -103 71 -103q70 0 72 103 h207q-4 -83 -21 -128q-41 -104 -142 -143q-53 -20 -115 -20q-134 0 -210 85q-46 51 -60 119q-7 30 -9 87z" />
<glyph unicode="&#x11f;" horiz-adv-x="1087" vert-adv-y="2457" d="M57 471q0 222 141 349q137 122 380 122q198 0 392 -73v-846q0 -238 -182 -343q-121 -69 -295 -69q-165 0 -323 72v268q84 -49 142 -68q83 -28 172 -28q105 0 155 55q40 43 40 113v20q-60 -29 -165 -29q-222 0 -347 137q-110 121 -110 320zM280 1341h207q2 -110 72 -110 q69 0 71 110h207q-4 -107 -41 -171q-74 -127 -237 -127q-122 0 -198 75q-46 47 -66 114q-12 37 -15 109zM352 474q0 -104 59 -163q55 -55 146 -55q54 0 122 23v395q-46 16 -108 16q-113 0 -169 -63q-50 -55 -50 -153z" />
<glyph unicode="&#x120;" horiz-adv-x="1202" vert-adv-y="2457" d="M66 604q0 283 175 458t462 175q214 0 371 -92v-314q-153 133 -355 133q-163 0 -255 -103q-85 -95 -85 -253q0 -173 101 -274q92 -92 239 -92q64 0 103 10v317h299v-497q-155 -92 -409 -92q-321 0 -496 192q-150 165 -150 432zM517 1464q0 68 48 117q48 50 118 50 q69 0 119 -50q48 -50 48 -117t-48 -116q-50 -50 -120 -50q-69 0 -118 50q-47 49 -47 116z" />
<glyph unicode="&#x121;" horiz-adv-x="1087" vert-adv-y="2457" d="M57 471q0 222 141 349q137 122 380 122q198 0 392 -73v-846q0 -238 -182 -343q-121 -69 -295 -69q-165 0 -323 72v268q84 -49 142 -68q83 -28 172 -28q105 0 155 55q40 43 40 113v20q-60 -29 -165 -29q-222 0 -347 137q-110 121 -110 320zM352 474q0 -104 59 -163 q55 -55 146 -55q54 0 122 23v395q-46 16 -108 16q-113 0 -169 -63q-50 -55 -50 -153zM393 1198q0 68 48 117q48 50 118 50q69 0 119 -50q48 -50 48 -117t-48 -116q-49 -50 -120 -50q-69 0 -117 50q-48 49 -48 116z" />
<glyph unicode="&#x122;" horiz-adv-x="1202" vert-adv-y="2457" d="M66 604q0 283 175 458t462 175q214 0 371 -92v-314q-153 133 -355 133q-163 0 -255 -103q-85 -95 -85 -253q0 -173 101 -274q92 -92 239 -92q64 0 103 10v317h299v-497q-155 -92 -409 -92q-321 0 -496 192q-150 165 -150 432zM455 -389q69 74 96 147q23 65 25 164h278 q-4 -114 -58 -191q-47 -67 -142 -120h-199z" />
<glyph unicode="&#x123;" horiz-adv-x="1087" vert-adv-y="2457" d="M57 471q0 222 141 349q137 122 380 122q198 0 392 -73v-846q0 -238 -182 -343q-121 -69 -295 -69q-165 0 -323 72v268q84 -49 142 -68q83 -28 172 -28q105 0 155 55q40 43 40 113v20q-60 -29 -165 -29q-222 0 -347 137q-110 121 -110 320zM352 474q0 -104 59 -163 q55 -55 146 -55q54 0 122 23v395q-46 16 -108 16q-113 0 -169 -63q-50 -55 -50 -153zM430 1051q10 241 200 352h199q-67 -75 -96 -168q-23 -76 -25 -184h-278z" />
<glyph unicode="&#x124;" horiz-adv-x="1348" vert-adv-y="2457" d="M125 0v1217h305v-478h488v478h305v-1217h-305v469h-488v-469h-305zM336 1309l240 315h196l240 -315h-230l-108 147l-109 -147h-229z" />
<glyph unicode="&#x125;" horiz-adv-x="1096" vert-adv-y="2457" d="M125 0v1393h291v-487q92 36 210 36q181 0 273 -103q86 -96 86 -276v-563h-291v551q0 131 -138 131q-80 0 -140 -20v-662h-291zM197 1470l239 316h197l240 -316h-230l-108 148l-109 -148h-229z" />
<glyph unicode="&#x126;" horiz-adv-x="1389" vert-adv-y="2457" d="M41 822v225h104v170h305v-170h488v170h305v-170h105v-225h-105v-822h-305v420h-488v-420h-305v822h-104zM450 658h488v164h-488v-164z" />
<glyph unicode="&#x127;" horiz-adv-x="1116" vert-adv-y="2457" d="M20 1055v188h125v150h291v-150h229v-188h-229v-149q92 36 210 36q181 0 273 -103q86 -96 86 -276v-563h-291v551q0 131 -138 131q-80 0 -140 -20v-662h-291v1055h-125z" />
<glyph unicode="&#x128;" horiz-adv-x="555" vert-adv-y="2457" d="M-31 1313q3 105 31 167q49 107 157 107q58 0 126 -47q44 -30 71 -30q50 0 51 69h178q-2 -105 -31 -167q-49 -107 -156 -107q-59 0 -125 47q-44 30 -70 30q-52 0 -54 -69h-178zM125 0v1217h305v-1217h-305z" />
<glyph unicode="&#x129;" horiz-adv-x="541" vert-adv-y="2457" d="M-37 1038q3 105 31 168q49 107 157 107q58 0 126 -47q44 -30 71 -30q50 0 51 69h178q-2 -105 -31 -167q-49 -108 -156 -108q-58 0 -125 47q-43 31 -70 31q-52 0 -54 -70h-178zM125 0v922h291v-922h-291z" />
<glyph unicode="&#x12a;" horiz-adv-x="555" vert-adv-y="2457" d="M33 1315v209h489v-209h-489zM125 0v1217h305v-1217h-305z" />
<glyph unicode="&#x12b;" horiz-adv-x="541" vert-adv-y="2457" d="M27 1057v209h489v-209h-489zM125 0v922h291v-922h-291z" />
<glyph unicode="&#x12c;" horiz-adv-x="555" vert-adv-y="2457" d="M-2 1597h207q2 -103 72 -103q69 0 71 103h207q-3 -83 -21 -128q-41 -104 -142 -143q-52 -20 -115 -20q-134 0 -210 85q-46 51 -60 119q-7 30 -9 87zM125 0v1217h305v-1217h-305z" />
<glyph unicode="&#x12d;" horiz-adv-x="541" vert-adv-y="2457" d="M-8 1341h207q2 -110 72 -110q69 0 71 110h207q-5 -107 -41 -171q-75 -127 -237 -127q-122 0 -198 75q-46 47 -67 114q-11 37 -14 109zM125 0v922h291v-922h-291z" />
<glyph unicode="&#x12e;" horiz-adv-x="555" vert-adv-y="2457" d="M59 -212q0 129 125 213h-59v1216h305v-1216q-154 -59 -154 -145q0 -48 59 -48q46 0 95 23v-191q-59 -29 -151 -29q-85 0 -140 32q-80 46 -80 145z" />
<glyph unicode="&#x12f;" horiz-adv-x="541" vert-adv-y="2457" d="M45 -210q0 139 150 210h-70v922h291v-922q-154 -59 -154 -141q0 -51 59 -51q45 0 95 22v-190q-59 -29 -151 -29q-85 0 -140 32q-80 46 -80 147zM102 1212q0 69 48 118q48 50 118 50q69 0 119 -50q48 -50 48 -117t-48 -116q-50 -50 -120 -50q-69 0 -118 50q-47 49 -47 115 z" />
<glyph unicode="&#x130;" horiz-adv-x="555" vert-adv-y="2457" d="M111 1464q0 68 48 117q48 50 118 50q69 0 119 -50q48 -50 48 -117t-48 -116q-49 -50 -120 -50q-69 0 -117 50q-48 49 -48 116zM125 0v1217h305v-1217h-305z" />
<glyph unicode="&#x131;" horiz-adv-x="541" vert-adv-y="2457" d="M125 0v922h291v-922h-291z" />
<glyph unicode="&#x132;" horiz-adv-x="1362" vert-adv-y="2457" d="M125 0v1217h305v-1217h-305zM596 47v297q110 -83 224 -83q47 0 75 12q55 24 55 102v842h305v-877q0 -173 -107 -268q-104 -92 -290 -92q-152 0 -262 67z" />
<glyph unicode="&#x133;" horiz-adv-x="1081" vert-adv-y="2457" d="M102 1198q0 68 48 117q48 50 118 50q69 0 119 -50q48 -50 48 -117t-48 -116q-49 -50 -120 -50q-69 0 -117 50q-48 49 -48 116zM125 0v922h291v-922h-291zM426 -116q83 -27 134 -27q56 0 81 27q24 27 24 90v948h291v-997q0 -150 -93 -232t-259 -82q-85 0 -178 31v242z M643 1198q0 68 48 117q48 50 118 50q69 0 119 -50q48 -50 48 -117t-48 -116q-49 -50 -120 -50q-69 0 -118 50q-47 49 -47 116z" />
<glyph unicode="&#x134;" horiz-adv-x="807" vert-adv-y="2457" d="M41 47v297q110 -83 224 -83q47 0 75 12q55 24 55 102v842h305v-877q0 -173 -107 -268q-104 -92 -290 -92q-152 0 -262 67zM209 1309l240 315h196l240 -315h-230l-108 147l-109 -147h-229z" />
<glyph unicode="&#x135;" horiz-adv-x="541" vert-adv-y="2457" d="M-115 -116q82 -27 134 -27q57 0 82 27q24 27 24 90v948h291v-997q0 -150 -93 -232t-259 -82q-86 0 -179 31v242zM-76 1014l240 323h196l240 -323h-230l-108 141l-109 -141h-229z" />
<glyph unicode="&#x136;" horiz-adv-x="1184" vert-adv-y="2457" d="M125 0v1217h305v-1217h-305zM363 -389q69 74 95 147q24 65 25 164h279q-5 -114 -59 -191q-47 -67 -142 -120h-198zM436 602l371 615h352l-391 -590l418 -627h-359z" />
<glyph unicode="&#x137;" horiz-adv-x="1077" vert-adv-y="2457" d="M125 0v1393h291v-1393h-291zM315 -389q70 74 96 147q24 65 25 164h279q-5 -114 -59 -191q-47 -67 -142 -120h-199zM426 500l305 422h338l-323 -418l331 -504h-329z" />
<glyph unicode="&#x138;" horiz-adv-x="1077" vert-adv-y="2457" d="M125 0v922h291v-922h-291zM426 500l305 422h338l-323 -418l331 -504h-329z" />
<glyph unicode="&#x139;" horiz-adv-x="934" vert-adv-y="2457" d="M125 0v1217h305v-949h463v-268h-768zM139 1313l172 309h263l-173 -309h-262z" />
<glyph unicode="&#x13a;" horiz-adv-x="541" vert-adv-y="2457" d="M125 0v1393h291v-1393h-291zM135 1481l172 309h262l-172 -309h-262z" />
<glyph unicode="&#x13b;" horiz-adv-x="934" vert-adv-y="2457" d="M125 0v1217h305v-949h463v-268h-768zM268 -389q69 74 96 147q24 65 25 164h279q-5 -114 -59 -191q-47 -67 -142 -120h-199z" />
<glyph unicode="&#x13c;" horiz-adv-x="541" vert-adv-y="2457" d="M18 -389q69 74 96 147q23 65 25 164h278q-4 -114 -58 -191q-48 -67 -142 -120h-199zM124 0v1393h291v-1393h-291z" />
<glyph unicode="&#x13d;" horiz-adv-x="934" vert-adv-y="2457" d="M125 0v1217h305v-949h463v-268h-768zM539 875l96 342h229l-96 -342h-229z" />
<glyph unicode="&#x13e;" horiz-adv-x="541" vert-adv-y="2457" d="M125 0v1393h291v-1393h-291zM477 1051l97 342h229l-96 -342h-230z" />
<glyph unicode="&#x13f;" horiz-adv-x="958" vert-adv-y="2457" d="M125 0v1217h305v-949h463v-268h-768zM549 686q0 68 48 117q48 50 118 50q69 0 119 -50q48 -50 48 -117t-48 -116q-49 -50 -120 -50q-69 0 -118 50q-47 49 -47 116z" />
<glyph unicode="&#x140;" horiz-adv-x="879" vert-adv-y="2457" d="M125 0v1393h291v-1393h-291zM533 680q0 68 48 117q48 50 118 50q69 0 119 -50q48 -50 48 -117t-48 -116q-50 -50 -120 -50q-69 0 -118 50q-47 49 -47 116z" />
<glyph unicode="&#x141;" horiz-adv-x="946" vert-adv-y="2457" d="M31 387v252l106 39v539h305v-439l261 99v-252l-261 -99v-258h463v-268h-768v426z" />
<glyph unicode="&#x142;" horiz-adv-x="600" vert-adv-y="2457" d="M31 479v220l125 69v625h291v-488l123 68v-219l-123 -70v-684h-291v549z" />
<glyph unicode="&#x143;" horiz-adv-x="1341" vert-adv-y="2457" d="M125 0v1217h307l490 -746v746h295v-1217h-289l-508 731v-731h-295zM531 1313l172 309h262l-172 -309h-262z" />
<glyph unicode="&#x144;" horiz-adv-x="1096" vert-adv-y="2457" d="M125 0v856q227 86 461 86q219 0 316 -107q83 -92 83 -272v-563h-291v551q0 131 -134 131q-79 0 -144 -22v-660h-291zM412 1051l174 311h262l-174 -311h-262z" />
<glyph unicode="&#x145;" horiz-adv-x="1341" vert-adv-y="2457" d="M125 0v1217h307l490 -746v746h295v-1217h-289l-508 731v-731h-295zM426 -389q69 74 96 147q23 65 25 164h278q-4 -114 -58 -191q-48 -67 -142 -120h-199z" />
<glyph unicode="&#x146;" horiz-adv-x="1096" vert-adv-y="2457" d="M125 0v856q227 86 461 86q219 0 316 -107q83 -92 83 -272v-563h-291v551q0 131 -134 131q-79 0 -144 -22v-660h-291zM303 -389q69 74 96 147q23 65 25 164h279q-5 -114 -59 -191q-47 -67 -142 -120h-199z" />
<glyph unicode="&#x147;" horiz-adv-x="1341" vert-adv-y="2457" d="M125 0v1217h307l490 -746v746h295v-1217h-289l-508 731v-731h-295zM340 1628h229l109 -147l109 147h229l-240 -315h-196z" />
<glyph unicode="&#x148;" horiz-adv-x="1096" vert-adv-y="2457" d="M125 0v856q227 86 461 86q219 0 316 -107q83 -92 83 -272v-563h-291v551q0 131 -134 131q-79 0 -144 -22v-660h-291zM217 1362h236l102 -150l102 150h236l-240 -324h-196z" />
<glyph unicode="&#x14a;" horiz-adv-x="1341" vert-adv-y="2457" d="M125 0v1217h307l490 -746v746h295v-1246q0 -173 -107 -268q-104 -92 -291 -92q-153 0 -262 67v285q111 -84 225 -84q46 0 74 12q56 24 56 103v33l-492 704v-731h-295z" />
<glyph unicode="&#x14b;" horiz-adv-x="1096" vert-adv-y="2457" d="M125 0v856q227 86 461 86q219 0 316 -107q83 -92 83 -272v-639q0 -150 -93 -232q-93 -81 -259 -81q-86 0 -178 31v241q84 -26 134 -26q57 0 81 27t24 89v578q0 131 -134 131q-79 0 -144 -22v-660h-291z" />
<glyph unicode="&#x14c;" horiz-adv-x="1399" vert-adv-y="2457" d="M66 615q0 262 179 441q89 90 216 138q111 43 238 43q273 0 455 -181q180 -178 180 -447q0 -270 -180 -448q-182 -181 -455 -181t-454 181q-179 178 -179 454zM379 609q0 -166 99 -265q88 -89 221 -89q134 0 222 89q98 98 98 268q0 162 -98 261q-87 89 -222 89 q-133 0 -221 -89q-99 -99 -99 -264zM455 1315v209h490v-209h-490z" />
<glyph unicode="&#x14d;" horiz-adv-x="1092" vert-adv-y="2457" d="M57 465q0 202 136 339q137 138 352 138t354 -139q135 -135 135 -342t-135 -342q-139 -139 -354 -139q-214 0 -352 138q-136 135 -136 347zM301 1057v209h489v-209h-489zM350 461q0 -116 64 -179q52 -52 131 -52q80 0 132 52q64 63 64 182q0 112 -64 176q-52 52 -132 52 q-79 0 -131 -52q-64 -63 -64 -179z" />
<glyph unicode="&#x14e;" horiz-adv-x="1399" vert-adv-y="2457" d="M66 615q0 262 179 441q89 90 216 138q111 43 238 43q273 0 455 -181q180 -178 180 -447q0 -270 -180 -448q-182 -181 -455 -181t-454 181q-179 178 -179 454zM379 609q0 -166 99 -265q88 -89 221 -89q134 0 222 89q98 98 98 268q0 162 -98 261q-87 89 -222 89 q-133 0 -221 -89q-99 -99 -99 -264zM420 1597h207q2 -103 72 -103t72 103h206q-3 -83 -21 -128q-41 -104 -142 -143q-52 -20 -115 -20q-134 0 -210 85q-46 51 -60 119q-6 30 -9 87z" />
<glyph unicode="&#x14f;" horiz-adv-x="1092" vert-adv-y="2457" d="M57 465q0 202 136 339q137 138 352 138t354 -139q135 -135 135 -342t-135 -342q-139 -139 -354 -139q-214 0 -352 138q-136 135 -136 347zM266 1341h207q2 -110 71 -110q70 0 72 110h207q-5 -107 -42 -171q-74 -127 -236 -127q-123 0 -198 75q-46 47 -67 114 q-11 37 -14 109zM350 461q0 -116 64 -179q52 -52 131 -52q80 0 132 52q64 63 64 182q0 112 -64 176q-52 52 -132 52q-79 0 -131 -52q-64 -63 -64 -179z" />
<glyph unicode="&#x150;" horiz-adv-x="1399" vert-adv-y="2457" d="M66 615q0 262 179 441q89 90 216 138q111 43 238 43q273 0 455 -181q180 -178 180 -447q0 -270 -180 -448q-182 -181 -455 -181t-454 181q-179 178 -179 454zM379 609q0 -166 99 -265q88 -89 221 -89q134 0 222 89q98 98 98 268q0 162 -98 261q-87 89 -222 89 q-133 0 -221 -89q-99 -99 -99 -264zM414 1313l174 309h238l-174 -309h-238zM736 1313l174 309h237l-174 -309h-237z" />
<glyph unicode="&#x151;" horiz-adv-x="1092" vert-adv-y="2457" d="M57 465q0 202 136 339q137 138 352 138t354 -139q135 -135 135 -342t-135 -342q-139 -139 -354 -139q-214 0 -352 138q-136 135 -136 347zM260 1051l174 311h237l-174 -311h-237zM350 461q0 -116 64 -179q52 -52 131 -52q80 0 132 52q64 63 64 182q0 112 -64 176 q-52 52 -132 52q-79 0 -131 -52q-64 -63 -64 -179zM581 1051l174 311h238l-174 -311h-238z" />
<glyph unicode="&#x152;" horiz-adv-x="1683" vert-adv-y="2457" d="M66 608q0 257 173 428q182 181 460 181h880v-268h-503v-210h458v-262h-458v-209h518v-268h-895q-277 0 -459 180q-174 171 -174 428zM379 608q0 -157 96 -253q89 -89 224 -89h76v684h-76q-137 0 -224 -88q-96 -96 -96 -254z" />
<glyph unicode="&#x153;" horiz-adv-x="1667" vert-adv-y="2457" d="M57 460q0 209 136 344q138 138 350 138q192 0 334 -124q123 124 317 124q193 0 296 -116q103 -114 103 -330v-125h-578v-4q45 -139 256 -139q151 0 297 73v-240q-133 -81 -332 -81q-224 0 -359 128q-141 -128 -334 -128q-212 0 -350 138q-136 135 -136 342zM350 461 q0 -116 64 -179q52 -52 131 -52q80 0 132 52q64 63 64 182q0 112 -64 176q-52 52 -132 52q-79 0 -131 -52q-64 -63 -64 -179zM1017 535h309q-4 169 -142 169q-134 0 -167 -169z" />
<glyph unicode="&#x154;" horiz-adv-x="1137" vert-adv-y="2457" d="M125 0v1211q172 26 376 26q216 0 345 -75q184 -106 184 -345q0 -238 -219 -362l326 -455h-359l-262 389h-88v-389h-303zM418 1313l172 309h262l-172 -309h-262zM428 639h76q217 0 217 167t-208 167q-49 0 -85 -4v-330z" />
<glyph unicode="&#x155;" horiz-adv-x="735" vert-adv-y="2457" d="M125 0v854q167 82 382 82q102 0 200 -26v-281q-86 35 -187 35q-48 0 -104 -12v-652h-291zM297 1051l174 311h262l-174 -311h-262z" />
<glyph unicode="&#x156;" horiz-adv-x="1137" vert-adv-y="2457" d="M125 0v1211q172 26 376 26q216 0 345 -75q184 -106 184 -345q0 -238 -219 -362l326 -455h-359l-262 389h-88v-389h-303zM334 -389q69 74 96 147q23 65 25 164h278q-5 -114 -59 -191q-47 -67 -141 -120h-199zM428 639h76q217 0 217 167t-208 167q-49 0 -85 -4v-330z" />
<glyph unicode="&#x157;" horiz-adv-x="735" vert-adv-y="2457" d="M8 -389q69 74 96 147q23 65 25 164h278q-4 -114 -58 -191q-48 -67 -142 -120h-199zM125 0v854q167 82 381 82q102 0 200 -26v-281q-85 35 -187 35q-47 0 -103 -12v-652h-291z" />
<glyph unicode="&#x158;" horiz-adv-x="1137" vert-adv-y="2457" d="M125 0v1211q172 26 376 26q216 0 345 -75q184 -106 184 -345q0 -238 -219 -362l326 -455h-359l-262 389h-88v-389h-303zM227 1628h230l108 -147l109 147h229l-239 -315h-197zM428 639h76q217 0 217 167t-208 167q-49 0 -85 -4v-330z" />
<glyph unicode="&#x159;" horiz-adv-x="735" vert-adv-y="2457" d="M102 1362h236l102 -150l102 150h236l-240 -324h-196zM125 0v854q168 82 381 82q102 0 200 -26v-281q-86 35 -187 35q-47 0 -103 -12v-652h-291z" />
<glyph unicode="&#x15a;" horiz-adv-x="938" vert-adv-y="2457" d="M53 856q0 162 100 263q118 118 328 118q176 0 330 -88v-299q-159 127 -321 127q-140 0 -140 -100q0 -51 49 -82q33 -21 150 -51q202 -54 276 -160q60 -85 60 -215q0 -222 -171 -320q-120 -69 -295 -69q-192 0 -341 86v299q171 -125 336 -125q172 0 172 109q0 52 -49 82 q-34 21 -138 49q-210 55 -286 160q-60 85 -60 216zM334 1313l172 309h262l-172 -309h-262z" />
<glyph unicode="&#x15b;" horiz-adv-x="860" vert-adv-y="2457" d="M80 628q0 179 140 260q93 54 235 54q143 0 274 -69v-248q-139 85 -262 85q-104 0 -104 -60q0 -29 29 -45q19 -10 65 -18q214 -37 283 -127q52 -67 52 -174q0 -175 -132 -251q-96 -55 -249 -55q-179 0 -315 75v256q158 -99 307 -99q106 0 106 58q0 31 -32 48 q-22 12 -80 21q-147 23 -217 72q-100 70 -100 217zM313 1051l175 311h262l-174 -311h-263z" />
<glyph unicode="&#x15c;" horiz-adv-x="938" vert-adv-y="2457" d="M53 856q0 162 100 263q118 118 328 118q176 0 330 -88v-299q-159 127 -321 127q-140 0 -140 -100q0 -51 49 -82q33 -21 150 -51q202 -54 276 -160q60 -85 60 -215q0 -222 -171 -320q-120 -69 -295 -69q-192 0 -341 86v299q171 -125 336 -125q172 0 172 109q0 52 -49 82 q-34 21 -138 49q-210 55 -286 160q-60 85 -60 216zM143 1309l240 315h196l240 -315h-229l-109 147l-109 -147h-229z" />
<glyph unicode="&#x15d;" horiz-adv-x="860" vert-adv-y="2457" d="M80 628q0 179 140 260q93 54 235 54q143 0 274 -69v-248q-139 85 -262 85q-104 0 -104 -60q0 -29 29 -45q19 -10 65 -18q214 -37 283 -127q52 -67 52 -174q0 -175 -132 -251q-96 -55 -249 -55q-179 0 -315 75v256q158 -99 307 -99q106 0 106 58q0 31 -32 48 q-22 12 -80 21q-147 23 -217 72q-100 70 -100 217zM103 1038l239 324h197l239 -324h-229l-109 142l-108 -142h-229z" />
<glyph unicode="&#x15e;" horiz-adv-x="938" vert-adv-y="2457" d="M53 856q0 162 100 263q118 118 328 118q176 0 330 -88v-299q-160 127 -321 127q-140 0 -140 -100q0 -51 49 -82q33 -21 150 -51q202 -54 276 -160q60 -85 60 -216q0 -283 -278 -364q-3 -66 -29 -136q-38 -106 -115 -167h-248q136 131 156 280q-167 12 -293 85v299 q172 -125 336 -125q172 0 172 109q0 52 -49 82q-34 21 -138 49q-210 55 -286 160q-60 85 -60 216z" />
<glyph unicode="&#x15f;" horiz-adv-x="860" vert-adv-y="2457" d="M80 628q0 180 140 260q93 54 235 54q143 0 274 -69v-248q-139 86 -262 86q-104 0 -104 -60q0 -30 29 -45q20 -10 65 -18q214 -37 283 -128q52 -67 52 -174q0 -230 -222 -287q-7 -83 -40 -159q-38 -86 -104 -139h-248q139 135 156 282q-136 15 -238 72v256 q159 -100 307 -100q106 0 106 58q0 31 -32 48q-23 12 -80 21q-147 23 -217 73q-100 69 -100 217z" />
<glyph unicode="&#x160;" horiz-adv-x="938" vert-adv-y="2457" d="M53 856q0 162 100 263q118 118 328 118q176 0 330 -88v-299q-159 127 -321 127q-140 0 -140 -100q0 -51 49 -82q33 -21 150 -51q202 -54 276 -160q60 -85 60 -215q0 -222 -171 -320q-120 -69 -295 -69q-192 0 -341 86v299q171 -125 336 -125q172 0 172 109q0 52 -49 82 q-34 21 -138 49q-210 55 -286 160q-60 85 -60 216zM143 1628h229l109 -147l109 147h229l-240 -315h-196z" />
<glyph unicode="&#x161;" horiz-adv-x="860" vert-adv-y="2457" d="M80 628q0 179 140 260q93 54 235 54q143 0 274 -69v-248q-139 85 -262 85q-104 0 -104 -60q0 -29 29 -45q19 -10 65 -18q214 -37 283 -127q52 -67 52 -174q0 -175 -132 -251q-96 -55 -249 -55q-179 0 -315 75v256q158 -99 307 -99q106 0 106 58q0 31 -32 48 q-22 12 -80 21q-147 23 -217 72q-100 70 -100 217zM103 1362h235l102 -150l103 150h235l-239 -324h-197z" />
<glyph unicode="&#x162;" horiz-adv-x="1094" vert-adv-y="2457" d="M31 949v268h1032v-268h-364v-949h-303v949h-365zM287 -389q69 74 96 147q23 65 25 164h278q-4 -114 -58 -191q-48 -67 -142 -120h-199z" />
<glyph unicode="&#x163;" horiz-adv-x="766" vert-adv-y="2457" d="M0 680v242h137v227h289v-227h264v-242h-264v-303q0 -129 122 -129q86 0 167 51v-266q-108 -53 -244 -53q-174 0 -261 96q-73 80 -73 217v387h-137zM207 -389q69 74 96 147q23 65 25 164h278q-5 -114 -59 -191q-47 -67 -141 -120h-199z" />
<glyph unicode="&#x164;" horiz-adv-x="1094" vert-adv-y="2457" d="M31 949v268h1032v-268h-364v-949h-303v949h-365zM209 1628h230l108 -147l109 147h229l-240 -315h-196z" />
<glyph unicode="&#x165;" horiz-adv-x="766" vert-adv-y="2457" d="M0 680v242h137v227h289v-227h264v-242h-264v-303q0 -129 122 -129q86 0 167 51v-266q-108 -53 -244 -53q-174 0 -261 96q-73 80 -73 217v387h-137zM510 1051l96 342h230l-97 -342h-229z" />
<glyph unicode="&#x166;" horiz-adv-x="1094" vert-adv-y="2457" d="M31 949v268h1032v-268h-364v-234h204v-250h-204v-465h-303v465h-205v250h205v234h-365z" />
<glyph unicode="&#x167;" horiz-adv-x="807" vert-adv-y="2457" d="M20 389v209h137v115h-137v209h137v227h289v-227h264v-209h-264v-115h264v-209h-264v-25q0 -128 122 -128q86 0 167 51v-254q-108 -53 -244 -53q-174 0 -261 96q-73 80 -73 217v96h-137z" />
<glyph unicode="&#x168;" horiz-adv-x="1257" vert-adv-y="2457" d="M111 436v781h305v-713q0 -158 70 -222q53 -48 160 -48q67 0 182 16v967h305v-1174q-97 -27 -230 -44q-151 -19 -267 -19q-286 0 -421 147q-104 114 -104 309zM314 1313q3 105 31 167q49 107 156 107q59 0 127 -47q44 -30 71 -30q50 0 51 69h178q-3 -105 -31 -167 q-49 -107 -156 -107q-59 0 -126 47q-43 30 -70 30q-51 0 -53 -69h-178z" />
<glyph unicode="&#x169;" horiz-adv-x="1069" vert-adv-y="2457" d="M106 346v576h291v-549q0 -92 37 -125q33 -30 109 -30q49 0 110 12v692h291v-889q-186 -53 -404 -53q-252 0 -354 111q-80 88 -80 255zM217 1038q2 105 31 168q49 107 156 107q58 0 126 -47q44 -30 71 -30q51 0 52 69h178q-3 -105 -31 -167q-49 -108 -157 -108 q-58 0 -125 47q-43 31 -70 31q-51 0 -53 -70h-178z" />
<glyph unicode="&#x16a;" horiz-adv-x="1257" vert-adv-y="2457" d="M111 436v781h305v-713q0 -158 70 -222q53 -48 160 -48q67 0 182 16v967h305v-1174q-97 -27 -230 -44q-151 -19 -267 -19q-286 0 -421 147q-104 114 -104 309zM377 1315v209h490v-209h-490z" />
<glyph unicode="&#x16b;" horiz-adv-x="1069" vert-adv-y="2457" d="M106 346v576h291v-549q0 -92 37 -125q33 -30 109 -30q49 0 110 12v692h291v-889q-186 -53 -404 -53q-252 0 -354 111q-80 88 -80 255zM280 1057v209h490v-209h-490z" />
<glyph unicode="&#x16c;" horiz-adv-x="1257" vert-adv-y="2457" d="M111 436v781h305v-713q0 -158 70 -222q53 -48 160 -48q67 0 182 16v967h305v-1174q-97 -27 -230 -44q-151 -19 -267 -19q-286 0 -421 147q-104 114 -104 309zM342 1597h207q2 -103 72 -103t72 103h206q-3 -83 -21 -128q-41 -104 -142 -143q-52 -20 -115 -20 q-134 0 -210 85q-46 51 -60 119q-6 30 -9 87z" />
<glyph unicode="&#x16d;" horiz-adv-x="1069" vert-adv-y="2457" d="M106 346v576h291v-549q0 -92 37 -125q33 -30 109 -30q49 0 110 12v692h291v-889q-186 -53 -404 -53q-252 0 -354 111q-80 88 -80 255zM245 1341h207q2 -110 72 -110q69 0 71 110h207q-4 -107 -41 -171q-74 -127 -237 -127q-122 0 -198 75q-46 47 -66 114q-12 37 -15 109z " />
<glyph unicode="&#x16e;" horiz-adv-x="1257" vert-adv-y="2457" d="M111 436v781h305v-713q0 -158 70 -222q53 -48 160 -48q67 0 182 16v967h305v-1174q-97 -27 -230 -44q-151 -19 -267 -19q-286 0 -421 147q-104 114 -104 309zM410 1480q0 85 56 142q59 59 155 59q97 0 156 -59q57 -56 57 -144t-57 -145q-59 -59 -156 -59q-96 0 -154 59 q-57 57 -57 147zM543 1479q0 -38 23 -61q22 -21 56 -21t56 21q23 23 23 61q0 34 -23 57q-21 22 -57 22q-34 0 -55 -21q-23 -23 -23 -58z" />
<glyph unicode="&#x16f;" horiz-adv-x="1069" vert-adv-y="2457" d="M106 346v576h291v-549q0 -92 37 -125q33 -30 109 -30q49 0 110 12v692h291v-889q-186 -53 -404 -53q-252 0 -354 111q-80 88 -80 255zM313 1210q0 85 56 142q58 59 155 59t157 -59q56 -56 56 -144t-56 -145q-59 -59 -157 -59q-96 0 -154 59q-57 57 -57 147zM446 1209 q0 -38 23 -61q22 -21 56 -21t56 22q23 22 23 60q0 35 -23 57q-22 22 -57 22q-33 0 -55 -21q-23 -23 -23 -58z" />
<glyph unicode="&#x170;" horiz-adv-x="1257" vert-adv-y="2457" d="M111 436v781h305v-713q0 -158 70 -222q53 -48 160 -48q67 0 182 16v967h305v-1174q-97 -27 -230 -44q-151 -19 -267 -19q-286 0 -421 147q-104 114 -104 309zM336 1313l174 309h238l-174 -309h-238zM658 1313l174 309h237l-174 -309h-237z" />
<glyph unicode="&#x171;" horiz-adv-x="1069" vert-adv-y="2457" d="M106 346v576h291v-549q0 -92 37 -125q33 -30 109 -30q49 0 110 12v692h291v-889q-186 -53 -404 -53q-252 0 -354 111q-80 88 -80 255zM231 1051l174 311h238l-175 -311h-237zM552 1051l175 311h237l-174 -311h-238z" />
<glyph unicode="&#x172;" horiz-adv-x="1257" vert-adv-y="2457" d="M111 436v781h305v-713q0 -158 70 -222q53 -48 160 -48q67 0 182 16v967h305v-1174q-176 -99 -176 -189q0 -46 59 -46q44 0 94 22v-190q-59 -29 -150 -29q-85 0 -140 32q-80 46 -80 146q0 113 98 203q-115 -12 -202 -12q-286 0 -421 147q-104 114 -104 309z" />
<glyph unicode="&#x173;" horiz-adv-x="1069" vert-adv-y="2457" d="M106 346v576h291v-549q0 -92 37 -125q33 -30 109 -30q49 0 110 12v692h291v-889q-154 -80 -154 -178q0 -47 59 -47q45 0 95 22v-190q-59 -29 -151 -29q-83 0 -137 31q-83 48 -83 160q0 106 76 184q-58 -6 -109 -6q-252 0 -354 111q-80 88 -80 255z" />
<glyph unicode="&#x174;" horiz-adv-x="1792" vert-adv-y="2457" d="M41 1217h305l193 -865l207 865h307l211 -865l190 865h297l-289 -1217h-379l-190 789l-188 -789h-375zM557 1309l240 315h196l240 -315h-229l-109 147l-109 -147h-229z" />
<glyph unicode="&#x175;" horiz-adv-x="1470" vert-adv-y="2457" d="M10 922h299l150 -598l157 598h246l156 -598l151 598h291l-262 -922h-318l-147 539l-148 -539h-313zM397 1038l240 324h196l240 -324h-229l-109 142l-109 -142h-229z" />
<glyph unicode="&#x176;" horiz-adv-x="1178" vert-adv-y="2457" d="M0 1217h336l258 -484l245 484h338l-438 -774v-443h-303v443zM250 1309l239 315h197l240 -315h-230l-108 147l-109 -147h-229z" />
<glyph unicode="&#x177;" horiz-adv-x="1055" vert-adv-y="2457" d="M10 922h313l211 -600l207 600h303l-504 -1291h-286l133 350zM200 1038l240 324h197l239 -324h-229l-109 142l-108 -142h-230z" />
<glyph unicode="&#x178;" horiz-adv-x="1178" vert-adv-y="2457" d="M0 1217h336l258 -484l245 484h338l-438 -774v-443h-303v443zM236 1445q0 65 46 113q46 47 111 47q66 0 114 -48q46 -47 46 -112q0 -63 -45 -109q-47 -48 -117 -48q-64 0 -110 47q-45 46 -45 110zM621 1445q0 65 46 113q46 47 111 47q67 0 114 -47q46 -47 46 -113 q0 -64 -45 -110q-47 -47 -117 -47q-64 0 -110 47q-45 46 -45 110z" />
<glyph unicode="&#x179;" horiz-adv-x="1044" vert-adv-y="2457" d="M61 949v268h909v-268l-559 -681h570v-268h-918v268l547 681h-549zM372 1313l172 309h262l-172 -309h-262z" />
<glyph unicode="&#x17a;" horiz-adv-x="891" vert-adv-y="2457" d="M59 0v234l395 448h-385v240h738v-242l-400 -440h434v-240h-782zM307 1051l174 311h262l-174 -311h-262z" />
<glyph unicode="&#x17b;" horiz-adv-x="1044" vert-adv-y="2457" d="M61 949v268h909v-268l-559 -681h570v-268h-918v268l547 681h-549zM354 1464q0 68 48 117q48 50 118 50q69 0 119 -50q48 -50 48 -117t-48 -116q-49 -50 -120 -50q-69 0 -117 50q-48 49 -48 116z" />
<glyph unicode="&#x17c;" horiz-adv-x="891" vert-adv-y="2457" d="M59 0v234l395 448h-385v240h738v-242l-400 -440h434v-240h-782zM284 1198q0 68 48 117q48 50 118 50q69 0 119 -50q48 -50 48 -117t-48 -116q-49 -50 -120 -50q-69 0 -117 50q-48 49 -48 116z" />
<glyph unicode="&#x17d;" horiz-adv-x="1044" vert-adv-y="2457" d="M61 949v268h909v-268l-559 -681h570v-268h-918v268l547 681h-549zM182 1628h229l109 -147l108 147h230l-240 -315h-197z" />
<glyph unicode="&#x17e;" horiz-adv-x="891" vert-adv-y="2457" d="M59 0v234l395 448h-385v240h738v-242l-400 -440h434v-240h-782zM112 1362h236l102 -150l103 150h235l-240 -324h-196z" />
<glyph unicode="&#x192;" horiz-adv-x="786" vert-adv-y="2457" d="M41 434v246h155l27 178q58 379 364 379q86 0 159 -34v-279q-58 36 -116 36q-102 0 -120 -116l-25 -164h164v-246h-202l-103 -680h-291l105 680h-117z" />
<glyph unicode="&#x1fa;" horiz-adv-x="1313" vert-adv-y="2457" d="M0 0l457 1176q-39 52 -39 121q0 87 59 145q66 66 178 66q113 0 179 -66q59 -59 59 -145q0 -69 -38 -119l458 -1178h-334l-82 231h-491l-84 -231h-322zM497 479h312l-154 432zM528 1563l127 227h263l-127 -227h-263zM568 1298q0 -33 22 -54q24 -25 66 -25q41 0 65 25 q22 21 22 54q0 34 -22 57q-24 24 -66 24q-41 0 -65 -24q-22 -23 -22 -57z" />
<glyph unicode="&#x1fb;" horiz-adv-x="965" vert-adv-y="2457" d="M70 268q0 283 403 283h98v37q0 108 -159 108q-133 0 -260 -75v246q137 75 318 75q388 0 388 -342v-580q-191 -40 -376 -40q-412 0 -412 288zM269 1182q0 73 50 124q60 61 167 61q106 0 167 -61q50 -51 50 -126q0 -77 -52 -128q-61 -60 -165 -60t-165 60q-52 51 -52 130z M355 1421l123 217h262l-123 -217h-262zM358 283q0 -94 121 -94q50 0 92 8v178h-78q-135 0 -135 -92zM406 1180q0 -28 20 -48q23 -23 61 -23q36 0 59 23q20 20 20 48q0 29 -20 49q-24 23 -60 23t-60 -23q-20 -20 -20 -49z" />
<glyph unicode="&#x1fc;" horiz-adv-x="1778" vert-adv-y="2457" d="M0 0l671 1217h1002v-268h-504v-210h459v-262h-459v-209h519v-268h-820v231h-420l-127 -231h-321zM584 479h284v517zM971 1313l172 309h262l-172 -309h-262z" />
<glyph unicode="&#x1fd;" horiz-adv-x="1518" vert-adv-y="2457" d="M70 266q0 269 404 269h127q4 27 8 46q-15 119 -183 119q-141 0 -274 -79v246q138 75 311 75q195 0 283 -106q114 106 298 106q195 0 298 -116q102 -113 102 -330v-125h-577q38 -143 250 -143q157 0 303 73v-240q-133 -81 -334 -81q-203 0 -332 100q-145 -100 -320 -100 q-137 0 -233 55q-131 75 -131 231zM359 278q0 -51 42 -75q27 -16 69 -16q83 0 164 52q-23 59 -33 132h-117q-125 0 -125 -93zM623 1051l174 311h262l-174 -311h-262zM864 535h314q-7 169 -141 169q-139 0 -173 -169z" />
<glyph unicode="&#x1fe;" horiz-adv-x="1423" vert-adv-y="2457" d="M78 0l158 182q-158 184 -158 426q0 270 179 448q181 181 454 181q185 0 346 -96l65 76h224l-158 -184q158 -184 158 -424q0 -270 -180 -448q-182 -181 -454 -181q-181 0 -347 94l-64 -74h-223zM383 607q0 -107 47 -197l445 518q-74 43 -162 43q-135 0 -227 -93 q-103 -103 -103 -271zM547 287q76 -41 162 -41q134 0 225 90q105 104 105 273q0 106 -46 196zM563 1313l172 309h263l-172 -309h-263z" />
<glyph unicode="&#x1ff;" horiz-adv-x="1112" vert-adv-y="2457" d="M47 0l131 145q-111 138 -111 315q0 209 136 344q138 138 352 138q146 0 272 -75l49 55h189l-131 -146q110 -137 110 -315q0 -207 -135 -342q-139 -139 -354 -139q-146 0 -270 73l-50 -53h-188zM350 460q0 -55 16 -106l289 322q-44 24 -99 24q-84 0 -139 -55 q-67 -66 -67 -185zM422 1051l174 311h262l-174 -311h-262zM455 244q46 -22 100 -22q86 0 143 56q65 65 65 183q0 57 -16 107z" />
<glyph unicode="&#x218;" horiz-adv-x="938" vert-adv-y="2457" d="M53 856q0 162 100 263q118 118 328 118q176 0 330 -88v-299q-159 127 -321 127q-140 0 -140 -100q0 -51 49 -82q33 -21 150 -51q202 -54 276 -160q60 -85 60 -215q0 -222 -171 -320q-120 -69 -295 -69q-192 0 -341 86v299q171 -125 336 -125q172 0 172 109q0 52 -49 82 q-34 21 -138 49q-210 55 -286 160q-60 85 -60 216zM188 -389q69 74 96 147q23 65 25 164h279q-5 -114 -59 -191q-47 -67 -142 -120h-199z" />
<glyph unicode="&#x219;" horiz-adv-x="860" vert-adv-y="2457" d="M80 628q0 179 140 260q93 54 235 54q143 0 274 -69v-248q-139 85 -262 85q-104 0 -104 -60q0 -29 29 -45q19 -10 65 -18q214 -37 283 -127q52 -67 52 -174q0 -175 -132 -251q-96 -55 -249 -55q-179 0 -315 75v256q158 -99 307 -99q106 0 106 58q0 31 -32 48 q-22 12 -80 21q-147 23 -217 72q-100 70 -100 217zM176 -389q69 74 96 147q23 65 25 164h279q-5 -114 -59 -191q-47 -67 -142 -120h-199z" />
<glyph unicode="&#x21a;" horiz-adv-x="1094" vert-adv-y="2457" d="M31 949v268h1032v-268h-364v-949h-303v949h-365zM287 -389q69 74 96 147q23 65 25 164h278q-4 -114 -58 -191q-48 -67 -142 -120h-199z" />
<glyph unicode="&#x21b;" horiz-adv-x="766" vert-adv-y="2457" d="M0 680v242h137v227h289v-227h264v-242h-264v-303q0 -129 122 -129q86 0 167 51v-266q-108 -53 -244 -53q-174 0 -261 96q-73 80 -73 217v387h-137zM207 -389q69 74 96 147q23 65 25 164h278q-5 -114 -59 -191q-47 -67 -141 -120h-199z" />
<glyph unicode="&#x2c6;" horiz-adv-x="1024" vert-adv-y="2457" d="M174 1038l240 324h196l240 -324h-230l-108 142l-109 -142h-229z" />
<glyph unicode="&#x2c7;" horiz-adv-x="1024" vert-adv-y="2457" d="M174 1362h236l102 -150l102 150h236l-240 -324h-196z" />
<glyph unicode="&#x2d8;" horiz-adv-x="1024" vert-adv-y="2457" d="M233 1341h207q2 -110 72 -110q69 0 71 110h207q-5 -107 -41 -171q-75 -127 -237 -127q-122 0 -198 75q-46 47 -67 114q-11 37 -14 109z" />
<glyph unicode="&#x2d9;" horiz-adv-x="1024" vert-adv-y="2457" d="M344 1198q0 68 48 117q48 50 118 50q69 0 119 -50q48 -50 48 -117t-48 -116q-49 -50 -120 -50q-69 0 -117 50q-48 49 -48 116z" />
<glyph unicode="&#x2da;" horiz-adv-x="1024" vert-adv-y="2457" d="M299 1210q0 85 56 142q58 59 155 59t156 -59q57 -57 57 -144q0 -88 -57 -145q-58 -59 -156 -59q-96 0 -154 59q-57 57 -57 147zM432 1209q0 -38 23 -61q22 -21 56 -21t56 22q23 22 23 60q0 35 -23 57q-22 22 -57 22q-34 0 -55 -21q-23 -23 -23 -58z" />
<glyph unicode="&#x2db;" horiz-adv-x="1024" vert-adv-y="2457" d="M328 -211q0 90 63 166q32 39 85 70h202q-133 -85 -133 -170q0 -47 59 -47q45 0 95 22v-190q-59 -29 -151 -29q-85 0 -140 32q-80 46 -80 146z" />
<glyph unicode="&#x2dc;" horiz-adv-x="1024" vert-adv-y="2457" d="M205 1038q3 105 31 168q49 107 157 107q58 0 126 -47q44 -30 71 -30q50 0 51 69h178q-2 -105 -31 -167q-49 -108 -156 -108q-58 0 -125 47q-43 31 -70 31q-52 0 -54 -70h-178z" />
<glyph unicode="&#x2dd;" horiz-adv-x="1024" vert-adv-y="2457" d="M145 1051l174 311h238l-174 -311h-238zM467 1051l174 311h237l-174 -311h-237z" />
<glyph unicode="&#x3a9;" horiz-adv-x="1221" vert-adv-y="2457" d="M82 704q0 242 147 390q142 143 382 143q239 0 381 -143q147 -148 147 -390q0 -180 -95 -327q-46 -72 -114 -119h203v-258h-459v315q86 60 126 133q58 103 58 243q0 160 -85 245q-66 67 -161 67q-121 0 -190 -97q-59 -84 -59 -215q0 -151 66 -257q39 -64 118 -119v-315 h-459v258h203q-74 52 -125 136q-84 142 -84 310z" />
<glyph unicode="&#x3c0;" horiz-adv-x="1133" vert-adv-y="2457" d="M61 656v266h989v-266h-129v-344q0 -84 55 -84q34 0 68 20v-246q-56 -22 -133 -22q-277 0 -277 287v389h-147v-656h-287v656h-139z" />
<glyph unicode="&#x1e80;" horiz-adv-x="1792" vert-adv-y="2457" d="M41 1217h305l193 -865l207 865h307l211 -865l190 865h297l-289 -1217h-379l-190 789l-188 -789h-375zM596 1622h262l172 -309h-262z" />
<glyph unicode="&#x1e81;" horiz-adv-x="1470" vert-adv-y="2457" d="M10 922h299l150 -598l157 598h246l156 -598l151 598h291l-262 -922h-318l-147 539l-148 -539h-313zM430 1362h262l174 -311h-262z" />
<glyph unicode="&#x1e82;" horiz-adv-x="1792" vert-adv-y="2457" d="M41 1217h305l193 -865l207 865h307l211 -865l190 865h297l-289 -1217h-379l-190 789l-188 -789h-375zM762 1313l172 309h262l-172 -309h-262z" />
<glyph unicode="&#x1e83;" horiz-adv-x="1470" vert-adv-y="2457" d="M10 922h299l150 -598l157 598h246l156 -598l151 598h291l-262 -922h-318l-147 539l-148 -539h-313zM604 1051l174 311h262l-174 -311h-262z" />
<glyph unicode="&#x1e84;" horiz-adv-x="1792" vert-adv-y="2457" d="M41 1217h305l193 -865l207 865h307l211 -865l190 865h297l-289 -1217h-379l-190 789l-188 -789h-375zM543 1445q0 65 46 113q45 47 111 47t114 -48q46 -47 46 -112q0 -63 -45 -109q-48 -48 -117 -48q-64 0 -110 47q-45 46 -45 110zM928 1445q0 65 46 113q46 47 111 47 q67 0 114 -47q46 -47 46 -113q0 -64 -45 -110q-47 -47 -116 -47q-65 0 -111 47q-45 46 -45 110z" />
<glyph unicode="&#x1e85;" horiz-adv-x="1470" vert-adv-y="2457" d="M10 922h299l150 -598l157 598h246l156 -598l151 598h291l-262 -922h-318l-147 539l-148 -539h-313zM379 1190q0 66 46 113q45 46 111 46q67 0 114 -47q46 -47 46 -112q0 -63 -46 -110q-48 -48 -116 -48q-63 0 -109 47t-46 111zM764 1190q0 66 46 113q45 46 111 46 q68 0 114 -47q46 -46 46 -111t-46 -111q-47 -48 -116 -48q-63 0 -109 47t-46 111z" />
<glyph unicode="&#x1ef2;" horiz-adv-x="1178" vert-adv-y="2457" d="M0 1217h336l258 -484l245 484h338l-438 -774v-443h-303v443zM295 1622h262l172 -309h-262z" />
<glyph unicode="&#x1ef3;" horiz-adv-x="1055" vert-adv-y="2457" d="M10 922h313l211 -600l207 600h303l-504 -1291h-286l133 350zM246 1362h262l174 -311h-262z" />
<glyph unicode="&#x2011;" horiz-adv-x="727" vert-adv-y="2457" d="M70 406v258h588v-258h-588z" />
<glyph unicode="&#x2012;" horiz-adv-x="1171" vert-adv-y="2457" d="M70 444v219h1032v-219h-1032z" />
<glyph unicode="&#x2013;" horiz-adv-x="1171" vert-adv-y="2457" d="M70 444v219h1032v-219h-1032z" />
<glyph unicode="&#x2014;" horiz-adv-x="1950" vert-adv-y="2457" d="M70 444v219h1810v-219h-1810z" />
<glyph unicode="&#x2015;" horiz-adv-x="1950" vert-adv-y="2457" d="M70 444v219h1810v-219h-1810z" />
<glyph unicode="&#x2018;" horiz-adv-x="512" vert-adv-y="2457" d="M96 827q6 176 70 301q56 110 159 191h193q-76 -121 -108 -231q-31 -109 -33 -261h-281z" />
<glyph unicode="&#x2019;" horiz-adv-x="512" vert-adv-y="2457" d="M31 827q76 121 108 231q31 109 33 261h281q-6 -176 -70 -301q-57 -110 -159 -191h-193z" />
<glyph unicode="&#x201a;" horiz-adv-x="512" vert-adv-y="2457" d="M8 -236q76 121 108 231q31 109 33 261h281q-6 -176 -70 -301q-56 -110 -159 -191h-193z" />
<glyph unicode="&#x201c;" horiz-adv-x="918" vert-adv-y="2457" d="M96 827q6 176 70 301q56 110 159 191h193q-76 -121 -108 -231q-31 -109 -33 -261h-281zM499 827q6 175 71 301q56 109 159 191h192q-75 -120 -106 -231q-31 -109 -33 -261h-283z" />
<glyph unicode="&#x201d;" horiz-adv-x="918" vert-adv-y="2457" d="M31 827q76 121 108 231q31 109 33 261h281q-6 -176 -70 -301q-57 -110 -159 -191h-193zM437 827q75 120 106 231q31 109 33 261h282q-5 -176 -70 -301q-56 -110 -159 -191h-192z" />
<glyph unicode="&#x201e;" horiz-adv-x="918" vert-adv-y="2457" d="M8 -236q76 121 108 231q31 109 33 261h281q-6 -176 -70 -301q-56 -110 -159 -191h-193zM414 -236q75 120 106 231q31 109 33 261h282q-5 -176 -70 -301q-56 -110 -159 -191h-192z" />
<glyph unicode="&#x2020;" horiz-adv-x="610" vert-adv-y="2457" d="M41 870v174h166v173h197v-173h165v-174h-165v-374h-197v374h-166z" />
<glyph unicode="&#x2021;" horiz-adv-x="610" vert-adv-y="2457" d="M41 627v168h170v122h-170v168h170v132h188v-132h170v-168h-170v-122h170v-168h-170v-131h-188v131h-170z" />
<glyph unicode="&#x2022;" horiz-adv-x="705" vert-adv-y="2457" d="M102 537q0 103 73 177q71 73 175 73q105 0 178 -74q74 -74 74 -178q0 -103 -73 -175q-73 -73 -179 -73q-105 0 -176 72q-72 71 -72 178z" />
<glyph unicode="&#x2026;" horiz-adv-x="1677" vert-adv-y="2457" d="M94 165q0 81 56 138q51 52 124 52q81 0 136 -55t55 -136q0 -72 -52 -124q-56 -56 -139 -56q-73 0 -126 52q-54 54 -54 129zM653 165q0 81 56 138q52 52 124 52q81 0 136 -55t55 -136q0 -72 -53 -124q-56 -56 -138 -56q-73 0 -126 52q-54 54 -54 129zM1212 165 q0 81 56 138q51 52 125 52q80 0 135 -55t55 -136q0 -72 -53 -124q-56 -56 -138 -56q-73 0 -126 52q-54 54 -54 129z" />
<glyph unicode="&#x2030;" horiz-adv-x="2099" vert-adv-y="2457" d="M41 927q0 131 89 220q89 90 224 90t225 -90q89 -89 89 -223t-89 -223q-90 -90 -224 -90q-135 0 -225 90q-89 88 -89 226zM250 0l731 1217h193l-732 -1217h-192zM252 923q0 -48 29 -77q29 -28 74 -28q46 0 75 29t29 77q0 50 -30 80q-28 28 -74 28q-45 0 -73 -28 q-30 -29 -30 -81zM758 293q0 133 89 223t224 90q134 0 224 -90q89 -89 89 -226q0 -131 -89 -220q-90 -90 -224 -90t-224 90q-89 89 -89 223zM969 293q0 -49 29 -78q28 -28 73 -28q47 0 75 29q29 29 29 78t-29 79q-28 28 -75 28q-44 0 -72 -28q-30 -29 -30 -80zM1432 293 q0 133 89 223t224 90t224 -90q89 -89 89 -226q0 -131 -89 -220q-89 -90 -224 -90t-224 90q-89 89 -89 223zM1643 293q0 -48 29 -78q28 -28 73 -28q46 0 75 29t29 78t-30 79q-28 28 -74 28q-44 0 -72 -28q-30 -29 -30 -80z" />
<glyph unicode="&#x2039;" horiz-adv-x="649" vert-adv-y="2457" d="M61 440l252 324h274l-250 -324l250 -323h-274z" />
<glyph unicode="&#x203a;" horiz-adv-x="649" vert-adv-y="2457" d="M61 117l250 323l-250 324h274l252 -324l-252 -323h-274z" />
<glyph unicode="&#x2044;" horiz-adv-x="412" vert-adv-y="2457" d="M-256 0l731 1217h193l-731 -1217h-193z" />
<glyph unicode="&#x20ac;" horiz-adv-x="1040" vert-adv-y="2457" d="M31 410v143h102q-2 25 -2 57q0 27 2 48h-102v143h122q34 142 117 245q154 191 419 191q165 0 290 -77v-326q-120 128 -278 128q-164 0 -228 -161h287l-29 -143h-285q-2 -25 -2 -46q0 -29 3 -59h268l-29 -143h-208q67 -155 239 -155q96 0 174 45q40 22 109 81v-311 q-140 -90 -312 -90q-233 0 -382 149q-109 110 -152 281h-123z" />
<glyph unicode="&#x2122;" horiz-adv-x="1466" vert-adv-y="2457" d="M41 1051v166h522v-166h-170v-402h-182v402h-170zM567 649l99 568h211l98 -330l92 330h211l96 -568h-180l-59 297l-93 -297h-141l-98 297l-53 -297h-183z" />
<glyph unicode="&#x2202;" horiz-adv-x="1092" vert-adv-y="2457" d="M57 454q0 206 133 339q132 131 331 131q81 0 124 -22q-91 137 -216 260q-96 95 -263 231h358q510 -447 510 -900q0 -236 -141 -377q-135 -136 -348 -136q-215 0 -353 136q-135 133 -135 338zM350 457q0 -113 63 -175q52 -52 131 -52q82 0 135 52q62 63 62 177 q0 110 -62 172q-52 53 -135 53q-79 0 -131 -52q-63 -62 -63 -175z" />
<glyph unicode="&#x2206;" horiz-adv-x="1313" vert-adv-y="2457" d="M0 0l473 1217h367l473 -1217h-1313zM408 242h487l-240 690z" />
<glyph unicode="&#x220f;" horiz-adv-x="1266" vert-adv-y="2457" d="M125 -369v1586h1016v-1586h-305v1316h-406v-1316h-305z" />
<glyph unicode="&#x2211;" horiz-adv-x="907" vert-adv-y="2457" d="M41 -111l340 535l-340 535v258h825v-258h-504l338 -535l-338 -535h504v-258h-825v258z" />
<glyph unicode="&#x221a;" horiz-adv-x="1118" vert-adv-y="2457" d="M82 559v283h373l137 -473l227 848h279l-354 -1217h-318l-194 559h-150z" />
<glyph unicode="&#x221e;" horiz-adv-x="1411" vert-adv-y="2457" d="M82 588q0 158 95 253q88 87 222 87q159 0 279 -147l27 -33l28 33q67 76 124 108q70 39 155 39q134 0 222 -87q95 -95 95 -253t-95 -253q-88 -87 -222 -87q-85 0 -155 39q-56 32 -124 109l-28 32l-27 -32q-120 -148 -279 -148q-134 0 -222 87q-95 95 -95 253zM303 588 q0 -56 34 -90q31 -31 75 -31q56 0 106 60l51 61l-51 62q-49 59 -106 59q-44 0 -75 -31q-34 -34 -34 -90zM842 588l51 -61q50 -60 107 -60q43 0 74 31q34 34 34 90t-34 90q-31 31 -74 31q-57 0 -107 -59z" />
<glyph unicode="&#x222b;" horiz-adv-x="770" vert-adv-y="2457" d="M-6 -88q60 -37 115 -37q104 0 104 111v873q0 199 110 298q89 80 235 80q91 0 165 -36v-265q-61 37 -115 37q-104 0 -104 -110v-873q0 -199 -109 -298q-90 -81 -236 -81q-92 0 -165 37v264z" />
<glyph unicode="&#x2248;" vert-adv-y="2457" d="M143 319v191q111 70 212 70q63 0 174 -34q112 -34 175 -34q105 0 215 70v-191q-110 -69 -215 -69q-63 0 -175 34q-111 34 -175 34q-101 0 -211 -71zM143 625v191q110 69 212 69q63 0 174 -34t175 -34q105 0 215 70v-190q-110 -70 -215 -70q-63 0 -175 34q-111 34 -175 34 q-100 0 -211 -70z" />
<glyph unicode="&#x2260;" vert-adv-y="2457" d="M143 348v182h258l90 146h-348v182h461l104 168h170l-104 -168h145v-182h-258l-90 -146h348v-182h-461l-104 -168h-170l104 168h-145z" />
<glyph unicode="&#x2264;" vert-adv-y="2457" d="M236 78v211h592v-211h-592zM236 690v17l592 335v-239l-213 -105l213 -104v-240z" />
<glyph unicode="&#x2265;" vert-adv-y="2457" d="M236 78v211h592v-211h-592zM236 354v240l213 104l-213 105v239l592 -335v-17z" />
<glyph unicode="&#x25ca;" horiz-adv-x="1036" vert-adv-y="2457" d="M51 609l369 608h196l369 -608l-369 -609h-196zM340 609l178 -318l178 318l-178 319z" />
<glyph unicode="&#x25fc;" horiz-adv-x="920" vert-adv-y="1840" d="M0 0v920h920v-920h-920z" />
</font>
</defs>
</svg>
