<?xml version="1.0" standalone="no"?>
<!DOCTYPE svg PUBLIC "-//W3C//DTD SVG 1.1//EN" "http://www.w3.org/Graphics/SVG/1.1/DTD/svg11.dtd" >
<svg xmlns="http://www.w3.org/2000/svg">
<metadata></metadata>
<defs>
<font id="fsecure_sans_regularregular" horiz-adv-x="1441" >
<font-face units-per-em="2048" ascent="1393" descent="-655" />
<missing-glyph horiz-adv-x="389" />
<glyph unicode="&#xfb01;" horiz-adv-x="1009" d="M41 788v105h137v225q0 141 70.5 218t200.5 77q76 0 135 -31v-114q-59 39 -133 39q-150 0 -150 -191v-223h246v-105h-246v-788h-123v788h-137zM702 1171q0 39 28 66t65 27q39 0 65.5 -27t26.5 -65.5t-26.5 -65.5t-65.5 -27q-37 0 -65 28t-28 64zM733 0v893h123v-893h-123z " />
<glyph unicode="&#xfb02;" horiz-adv-x="1009" d="M41 788v105h137v225q0 141 70.5 218t200.5 77q76 0 135 -31v-114q-59 39 -133 39q-150 0 -150 -191v-223h246v-105h-246v-788h-123v788h-137zM733 0v1393h123v-1393h-123z" />
<glyph unicode="&#xfb03;" horiz-adv-x="1564" d="M41 788v105h137v201q0 141 70.5 218t200.5 77q76 0 135 -31v-115q-59 39 -133 39q-150 0 -150 -190v-199h432v225q0 141 70.5 218t200.5 77q78 0 135 -31v-114q-57 39 -133 39q-150 0 -150 -191v-223h246v-105h-246v-788h-123v788h-432v-788h-123v788h-137zM1257 1171 q0 39 28 66t65 27q39 0 65.5 -27t26.5 -65.5t-26.5 -65.5t-65.5 -27q-37 0 -65 28t-28 64zM1288 0v893h123v-893h-123z" />
<glyph unicode="&#xfb04;" horiz-adv-x="1564" d="M41 788v105h137v201q0 141 70.5 218t200.5 77q76 0 135 -31v-115q-59 39 -133 39q-150 0 -150 -190v-199h432v225q0 141 70.5 218t200.5 77q78 0 135 -31v-114q-57 39 -133 39q-150 0 -150 -191v-223h246v-105h-246v-788h-123v788h-432v-788h-123v788h-137zM1288 0v1393 h123v-1393h-123z" />
<glyph horiz-adv-x="2048" />
<glyph horiz-adv-x="2048" />
<glyph unicode="&#xd;" horiz-adv-x="681" />
<glyph unicode=" "  horiz-adv-x="389" />
<glyph unicode="&#x09;" horiz-adv-x="389" />
<glyph unicode="&#xa0;" horiz-adv-x="389" />
<glyph unicode="!" horiz-adv-x="550" d="M174 84q0 41 29.5 70.5t70.5 29.5t72 -29.5t31 -70.5t-31 -71.5t-72 -30.5t-70.5 30.5t-29.5 71.5zM215 346v871h121v-871h-121z" />
<glyph unicode="&#x22;" horiz-adv-x="622" d="M123 893l41 426h117l-60 -426h-98zM342 893l41 426h117l-60 -426h-98z" />
<glyph unicode="#" horiz-adv-x="1042" d="M61 346v109h181l61 301h-176v108h197l71 353h115l-72 -353h275l71 353h115l-72 -353h154v-108h-174l-62 -301h170v-109h-192l-70 -346h-114l69 346h-274l-70 -346h-114l69 346h-158zM356 455h275l61 301h-274z" />
<glyph unicode="$" horiz-adv-x="858" d="M53 897q0 131 90 219t238 98v179h102v-181q147 -16 248 -90v-129q-131 96 -248 113v-436q168 -51 245 -133t77 -209q0 -133 -83 -217t-239 -105v-201h-102v195q-182 4 -322 119v137q170 -144 322 -150v469q-113 35 -178 72q-150 82 -150 250zM176 905q0 -82 44 -126 t161 -77v406q-98 -8 -151.5 -61.5t-53.5 -141.5zM483 113q199 37 199 209q0 82 -45 132t-154 91v-432z" />
<glyph unicode="%" horiz-adv-x="1417" d="M82 956q0 119 80.5 200t199.5 81q121 0 202 -81t81 -202q0 -119 -81 -199.5t-201.5 -80.5t-200.5 81t-80 201zM197 952q0 -78 45 -125t120 -47q78 0 123 47t45 127q0 82 -45 129t-122.5 47t-121.5 -48t-44 -130zM285 0l731 1217h119l-732 -1217h-118zM772 260 q0 121 81 202t200 81q121 0 201.5 -82t80.5 -203q0 -119 -80.5 -198.5t-201.5 -79.5q-119 0 -200 79.5t-81 200.5zM887 260q0 -80 45 -127t121 -47q78 0 123 47t45 129q0 80 -45 127t-123 47q-76 0 -121 -47t-45 -129z" />
<glyph unicode="&#x26;" horiz-adv-x="1130" d="M74 303q0 109 63 189.5t217 164.5l-53 56q-125 127 -125 262q0 119 79 190.5t210 71.5q137 0 218 -73.5t81 -198.5q0 -100 -55.5 -177t-178.5 -149l306 -322q66 121 73 283h113q-8 -209 -109 -364l226 -236h-152l-143 147q-160 -166 -395 -165q-170 0 -272.5 88 t-102.5 233zM201 307q0 -98 70.5 -159.5t185.5 -61.5q190 0 313 139l-344 359l-4 -4l-19 -9q-203 -111 -202 -264zM297 971q0 -85 92 -183l72 -73q102 57 142 111.5t40 134.5q0 78 -49 125t-131 47q-76 0 -121 -44.5t-45 -117.5z" />
<glyph unicode="'" horiz-adv-x="403" d="M123 893l41 426h117l-60 -426h-98z" />
<glyph unicode="(" horiz-adv-x="645" d="M122.5 552.5q0.5 481.5 364.5 840.5h138q-209 -211 -297 -403.5t-88 -436.5t88 -436.5t297 -403.5h-138q-365 358 -364.5 839.5z" />
<glyph unicode=")" horiz-adv-x="645" d="M20 -287q209 211 297.5 403.5t88.5 436.5t-88.5 436.5t-297.5 403.5h138q365 -358 364.5 -839.5t-364.5 -840.5h-138z" />
<glyph unicode="*" horiz-adv-x="688" d="M61 1151l27 90l211 -74l-4 226h96l-6 -224l213 74l29 -90l-213 -66l135 -178l-76 -55l-129 182l-127 -182l-76 53l133 178z" />
<glyph unicode="+" horiz-adv-x="940" d="M82 545v108h334v334h108v-334h334v-108h-334v-334h-108v334h-334z" />
<glyph unicode="," horiz-adv-x="489" d="M14 -254q158 168 158 418h143q0 -121 -58 -241t-144 -177h-99z" />
<glyph unicode="-" horiz-adv-x="727" d="M143 475v111h441v-111h-441z" />
<glyph unicode="." horiz-adv-x="489" d="M143 84q0 41 30 70.5t71 29.5t71.5 -29.5t30.5 -70.5t-30.5 -71.5t-71.5 -30.5t-71 30.5t-30 71.5z" />
<glyph unicode="/" horiz-adv-x="823" d="M20 -283l644 1676h118l-643 -1676h-119z" />
<glyph unicode="0" horiz-adv-x="1110" d="M102 614q0 276 126 449.5t327 173.5q203 0 328 -173t125 -455.5t-125 -455.5t-328 -173q-205 0 -329 174t-124 460zM229 602q0 -227 91.5 -370.5t234.5 -143.5q145 0 235.5 144.5t90.5 376t-90.5 375.5t-235.5 144q-147 0 -236.5 -144t-89.5 -382z" />
<glyph unicode="1" horiz-adv-x="624" d="M33 1057v110l379 68v-1235h-125v1096z" />
<glyph unicode="2" horiz-adv-x="860" d="M10 0v94q305 256 426 398q190 221 191 403q0 109 -60.5 168t-169.5 59q-176 0 -342 -164v138q147 141 348 141q162 0 255.5 -91t93.5 -247q0 -346 -582 -788h612v-111h-772z" />
<glyph unicode="3" horiz-adv-x="811" d="M41 66v116q145 -98 291 -98q131 0 205.5 62.5t74.5 171t-74.5 166t-265.5 89.5v86q164 39 237 103.5t73 171.5q0 88 -57.5 140t-153.5 52q-160 1 -316 -163v133q125 141 324 141q150 0 242 -83t92 -216q0 -117 -80 -209q-72 -82 -199 -108q145 -25 225 -106t80 -206 q0 -145 -110.5 -237t-288.5 -92q-190 0 -299 86z" />
<glyph unicode="4" horiz-adv-x="1038" d="M53 338v104l576 775h147v-775h232v-104h-232v-338h-121v338h-602zM184 442h471v641z" />
<glyph unicode="5" horiz-adv-x="821" d="M41 57v119q141 -92 276 -92q137 0 216 68.5t79 185.5q0 164 -159 242q-100 49 -326 77l39 560h543v-111h-441l-24 -356q203 -31 309 -91q186 -106 186 -317q0 -164 -114.5 -263t-305.5 -99q-160 0 -278 77z" />
<glyph unicode="6" horiz-adv-x="980" d="M86 379q0 186 143 407l279 431h133l-268 -408l-105 -147q98 111 252 110q170 0 278.5 -110.5t108.5 -282.5q0 -176 -115.5 -287.5t-299.5 -111.5q-180 0 -293 110.5t-113 288.5zM211 371q0 -127 80 -208t205 -81q127 0 206.5 81t79.5 212q0 129 -79.5 210t-206.5 81 t-206 -82t-79 -213z" />
<glyph unicode="7" horiz-adv-x="825" d="M20 1106v111h750v-111l-530 -1106h-129l530 1106h-621z" />
<glyph unicode="8" horiz-adv-x="974" d="M82 326q0 119 70.5 204.5t195.5 116.5q-197 68 -196 275q0 139 93 227t242.5 88t242.5 -88t93 -227q1 -207 -196 -275q125 -31 195.5 -117t70.5 -204q0 -154 -112.5 -250t-293 -96t-293 96t-112.5 250zM211 331.5q0 -114.5 74.5 -182t206.5 -67.5q123 0 197.5 68.5 t74.5 181.5q0 115 -78 188.5t-198.5 73.5t-198.5 -74t-78 -188.5zM272 921.5q0 -94.5 60.5 -153.5t156.5 -59q92 0 152.5 60t60.5 153q0 94 -60 155.5t-154.5 61.5t-155 -61.5t-60.5 -156z" />
<glyph unicode="9" horiz-adv-x="980" d="M74 838q0 176 115.5 287.5t299.5 111.5q180 0 293 -110.5t113 -288.5q0 -186 -143 -408l-279 -430h-133l268 408l105 147q-98 -111 -252 -111q-170 0 -278.5 111t-108.5 283zM199 842q0 -129 79.5 -210t206.5 -81t206 82t79 213q0 127 -80 208t-205 81q-127 0 -206.5 -81 t-79.5 -212z" />
<glyph unicode=":" horiz-adv-x="489" d="M143 84q0 41 30 70.5t71 29.5t71.5 -29.5t30.5 -70.5t-30.5 -71.5t-71.5 -30.5t-71 30.5t-30 71.5zM143 770q0 41 30 70.5t71 29.5t71.5 -29.5t30.5 -70.5t-30.5 -71.5t-71.5 -30.5t-71 30.5t-30 71.5z" />
<glyph unicode=";" horiz-adv-x="489" d="M14 -254q158 168 158 418h143q0 -121 -58 -241t-144 -177h-99zM145 770q0 41 30 70.5t71 29.5t71.5 -29.5t30.5 -70.5t-30.5 -71.5t-71.5 -30.5t-71 30.5t-30 71.5z" />
<glyph unicode="&#x3c;" horiz-adv-x="673" d="M41 588v16l551 336v-135l-354 -209l354 -209v-135z" />
<glyph unicode="=" horiz-adv-x="960" d="M92 422v108h776v-108h-776zM92 668v108h776v-108h-776z" />
<glyph unicode="&#x3e;" horiz-adv-x="673" d="M82 252v135l354 209l-354 209v135l551 -336v-16z" />
<glyph unicode="?" horiz-adv-x="778" d="M51 973v131q117 133 311 133q162 0 262.5 -94t100.5 -248q0 -186 -162 -293q-59 -41 -188 -86v-170h-123v227q199 70 274.5 139.5t75.5 182.5q0 100 -69.5 164.5t-178.5 64.5q-88 0 -156.5 -34.5t-146.5 -116.5zM215 84q0 41 29.5 70.5t70.5 29.5t72 -29.5t31 -70.5 t-31 -71.5t-72 -30.5t-70.5 30.5t-29.5 71.5z" />
<glyph unicode="@" horiz-adv-x="1583" d="M92 449q0 322 208 525.5t536 203.5q293 0 469 -163t176 -435q0 -246 -163 -392.5t-435 -146.5q-207 0 -327 106.5t-120 290.5q0 180 116 291t306 111q133 0 254 -49v-619q131 55 191.5 151.5t60.5 251.5q0 231 -143.5 367.5t-386.5 136.5q-279 0 -454 -176t-175 -454 q0 -295 193.5 -470.5t519.5 -175.5q199 0 391 74v-102q-172 -70 -396 -70q-274 0 -483 119q-338 197 -338 625zM551 438q0 -137 87 -219t234 -82q75 1 134 13v565q-55 20 -142 20q-143 0 -228 -80t-85 -217z" />
<glyph unicode="A" horiz-adv-x="1150" d="M20 0l472 1217h161l477 -1217h-135l-127 336h-589l-127 -336h-132zM317 442h510l-256 672z" />
<glyph unicode="B" horiz-adv-x="991" d="M174 2v1217q162 18 248 18q438 0 438 -328q0 -246 -256 -286q166 -16 242 -105q63 -72 63 -190q0 -168 -126 -258t-363 -90h-10q-116 0 -236 22zM299 92q66 -8 123 -8q362 0 362 242q0 115 -91 175t-267 60h-127v-469zM299 670h109q158 0 242.5 61.5t84.5 175.5 q0 225 -315 226q-35 -1 -121 -7v-456z" />
<glyph unicode="C" horiz-adv-x="1144" d="M92 606q0 274 178.5 452.5t450.5 178.5q176 0 336 -92v-148q-137 125 -336 125q-217 0 -358.5 -144t-141.5 -369.5t141.5 -370t358.5 -144.5q203 0 342 121v-145q-160 -90 -344 -90q-276 0 -451.5 175t-175.5 451z" />
<glyph unicode="D" horiz-adv-x="1261" d="M174 -2v1223q137 16 250 16q358 0 551.5 -156.5t193.5 -447.5q0 -307 -193.5 -480t-539.5 -173q-104 0 -262 18zM301 98q66 -8 139 -8q283 0 439.5 142.5t156.5 398.5q0 240 -156.5 365.5t-455.5 125.5q-49 0 -123 -6v-1018z" />
<glyph unicode="E" horiz-adv-x="976" d="M174 0v1217h692v-111h-565v-430h528v-111h-528v-454h573v-111h-700z" />
<glyph unicode="F" horiz-adv-x="868" d="M174 0v1217h623v-111h-496v-440h451v-113h-451v-553h-127z" />
<glyph unicode="G" horiz-adv-x="1214" d="M92 606q0 272 179.5 451.5t449.5 179.5q174 0 334 -92v-146q-141 123 -334 123q-217 0 -358.5 -145.5t-141.5 -368.5q0 -227 143.5 -371.5t370.5 -144.5q123 0 234 45v412h127v-479q-162 -90 -369 -90q-281 0 -458 175t-177 451z" />
<glyph unicode="H" horiz-adv-x="1351" d="M174 0v1217h127v-541h750v541h127v-1217h-127v563h-750v-563h-127z" />
<glyph unicode="I" horiz-adv-x="475" d="M174 0v1217h127v-1217h-127z" />
<glyph unicode="J" horiz-adv-x="745" d="M31 84v143q121 -139 270 -139q92 0 133 51t41 166v912h127v-930q0 -147 -78 -227t-223 -80q-161 0 -270 104z" />
<glyph unicode="K" horiz-adv-x="1060" d="M174 0v1217h127v-1217h-127zM309 598l549 619h158l-549 -607l588 -610h-164z" />
<glyph unicode="L" horiz-adv-x="866" d="M174 0v1217h127v-1106h524v-111h-651z" />
<glyph unicode="M" horiz-adv-x="1568" d="M66 0l217 1217h170l331 -1088l332 1088h170l217 -1217h-127l-186 1096l-334 -1096h-147l-334 1096l-187 -1096h-122z" />
<glyph unicode="N" horiz-adv-x="1323" d="M174 0v1217h131l721 -1033v1033h123v-1217h-127l-725 1030v-1030h-123z" />
<glyph unicode="O" d="M92 614q0 266 180.5 444.5t448.5 178.5q272 0 450.5 -178t178.5 -450.5t-178.5 -450.5t-450.5 -178q-274 0 -451.5 179t-177.5 455zM221 608q0 -223 141.5 -368.5t358.5 -145.5q219 0 359.5 145.5t140.5 374.5q0 219 -142.5 363.5t-357.5 144.5q-217 0 -358.5 -144 t-141.5 -370z" />
<glyph unicode="P" horiz-adv-x="917" d="M174 0v1219q129 18 217 18q231 0 353 -99.5t122 -285.5q0 -193 -127 -297t-360 -104q-35 0 -68 4h-10v-455h-127zM301 561q16 -2 61 -2q375 0 375 291q0 278 -351 278h-3q-37 0 -72 -4h-10v-563z" />
<glyph unicode="Q" d="M92 608q0 272 178.5 450.5t450.5 178.5t450.5 -178t178.5 -451q0 -233 -135.5 -401t-360.5 -215l272 -275h-168l-256 263q-262 4 -436 183t-174 445zM221 608q0 -223 141.5 -368.5t358.5 -145.5q219 0 359.5 145.5t140.5 374.5q0 219 -142.5 363.5t-357.5 144.5 q-217 0 -358.5 -144t-141.5 -370z" />
<glyph unicode="R" horiz-adv-x="1017" d="M174 0v1219q143 18 234 18q227 0 349 -97.5t122 -277.5q0 -272 -265 -362l404 -500h-158l-377 471h-182v-471h-127zM301 575h127q154 0 237 73t83 206q0 131 -88.5 201.5t-251.5 70.5l-89 -2l-18 -2v-547z" />
<glyph unicode="S" horiz-adv-x="878" d="M78 913q0 145 97 234.5t259 89.5t289 -96v-131q-86 66 -149.5 92t-139.5 26q-106 0 -169.5 -56t-63.5 -150q0 -84 52 -134.5t193 -101.5q168 -59 236 -117q109 -92 109 -247q0 -162 -105.5 -252t-292.5 -90q-176 0 -307 94v139q90 -70 157.5 -97.5t151.5 -27.5 q127 0 199 59.5t72 163.5q0 92 -53.5 145.5t-200.5 108.5q-168 63 -228 115q-106 86 -106 233z" />
<glyph unicode="T" horiz-adv-x="991" d="M31 1106v111h930v-111h-402v-1106h-127v1106h-401z" />
<glyph unicode="U" horiz-adv-x="1226" d="M143 397v820h127v-809q0 -168 89.5 -242t289.5 -74q147 0 277 23v1102h127v-1190q-213 -47 -406 -47q-256 0 -380 103t-124 314z" />
<glyph unicode="V" horiz-adv-x="1130" d="M20 1217h138l409 -1090l410 1090h133l-469 -1217h-152z" />
<glyph unicode="W" horiz-adv-x="1560" d="M20 1217h132l284 -1100l273 1100h149l270 -1100l287 1100h125l-330 -1217h-168l-262 1071l-262 -1071h-168z" />
<glyph unicode="X" horiz-adv-x="1069" d="M20 0l441 633l-410 584h150l340 -494l333 494h142l-404 -586l437 -631h-148l-366 535l-371 -535h-144z" />
<glyph unicode="Y" horiz-adv-x="1052" d="M20 1217h140l366 -617l367 617h139l-442 -732v-485h-127v485z" />
<glyph unicode="Z" horiz-adv-x="980" d="M51 0v111l709 995h-670v111h817v-109l-719 -997h742v-111h-879z" />
<glyph unicode="[" horiz-adv-x="622" d="M174 -283v1676h346v-97h-239v-1482h239v-97h-346z" />
<glyph unicode="\" horiz-adv-x="823" d="M41 1393h119l643 -1676h-119z" />
<glyph unicode="]" horiz-adv-x="622" d="M102 -186h240v1482h-240v97h347v-1676h-347v97z" />
<glyph unicode="^" horiz-adv-x="851" d="M41 692l319 525h132l319 -525h-131l-254 420l-254 -420h-131z" />
<glyph unicode="_" horiz-adv-x="946" d="M102 -178h742v-98h-742v98z" />
<glyph unicode="`" horiz-adv-x="1024" d="M365 1362h120l174 -311h-120z" />
<glyph unicode="a" horiz-adv-x="878" d="M82 246q0 131 111.5 200.5t322.5 69.5h100v109q0 84 -50 129t-142 45q-117 0 -258 -72v117q135 69 272 69h4q297 0 297 -280v-617q-119 -32 -250 -32h-8q-195 0 -297 67.5t-102 194.5zM205 246q0 -78 72.5 -119t207.5 -41q57 0 131 12v318h-92q-319 0 -319 -170z" />
<glyph unicode="b" horiz-adv-x="1044" d="M154 25v1368h122v-525q86 45 218 45q213 0 338.5 -124.5t125.5 -335.5q0 -217 -139 -345t-375 -128q-143 0 -290 45zM276 109q76 -20 166 -21q182 0 287 97.5t105 265.5q0 160 -95.5 256t-257.5 96q-117 0 -205 -41v-653z" />
<glyph unicode="c" horiz-adv-x="901" d="M86 446.5q0 204.5 130 335.5t335 131h4l250 -67v-129q-125 84 -252 84q-152 0 -247 -98.5t-95 -256.5q0 -160 97.5 -257t254.5 -97q125 0 256 84v-129q-135 -67 -262 -67h-4q-205 0 -336 131t-131 335.5z" />
<glyph unicode="d" horiz-adv-x="1048" d="M86 444q0 209 136 339t353 130q119 0 197 -41v521h123v-1381q-135 -32 -276 -32h-9q-244 0 -384 123.5t-140 340.5zM211 446q0 -170 106.5 -264t296.5 -94q80 0 158 10v664q-76 41 -192 41q-168 0 -268.5 -97.5t-100.5 -259.5z" />
<glyph unicode="e" horiz-adv-x="966" d="M86 444q0 203 121 336t307 133q174 0 272.5 -103t98.5 -286v-84h-676v-4q0 -154 95 -251t247 -97q158 0 295 100v-122q-127 -86 -301 -86q-205 0 -332 129t-127 335zM217 543h545q-10 135 -71.5 198.5t-182.5 63.5q-225 0 -291 -262z" />
<glyph unicode="f" horiz-adv-x="550" d="M41 788v105h137v223q0 143 72 220t205 77q92 0 157 -45v-117q-76 53 -157 54q-80 0 -117 -46.5t-37 -144.5v-221h246v-105h-246v-788h-123v788h-137z" />
<glyph unicode="g" horiz-adv-x="1044" d="M86 449q0 213 137 338.5t371 125.5q158 0 297 -57v-866q0 -176 -110.5 -277.5t-301.5 -101.5q-151 0 -274 55v117q152 -68 276 -68q137 0 212 77t75 220v19q-68 -39 -195 -39q-225 0 -356 123t-131 334zM209 451q0 -162 100.5 -256.5t274.5 -94.5q88 0 184 35v639 q-88 27 -170 27q-182 0 -285.5 -93.5t-103.5 -256.5z" />
<glyph unicode="h" horiz-adv-x="1034" d="M154 0v1393h122v-527q137 47 267 47q348 0 348 -311v-602h-123v578q0 221 -250 221q-119 0 -242 -41v-758h-122z" />
<glyph unicode="i" horiz-adv-x="430" d="M123 1171q0 39 27.5 66t64.5 27q39 0 65.5 -27t26.5 -65.5t-26.5 -65.5t-65.5 -27q-37 0 -64.5 28t-27.5 64zM154 0v893h122v-893h-122z" />
<glyph unicode="j" horiz-adv-x="430" d="M-127 -248q57 -35 135 -35q145 0 146 181v995h122v-1004q0 -278 -260 -278h-2q-78 0 -141 29v112zM123 1171q0 39 27.5 66t64.5 27q39 0 65.5 -27t26.5 -65.5t-26.5 -65.5t-65.5 -27q-37 0 -64.5 28t-27.5 64z" />
<glyph unicode="k" horiz-adv-x="935" d="M154 0v1393h122v-1393h-122zM283 483l452 410h172l-463 -406l471 -487h-163z" />
<glyph unicode="l" horiz-adv-x="430" d="M154 0v1393h122v-1393h-122z" />
<glyph unicode="m" horiz-adv-x="1556" d="M154 0v836q200 77 356 77h4q147 0 238 -69q179 69 329 69h4q328 0 328 -311v-602h-123v598q0 205 -213 205q-143 0 -258 -51q27 -68 27 -148v-604h-123v598q0 205 -215 205q-115 0 -232 -41v-762h-122z" />
<glyph unicode="n" horiz-adv-x="1034" d="M154 0v846q192 67 369 67h5q362 0 363 -311v-602h-123v578q0 221 -252 221q-109 0 -240 -33v-766h-122z" />
<glyph unicode="o" horiz-adv-x="1069" d="M86 451q0 205 125 333.5t323.5 128.5t323.5 -130t125 -336.5t-125 -336.5t-323 -130q-201 0 -325 130t-124 341zM211 446.5q0 -159.5 90 -260t234 -100.5q145 0 234 101.5t89 263.5q0 158 -90 257t-233.5 99t-233.5 -100.5t-90 -260z" />
<glyph unicode="p" horiz-adv-x="1044" d="M154 -369v1225q160 57 313 57q233 0 362 -121.5t129 -342.5q0 -215 -130 -342t-351 -127q-121 0 -201 36v-385h-122zM276 123q92 -37 195 -37q168 0 265.5 96.5t97.5 264t-98.5 261t-274.5 93.5q-111 0 -185 -25v-653z" />
<glyph unicode="q" horiz-adv-x="1048" d="M86 444q0 213 139.5 341t372.5 128q158 0 297 -57v-1225h-123v387q-64 -38 -186 -38h-6q-225 0 -359.5 125.5t-134.5 338.5zM209 446.5q0 -163.5 103.5 -261t277.5 -97.5q86 0 182 35v651q-88 27 -170 27q-182 0 -287.5 -95.5t-105.5 -259z" />
<glyph unicode="r" horiz-adv-x="675" d="M154 0v811q158 96 333 96q72 0 148 -18v-121q-68 23 -158 23q-113 -1 -201 -46v-745h-122z" />
<glyph unicode="s" horiz-adv-x="749" d="M92 668q0 115 76 180t209 65q137 0 239 -67v-133q-121 96 -239 96q-76 0 -121 -37t-45 -100q0 -61 41 -97t145 -71q147 -47 203.5 -104.5t56.5 -161.5q0 -121 -80.5 -189.5t-224.5 -68.5h-4q-149 0 -248 71v139q123 -106 254 -106q182 0 183 143q0 80 -74 125 q-31 16 -146 58q-125 43 -175 100t-50 158z" />
<glyph unicode="t" horiz-adv-x="647" d="M31 788v105h137v217h123v-217h252v-105h-252v-544q0 -160 129 -160q66 0 166 49v-108q-90 -45 -191 -45q-227 0 -227 251v557h-137z" />
<glyph unicode="u" horiz-adv-x="1003" d="M133 291v602h123v-596q0 -211 279 -211q88 0 192 12v795h123v-883q-167 -30 -302 -30h-9q-406 0 -406 311z" />
<glyph unicode="v" horiz-adv-x="856" d="M10 893h129l291 -778l291 778h125l-350 -893h-136z" />
<glyph unicode="w" horiz-adv-x="1290" d="M10 893h129l223 -780l222 780h127l223 -780l223 780h123l-270 -893h-150l-215 760l-215 -760h-149z" />
<glyph unicode="x" horiz-adv-x="839" d="M20 0l332 459l-313 434h137l248 -344l242 344h137l-316 -432l332 -461h-137l-264 373l-266 -373h-132z" />
<glyph unicode="y" horiz-adv-x="876" d="M10 893h135l299 -813l295 813h127l-483 -1262h-121l121 310z" />
<glyph unicode="z" horiz-adv-x="835" d="M72 0v106l534 682h-508v105h654v-107l-543 -682h559v-104h-696z" />
<glyph unicode="{" horiz-adv-x="686" d="M53 508v94h62q80 0 124 50t44 145v311q0 285 270 285h43v-97h-49q-156 0 -156 -188v-315q0 -199 -176 -238q176 -39 176 -238v-315q0 -188 156 -188h49v-97h-43q-270 0 -270 285v311q0 94 -44 144.5t-124 50.5h-62z" />
<glyph unicode="|" horiz-adv-x="526" d="M209 -283v1676h108v-1676h-108z" />
<glyph unicode="}" horiz-adv-x="686" d="M90 -186h49q156 0 156 188v315q0 199 176 238q-176 39 -176 238v315q0 188 -156 188h-49v97h43q270 0 270 -285v-311q0 -94 44.5 -144.5t123.5 -50.5h62v-94h-62q-80 0 -124 -50t-44 -145v-311q0 -285 -270 -285h-43v97z" />
<glyph unicode="~" horiz-adv-x="940" d="M143 416q6 236 183 235q68 0 170 -80q76 -57 112 -57q74 0 78 133h111q-6 -236 -183 -235q-68 0 -170 80q-76 57 -112 57q-74 0 -78 -133h-111z" />
<glyph unicode="&#xa1;" horiz-adv-x="550" d="M174 813q0 39 29.5 69.5t70.5 30.5t72 -30.5t31 -71.5t-31 -70.5t-72 -29.5t-70.5 29.5t-29.5 72.5zM215 -324v873h121v-873h-121z" />
<glyph unicode="&#xa2;" horiz-adv-x="901" d="M86 446.5q0 182.5 104.5 308.5t280.5 152v174h102v-168q123 -6 232 -67v-129q-109 78 -232 84v-709q117 2 246 84v-129q-123 -61 -246 -67v-175h-102v181q-176 27 -280.5 152.5t-104.5 308zM211 446q0 -133 69.5 -225t190.5 -119v691q-125 -31 -192.5 -121t-67.5 -226z " />
<glyph unicode="&#xa3;" horiz-adv-x="927" d="M86 0v111q92 66 129 146.5t37 217.5v55h-166v107h166v209q0 184 91 287.5t251 103.5q156 0 250 -90v-146q-109 121 -246 121q-225 0 -225 -276v-209h299v-107h-299v-57q0 -129 -30 -208t-105 -154h626v-111h-778z" />
<glyph unicode="&#xa4;" horiz-adv-x="1191" d="M123 229l147 150q-78 111 -77 246q0 139 79 247l-149 148l80 78l147 -148q115 78 246 78t246 -78l147 146l78 -78l-147 -148q80 -109 79 -245q0 -135 -79 -248l149 -146l-80 -77l-147 145q-115 -78 -246 -78t-248 78l-147 -147zM303 623q0 -131 84 -219.5t209 -88.5 t209 88.5t84 221.5t-84 221t-209 88t-209 -89t-84 -222z" />
<glyph unicode="&#xa5;" horiz-adv-x="1011" d="M41 1217h139l328 -590l328 590h135l-375 -637h270v-101h-303v-127h303v-100h-303v-252h-114v252h-304v100h304v127h-304v101h271z" />
<glyph unicode="&#xa6;" horiz-adv-x="526" d="M209 -283v699h108v-699h-108zM209 694v699h108v-699h-108z" />
<glyph unicode="&#xa7;" horiz-adv-x="880" d="M72 498q0 186 215 282q-72 43 -101.5 92.5t-29.5 120.5q0 113 76.5 178.5t207.5 65.5q135 0 240 -72v-129q-121 96 -240 97q-76 0 -121 -37t-45 -101q0 -61 43 -98t172 -86q158 -57 216 -102q104 -78 104 -209q0 -190 -217 -285q117 -78 117 -209q0 -113 -77 -179.5 t-206 -66.5q-144 0 -250 74v129q121 -98 248 -98q78 0 122 38t44 103q0 61 -41 98t-158 82q-180 70 -233 117q-86 74 -86 195zM186 502q0 -72 58.5 -120.5t214.5 -105.5l22 -8q213 72 213 228q0 76 -63 125q-74 57 -211 100l-21 6q-213 -74 -213 -225z" />
<glyph unicode="&#xa8;" horiz-adv-x="1024" d="M258 1171q0 39 27.5 66t64.5 27q39 0 65.5 -27t26.5 -65.5t-26.5 -65.5t-65.5 -27q-37 0 -64.5 28t-27.5 64zM582 1171q0 39 27.5 66t64.5 27q39 0 65.5 -27t26.5 -65.5t-26.5 -65.5t-65.5 -27q-37 0 -64.5 28t-27.5 64z" />
<glyph unicode="&#xa9;" horiz-adv-x="1429" d="M92 614q0 264 179.5 443.5t443.5 179.5q268 0 445 -179t177 -450q0 -268 -178 -448t-444 -180q-268 0 -445.5 180t-177.5 454zM174 602q0 -238 152.5 -392.5t388 -154.5t388 156t152.5 397.5t-152 397t-388 155.5q-238 0 -389.5 -156.5t-151.5 -402.5zM367 604 q0 168 106.5 275.5t274.5 107.5q111 0 202 -53v-131q-82 76 -202 76q-117 0 -189 -76t-72 -199t74 -198.5t193 -75.5q114 0 204 76v-130q-98 -53 -210 -53q-170 0 -275.5 105.5t-105.5 275.5z" />
<glyph unicode="&#xaa;" horiz-adv-x="667" d="M51 711q0 106 91 164.5t255 58.5h80v63q0 137 -153 138q-98 0 -203 -56v103q102 55 219 55q121 0 184.5 -59.5t63.5 -173.5v-478q-96 -25 -217 -24q-156 0 -238 53t-82 156zM166 713q0 -121 211 -121q57 0 100 8v244h-80q-231 0 -231 -131z" />
<glyph unicode="&#xab;" horiz-adv-x="917" d="M123 440l252 324h137l-250 -324l250 -323h-137zM406 440l251 324h138l-250 -324l250 -323h-138z" />
<glyph unicode="&#xad;" horiz-adv-x="727" d="M143 475v111h441v-111h-441z" />
<glyph unicode="&#xae;" horiz-adv-x="931" d="M82 848q0 166 109.5 277.5t273.5 111.5t274.5 -110.5t110.5 -278.5t-110.5 -277.5t-276.5 -109.5q-162 0 -271.5 111.5t-109.5 275.5zM162 848q0 -137 86 -226.5t219 -89.5q129 0 216 91.5t87 224.5q0 137 -87 227t-218 90t-217 -90t-86 -227zM332 666v372q61 12 117 13 q78 0 120.5 -35t42.5 -98q0 -76 -67 -113l100 -139h-104l-82 118h-37v-118h-90zM422 862h29q68 0 67.5 53.5t-65.5 53.5h-7q-18 0 -24 -2v-105z" />
<glyph unicode="&#xaf;" horiz-adv-x="1024" d="M293 1100v102h436v-102h-436z" />
<glyph unicode="&#xb0;" horiz-adv-x="585" d="M51 999q0 98 69.5 166t172 68t172.5 -67.5t70 -168t-70 -168t-172.5 -67.5t-172 68.5t-69.5 168.5zM150 995q0 -66 39.5 -105.5t103 -39.5t103.5 41t40 106.5t-40 106.5t-103 41q-66 0 -104.5 -41t-38.5 -109z" />
<glyph unicode="&#xb1;" horiz-adv-x="940" d="M82 197v108h776v-108h-776zM82 647v109h334v252h108v-252h334v-109h-334v-252h-108v252h-334z" />
<glyph unicode="&#xb2;" horiz-adv-x="516" d="M20 539v84q184 156 249 237.5t65 157.5q0 51 -29 78.5t-82 27.5q-90 0 -182 -84v111q82 76 201 76q96 0 152.5 -51.5t56.5 -141.5q0 -184 -285 -395h303v-100h-449z" />
<glyph unicode="&#xb3;" horiz-adv-x="485" d="M33 575v105q86 -59 166 -59q61 0 95 27.5t34 74.5q0 51 -37 76.5t-131 36.5v86q154 20 153 120q0 39 -25.5 62.5t-70.5 23.5q-84 1 -174 -81v108q78 72 188 72q90 0 143.5 -47t53.5 -125q0 -131 -137 -172q150 -37 149 -168q0 -84 -63.5 -136.5t-169.5 -52.5 q-104 0 -174 49z" />
<glyph unicode="&#xb4;" horiz-adv-x="1024" d="M365 1051l174 311h120l-174 -311h-120z" />
<glyph unicode="&#xb5;" horiz-adv-x="1003" d="M133 -369v1262h123v-596q0 -211 279 -211q88 0 192 12v795h123v-883q-172 -31 -311 -30q-195 0 -285 81v-430h-121z" />
<glyph unicode="&#xb6;" horiz-adv-x="1015" d="M61 881q0 158 111 247t303 89h121v-1434h-121v762q-414 12 -414 336zM741 -217v1434h121v-1434h-121z" />
<glyph unicode="&#xb7;" horiz-adv-x="489" d="M143 530q0 41 30 71t71 30t71.5 -30t30.5 -71t-30.5 -71.5t-71.5 -30.5t-71 30.5t-30 71.5z" />
<glyph unicode="&#xb8;" horiz-adv-x="1024" d="M330 -299q159 148 159 332h111q0 -100 -41 -193.5t-104 -138.5h-125z" />
<glyph unicode="&#xb9;" horiz-adv-x="380" d="M31 1083v103l245 41v-688h-112v563z" />
<glyph unicode="&#xba;" horiz-adv-x="829" d="M57 872q0 160 100.5 262.5t256.5 102.5q158 0 258 -103.5t100 -265t-100.5 -264t-258 -102.5t-257 102.5t-99.5 267.5zM172 868.5q0 -118.5 67.5 -193.5t174.5 -75q109 0 175 75t66 195q0 119 -67.5 193t-174 74t-174 -75t-67.5 -193.5z" />
<glyph unicode="&#xbb;" horiz-adv-x="917" d="M123 117l250 323l-250 324h137l252 -324l-252 -323h-137zM406 117l249 323l-249 324h137l252 -324l-252 -323h-137z" />
<glyph unicode="&#xbc;" horiz-adv-x="1372" d="M82 1083v103l246 41v-688h-113v563zM213 0l690 1217h119l-690 -1217h-119zM721 174v92l319 412h117v-414h113v-90h-113v-174h-108v174h-328zM831 264h218v287z" />
<glyph unicode="&#xbd;" horiz-adv-x="1394" d="M82 1083v103l246 41v-688h-113v563zM213 0l690 1217h119l-690 -1217h-119zM844 0v84q184 156 248.5 237.5t64.5 157.5q0 51 -28.5 79t-81.5 28q-90 0 -183 -84v110q82 76 201 76q96 0 152.5 -51t56.5 -141q0 -185 -285 -396h303v-100h-448z" />
<glyph unicode="&#xbe;" horiz-adv-x="1462" d="M102 575v105q86 -59 166 -59q61 0 95 27.5t34 74.5q0 51 -36.5 76.5t-131.5 36.5v86q154 20 154 120q0 39 -25.5 62.5t-70.5 23.5q-84 1 -174 -81v108q78 72 188 72q90 0 143.5 -47t53.5 -125q0 -131 -138 -172q150 -37 150 -168q0 -84 -63.5 -136.5t-170.5 -52.5 q-104 0 -174 49zM303 0l690 1217h119l-690 -1217h-119zM811 174v92l319 412h117v-414h113v-90h-113v-174h-108v174h-328zM922 264h217v287z" />
<glyph unicode="&#xbf;" horiz-adv-x="778" d="M68 0q0 186 161 293q59 41 189 86v170h123v-227q-199 -70 -275 -139.5t-76 -182.5q0 -100 70 -164.5t178 -64.5q88 0 156.5 34.5t146.5 116.5v-131q-117 -133 -311 -133q-162 0 -262 94t-100 248zM375 811q0 41 30.5 71.5t71.5 30.5t71 -30.5t30 -71.5t-30 -70.5 t-71 -29.5t-71.5 29.5t-30.5 70.5z" />
<glyph unicode="&#xc0;" horiz-adv-x="1150" d="M20 0l472 1217h161l477 -1217h-135l-127 336h-589l-127 -336h-132zM317 442h510l-256 672zM354 1593h121l150 -268h-121z" />
<glyph unicode="&#xc1;" horiz-adv-x="1150" d="M20 0l472 1217h161l477 -1217h-135l-127 336h-589l-127 -336h-132zM317 442h510l-256 672zM526 1325l150 268h121l-150 -268h-121z" />
<glyph unicode="&#xc2;" horiz-adv-x="1150" d="M20 0l472 1217h161l477 -1217h-135l-127 336h-589l-127 -336h-132zM307 1313l234 272h69l234 -272h-127l-142 164l-141 -164h-127zM317 442h510l-256 672z" />
<glyph unicode="&#xc3;" horiz-adv-x="1150" d="M20 0l472 1217h161l477 -1217h-135l-127 336h-589l-127 -336h-132zM291 1313q6 240 153 239q57 0 156 -79q74 -59 105 -60q57 0 61 135h96q-6 -240 -153 -239q-57 0 -156 80q-74 59 -104 59q-59 0 -62 -135h-96zM317 442h510l-256 672z" />
<glyph unicode="&#xc4;" horiz-adv-x="1150" d="M20 0l472 1217h161l477 -1217h-135l-127 336h-589l-127 -336h-132zM317 442h510l-256 672zM322 1405q0 39 27.5 65.5t64.5 26.5q39 0 65.5 -26.5t26.5 -65.5t-26.5 -65.5t-65.5 -26.5q-37 0 -64.5 27.5t-27.5 64.5zM645 1405q0 39 27.5 65.5t64.5 26.5q39 0 65.5 -26.5 t26.5 -65.5t-26.5 -65.5t-65.5 -26.5q-37 0 -64.5 27.5t-27.5 64.5z" />
<glyph unicode="&#xc5;" horiz-adv-x="1150" d="M20 0l472 1217h161l477 -1217h-135l-127 336h-589l-127 -336h-132zM317 442h510l-256 672zM401 1468q0 70 50 118t124 48q76 0 125.5 -48t49.5 -119.5t-49.5 -120t-125 -48.5t-125 48.5t-49.5 121.5zM483 1466q0 -41 26 -65.5t66 -24.5q43 0 68 24.5t25 65.5t-26 65.5 t-66.5 24.5t-66.5 -24.5t-26 -65.5z" />
<glyph unicode="&#xc6;" horiz-adv-x="1679" d="M20 0l789 1217h760v-111h-565v-430h528v-111h-528v-454h573v-111h-700v336h-500l-215 -336h-142zM444 442h433v674z" />
<glyph unicode="&#xc7;" horiz-adv-x="1144" d="M92 606q0 274 178.5 452.5t450.5 178.5q176 0 336 -92v-148q-137 125 -336 125q-217 0 -358.5 -144t-141.5 -369.5t141.5 -370t358.5 -144.5q203 0 342 121v-145q-131 -78 -299 -88q-10 -88 -50 -165t-93 -116h-125q133 121 155 281q-256 29 -407.5 197.5t-151.5 426.5z " />
<glyph unicode="&#xc8;" horiz-adv-x="976" d="M174 0v1217h692v-111h-565v-430h528v-111h-528v-454h573v-111h-700zM340 1593h121l149 -268h-121z" />
<glyph unicode="&#xc9;" horiz-adv-x="976" d="M174 0v1217h692v-111h-565v-430h528v-111h-528v-454h573v-111h-700zM471 1325l150 268h120l-149 -268h-121z" />
<glyph unicode="&#xca;" horiz-adv-x="976" d="M174 0v1217h692v-111h-565v-430h528v-111h-528v-454h573v-111h-700zM272 1313l234 272h69l234 -272h-127l-141 164l-142 -164h-127z" />
<glyph unicode="&#xcb;" horiz-adv-x="976" d="M174 0v1217h692v-111h-565v-430h528v-111h-528v-454h573v-111h-700zM287 1405q0 39 27.5 65.5t64.5 26.5q39 0 65.5 -26.5t26.5 -65.5t-26.5 -65.5t-65.5 -26.5q-37 0 -64.5 27.5t-27.5 64.5zM610 1405q0 39 27.5 65.5t64.5 26.5q39 0 66 -26.5t27 -65.5t-27 -65.5 t-66 -26.5q-37 0 -64.5 27.5t-27.5 64.5z" />
<glyph unicode="&#xcc;" horiz-adv-x="475" d="M37 1593h121l149 -268h-121zM174 0v1217h127v-1217h-127z" />
<glyph unicode="&#xcd;" horiz-adv-x="475" d="M168 1325l149 268h121l-149 -268h-121zM174 0v1217h127v-1217h-127z" />
<glyph unicode="&#xce;" horiz-adv-x="475" d="M-31 1313l234 272h69l234 -272h-127l-141 164l-142 -164h-127zM174 0v1217h127v-1217h-127z" />
<glyph unicode="&#xcf;" horiz-adv-x="475" d="M-16 1405q0 39 27.5 65.5t64.5 26.5q39 0 65.5 -26.5t26.5 -65.5t-26.5 -65.5t-65.5 -26.5q-37 0 -64.5 27.5t-27.5 64.5zM174 0v1217h127v-1217h-127zM307 1405q0 39 27.5 65.5t64.5 26.5q39 0 66 -26.5t27 -65.5t-27 -65.5t-66 -26.5q-37 0 -64.5 27.5t-27.5 64.5z" />
<glyph unicode="&#xd0;" horiz-adv-x="1286" d="M82 563v113h117v545q137 16 250 16q358 0 551.5 -156.5t193.5 -447.5q0 -307 -193.5 -480t-539.5 -173q-104 0 -262 18v565h-117zM326 98q66 -8 139 -8q283 0 439.5 142.5t156.5 398.5q0 240 -156.5 365.5t-455.5 125.5q-49 0 -123 -6v-440h276v-113h-276v-465z" />
<glyph unicode="&#xd1;" horiz-adv-x="1323" d="M174 0v1217h131l721 -1033v1033h123v-1217h-127l-725 1030v-1030h-123zM377 1313q6 240 153 239q57 0 156 -79q74 -59 105 -60q57 0 61 135h96q-6 -240 -153 -239q-57 0 -156 80q-74 59 -104 59q-59 0 -62 -135h-96z" />
<glyph unicode="&#xd2;" d="M92 614q0 266 180.5 444.5t448.5 178.5q272 0 450.5 -178t178.5 -450.5t-178.5 -450.5t-450.5 -178q-274 0 -451.5 179t-177.5 455zM221 608q0 -223 141.5 -368.5t358.5 -145.5q219 0 359.5 145.5t140.5 374.5q0 219 -142.5 363.5t-357.5 144.5q-217 0 -358.5 -144 t-141.5 -370zM520 1593h121l150 -268h-121z" />
<glyph unicode="&#xd3;" d="M92 614q0 266 180.5 444.5t448.5 178.5q272 0 450.5 -178t178.5 -450.5t-178.5 -450.5t-450.5 -178q-274 0 -451.5 179t-177.5 455zM221 608q0 -223 141.5 -368.5t358.5 -145.5q219 0 359.5 145.5t140.5 374.5q0 219 -142.5 363.5t-357.5 144.5q-217 0 -358.5 -144 t-141.5 -370zM651 1325l150 268h121l-150 -268h-121z" />
<glyph unicode="&#xd4;" d="M92 614q0 266 180.5 444.5t448.5 178.5q272 0 450.5 -178t178.5 -450.5t-178.5 -450.5t-450.5 -178q-274 0 -451.5 179t-177.5 455zM221 608q0 -223 141.5 -368.5t358.5 -145.5q219 0 359.5 145.5t140.5 374.5q0 219 -142.5 363.5t-357.5 144.5q-217 0 -358.5 -144 t-141.5 -370zM453 1313l233 272h70l233 -272h-127l-141 164l-141 -164h-127z" />
<glyph unicode="&#xd5;" d="M92 614q0 266 180.5 444.5t448.5 178.5q272 0 450.5 -178t178.5 -450.5t-178.5 -450.5t-450.5 -178q-274 0 -451.5 179t-177.5 455zM221 608q0 -223 141.5 -368.5t358.5 -145.5q219 0 359.5 145.5t140.5 374.5q0 219 -142.5 363.5t-357.5 144.5q-217 0 -358.5 -144 t-141.5 -370zM436 1313q6 240 154 239q57 0 155 -79q74 -59 105 -60q59 0 61 135h97q-6 -240 -154 -239q-57 0 -156 80q-74 59 -104 59q-57 0 -62 -135h-96z" />
<glyph unicode="&#xd6;" d="M92 614q0 266 180.5 444.5t448.5 178.5q272 0 450.5 -178t178.5 -450.5t-178.5 -450.5t-450.5 -178q-274 0 -451.5 179t-177.5 455zM221 608q0 -223 141.5 -368.5t358.5 -145.5q219 0 359.5 145.5t140.5 374.5q0 219 -142.5 363.5t-357.5 144.5q-217 0 -358.5 -144 t-141.5 -370zM467 1405q0 39 27.5 65.5t64.5 26.5q39 0 65.5 -26.5t26.5 -65.5t-26.5 -65.5t-65.5 -26.5q-37 0 -64.5 27.5t-27.5 64.5zM791 1405q0 39 27.5 65.5t64.5 26.5q39 0 65.5 -26.5t26.5 -65.5t-26.5 -65.5t-65.5 -26.5q-37 0 -64.5 27.5t-27.5 64.5z" />
<glyph unicode="&#xd7;" horiz-adv-x="804" d="M82 348l244 244l-244 244l78 77l241 -245l244 245l78 -77l-244 -244l244 -244l-78 -76l-244 242l-241 -242z" />
<glyph unicode="&#xd8;" d="M70 0l176 184q-154 180 -154 424q0 272 178.5 450.5t450.5 178.5q223 0 401 -137l113 117h135l-176 -185q156 -186 156 -424q0 -272 -178.5 -450t-450.5 -178q-229 0 -406 137l-110 -117h-135zM221 608q0 -189 109 -336l710 742q-141 109 -317 108q-219 0 -360.5 -144 t-141.5 -370zM399 203q141 -109 322 -109q217 0 358.5 144.5t141.5 369.5q0 189 -111 336z" />
<glyph unicode="&#xd9;" horiz-adv-x="1226" d="M143 397v820h127v-809q0 -168 89.5 -242t289.5 -74q147 0 277 23v1102h127v-1190q-213 -47 -406 -47q-256 0 -380 103t-124 314zM397 1593h121l150 -268h-121z" />
<glyph unicode="&#xda;" horiz-adv-x="1226" d="M143 397v820h127v-809q0 -168 89.5 -242t289.5 -74q147 0 277 23v1102h127v-1190q-213 -47 -406 -47q-256 0 -380 103t-124 314zM528 1325l150 268h121l-150 -268h-121z" />
<glyph unicode="&#xdb;" horiz-adv-x="1226" d="M143 397v820h127v-809q0 -168 89.5 -242t289.5 -74q147 0 277 23v1102h127v-1190q-213 -47 -406 -47q-256 0 -380 103t-124 314zM330 1313l233 272h70l233 -272h-127l-141 164l-141 -164h-127z" />
<glyph unicode="&#xdc;" horiz-adv-x="1226" d="M143 397v820h127v-809q0 -168 89.5 -242t289.5 -74q147 0 277 23v1102h127v-1190q-213 -47 -406 -47q-256 0 -380 103t-124 314zM344 1405q0 39 27.5 65.5t64.5 26.5q39 0 65.5 -26.5t26.5 -65.5t-26.5 -65.5t-65.5 -26.5q-37 0 -64.5 27.5t-27.5 64.5zM668 1405 q0 39 27.5 65.5t64.5 26.5q39 0 65.5 -26.5t26.5 -65.5t-26.5 -65.5t-65.5 -26.5q-37 0 -64.5 27.5t-27.5 64.5z" />
<glyph unicode="&#xdd;" horiz-adv-x="1052" d="M20 1217h140l366 -617l367 617h139l-442 -732v-485h-127v485zM457 1325l149 268h121l-149 -268h-121z" />
<glyph unicode="&#xde;" horiz-adv-x="917" d="M174 0v1217h127v-207h10l17 2q18 2 67 2q225 0 348 -100.5t123 -284.5q0 -193 -128 -297.5t-359 -104.5q-35 0 -68 4h-10v-231h-127zM301 338q16 -2 61 -2q375 0 375 289q0 135 -89 207.5t-255 72.5q-47 0 -82 -4h-10v-563z" />
<glyph unicode="&#xdf;" horiz-adv-x="1056" d="M154 0v1042q0 166 95 268.5t251 102.5q143 0 233 -78t90 -202q0 -61 -25.5 -114.5t-88.5 -131.5q-74 -84 -74 -131q0 -61 135 -154q123 -86 174 -159.5t51 -166.5q0 -133 -91 -214.5t-236 -81.5q-139 0 -232 69v137q121 -104 234 -104q92 0 146 51t54 137q0 66 -37.5 118 t-140.5 124q-100 72 -141 126t-41 118q0 70 92 172q104 115 105 202q0 78 -59.5 129.5t-147.5 51.5q-106 0 -165 -74t-59 -207v-1030h-122z" />
<glyph unicode="&#xe0;" horiz-adv-x="878" d="M82 246q0 131 111.5 200.5t322.5 69.5h100v109q0 84 -50 129t-142 45q-117 0 -258 -72v117q137 70 276 69q297 0 297 -280v-617q-123 -33 -258 -32q-195 0 -297 67.5t-102 194.5zM205 246q0 -78 72.5 -119t207.5 -41q57 0 131 12v318h-92q-319 0 -319 -170zM217 1362h121 l174 -311h-121z" />
<glyph unicode="&#xe1;" horiz-adv-x="878" d="M82 246q0 131 111.5 200.5t322.5 69.5h100v109q0 84 -50 129t-142 45q-117 0 -258 -72v117q137 70 276 69q297 0 297 -280v-617q-123 -33 -258 -32q-195 0 -297 67.5t-102 194.5zM205 246q0 -78 72.5 -119t207.5 -41q57 0 131 12v318h-92q-319 0 -319 -170zM373 1051 l174 311h121l-174 -311h-121z" />
<glyph unicode="&#xe2;" horiz-adv-x="878" d="M82 246q0 131 111.5 200.5t322.5 69.5h100v109q0 84 -50 129t-142 45q-117 0 -258 -72v117q137 70 276 69q297 0 297 -280v-617q-123 -33 -258 -32q-195 0 -297 67.5t-102 194.5zM178 1051l234 290h69l234 -290h-131l-138 178l-137 -178h-131zM205 246q0 -78 72.5 -119 t207.5 -41q57 0 131 12v318h-92q-319 0 -319 -170z" />
<glyph unicode="&#xe3;" horiz-adv-x="878" d="M82 246q0 131 111.5 200.5t322.5 69.5h100v109q0 84 -50 129t-142 45q-117 0 -258 -72v117q137 70 276 69q297 0 297 -280v-617q-123 -33 -258 -32q-195 0 -297 67.5t-102 194.5zM150 1051q6 240 153 239q57 0 156 -80q74 -59 104 -59q60 0 62 135h96q-6 -240 -154 -239 q-57 0 -155 79q-74 59 -105 60q-57 0 -61 -135h-96zM205 246q0 -78 72.5 -119t207.5 -41q57 0 131 12v318h-92q-319 0 -319 -170z" />
<glyph unicode="&#xe4;" horiz-adv-x="878" d="M82 246q0 131 111.5 200.5t322.5 69.5h100v109q0 84 -50 129t-142 45q-117 0 -258 -72v117q137 70 276 69q297 0 297 -280v-617q-123 -33 -258 -32q-195 0 -297 67.5t-102 194.5zM176 1171q0 39 27.5 66t64.5 27q39 0 65.5 -27t26.5 -65.5t-26.5 -65.5t-65.5 -27 q-37 0 -64.5 28t-27.5 64zM205 246q0 -78 72.5 -119t207.5 -41q57 0 131 12v318h-92q-319 0 -319 -170zM500 1171q0 39 27.5 66t64.5 27q39 0 65.5 -27t26.5 -65.5t-26.5 -65.5t-65.5 -27q-37 0 -64.5 28t-27.5 64z" />
<glyph unicode="&#xe5;" horiz-adv-x="878" d="M82 246q0 131 111.5 200.5t322.5 69.5h100v109q0 84 -50 129t-142 45q-117 0 -258 -72v117q137 70 276 69q297 0 297 -280v-617q-123 -33 -258 -32q-195 0 -297 67.5t-102 194.5zM205 246q0 -78 72.5 -119t207.5 -41q57 0 131 12v318h-92q-319 0 -319 -170zM260 1188 q0 70 50 118t124 48q76 0 125 -48.5t49 -120t-49 -119.5t-125 -48t-125 48t-49 122zM342 1186q0 -41 25.5 -65.5t66.5 -24.5q43 0 67.5 24.5t24.5 65.5t-25.5 65.5t-66.5 24.5t-66.5 -24.5t-25.5 -65.5z" />
<glyph unicode="&#xe6;" horiz-adv-x="1495" d="M82 236q0 133 113.5 206.5t320.5 73.5h109q2 31 16 80q-8 109 -56 157t-149 48q-125 0 -270 -74v117q133 70 274 69q213 0 279 -157q123 158 321 157q172 0 272.5 -111.5t100.5 -303.5v-84h-674q8 -150 100.5 -238t237.5 -88q156 0 297 100v-122q-125 -86 -301 -86 q-227 0 -350 153q-135 -154 -330 -153q-141 0 -226 69.5t-85 186.5zM205 236q0 -72 52 -112t144 -40q170 0 267 137q-41 82 -47 193h-97q-319 0 -319 -178zM741 516h549q-10 125 -49 184q-63 104 -205 105q-119 0 -198 -77t-97 -212z" />
<glyph unicode="&#xe7;" horiz-adv-x="901" d="M86 446q0 205 130 336t335 131q127 0 254 -67v-129q-125 84 -252 84q-152 0 -247 -98.5t-95 -256.5q0 -160 97.5 -257t254.5 -97q125 0 256 84v-129q-115 -57 -217 -65q-10 -88 -50 -166t-93 -115h-125q137 127 155 283q-182 23 -292.5 149.5t-110.5 312.5z" />
<glyph unicode="&#xe8;" horiz-adv-x="966" d="M86 444q0 203 121 336t307 133q174 0 272.5 -103t98.5 -286v-84h-676v-4q0 -154 95 -251t247 -97q158 0 295 100v-122q-127 -86 -301 -86q-205 0 -332 129t-127 335zM217 543h545q-10 135 -71.5 198.5t-182.5 63.5q-225 0 -291 -262zM289 1362h121l174 -311h-121z" />
<glyph unicode="&#xe9;" horiz-adv-x="966" d="M86 444q0 203 121 336t307 133q174 0 272.5 -103t98.5 -286v-84h-676v-4q0 -154 95 -251t247 -97q158 0 295 100v-122q-127 -86 -301 -86q-205 0 -332 129t-127 335zM217 543h545q-10 135 -71.5 198.5t-182.5 63.5q-225 0 -291 -262zM444 1051l174 311h121l-174 -311 h-121z" />
<glyph unicode="&#xea;" horiz-adv-x="966" d="M86 444q0 203 121 336t307 133q174 0 272.5 -103t98.5 -286v-84h-676v-4q0 -154 95 -251t247 -97q158 0 295 100v-122q-127 -86 -301 -86q-205 0 -332 129t-127 335zM217 543h545q-10 135 -71.5 198.5t-182.5 63.5q-225 0 -291 -262zM236 1051l233 290h70l233 -290h-131 l-137 178l-137 -178h-131z" />
<glyph unicode="&#xeb;" horiz-adv-x="966" d="M86 444q0 203 121 336t307 133q174 0 272.5 -103t98.5 -286v-84h-676v-4q0 -154 95 -251t247 -97q158 0 295 100v-122q-127 -86 -301 -86q-205 0 -332 129t-127 335zM217 543h545q-10 135 -71.5 198.5t-182.5 63.5q-225 0 -291 -262zM254 1171q0 39 27.5 66t64.5 27 q39 0 65.5 -27t26.5 -65.5t-26.5 -65.5t-65.5 -27q-37 0 -64.5 28t-27.5 64zM578 1171q0 39 27.5 66t64.5 27q39 0 65.5 -27t26.5 -65.5t-26.5 -65.5t-65.5 -27q-37 0 -64.5 28t-27.5 64z" />
<glyph unicode="&#xec;" horiz-adv-x="430" d="M-18 1362h120l174 -311h-120zM154 0v893h122v-893h-122z" />
<glyph unicode="&#xed;" horiz-adv-x="430" d="M154 0v893h122v-893h-122zM158 1051l174 311h121l-174 -311h-121z" />
<glyph unicode="&#xee;" horiz-adv-x="430" d="M-53 1051l233 290h70l233 -290h-131l-137 178l-137 -178h-131zM154 0v893h122v-893h-122z" />
<glyph unicode="&#xef;" horiz-adv-x="430" d="M-39 1171q0 39 27.5 66t64.5 27q39 0 65.5 -27t26.5 -65.5t-26.5 -65.5t-65.5 -27q-37 0 -64.5 28t-27.5 64zM154 0v893h122v-893h-122zM285 1171q0 39 27.5 66t64.5 27q39 0 65.5 -27t26.5 -65.5t-26.5 -65.5t-65.5 -27q-37 0 -64.5 28t-27.5 64z" />
<glyph unicode="&#xf0;" horiz-adv-x="1067" d="M86 446.5q0 206.5 124 336.5t320 130q182 0 297 -151q-53 139 -209 317l-339 -90v96l268 72q-6 10 -19 19q-96 98 -254 217h162q150 -119 228 -205l227 61v-96l-158 -43q248 -305 248 -637q0 -225 -121 -359t-325 -134q-199 0 -324 130t-125 336.5zM211 446.5 q0 -159.5 90 -260t234 -100.5q145 0 234 101.5t89 263.5q0 158 -90 257t-233.5 99t-233.5 -100.5t-90 -260z" />
<glyph unicode="&#xf1;" horiz-adv-x="1034" d="M154 0v846q195 68 374 67q362 0 363 -311v-602h-123v578q0 221 -252 221q-109 0 -240 -33v-766h-122zM223 1051q6 240 154 239q57 0 155 -80q74 -59 105 -59q59 0 61 135h97q-6 -240 -154 -239q-57 0 -156 79q-74 59 -104 60q-57 0 -62 -135h-96z" />
<glyph unicode="&#xf2;" horiz-adv-x="1069" d="M86 451q0 205 125 333.5t323.5 128.5t323.5 -130t125 -336.5t-125 -336.5t-323 -130q-201 0 -325 130t-124 341zM211 446.5q0 -159.5 90 -260t234 -100.5q145 0 234 101.5t89 263.5q0 158 -90 257t-233.5 99t-233.5 -100.5t-90 -260zM305 1362h121l174 -311h-121z" />
<glyph unicode="&#xf3;" horiz-adv-x="1069" d="M86 451q0 205 125 333.5t323.5 128.5t323.5 -130t125 -336.5t-125 -336.5t-323 -130q-201 0 -325 130t-124 341zM211 446.5q0 -159.5 90 -260t234 -100.5q145 0 234 101.5t89 263.5q0 158 -90 257t-233.5 99t-233.5 -100.5t-90 -260zM461 1051l174 311h121l-174 -311 h-121z" />
<glyph unicode="&#xf4;" horiz-adv-x="1069" d="M86 451q0 205 125 333.5t323.5 128.5t323.5 -130t125 -336.5t-125 -336.5t-323 -130q-201 0 -325 130t-124 341zM211 446.5q0 -159.5 90 -260t234 -100.5q145 0 234 101.5t89 263.5q0 158 -90 257t-233.5 99t-233.5 -100.5t-90 -260zM266 1051l234 290h69l234 -290h-131 l-137 178l-138 -178h-131z" />
<glyph unicode="&#xf5;" horiz-adv-x="1069" d="M86 451q0 205 125 333.5t323.5 128.5t323.5 -130t125 -336.5t-125 -336.5t-323 -130q-201 0 -325 130t-124 341zM211 446.5q0 -159.5 90 -260t234 -100.5q145 0 234 101.5t89 263.5q0 158 -90 257t-233.5 99t-233.5 -100.5t-90 -260zM250 1051q6 240 153 239 q57 0 156 -80q74 -59 105 -59q57 0 61 135h96q-6 -240 -153 -239q-57 0 -156 79q-74 59 -104 60q-59 0 -62 -135h-96z" />
<glyph unicode="&#xf6;" horiz-adv-x="1069" d="M86 451q0 205 125 333.5t323.5 128.5t323.5 -130t125 -336.5t-125 -336.5t-323 -130q-201 0 -325 130t-124 341zM211 446.5q0 -159.5 90 -260t234 -100.5q145 0 234 101.5t89 263.5q0 158 -90 257t-233.5 99t-233.5 -100.5t-90 -260zM281 1171q0 39 27.5 66t64.5 27 q39 0 65.5 -27t26.5 -65.5t-26.5 -65.5t-65.5 -27q-37 0 -64.5 28t-27.5 64zM604 1171q0 39 27.5 66t64.5 27q39 0 65.5 -27t26.5 -65.5t-26.5 -65.5t-65.5 -27q-37 0 -64.5 28t-27.5 64z" />
<glyph unicode="&#xf7;" horiz-adv-x="940" d="M82 545v108h776v-108h-776zM369 301q0 41 29.5 70.5t70.5 29.5t71.5 -29.5t30.5 -70.5t-30.5 -71.5t-71.5 -30.5t-70.5 30.5t-29.5 71.5zM369 899q0 41 29.5 70.5t70.5 29.5t71.5 -29.5t30.5 -70.5t-30.5 -71.5t-71.5 -30.5t-70.5 30.5t-29.5 71.5z" />
<glyph unicode="&#xf8;" horiz-adv-x="1069" d="M66 -20l129 147q-109 133 -109 319q0 207 125 337t324 130q152 0 272 -86l76 86h121l-130 -147q109 -139 109 -320q0 -207 -125 -336.5t-323 -129.5q-152 0 -275 83l-74 -83h-120zM211 444q0 -131 61 -227l461 526q-88 63 -196 64q-145 0 -235.5 -100.5t-90.5 -262.5z M336 150q84 -63 196 -64q145 0 235.5 99.5t90.5 260.5q0 128 -63 230z" />
<glyph unicode="&#xf9;" horiz-adv-x="1003" d="M133 291v602h123v-596q0 -211 279 -211q88 0 192 12v795h123v-883q-172 -31 -311 -30q-406 0 -406 311zM262 1362h121l174 -311h-121z" />
<glyph unicode="&#xfa;" horiz-adv-x="1003" d="M133 291v602h123v-596q0 -211 279 -211q88 0 192 12v795h123v-883q-172 -31 -311 -30q-406 0 -406 311zM418 1051l174 311h121l-174 -311h-121z" />
<glyph unicode="&#xfb;" horiz-adv-x="1003" d="M133 291v602h123v-596q0 -211 279 -211q88 0 192 12v795h123v-883q-172 -31 -311 -30q-406 0 -406 311zM223 1051l234 290h69l234 -290h-131l-137 178l-138 -178h-131z" />
<glyph unicode="&#xfc;" horiz-adv-x="1003" d="M133 291v602h123v-596q0 -211 279 -211q88 0 192 12v795h123v-883q-172 -31 -311 -30q-406 0 -406 311zM238 1171q0 39 27.5 66t64.5 27q39 0 65.5 -27t26.5 -65.5t-26.5 -65.5t-65.5 -27q-37 0 -64.5 28t-27.5 64zM561 1171q0 39 27.5 66t64.5 27q39 0 65.5 -27 t26.5 -65.5t-26.5 -65.5t-65.5 -27q-37 0 -64.5 28t-27.5 64z" />
<glyph unicode="&#xfd;" horiz-adv-x="876" d="M10 893h135l299 -813l295 813h127l-483 -1262h-121l121 310zM365 1051l174 311h120l-174 -311h-120z" />
<glyph unicode="&#xfe;" horiz-adv-x="1044" d="M154 -369v1762h122v-525q86 45 218 45q213 0 338.5 -124.5t125.5 -335.5q0 -217 -131 -345t-350 -128q-121 0 -201 36v-385h-122zM276 123q92 -37 193 -37q168 0 266.5 97.5t98.5 265.5q0 162 -95.5 258t-257.5 96q-117 0 -205 -41v-639z" />
<glyph unicode="&#xff;" horiz-adv-x="876" d="M10 893h135l299 -813l295 813h127l-483 -1262h-121l121 310zM184 1171q0 39 27.5 66t64.5 27q39 0 66 -27t27 -65.5t-27 -65.5t-66 -27q-37 0 -64.5 28t-27.5 64zM508 1171q0 39 27.5 66t64.5 27q39 0 65.5 -27t26.5 -65.5t-26.5 -65.5t-65.5 -27q-37 0 -64.5 28 t-27.5 64z" />
<glyph unicode="&#x152;" horiz-adv-x="1648" d="M92 608.5q0 268.5 176 438.5t453 170h817v-111h-565v-430h528v-111h-528v-454h573v-111h-825q-276 0 -452.5 170t-176.5 438.5zM221 608q0 -219 139.5 -358t360.5 -139h125v995h-125q-221 0 -360.5 -139.5t-139.5 -358.5z" />
<glyph unicode="&#x153;" horiz-adv-x="1732" d="M86 446.5q0 206.5 125 336.5t324 130q258 0 385 -208q57 100 151 154t209 54q174 0 272.5 -103t98.5 -286v-84h-676v-4q0 -154 95 -251t245 -97q160 0 297 100v-122q-125 -86 -301 -86q-129 0 -232.5 54t-160.5 154q-57 -100 -156.5 -154t-226.5 -54q-199 0 -324 130 t-125 336.5zM211 446.5q0 -159.5 90 -260t234 -100.5q145 0 234 101.5t89 263.5q0 158 -90 257t-233.5 99t-233.5 -100.5t-90 -260zM983 543h545q-10 135 -71.5 198.5t-182.5 63.5q-225 0 -291 -262z" />
<glyph unicode="&#x178;" horiz-adv-x="1052" d="M20 1217h140l366 -617l367 617h139l-442 -732v-485h-127v485zM272 1405q0 39 28 65.5t65 26.5q39 0 65.5 -26.5t26.5 -65.5t-27 -65.5t-65 -26.5q-37 0 -65 27.5t-28 64.5zM596 1405q0 39 27.5 65.5t64.5 26.5q39 0 65.5 -26.5t26.5 -65.5t-26.5 -65.5t-65.5 -26.5 q-37 0 -64.5 27.5t-27.5 64.5z" />
<glyph unicode="&#x2c6;" horiz-adv-x="1024" d="M244 1051l233 290h70l233 -290h-131l-137 178l-137 -178h-131z" />
<glyph unicode="&#x2dc;" horiz-adv-x="1024" d="M225 1051q6 240 154 239q57 0 156 -80q74 -59 104 -59q57 0 61 135h97q-6 -240 -154 -239q-57 0 -156 79q-74 59 -104 60q-59 0 -61 -135h-97z" />
<glyph unicode="&#x2000;" horiz-adv-x="817" />
<glyph unicode="&#x2001;" horiz-adv-x="1634" />
<glyph unicode="&#x2002;" horiz-adv-x="817" />
<glyph unicode="&#x2003;" horiz-adv-x="1634" />
<glyph unicode="&#x2004;" horiz-adv-x="544" />
<glyph unicode="&#x2005;" horiz-adv-x="408" />
<glyph unicode="&#x2006;" horiz-adv-x="272" />
<glyph unicode="&#x2007;" horiz-adv-x="272" />
<glyph unicode="&#x2008;" horiz-adv-x="204" />
<glyph unicode="&#x2009;" horiz-adv-x="326" />
<glyph unicode="&#x200a;" horiz-adv-x="90" />
<glyph unicode="&#x2010;" horiz-adv-x="727" d="M143 475v111h441v-111h-441z" />
<glyph unicode="&#x2011;" horiz-adv-x="727" d="M143 475v111h441v-111h-441z" />
<glyph unicode="&#x2012;" horiz-adv-x="727" d="M143 475v111h441v-111h-441z" />
<glyph unicode="&#x2013;" horiz-adv-x="1171" d="M143 481v99h885v-99h-885z" />
<glyph unicode="&#x2014;" horiz-adv-x="1949" d="M143 481v99h1663v-99h-1663z" />
<glyph unicode="&#x2018;" horiz-adv-x="425" d="M143 936q0 115 55.5 218t149.5 165h98q-159 -166 -159 -383h-144z" />
<glyph unicode="&#x2019;" horiz-adv-x="425" d="M51 936q160 166 160 383h143q0 -115 -55 -218.5t-149 -164.5h-99z" />
<glyph unicode="&#x201a;" horiz-adv-x="425" d="M-10 -219q160 166 160 383h143q0 -115 -55.5 -218.5t-149.5 -164.5h-98z" />
<glyph unicode="&#x201c;" horiz-adv-x="704" d="M143 936q0 115 55.5 218t149.5 165h98q-159 -166 -159 -383h-144zM422 936q0 115 55 218t150 165h98q-160 -166 -160 -383h-143z" />
<glyph unicode="&#x201d;" horiz-adv-x="704" d="M51 936q160 166 160 383h143q0 -115 -55 -218.5t-149 -164.5h-99zM330 936q159 166 159 383h144q0 -115 -55.5 -218.5t-149.5 -164.5h-98z" />
<glyph unicode="&#x201e;" horiz-adv-x="704" d="M-10 -219q160 166 160 383h143q0 -115 -55.5 -218.5t-149.5 -164.5h-98zM268 -219q160 166 160 383h143q0 -115 -55 -218.5t-149 -164.5h-99z" />
<glyph unicode="&#x2022;" horiz-adv-x="655" d="M143 532q0 76 54.5 129.5t130.5 53.5q78 0 131 -54.5t53 -130t-53 -130t-131 -54.5t-131.5 54.5t-53.5 131.5z" />
<glyph unicode="&#x2026;" horiz-adv-x="1449" d="M143 84q0 41 30 70.5t71 29.5q43 0 72.5 -29.5t29.5 -70.5t-30.5 -71.5t-71.5 -30.5t-71 30.5t-30 71.5zM625 84q0 41 29.5 70.5t72.5 29.5q41 0 70.5 -29.5t29.5 -72.5q0 -41 -30.5 -70.5t-69.5 -29.5q-41 0 -71.5 30.5t-30.5 71.5zM1104 84q0 41 29.5 70.5t70.5 29.5 q43 0 73 -29.5t30 -70.5t-31 -71.5t-72 -30.5t-70.5 30.5t-29.5 71.5z" />
<glyph unicode="&#x202f;" horiz-adv-x="326" />
<glyph unicode="&#x2039;" horiz-adv-x="634" d="M123 440l252 324h137l-250 -324l250 -323h-137z" />
<glyph unicode="&#x203a;" horiz-adv-x="634" d="M123 117l250 323l-250 324h137l252 -324l-252 -323h-137z" />
<glyph unicode="&#x205f;" horiz-adv-x="408" />
<glyph unicode="&#x20ac;" horiz-adv-x="1052" d="M41 451v104h131q-2 18 -2 49q0 43 2 74h-131v104h145q43 213 176.5 334t325.5 121q150 0 277 -88v-148q-115 121 -275 121q-139 0 -238.5 -90t-140.5 -250h402l-21 -104h-397q-2 -29 -2 -70q0 -31 2 -53h371l-21 -104h-336q33 -164 135.5 -260.5t245.5 -96.5 q166 0 281 121v-147q-131 -88 -283 -88q-197 0 -334 128t-172 343h-141z" />
<glyph unicode="&#x2122;" horiz-adv-x="1388" d="M82 1130v87h463v-87h-178v-481h-105v481h-180zM586 649l90 568h125l139 -451l135 451h125l90 -568h-100l-70 441l-133 -441h-98l-135 441l-70 -441h-98z" />
<glyph unicode="&#x25fc;" horiz-adv-x="890" d="M0 0v891h891v-891h-891z" />
</font>
</defs>
</svg>
