<?xml version="1.0" standalone="no"?>
<!DOCTYPE svg PUBLIC "-//W3C//DTD SVG 1.1//EN" "http://www.w3.org/Graphics/SVG/1.1/DTD/svg11.dtd" >
<svg xmlns="http://www.w3.org/2000/svg">
<metadata></metadata>
<defs>
<font id="fsecure_sans_headlineregular" horiz-adv-x="520" >
<font-face units-per-em="1000" ascent="800" descent="-200" />
<missing-glyph horiz-adv-x="190" />
<glyph horiz-adv-x="0" />
<glyph horiz-adv-x="0" />
<glyph unicode=" "  horiz-adv-x="190" />
<glyph unicode="&#x09;" horiz-adv-x="190" />
<glyph unicode="&#xa0;" horiz-adv-x="190" />
<glyph unicode="!" horiz-adv-x="256" d="M127 173q38 0 64.5 -26.5t26.5 -64.5t-26.5 -64t-64.5 -26q-19 0 -35.5 7t-28.5 19.5t-19 29t-7 35.5q0 37 26.5 63.5t63.5 26.5zM199 206h-142v388h142v-388z" />
<glyph unicode="&#x22;" horiz-adv-x="382" d="M231 644h121l-43 -237h-98zM70 644h121l-40 -237h-101z" />
<glyph unicode="#" horiz-adv-x="549" d="M224 246h84l21 107h-84zM30 153v93h88l21 107h-77v93h96l30 148h106l-30 -148h84l30 148h106l-30 -148h65v-93h-84l-21 -107h73v-93h-92l-31 -153h-106l31 153h-84l-31 -153h-106l31 153h-69z" />
<glyph unicode="$" horiz-adv-x="453" d="M160 53q-32 4 -62.5 13t-56.5 24v139q41 -26 86.5 -40t79.5 -14q23 0 39.5 8t16.5 20q0 11 -15.5 19t-44.5 13q-87 14 -128.5 50t-41.5 102q0 60 33.5 100t93.5 56v61h110v-54q55 -6 112 -35v-135q-42 25 -77 36t-67 11q-23 0 -39 -8t-16 -20q0 -11 14 -18.5t37 -11.5 q91 -15 135 -53.5t44 -105.5q0 -63 -37.5 -103t-105.5 -52v-65h-110v63z" />
<glyph unicode="%" horiz-adv-x="696" d="M216 0h-94l357 594h94zM523 196q-23 0 -36.5 -14.5t-13.5 -38.5q0 -23 13.5 -37.5t36.5 -14.5t37 14.5t14 38.5q0 23 -14 37.5t-37 14.5zM523 296q33 0 61 -11.5t48.5 -32t32 -49t11.5 -61.5t-11.5 -60.5t-32 -48t-48.5 -32t-61 -11.5t-61 11.5t-48.5 32t-32 48.5 t-11.5 61t11.5 61t32 48.5t48.5 32t61 11.5zM173 504q-23 0 -36.5 -14.5t-13.5 -38.5q0 -23 13.5 -37.5t36.5 -14.5t37 14.5t14 37.5q0 24 -14 38.5t-37 14.5zM173 604q33 0 61 -11.5t48.5 -32t32 -48.5t11.5 -61t-11.5 -61t-32 -48.5t-48.5 -32t-61 -11.5t-61 11.5 t-48.5 32t-32 49t-11.5 61.5q0 32 11.5 60t32 48.5t48.5 32t61 11.5z" />
<glyph unicode="&#x26;" horiz-adv-x="601" d="M269 365q25 16 35.5 35t10.5 46q0 21 -12.5 33.5t-34.5 12.5q-20 0 -33 -13t-13 -33q0 -17 10 -34t37 -47zM204 239q-42 -26 -42 -73q0 -64 81 -64q40 0 75 16zM397 35q-40 -23 -81.5 -34t-88.5 -11q-97 0 -151.5 45.5t-54.5 125.5q0 57 26 93t86 61q-25 31 -36 60.5 t-11 65.5t13 66t37 51.5t57 33.5t74 12q39 0 71.5 -11t55.5 -31.5t35.5 -49t12.5 -62.5q0 -103 -103 -161l71 -79q6 12 10 22.5t7 21.5t5.5 25t4.5 32h120q-4 -60 -19 -103.5t-47 -86.5l110 -121h-171z" />
<glyph unicode="'" horiz-adv-x="221" d="M70 644h121l-40 -237h-101z" />
<glyph unicode="(" horiz-adv-x="421" d="M254 297q0 -45 12.5 -86.5t33.5 -79.5t49.5 -73t61.5 -68h-161q-26 26 -50.5 58.5t-43.5 71.5t-30.5 83.5t-11.5 93.5t11.5 93.5t30.5 83.5t43.5 71.5t50.5 58.5h161q-33 -33 -61.5 -68t-49.5 -73t-33.5 -79.5t-12.5 -86.5z" />
<glyph unicode=")" horiz-adv-x="392" d="M167 297q0 45 -12.5 86.5t-33.5 79.5t-49.5 73t-61.5 68h161q26 -26 50.5 -58.5t43.5 -71.5t30.5 -83.5t11.5 -93.5t-11.5 -93.5t-30.5 -83.5t-43.5 -71.5t-50.5 -58.5h-161q33 33 61.5 68t49.5 73t33.5 79.5t12.5 86.5z" />
<glyph unicode="*" horiz-adv-x="400" d="M147 262l-83 59l60 80l-94 29l31 99l94 -34l-2 99h104l-3 -100l93 33l33 -98l-96 -29l60 -79l-83 -61l-57 83z" />
<glyph unicode="+" horiz-adv-x="459" d="M178 482h103v-138h138v-103h-138v-138h-103v138h-138v103h138v138z" />
<glyph unicode="," horiz-adv-x="273" d="M215 177q0 -20 -7 -44t-20 -49.5t-32.5 -50t-44.5 -43.5h-102q33 51 47.5 100t14.5 87h144z" />
<glyph unicode="-" horiz-adv-x="355" d="M34 324h287v-126h-287v126z" />
<glyph unicode="." horiz-adv-x="273" d="M136 173q38 0 64.5 -26.5t26.5 -64.5t-26.5 -64t-64.5 -26q-19 0 -35.5 7t-28.5 19.5t-19 29t-7 35.5q0 37 26.5 63.5t63.5 26.5z" />
<glyph unicode="/" horiz-adv-x="459" d="M302 680h146l-314 -818h-146z" />
<glyph unicode="0" horiz-adv-x="525" d="M263 478q-44 0 -66.5 -47t-22.5 -137q0 -85 23 -131.5t66 -46.5t66 46.5t23 132.5q0 88 -23 135.5t-66 47.5zM263 604q53 0 96.5 -22.5t74.5 -63t48 -97t17 -125.5q0 -68 -17 -124.5t-48 -97t-74.5 -62.5t-96.5 -22q-54 0 -97.5 22.5t-74.5 63t-48 97.5t-17 127 q0 67 17.5 123t48.5 96t74.5 62.5t96.5 22.5z" />
<glyph unicode="1" horiz-adv-x="332" d="M21 562l254 41v-603h-147v441l-107 -13v134z" />
<glyph unicode="2" horiz-adv-x="453" d="M428 131v-131h-413v109q38 33 64 56t44.5 40t32.5 31t27 28q37 40 54 72.5t17 62.5q0 32 -20.5 50t-58.5 18q-69 0 -149 -66v140q78 63 188 63q91 0 145 -48.5t54 -130.5q0 -38 -11 -73t-35.5 -70t-63.5 -72t-94 -79h219z" />
<glyph unicode="3" horiz-adv-x="423" d="M32 549q41 29 81.5 42t91.5 13q87 0 135.5 -41.5t48.5 -116.5q0 -52 -23 -86t-74 -60q57 -20 82.5 -53.5t25.5 -86.5q0 -79 -58 -124.5t-159 -45.5q-48 0 -86.5 10.5t-76.5 33.5v138q72 -60 151 -60q38 0 59 15t21 44q0 35 -27.5 49.5t-96.5 15.5v116q58 2 85.5 19 t27.5 53q0 24 -15.5 37.5t-44.5 13.5q-69 0 -148 -63v137z" />
<glyph unicode="4" horiz-adv-x="558" d="M161 252h138v172zM441 252h80v-116h-80v-136h-142v136h-278v120l279 338h141v-342z" />
<glyph unicode="5" horiz-adv-x="422" d="M183 387q111 -17 161 -65t50 -135q0 -45 -15.5 -81.5t-44.5 -62t-70.5 -39.5t-93.5 -14q-94 0 -156 44v131q39 -28 74.5 -40.5t73.5 -12.5q94 0 94 69q0 23 -11 39.5t-36 28.5t-64.5 20t-96.5 13l22 312h311v-132h-192z" />
<glyph unicode="6" horiz-adv-x="480" d="M241 285q-37 0 -59.5 -24t-22.5 -64q0 -38 23 -61.5t59 -23.5q37 0 60 24t23 62q0 39 -23 63t-60 24zM357 594l-79 -135l-40 -64q7 2 16 3t18 1q42 0 77 -15t61 -41t40.5 -62.5t14.5 -78.5q0 -47 -17 -85.5t-47 -67t-71.5 -44t-90.5 -15.5q-48 0 -88 15.5t-68.5 43 t-44.5 66t-16 85.5q0 23 4 45.5t12.5 47.5t22.5 53.5t34 62.5l108 185h154z" />
<glyph unicode="7" horiz-adv-x="450" d="M13 462v132h401v-133l-222 -461h-152l217 462h-244z" />
<glyph unicode="8" horiz-adv-x="462" d="M231 234q-29 0 -47.5 -17.5t-18.5 -46.5q0 -28 18 -44.5t49 -16.5q29 0 47 17t18 44q0 29 -18.5 46.5t-47.5 17.5zM231 484q-27 0 -43 -16t-16 -43q0 -28 16 -44t44 -16q26 0 42 16.5t16 43.5t-16 43t-43 16zM343 299q98 -40 98 -137q0 -38 -15.5 -69.5t-43 -54.5 t-66.5 -35.5t-85 -12.5q-47 0 -85.5 12.5t-66 35.5t-43 54.5t-15.5 69.5q0 97 99 137q-78 43 -78 135q0 37 14 68.5t38.5 54t59.5 35t77 12.5t76.5 -12.5t59.5 -35t38.5 -53.5t13.5 -69q0 -92 -76 -135z" />
<glyph unicode="9" horiz-adv-x="480" d="M239 482q-37 0 -60 -24t-23 -62q0 -39 23 -63t60 -24t59.5 24t22.5 64q0 38 -23 61.5t-59 23.5zM123 0l79 135l40 64q-7 -2 -16 -3t-18 -1q-42 0 -77 15t-61 41t-40.5 62.5t-14.5 78.5q0 46 16.5 85t46.5 67.5t71.5 44t91.5 15.5q48 0 88 -15.5t68.5 -43t44.5 -66.5 t16 -85q0 -23 -4 -45.5t-12.5 -47.5t-22.5 -53.5t-34 -62.5l-108 -185h-154z" />
<glyph unicode=":" horiz-adv-x="273" d="M136 431q38 0 64.5 -26.5t26.5 -64.5t-26.5 -64t-64.5 -26q-19 0 -35.5 7t-28.5 19.5t-19 29t-7 35.5q0 37 26.5 63.5t63.5 26.5zM136 173q38 0 64.5 -26.5t26.5 -64.5t-26.5 -64t-64.5 -26q-19 0 -35.5 7t-28.5 19.5t-19 29t-7 35.5q0 37 26.5 63.5t63.5 26.5z" />
<glyph unicode=";" horiz-adv-x="273" d="M144 431q38 0 64.5 -26.5t26.5 -64.5t-26.5 -64t-64.5 -26q-19 0 -35.5 7t-28.5 19.5t-19 29t-7 35.5q0 37 26.5 63.5t63.5 26.5zM215 177q0 -20 -7 -44t-20 -49.5t-32.5 -50t-44.5 -43.5h-102q33 51 47.5 100t14.5 87h144z" />
<glyph unicode="&#x3c;" horiz-adv-x="359" d="M30 295l289 184v-117l-124 -71l124 -71v-117l-289 184v8z" />
<glyph unicode="=" horiz-adv-x="469" d="M45 421h379v-93h-379v93zM45 261h379v-93h-379v93z" />
<glyph unicode="&#x3e;" horiz-adv-x="359" d="M329 287l-289 -184v117l124 71l-124 71v117l289 -184v-8z" />
<glyph unicode="?" horiz-adv-x="382" d="M154 173q19 0 36 -7t30 -19.5t20 -29.5t7 -36q0 -38 -27 -63.5t-66 -25.5q-37 0 -62.5 26t-25.5 63q0 19 7 36t19 29.5t28 19.5t34 7zM15 546q70 58 172 58q89 0 137 -43.5t48 -124.5q0 -135 -152 -177v-53h-131v121q23 6 39 11t27.5 8.5t19.5 7t15 6.5q40 21 40 60 q0 55 -66 55q-18 0 -34 -3t-33.5 -10.5t-37.5 -19.5t-44 -30v134z" />
<glyph unicode="@" horiz-adv-x="730" d="M428 377q-5 1 -10.5 1.5t-13.5 0.5q-48 0 -76.5 -23.5t-28.5 -68.5q0 -47 28 -64.5t76 -17.5h4h10.5t10.5 1v171zM537 215q13 3 26.5 14t24 29.5t17 43.5t6.5 56q0 86 -54 131t-168 45q-66 0 -117 -17.5t-85 -49.5t-51.5 -77t-17.5 -101q0 -113 79 -170.5t231 -57.5 q39 0 86 6t98 25v-72q-44 -17 -91 -23.5t-97 -6.5q-91 0 -162.5 21.5t-120.5 60t-75 93t-26 120.5q0 72 27 130.5t74.5 100.5t111 65t136.5 23q62 0 116.5 -17.5t95.5 -50t65 -78.5t24 -103q0 -50 -21.5 -92.5t-58.5 -73t-87.5 -47.5t-107.5 -17q-111 0 -172.5 42t-61.5 120 q0 42 15.5 78.5t44.5 63.5t70 42.5t92 15.5q71 0 134 -24v-248z" />
<glyph unicode="A" horiz-adv-x="641" d="M395 234l-75 211l-77 -211h152zM157 0h-157l231 594h179l231 -594h-163l-40 113h-240z" />
<glyph unicode="B" horiz-adv-x="537" d="M204 356h43q87 0 87 64q0 59 -76 59q-13 0 -28.5 -1t-25.5 -3v-119zM204 116q14 -1 26 -1.5t23 -0.5q104 0 104 64q0 60 -86 60h-67v-122zM61 588q46 8 95 12t87 4q116 0 176.5 -42.5t60.5 -124.5q0 -51 -27.5 -84t-78.5 -45q66 -10 100.5 -45.5t34.5 -95.5 q0 -175 -285 -175q-79 0 -163 12v584z" />
<glyph unicode="C" horiz-adv-x="551" d="M500 407q-66 63 -159 63q-72 0 -114 -46t-42 -127q0 -80 44 -126.5t120 -46.5q46 0 82 13.5t81 48.5v-152q-41 -24 -80 -34t-91 -10q-70 0 -127 22t-97.5 62t-62.5 97t-22 126t22.5 125.5t63 97t97.5 62.5t126 22q48 0 85 -9t74 -29v-159z" />
<glyph unicode="D" horiz-adv-x="625" d="M210 125q30 -3 62 -3q81 0 124.5 46t43.5 133q0 80 -44.5 123t-126.5 43q-29 0 -59 -3v-339zM61 589q47 7 99 11t97 4q161 0 248.5 -79t87.5 -224q0 -151 -88.5 -230t-257.5 -79q-55 0 -103 3.5t-83 10.5v583z" />
<glyph unicode="E" horiz-adv-x="505" d="M461 131v-131h-400v594h393v-131h-246v-102h224v-128h-224v-102h253z" />
<glyph unicode="F" horiz-adv-x="451" d="M61 0v594h361v-131h-212v-126h189v-129h-189v-208h-149z" />
<glyph unicode="G" horiz-adv-x="587" d="M524 406q-37 32 -81 48.5t-92 16.5q-77 0 -121.5 -46.5t-44.5 -127.5q0 -41 12 -74t33.5 -56t52 -36t68.5 -13q14 0 28 1.5t22 3.5v155h146v-243q-38 -22 -88.5 -33.5t-111.5 -11.5q-73 0 -131 21t-99 61t-63 96t-22 127q0 69 22.5 126t63.5 97.5t98 63t127 22.5 q54 0 97.5 -11t83.5 -34v-153z" />
<glyph unicode="H" horiz-adv-x="658" d="M448 594h149v-594h-149v229h-238v-229h-149v594h149v-233h238v233z" />
<glyph unicode="I" horiz-adv-x="271" d="M210 0h-149v594h149v-594z" />
<glyph unicode="J" horiz-adv-x="394" d="M20 168q29 -22 54.5 -31.5t55.5 -9.5q33 0 48 13.5t15 42.5v411h149v-428q0 -85 -50.5 -130.5t-143.5 -45.5q-40 0 -69.5 8t-58.5 25v145z" />
<glyph unicode="K" horiz-adv-x="578" d="M394 594h172l-191 -288l204 -306h-175l-191 294zM61 594h149v-594h-149v594z" />
<glyph unicode="L" horiz-adv-x="456" d="M61 594h149v-463h226v-131h-375v594z" />
<glyph unicode="M" horiz-adv-x="826" d="M346 0l-115 373l-51 -373h-147l81 594h178l124 -402l117 402h179l81 -594h-148l-52 373l-115 -373h-132z" />
<glyph unicode="N" horiz-adv-x="655" d="M450 230v364h144v-594h-141l-248 357v-357h-144v594h150z" />
<glyph unicode="O" horiz-adv-x="683" d="M341 470q-35 0 -63.5 -12.5t-49 -35.5t-32 -55t-11.5 -70t11.5 -70t32 -55t49 -35.5t63.5 -12.5t63.5 12.5t49 35.5t32 55.5t11.5 71.5q0 37 -11.5 68.5t-32 54.5t-49.5 35.5t-63 12.5zM341 604q67 0 123.5 -23t98 -64.5t65 -97.5t23.5 -122t-23.5 -122t-65 -97.5 t-98 -64.5t-123.5 -23t-123.5 23.5t-98 64.5t-64.5 98t-23 124q0 65 23.5 120.5t65 96.5t98 64t122.5 23z" />
<glyph unicode="P" horiz-adv-x="526" d="M210 301q8 -1 20 -1.5t25 -0.5q50 0 76 21.5t26 63.5t-26.5 64.5t-75.5 22.5q-26 0 -45 -3v-167zM210 0h-149v589q48 8 97.5 11.5t91.5 3.5q124 0 190.5 -56t66.5 -160q0 -103 -64.5 -159.5t-179.5 -56.5q-13 0 -26.5 0.5t-26.5 1.5v-174z" />
<glyph unicode="Q" horiz-adv-x="653" d="M326 470q-30 0 -56 -11.5t-44.5 -31.5t-29.5 -48t-11 -62t11 -62t29.5 -48.5t44.5 -31.5t56 -11t56 11t45 31.5t29.5 49t10.5 63.5q0 33 -11 60.5t-29.5 48t-44.5 31.5t-56 11zM326 604q63 0 116.5 -21.5t93.5 -60t62.5 -91t22.5 -114.5q0 -69 -27 -125.5t-75 -95.5 l89 -106h-173l-40 47q-31 -7 -69 -7q-63 0 -116.5 22t-93 60.5t-62 91.5t-22.5 116q0 61 22.5 113t62.5 90t93.5 59.5t115.5 21.5z" />
<glyph unicode="R" horiz-adv-x="555" d="M209 312h37q106 0 106 81q0 40 -26 61t-75 21q-11 0 -22.5 -0.5t-19.5 -1.5v-161zM209 0h-148v591q39 6 87.5 9.5t96.5 3.5q127 0 192.5 -52.5t65.5 -152.5q0 -116 -107 -177l159 -222h-175l-128 190h-43v-190z" />
<glyph unicode="S" horiz-adv-x="458" d="M38 178q45 -33 83 -47t81 -14q84 0 84 53q0 12 -4 21t-14 16t-28 13.5t-45 13.5q-91 24 -130 66.5t-39 117.5q0 43 14.5 77.5t42 58.5t66 37t86.5 13q46 0 83 -10t78 -33v-146q-41 32 -78 47t-79 15q-32 0 -50 -12.5t-18 -36.5q0 -12 4 -20.5t15 -16t29.5 -14t48.5 -14.5 q87 -23 125.5 -66t38.5 -117q0 -91 -59.5 -140.5t-167.5 -49.5q-94 0 -167 42v146z" />
<glyph unicode="T" horiz-adv-x="534" d="M341 0h-148v463h-178v131h504v-131h-178v-463z" />
<glyph unicode="U" horiz-adv-x="614" d="M553 21q-24 -7 -54.5 -12.5t-62.5 -9.5t-65 -6.5t-61 -2.5q-125 0 -190.5 57t-65.5 166v381h149v-348q0 -70 26 -101t86 -31q20 0 37.5 1.5t51.5 6.5v472h149v-573z" />
<glyph unicode="V" horiz-adv-x="623" d="M221 0l-221 594h160l153 -443l151 443h159l-221 -594h-181z" />
<glyph unicode="W" horiz-adv-x="875" d="M514 594l103 -422l93 422h145l-141 -594h-185l-93 385l-92 -385h-183l-141 594h149l94 -422l101 422h150z" />
<glyph unicode="X" horiz-adv-x="587" d="M377 307l210 -307h-171l-122 187l-127 -187h-167l211 307l-194 287h172l106 -167l110 167h166z" />
<glyph unicode="Y" horiz-adv-x="575" d="M410 594h165l-214 -378v-216h-148v216l-213 378h164l126 -236z" />
<glyph unicode="Z" horiz-adv-x="510" d="M30 594h444v-131l-273 -332h278v-131h-448v131l267 332h-268v131z" />
<glyph unicode="[" horiz-adv-x="379" d="M235 101h94v-111h-226v614h226v-111h-94v-392z" />
<glyph unicode="\" horiz-adv-x="459" d="M471 -138h-146l-314 818h146z" />
<glyph unicode="]" horiz-adv-x="379" d="M144 493h-94v111h226v-614h-226v111h94v392z" />
<glyph unicode="^" horiz-adv-x="456" d="M436 338h-134l-74 134l-74 -134h-134l146 256h124z" />
<glyph unicode="_" horiz-adv-x="462" d="M50 -39h362v-116h-362v116z" />
<glyph unicode="`" horiz-adv-x="500" d="M228 513l-85 152h128l85 -152h-128z" />
<glyph unicode="a" horiz-adv-x="641" d="M395 234l-75 211l-77 -211h152zM157 0h-157l231 594h179l231 -594h-163l-40 113h-240z" />
<glyph unicode="b" horiz-adv-x="537" d="M204 356h43q87 0 87 64q0 59 -76 59q-13 0 -28.5 -1t-25.5 -3v-119zM204 116q14 -1 26 -1.5t23 -0.5q104 0 104 64q0 60 -86 60h-67v-122zM61 588q46 8 95 12t87 4q116 0 176.5 -42.5t60.5 -124.5q0 -51 -27.5 -84t-78.5 -45q66 -10 100.5 -45.5t34.5 -95.5 q0 -175 -285 -175q-79 0 -163 12v584z" />
<glyph unicode="c" horiz-adv-x="551" d="M500 407q-66 63 -159 63q-72 0 -114 -46t-42 -127q0 -80 44 -126.5t120 -46.5q46 0 82 13.5t81 48.5v-152q-41 -24 -80 -34t-91 -10q-70 0 -127 22t-97.5 62t-62.5 97t-22 126t22.5 125.5t63 97t97.5 62.5t126 22q48 0 85 -9t74 -29v-159z" />
<glyph unicode="d" horiz-adv-x="625" d="M210 125q30 -3 62 -3q81 0 124.5 46t43.5 133q0 80 -44.5 123t-126.5 43q-29 0 -59 -3v-339zM61 589q47 7 99 11t97 4q161 0 248.5 -79t87.5 -224q0 -151 -88.5 -230t-257.5 -79q-55 0 -103 3.5t-83 10.5v583z" />
<glyph unicode="e" horiz-adv-x="505" d="M461 131v-131h-400v594h393v-131h-246v-102h224v-128h-224v-102h253z" />
<glyph unicode="f" horiz-adv-x="451" d="M61 0v594h361v-131h-212v-126h189v-129h-189v-208h-149z" />
<glyph unicode="g" horiz-adv-x="587" d="M524 406q-37 32 -81 48.5t-92 16.5q-77 0 -121.5 -46.5t-44.5 -127.5q0 -41 12 -74t33.5 -56t52 -36t68.5 -13q14 0 28 1.5t22 3.5v155h146v-243q-38 -22 -88.5 -33.5t-111.5 -11.5q-73 0 -131 21t-99 61t-63 96t-22 127q0 69 22.5 126t63.5 97.5t98 63t127 22.5 q54 0 97.5 -11t83.5 -34v-153z" />
<glyph unicode="h" horiz-adv-x="658" d="M448 594h149v-594h-149v229h-238v-229h-149v594h149v-233h238v233z" />
<glyph unicode="i" horiz-adv-x="271" d="M210 0h-149v594h149v-594z" />
<glyph unicode="j" horiz-adv-x="394" d="M20 168q29 -22 54.5 -31.5t55.5 -9.5q33 0 48 13.5t15 42.5v411h149v-428q0 -85 -50.5 -130.5t-143.5 -45.5q-40 0 -69.5 8t-58.5 25v145z" />
<glyph unicode="k" horiz-adv-x="578" d="M394 594h172l-191 -288l204 -306h-175l-191 294zM61 594h149v-594h-149v594z" />
<glyph unicode="l" horiz-adv-x="456" d="M61 594h149v-463h226v-131h-375v594z" />
<glyph unicode="m" horiz-adv-x="826" d="M346 0l-115 373l-51 -373h-147l81 594h178l124 -402l117 402h179l81 -594h-148l-52 373l-115 -373h-132z" />
<glyph unicode="n" horiz-adv-x="655" d="M450 230v364h144v-594h-141l-248 357v-357h-144v594h150z" />
<glyph unicode="o" horiz-adv-x="683" d="M341 470q-35 0 -63.5 -12.5t-49 -35.5t-32 -55t-11.5 -70t11.5 -70t32 -55t49 -35.5t63.5 -12.5t63.5 12.5t49 35.5t32 55.5t11.5 71.5q0 37 -11.5 68.5t-32 54.5t-49.5 35.5t-63 12.5zM341 604q67 0 123.5 -23t98 -64.5t65 -97.5t23.5 -122t-23.5 -122t-65 -97.5 t-98 -64.5t-123.5 -23t-123.5 23.5t-98 64.5t-64.5 98t-23 124q0 65 23.5 120.5t65 96.5t98 64t122.5 23z" />
<glyph unicode="p" horiz-adv-x="526" d="M210 301q8 -1 20 -1.5t25 -0.5q50 0 76 21.5t26 63.5t-26.5 64.5t-75.5 22.5q-26 0 -45 -3v-167zM210 0h-149v589q48 8 97.5 11.5t91.5 3.5q124 0 190.5 -56t66.5 -160q0 -103 -64.5 -159.5t-179.5 -56.5q-13 0 -26.5 0.5t-26.5 1.5v-174z" />
<glyph unicode="q" horiz-adv-x="653" d="M326 470q-30 0 -56 -11.5t-44.5 -31.5t-29.5 -48t-11 -62t11 -62t29.5 -48.5t44.5 -31.5t56 -11t56 11t45 31.5t29.5 49t10.5 63.5q0 33 -11 60.5t-29.5 48t-44.5 31.5t-56 11zM326 604q63 0 116.5 -21.5t93.5 -60t62.5 -91t22.5 -114.5q0 -69 -27 -125.5t-75 -95.5 l89 -106h-173l-40 47q-31 -7 -69 -7q-63 0 -116.5 22t-93 60.5t-62 91.5t-22.5 116q0 61 22.5 113t62.5 90t93.5 59.5t115.5 21.5z" />
<glyph unicode="r" horiz-adv-x="555" d="M209 312h37q106 0 106 81q0 40 -26 61t-75 21q-11 0 -22.5 -0.5t-19.5 -1.5v-161zM209 0h-148v591q39 6 87.5 9.5t96.5 3.5q127 0 192.5 -52.5t65.5 -152.5q0 -116 -107 -177l159 -222h-175l-128 190h-43v-190z" />
<glyph unicode="s" horiz-adv-x="458" d="M38 178q45 -33 83 -47t81 -14q84 0 84 53q0 12 -4 21t-14 16t-28 13.5t-45 13.5q-91 24 -130 66.5t-39 117.5q0 43 14.5 77.5t42 58.5t66 37t86.5 13q46 0 83 -10t78 -33v-146q-41 32 -78 47t-79 15q-32 0 -50 -12.5t-18 -36.5q0 -12 4 -20.5t15 -16t29.5 -14t48.5 -14.5 q87 -23 125.5 -66t38.5 -117q0 -91 -59.5 -140.5t-167.5 -49.5q-94 0 -167 42v146z" />
<glyph unicode="t" horiz-adv-x="534" d="M341 0h-148v463h-178v131h504v-131h-178v-463z" />
<glyph unicode="u" horiz-adv-x="614" d="M553 21q-24 -7 -54.5 -12.5t-62.5 -9.5t-65 -6.5t-61 -2.5q-125 0 -190.5 57t-65.5 166v381h149v-348q0 -70 26 -101t86 -31q20 0 37.5 1.5t51.5 6.5v472h149v-573z" />
<glyph unicode="v" horiz-adv-x="623" d="M221 0l-221 594h160l153 -443l151 443h159l-221 -594h-181z" />
<glyph unicode="w" horiz-adv-x="875" d="M514 594l103 -422l93 422h145l-141 -594h-185l-93 385l-92 -385h-183l-141 594h149l94 -422l101 422h150z" />
<glyph unicode="x" horiz-adv-x="587" d="M377 307l210 -307h-171l-122 187l-127 -187h-167l211 307l-194 287h172l106 -167l110 167h166z" />
<glyph unicode="y" horiz-adv-x="575" d="M410 594h165l-214 -378v-216h-148v216l-213 378h164l126 -236z" />
<glyph unicode="z" horiz-adv-x="510" d="M30 594h444v-131l-273 -332h278v-131h-448v131l267 332h-268v131z" />
<glyph unicode="{" horiz-adv-x="401" d="M291 422q0 -65 -35 -105.5t-95 -45.5q60 -5 95 -45.5t35 -105.5v22q0 -24 7 -32.5t27 -8.5h36v-111h-58q-70 0 -108 39.5t-38 111.5v-10q0 82 -74 82h-27v116h27q74 0 74 82v42q0 72 38 111.5t108 39.5h58v-111h-36q-20 0 -27 -9t-7 -32v-30z" />
<glyph unicode="|" horiz-adv-x="309" d="M88 680h133v-818h-133v818z" />
<glyph unicode="}" horiz-adv-x="401" d="M110 120q0 65 35 105.5t95 45.5q-60 5 -95 45.5t-35 105.5v30q0 24 -7 32.5t-27 8.5h-36v111h58q70 0 108 -39.5t38 -111.5v-42q0 -82 74 -82h27v-116h-27q-74 0 -74 -82v10q0 -72 -38 -111.5t-108 -39.5h-58v111h36q20 0 27 9t7 32v-22z" />
<glyph unicode="~" horiz-adv-x="417" d="M382 350q-5 -161 -106 -161q-19 0 -34.5 6t-35.5 23q-14 11 -22.5 15t-17.5 4q-29 0 -30 -43h-101q5 161 106 161q19 0 34.5 -6t36.5 -23q14 -11 22.5 -15t17.5 -4q29 0 29 43h101z" />
<glyph unicode="&#xa1;" horiz-adv-x="256" d="M127 604q38 0 64.5 -26t26.5 -64t-26.5 -64.5t-64.5 -26.5q-19 0 -35.5 7t-28.5 19.5t-19 29.5t-7 36q0 37 26 63t64 26zM199 0h-142v390h142v-390z" />
<glyph unicode="&#xa2;" horiz-adv-x="429" d="M307 0h-110v62q-81 18 -126.5 77.5t-45.5 148.5q0 88 45.5 148.5t126.5 80.5v77h110v-72q45 -6 85 -30v-132q-28 23 -53 32t-57 9q-54 0 -84 -29t-30 -81q0 -51 31.5 -81.5t85.5 -30.5q32 0 57.5 9.5t51.5 29.5v-130q-20 -12 -40.5 -19.5t-46.5 -10.5v-58z" />
<glyph unicode="&#xa3;" horiz-adv-x="456" d="M94 397q0 98 52.5 152.5t146.5 54.5q42 0 76.5 -10.5t58.5 -30.5v-148q-49 52 -116 52q-77 0 -77 -81v-36h132v-112h-133q-4 -32 -20 -61.5t-40 -48.5h262v-129h-411v129q34 17 49 41t19 69h-68v112h69v47z" />
<glyph unicode="&#xa4;" horiz-adv-x="582" d="M291 383q-32 0 -53 -22.5t-21 -56.5q0 -33 21 -55.5t53 -22.5t53.5 22.5t21.5 55.5q0 35 -21.5 57t-53.5 22zM126 193q-17 27 -24.5 53.5t-7.5 58.5t8 59t25 54l-73 73l52 52l73 -74q28 17 54.5 25t57.5 8t58 -8t53 -25l74 73l52 -52l-73 -73q17 -27 25 -53.5t8 -58.5 t-8 -59t-25 -54l74 -72l-53 -52l-73 73q-28 -17 -54.5 -25t-57.5 -8t-57.5 8t-54.5 25l-74 -74l-52 52z" />
<glyph unicode="&#xa5;" horiz-adv-x="555" d="M471 287v-70h-120v-51h120v-70h-120v-96h-148v96h-120v70h120v51h-120v70h88l-161 307h159l111 -235l105 235h160l-161 -307h87z" />
<glyph unicode="&#xa6;" horiz-adv-x="309" d="M88 203h133v-341h-133v341zM88 680h133v-341h-133v341z" />
<glyph unicode="&#xa7;" horiz-adv-x="492" d="M272 226q32 14 45.5 28t13.5 33q0 23 -22 39t-74 30l-15 4q-32 -14 -45.5 -27.5t-13.5 -33.5q0 -11 3.5 -19.5t14 -16t29.5 -15t49 -17.5zM95 88q36 -23 66 -32.5t62 -9.5q51 0 51 29q0 6 -2.5 11t-11 9.5t-23.5 10.5t-40 14q-46 15 -78 31.5t-51.5 36t-28.5 43.5t-9 54 q0 46 20 77t65 53q-19 20 -27 42t-8 51q0 69 48 107.5t135 38.5q39 0 69 -7.5t65 -26.5v-121q-37 23 -66.5 32.5t-61.5 9.5q-51 0 -51 -29q0 -6 2.5 -11t11 -9.5t23.5 -10.5t40 -14q46 -15 78 -31.5t51.5 -36t28.5 -43.5t9 -54q0 -47 -20.5 -78t-65.5 -52q19 -20 27.5 -42 t8.5 -52q0 -69 -48.5 -107t-134.5 -38q-39 0 -69 7.5t-65 26.5v121z" />
<glyph unicode="&#xa8;" horiz-adv-x="500" d="M343 659q32 0 55 -22.5t23 -54.5t-23 -55t-56 -23q-15 0 -29 6t-24.5 16.5t-16.5 25t-6 30.5q0 32 22.5 54.5t54.5 22.5zM155 659q16 0 30.5 -6t25 -16.5t16.5 -24.5t6 -30q0 -32 -23.5 -55t-55.5 -23q-15 0 -29 6t-24.5 16.5t-16.5 25t-6 30.5q0 32 22.5 54.5t54.5 22.5 z" />
<glyph unicode="&#xa9;" horiz-adv-x="698" d="M349 567q-58 0 -106.5 -20t-83.5 -56.5t-54.5 -86.5t-19.5 -110q0 -58 19.5 -107t55 -84.5t84 -55.5t105.5 -20q58 0 106.5 20t83.5 56t54.5 85.5t19.5 108.5t-19.5 108.5t-54.5 85.5t-83.5 56t-106.5 20zM349 604q65 0 121 -23t96.5 -64.5t63.5 -97.5t23 -122t-23 -122 t-63.5 -97t-96.5 -64.5t-121 -23.5q-66 0 -121.5 23.5t-96 64.5t-63.5 98t-23 124q0 64 23.5 120t64 96.5t96 64t120.5 23.5zM474 124q-24 -14 -48.5 -20.5t-54.5 -6.5q-45 0 -82.5 14.5t-64 40.5t-41 63t-14.5 82t14.5 82t41 63t64 40.5t82.5 14.5q29 0 52.5 -6.5 t48.5 -20.5v-121q-43 41 -95 41q-40 0 -64 -25.5t-24 -67.5t24 -67.5t64 -25.5q56 0 97 41v-121z" />
<glyph unicode="&#xaa;" horiz-adv-x="360" d="M202 392l-24 66l-22 -66h46zM108 261h-108l130 333h100l130 -333h-112l-22 63h-95z" />
<glyph unicode="&#xab;" horiz-adv-x="507" d="M355 215l122 -158h-134l-123 158l123 158h134zM165 215l122 -158h-134l-123 158l123 158h134z" />
<glyph unicode="&#xad;" horiz-adv-x="355" d="M34 324h287v-126h-287v126z" />
<glyph unicode="&#xae;" horiz-adv-x="455" d="M227 569q-32 0 -59 -11.5t-47 -32.5t-31 -49.5t-11 -61.5t11 -61.5t31 -49t47.5 -32t59.5 -11.5q31 0 58.5 12t47 32.5t31 48.5t11.5 61t-11 61.5t-31 49.5t-47.5 32.5t-59.5 11.5zM227 604q40 0 74.5 -14.5t59.5 -40t39.5 -60t14.5 -75.5t-14.5 -75.5t-39.5 -60 t-60 -39.5t-75 -14t-74 14.5t-59 40t-39 60t-14 74.5t14 75t39 60.5t59.5 40t74.5 14.5zM209 420h13q30 0 30 21q0 22 -27 22q-9 0 -14 -2h-2v-41zM209 322h-57v185q37 8 72 8q42 0 65 -18.5t23 -51.5q0 -42 -39 -58l51 -65h-65l-38 54h-12v-54z" />
<glyph unicode="&#xaf;" horiz-adv-x="500" d="M130 618h239v-102h-239v102z" />
<glyph unicode="&#xb0;" horiz-adv-x="306" d="M153 534q-24 0 -39 -15.5t-15 -41.5q0 -24 15 -39.5t39 -15.5t39 15.5t15 40.5t-15 40.5t-39 15.5zM153 604q27 0 50.5 -9.5t40.5 -26.5t27 -40t10 -50t-10 -50t-27 -40t-40.5 -26.5t-50.5 -9.5t-50.5 9.5t-41 27t-27 40.5t-9.5 50q0 26 10 49t27 40t40.5 26.5t50.5 9.5z " />
<glyph unicode="&#xb1;" horiz-adv-x="459" d="M50 181h359v-103h-359v103zM178 519h103v-98h128v-103h-128v-98h-103v98h-128v103h128v98z" />
<glyph unicode="&#xb2;" horiz-adv-x="285" d="M272 324v-94h-261v81q39 30 65 52.5t42 40.5t23 32t7 27q0 37 -40 37q-22 0 -46 -10t-47 -28v100q50 38 121 38q59 0 93 -30t34 -82q0 -44 -25 -80.5t-87 -83.5h121z" />
<glyph unicode="&#xb3;" horiz-adv-x="273" d="M22 569q27 17 53 24t58 7q57 0 88 -26t31 -73q0 -32 -17.5 -55t-49.5 -33q73 -21 73 -86q0 -48 -37 -75.5t-102 -27.5q-31 0 -54 6t-52 21v106q45 -40 95 -40q38 0 38 27q0 16 -13.5 21.5t-54.5 5.5v76q33 1 47.5 7.5t14.5 23.5q0 24 -32 24q-42 0 -86 -35v102z" />
<glyph unicode="&#xb4;" horiz-adv-x="500" d="M143 513l85 152h128l-85 -152h-128z" />
<glyph unicode="&#xb5;" horiz-adv-x="522" d="M52 450h142v-268q0 -43 15.5 -59.5t55.5 -16.5q24 0 54 6v338h142v-434q-42 -12 -91.5 -19t-92.5 -7q-28 0 -46.5 2.5t-36.5 10.5v-183h-142v630z" />
<glyph unicode="&#xb6;" horiz-adv-x="519" d="M222 226q-54 2 -89.5 15.5t-64.5 42.5q-48 50 -48 126q0 41 14.5 75t41 58t64 37.5t82.5 13.5h106v-700h-106v332zM362 594h106v-700h-106v700z" />
<glyph unicode="&#xb7;" horiz-adv-x="281" d="M140 352q38 0 64.5 -26.5t26.5 -64.5t-26.5 -64t-64.5 -26q-19 0 -35.5 7t-28.5 19.5t-19 29t-7 35.5q0 37 26.5 63.5t63.5 26.5z" />
<glyph unicode="&#xb8;" horiz-adv-x="500" d="M346 16q0 -49 -20 -94.5t-51 -67.5h-121q38 35 58 76.5t20 85.5h114z" />
<glyph unicode="&#xb9;" horiz-adv-x="217" d="M11 572l173 28v-370h-111v251l-62 -7v98z" />
<glyph unicode="&#xba;" horiz-adv-x="404" d="M202 509q-32 0 -51.5 -23t-19.5 -61t19.5 -61t51.5 -23t51.5 23.5t19.5 61.5q0 37 -20 60t-51 23zM202 604q40 0 73.5 -13.5t57.5 -37t37.5 -56.5t13.5 -72t-13.5 -72t-37.5 -57t-57.5 -37.5t-73.5 -13.5t-73.5 13.5t-57.5 37.5t-37.5 57.5t-13.5 73.5q0 38 13.5 70.5 t38 56t58 37t72.5 13.5z" />
<glyph unicode="&#xbb;" horiz-adv-x="507" d="M220 373h134l123 -158l-123 -158h-134l122 158zM30 373h134l123 -158l-123 -158h-134l122 158z" />
<glyph unicode="&#xbc;" horiz-adv-x="739" d="M471 594h94l-357 -594h-94zM453 152h80v99zM637 152h52v-80h-52v-72h-104v72h-167v80l167 212h104v-212zM40 572l173 28v-370h-111v251l-62 -7v98z" />
<glyph unicode="&#xbd;" horiz-adv-x="751" d="M471 594h94l-357 -594h-94zM701 94v-94h-261v81q39 30 65 52.5t42 40.5t23 32t7 27q0 37 -40 37q-22 0 -46 -10t-47 -28v100q50 38 121 38q59 0 93 -30t34 -82q0 -44 -25 -80.5t-87 -83.5h121zM40 572l173 28v-370h-111v251l-62 -7v98z" />
<glyph unicode="&#xbe;" horiz-adv-x="778" d="M59 569q27 17 53 24t58 7q57 0 88 -26t31 -73q0 -32 -17.5 -55t-49.5 -33q73 -21 73 -86q0 -48 -37 -75.5t-102 -27.5q-31 0 -54 6t-52 21v106q45 -40 95 -40q38 0 38 27q0 16 -13.5 21.5t-54.5 5.5v76q33 1 47.5 7.5t14.5 23.5q0 24 -32 24q-42 0 -86 -35v102zM492 152 h80v99zM676 152h52v-80h-52v-72h-104v72h-167v80l167 212h104v-212zM516 594h94l-357 -594h-94z" />
<glyph unicode="&#xbf;" horiz-adv-x="382" d="M233 604q37 0 62.5 -26t25.5 -63q0 -19 -7 -36t-19 -29.5t-28 -19.5t-34 -7q-20 0 -36.5 7t-29.5 19.5t-20 29.5t-7 36q0 38 27 63.5t66 25.5zM372 48q-70 -58 -172 -58q-89 0 -137 43.5t-48 124.5q0 135 152 177v55h131v-123q-23 -6 -39 -11t-27.5 -8.5t-19.5 -7 t-15 -6.5q-40 -21 -40 -60q0 -55 66 -55q18 0 34 3t33.5 10.5t37.5 19.5t44 30v-134z" />
<glyph unicode="&#xc0;" horiz-adv-x="641" d="M252 234h132l-66 164zM278 571l-84 109h128l84 -109h-128zM433 113h-229l-45 -113h-159l229 554h181l229 -554h-160z" />
<glyph unicode="&#xc1;" horiz-adv-x="641" d="M252 234h132l-66 164zM244 571l84 109h128l-84 -109h-128zM433 113h-229l-45 -113h-159l229 554h181l229 -554h-160z" />
<glyph unicode="&#xc2;" horiz-adv-x="641" d="M473 574h-112l-43 34l-43 -34h-112l107 106h96zM252 234h132l-66 164zM433 113h-229l-45 -113h-159l229 554h181l229 -554h-160z" />
<glyph unicode="&#xc3;" horiz-adv-x="641" d="M256 234h124l-62 149zM431 113h-225l-47 -113h-159l229 534h181l229 -534h-160zM471 666q0 -57 -24 -85.5t-68 -28.5q-16 0 -29.5 5t-31.5 18q-12 9 -19 12t-15 3q-25 0 -26 -34h-87q0 51 24 82.5t68 31.5q16 0 29.5 -5t31.5 -18q13 -9 20 -12t15 -3q14 0 19.5 7.5 t5.5 26.5h87z" />
<glyph unicode="&#xc4;" horiz-adv-x="641" d="M264 234h107l-53 129zM187 640q25 0 43.5 -18t18.5 -44t-18.5 -44t-44.5 -18t-43.5 18t-17.5 44t18 44t44 18zM461 640q26 0 44.5 -18t18.5 -44t-18.5 -44t-45.5 -18q-25 0 -42.5 18t-17.5 44t18 44t43 18zM424 113h-212l-48 -113h-164l229 514h181l229 -514h-166z" />
<glyph unicode="&#xc5;" horiz-adv-x="641" d="M319 604q-17 0 -27.5 -11t-10.5 -28q0 -18 10.5 -29t27.5 -11t28 11t11 29q0 17 -11 28t-28 11zM264 234h107l-53 124zM319 664q47 0 75.5 -27.5t28.5 -71.5q0 -28 -13 -52l229 -513h-166l-49 113h-212l-48 -113h-164l229 513q-13 22 -13 53q0 43 29 70.5t74 27.5z" />
<glyph unicode="&#xc6;" horiz-adv-x="868" d="M424 486l-138 -252h138v252zM219 113l-62 -113h-157l328 594h489v-131h-246v-102h224v-128h-224v-102h253v-131h-400v113h-205z" />
<glyph unicode="&#xc7;" horiz-adv-x="551" d="M512 114q-33 -20 -66.5 -30t-75.5 -13q-2 -20 -16.5 -43.5t-33.5 -37.5h-121q8 7 17.5 17.5t18 22t14.5 24.5t7 25q-104 23 -164 90.5t-60 167.5q0 56 22.5 104.5t63 84.5t97.5 57t126 21q48 0 85 -9t74 -29v-159q-66 63 -159 63q-72 0 -114 -34t-42 -99t44 -99t120 -34 q46 0 82 13.5t81 48.5v-152z" />
<glyph unicode="&#xc8;" horiz-adv-x="505" d="M461 131v-131h-400v554h393v-131h-246v-82h224v-128h-224v-82h253zM227 571l-84 109h128l84 -109h-128z" />
<glyph unicode="&#xc9;" horiz-adv-x="505" d="M461 131v-131h-400v514h393v-131h-246v-62h224v-128h-224v-62h253zM183 531l84 109h128l-84 -109h-128z" />
<glyph unicode="&#xca;" horiz-adv-x="505" d="M461 131v-131h-400v554h393v-131h-246v-82h224v-128h-224v-82h253zM418 574h-112l-43 34l-43 -34h-112l107 106h96z" />
<glyph unicode="&#xcb;" horiz-adv-x="505" d="M337 680q26 0 44.5 -18t18.5 -44t-18.5 -44t-45.5 -18q-25 0 -42.5 18t-17.5 44t18 44t43 18zM197 680q25 0 43.5 -18t18.5 -44t-18.5 -44t-44.5 -18t-43.5 18t-17.5 44t18 44t44 18zM461 131v-131h-400v544h393v-131h-246v-77h224v-128h-224v-77h253z" />
<glyph unicode="&#xcc;" horiz-adv-x="271" d="M82 574l-84 106h128l84 -106h-128zM210 0h-149v554h149v-554z" />
<glyph unicode="&#xcd;" horiz-adv-x="271" d="M63 574l84 106h128l-84 -106h-128zM210 0h-149v554h149v-554z" />
<glyph unicode="&#xce;" horiz-adv-x="271" d="M292 574h-112l-43 34l-43 -34h-112l107 106h96zM210 0h-149v554h149v-554z" />
<glyph unicode="&#xcf;" horiz-adv-x="271" d="M207 680q26 0 44.5 -18t18.5 -44t-18.5 -44t-45.5 -18q-25 0 -42.5 18t-17.5 44t18 44t43 18zM67 680q25 0 43.5 -18t18.5 -44t-18.5 -44t-44.5 -18t-43.5 18t-17.5 44t18 44t44 18zM210 0h-149v544h149v-544z" />
<glyph unicode="&#xd0;" horiz-adv-x="636" d="M221 125q30 -3 62 -3q81 0 124.5 46t43.5 133q0 80 -44.5 123t-126.5 43q-29 0 -59 -3v-107h108v-120h-108v-112zM20 237v120h52v232q47 7 99 11t96 4q161 0 249 -78.5t88 -224.5q0 -151 -88.5 -230t-257.5 -79q-55 0 -103 3.5t-83 10.5v231h-52z" />
<glyph unicode="&#xd1;" horiz-adv-x="655" d="M481 636q0 -62 -24 -88t-68 -26q-16 0 -29.5 5t-31.5 18q-12 9 -19 12t-15 3q-25 0 -26 -34h-87q0 57 24 85.5t68 28.5q16 0 29.5 -5t31.5 -18q13 -9 20 -12t15 -3q14 0 19.5 7.5t5.5 26.5h87zM450 226v288h144v-514h-141l-248 300v-300h-144v514h160z" />
<glyph unicode="&#xd2;" horiz-adv-x="653" d="M296 574l-84 106h128l84 -106h-128zM326 430q-30 0 -56 -11.5t-44.5 -31.5t-29.5 -48t-11 -62t11 -62t29.5 -48.5t44.5 -31.5t56 -11t56 11t45 31.5t29.5 49t10.5 63.5q0 33 -11 60.5t-29.5 48t-44.5 31.5t-56 11zM326 564q63 0 116.5 -21.5t93.5 -60t62.5 -91 t22.5 -114.5t-22.5 -114.5t-62.5 -91t-93.5 -60t-116.5 -21.5t-116.5 22t-93 60.5t-62 91.5t-22.5 116q0 61 22.5 113t62.5 90t93.5 59.5t115.5 21.5z" />
<glyph unicode="&#xd3;" horiz-adv-x="653" d="M242 574l84 106h128l-84 -106h-128zM326 430q-30 0 -56 -11.5t-44.5 -31.5t-29.5 -48t-11 -62t11 -62t29.5 -48.5t44.5 -31.5t56 -11t56 11t45 31.5t29.5 49t10.5 63.5q0 33 -11 60.5t-29.5 48t-44.5 31.5t-56 11zM326 564q63 0 116.5 -21.5t93.5 -60t62.5 -91 t22.5 -114.5t-22.5 -114.5t-62.5 -91t-93.5 -60t-116.5 -21.5t-116.5 22t-93 60.5t-62 91.5t-22.5 116q0 61 22.5 113t62.5 90t93.5 59.5t115.5 21.5z" />
<glyph unicode="&#xd4;" horiz-adv-x="653" d="M481 574h-112l-43 34l-43 -34h-112l107 106h96zM326 430q-30 0 -56 -11.5t-44.5 -31.5t-29.5 -48t-11 -62t11 -62t29.5 -48.5t44.5 -31.5t56 -11t56 11t45 31.5t29.5 49t10.5 63.5q0 33 -11 60.5t-29.5 48t-44.5 31.5t-56 11zM326 564q63 0 116.5 -21.5t93.5 -60 t62.5 -91t22.5 -114.5t-22.5 -114.5t-62.5 -91t-93.5 -60t-116.5 -21.5t-116.5 22t-93 60.5t-62 91.5t-22.5 116q0 61 22.5 113t62.5 90t93.5 59.5t115.5 21.5z" />
<glyph unicode="&#xd5;" horiz-adv-x="653" d="M471 676q-1 -33 -7 -53.5t-18 -32.5t-28.5 -16t-38.5 -4q-16 0 -30 5.5t-24 12.5q-11 8 -21.5 10t-13.5 2q-18 0 -24.5 -8t-7.5 -26h-87q2 66 25 90t67 24q16 0 29.5 -5t31.5 -18q13 -9 20 -12t15 -3q14 0 19.5 7.5t5.5 26.5h87zM326 430q-30 0 -56 -11.5t-44.5 -31.5 t-29.5 -48t-11 -62t11 -62t29.5 -48.5t44.5 -31.5t56 -11t56 11t45 31.5t29.5 49t10.5 63.5q0 33 -11 60.5t-29.5 48t-44.5 31.5t-56 11zM326 564q63 0 116.5 -21.5t93.5 -60t62.5 -91t22.5 -114.5t-22.5 -114.5t-62.5 -91t-93.5 -60t-116.5 -21.5t-116.5 22t-93 60.5 t-62 91.5t-22.5 116q0 61 22.5 113t62.5 90t93.5 59.5t115.5 21.5z" />
<glyph unicode="&#xd6;" horiz-adv-x="613" d="M167 640q25 0 43.5 -18t18.5 -44t-18.5 -44t-44.5 -18t-43.5 18t-17.5 44t18 44t44 18zM441 640q26 0 44.5 -18t18.5 -44t-18.5 -44t-45.5 -18q-25 0 -42.5 18t-17.5 44t18 44t43 18zM306 390q-26 0 -48 -10t-38.5 -27.5t-25.5 -42t-9 -53.5t9 -53.5t25.5 -42t38.5 -27.5 t48 -10q53 0 87 37t34 98q0 28 -9 52.5t-25.5 41.5t-38.5 27t-48 10zM306 524q58 0 108.5 -20t87.5 -55.5t58 -84.5t21 -107t-21 -107t-58 -84.5t-87.5 -55.5t-108.5 -20q-59 0 -109 20.5t-86.5 56.5t-57.5 85.5t-21 107.5q0 57 21 105t58 83.5t87 55.5t108 20z" />
<glyph unicode="&#xd7;" horiz-adv-x="398" d="M30 391l70 70l99 -99l99 99l70 -70l-99 -99l99 -99l-70 -70l-99 99l-99 -99l-70 70l99 99z" />
<glyph unicode="&#xd8;" horiz-adv-x="695" d="M427 453q-19 11 -37.5 16t-41.5 5q-35 0 -64.5 -13.5t-51 -37t-33.5 -56t-12 -71.5q0 -27 5.5 -50t17.5 -46zM267 140q37 -20 79 -20q35 0 64.5 13t51 36.5t33.5 56t12 71.5q0 52 -22 96zM580 504q40 -47 58.5 -96.5t18.5 -110.5q0 -66 -23.5 -122t-65 -97.5t-98 -64.5 t-123.5 -23q-46 0 -86.5 11t-82.5 35l-31 -36h-109l77 89q-40 46 -58.5 96.5t-18.5 111.5q0 66 23.5 122t64.5 97.5t98 64.5t123 23q47 0 87 -11t82 -36l32 37h109z" />
<glyph unicode="&#xd9;" horiz-adv-x="614" d="M257 571l-84 109h128l84 -109h-128zM553 21q-24 -7 -54.5 -12.5t-62.5 -9.5t-65 -6.5t-61 -2.5q-125 0 -190.5 57t-65.5 166v341h149v-308q0 -70 26 -101t86 -31q20 0 37.5 1.5t51.5 6.5v432h149v-533z" />
<glyph unicode="&#xda;" horiz-adv-x="614" d="M233 571l84 109h128l-84 -109h-128zM553 21q-24 -7 -54.5 -12.5t-62.5 -9.5t-65 -6.5t-61 -2.5q-125 0 -190.5 57t-65.5 166v341h149v-308q0 -70 26 -101t86 -31q20 0 37.5 1.5t51.5 6.5v432h149v-533z" />
<glyph unicode="&#xdb;" horiz-adv-x="614" d="M458 574h-112l-43 34l-43 -34h-112l107 106h96zM553 21q-24 -7 -54.5 -12.5t-62.5 -9.5t-65 -6.5t-61 -2.5q-125 0 -190.5 57t-65.5 166v341h149v-308q0 -70 26 -101t86 -31q20 0 37.5 1.5t51.5 6.5v432h149v-533z" />
<glyph unicode="&#xdc;" horiz-adv-x="614" d="M553 21q-24 -7 -54.5 -12.5t-62.5 -9.5t-65 -6.5t-61 -2.5q-125 0 -190.5 57t-65.5 166v301h149v-268q0 -70 26 -101t86 -31q20 0 37.5 1.5t51.5 6.5v392h149v-493zM371 640q26 0 44.5 -18t18.5 -44t-18.5 -44t-45.5 -18q-25 0 -42.5 18t-17.5 44t18 44t43 18zM231 640 q25 0 43.5 -18t18.5 -44t-18.5 -44t-44.5 -18t-43.5 18t-17.5 44t18 44t44 18z" />
<glyph unicode="&#xdd;" horiz-adv-x="575" d="M205 534l84 106h128l-84 -106h-128zM410 514h165l-214 -338v-176h-148v176l-213 338h164l126 -202z" />
<glyph unicode="&#xde;" horiz-adv-x="526" d="M210 206q8 -1 20 -1.5t25 -0.5q50 0 76 21.5t26 63.5t-26.5 64.5t-75.5 22.5q-26 0 -45 -3v-167zM210 0h-149v594h149v-86q7 1 16 1h18h11q120 0 186 -56.5t66 -159.5t-64.5 -159.5t-179.5 -56.5q-13 0 -26.5 0.5t-26.5 1.5v-79z" />
<glyph unicode="&#xdf;" horiz-adv-x="916" d="M496 178q45 -33 83 -47t81 -14q84 0 84 53q0 12 -4 21t-14 16t-28 13.5t-45 13.5q-91 24 -130 66.5t-39 117.5q0 43 14.5 77.5t42 58.5t66 37t86.5 13q46 0 83 -10t78 -33v-146q-41 32 -78 47t-79 15q-32 0 -50 -12.5t-18 -36.5q0 -12 4 -20.5t15 -16t29.5 -14 t48.5 -14.5q87 -23 125.5 -66t38.5 -117q0 -91 -59.5 -140.5t-167.5 -49.5q-94 0 -167 42v146zM38 178q45 -33 83 -47t81 -14q84 0 84 53q0 12 -4 21t-14 16t-28 13.5t-45 13.5q-91 24 -130 66.5t-39 117.5q0 43 14.5 77.5t42 58.5t66 37t86.5 13q46 0 83 -10t78 -33v-146 q-41 32 -78 47t-79 15q-32 0 -50 -12.5t-18 -36.5q0 -12 4 -20.5t15 -16t29.5 -14t48.5 -14.5q87 -23 125.5 -66t38.5 -117q0 -91 -59.5 -140.5t-167.5 -49.5q-94 0 -167 42v146z" />
<glyph unicode="&#xe0;" horiz-adv-x="641" d="M264 234h107l-53 129zM424 113h-212l-48 -113h-164l229 514h181l229 -514h-166zM278 531l-84 109h128l84 -109h-128z" />
<glyph unicode="&#xe1;" horiz-adv-x="641" d="M264 234h107l-53 129zM424 113h-212l-48 -113h-164l229 514h181l229 -514h-166zM244 531l84 109h128l-84 -109h-128z" />
<glyph unicode="&#xe2;" horiz-adv-x="641" d="M264 234h107l-53 129zM424 113h-212l-48 -113h-164l229 514h181l229 -514h-166zM473 534h-112l-43 34l-43 -34h-112l107 106h96z" />
<glyph unicode="&#xe3;" horiz-adv-x="641" d="M264 234h107l-53 129zM424 113h-212l-48 -113h-164l229 514h181l229 -514h-166zM471 636q0 -57 -24 -85.5t-68 -28.5q-16 0 -29.5 5t-31.5 18q-12 9 -19 12t-15 3q-25 0 -26 -34h-87q0 51 24 82.5t68 31.5q16 0 29.5 -5t31.5 -18q13 -9 20 -12t15 -3q14 0 19.5 7.5 t5.5 26.5h87z" />
<glyph unicode="&#xe4;" horiz-adv-x="641" d="M264 234h107l-53 129zM187 640q25 0 43.5 -18t18.5 -44t-18.5 -44t-44.5 -18t-43.5 18t-17.5 44t18 44t44 18zM461 640q26 0 44.5 -18t18.5 -44t-18.5 -44t-45.5 -18q-25 0 -42.5 18t-17.5 44t18 44t43 18zM424 113h-212l-48 -113h-164l229 514h181l229 -514h-166z" />
<glyph unicode="&#xe5;" horiz-adv-x="641" d="M319 604q-17 0 -27.5 -11t-10.5 -28q0 -18 10.5 -29t27.5 -11t28 11t11 29q0 17 -11 28t-28 11zM264 234h107l-53 124zM319 664q47 0 75.5 -27.5t28.5 -71.5q0 -28 -13 -52l229 -513h-166l-49 113h-212l-48 -113h-164l229 513q-13 22 -13 53q0 43 29 70.5t74 27.5z" />
<glyph unicode="&#xe6;" horiz-adv-x="868" d="M424 486l-138 -252h138v252zM219 113l-62 -113h-157l328 594h489v-131h-246v-102h224v-128h-224v-102h253v-131h-400v113h-205z" />
<glyph unicode="&#xe7;" horiz-adv-x="551" d="M512 114q-33 -20 -66.5 -30t-75.5 -13q-2 -20 -16.5 -43.5t-33.5 -37.5h-121q8 7 17.5 17.5t18 22t14.5 24.5t7 25q-104 23 -164 90.5t-60 167.5q0 56 22.5 104.5t63 84.5t97.5 57t126 21q48 0 85 -9t74 -29v-159q-66 63 -159 63q-72 0 -114 -34t-42 -99t44 -99t120 -34 q46 0 82 13.5t81 48.5v-152z" />
<glyph unicode="&#xe8;" horiz-adv-x="505" d="M461 131v-131h-400v514h393v-131h-246v-62h224v-128h-224v-62h253zM227 531l-84 109h128l84 -109h-128z" />
<glyph unicode="&#xe9;" horiz-adv-x="505" d="M461 131v-131h-400v514h393v-131h-246v-62h224v-128h-224v-62h253zM183 531l84 109h128l-84 -109h-128z" />
<glyph unicode="&#xea;" horiz-adv-x="505" d="M461 131v-131h-400v514h393v-131h-246v-62h224v-128h-224v-62h253zM418 534h-112l-43 34l-43 -34h-112l107 106h96z" />
<glyph unicode="&#xeb;" horiz-adv-x="505" d="M337 640q26 0 44.5 -18t18.5 -44t-18.5 -44t-45.5 -18q-25 0 -42.5 18t-17.5 44t18 44t43 18zM197 640q25 0 43.5 -18t18.5 -44t-18.5 -44t-44.5 -18t-43.5 18t-17.5 44t18 44t44 18zM461 131v-131h-400v504h393v-131h-246v-57h224v-128h-224v-57h253z" />
<glyph unicode="&#xec;" horiz-adv-x="271" d="M82 534l-84 106h128l84 -106h-128zM210 0h-149v514h149v-514z" />
<glyph unicode="&#xed;" horiz-adv-x="271" d="M63 534l84 106h128l-84 -106h-128zM210 0h-149v514h149v-514z" />
<glyph unicode="&#xee;" horiz-adv-x="271" d="M292 534h-112l-43 34l-43 -34h-112l107 106h96zM210 0h-149v514h149v-514z" />
<glyph unicode="&#xef;" horiz-adv-x="271" d="M207 650q26 0 44.5 -18t18.5 -44t-18.5 -44t-45.5 -18q-25 0 -42.5 18t-17.5 44t18 44t43 18zM67 650q25 0 43.5 -18t18.5 -44t-18.5 -44t-44.5 -18t-43.5 18t-17.5 44t18 44t44 18zM210 0h-149v514h149v-514z" />
<glyph unicode="&#xf0;" horiz-adv-x="636" d="M221 125q30 -3 62 -3q81 0 124.5 46t43.5 133q0 80 -44.5 123t-126.5 43q-29 0 -59 -3v-107h108v-120h-108v-112zM20 237v120h52v232q47 7 99 11t96 4q161 0 249 -78.5t88 -224.5q0 -151 -88.5 -230t-257.5 -79q-55 0 -103 3.5t-83 10.5v231h-52z" />
<glyph unicode="&#xf1;" horiz-adv-x="655" d="M481 636q0 -62 -24 -88t-68 -26q-16 0 -29.5 5t-31.5 18q-12 9 -19 12t-15 3q-25 0 -26 -34h-87q0 57 24 85.5t68 28.5q16 0 29.5 -5t31.5 -18q13 -9 20 -12t15 -3q14 0 19.5 7.5t5.5 26.5h87zM450 226v288h144v-514h-141l-248 300v-300h-144v514h160z" />
<glyph unicode="&#xf2;" horiz-adv-x="613" d="M306 390q-26 0 -48 -10t-38.5 -27.5t-25.5 -42t-9 -53.5t9 -53.5t25.5 -42t38.5 -27.5t48 -10q53 0 87 37t34 98q0 28 -9 52.5t-25.5 41.5t-38.5 27t-48 10zM306 524q58 0 108.5 -20t87.5 -55.5t58 -84.5t21 -107t-21 -107t-58 -84.5t-87.5 -55.5t-108.5 -20 q-59 0 -109 20.5t-86.5 56.5t-57.5 85.5t-21 107.5q0 57 21 105t58 83.5t87 55.5t108 20zM286 534l-84 106h128l84 -106h-128z" />
<glyph unicode="&#xf3;" horiz-adv-x="613" d="M306 390q-26 0 -48 -10t-38.5 -27.5t-25.5 -42t-9 -53.5t9 -53.5t25.5 -42t38.5 -27.5t48 -10q53 0 87 37t34 98q0 28 -9 52.5t-25.5 41.5t-38.5 27t-48 10zM306 524q58 0 108.5 -20t87.5 -55.5t58 -84.5t21 -107t-21 -107t-58 -84.5t-87.5 -55.5t-108.5 -20 q-59 0 -109 20.5t-86.5 56.5t-57.5 85.5t-21 107.5q0 57 21 105t58 83.5t87 55.5t108 20zM242 534l84 106h128l-84 -106h-128z" />
<glyph unicode="&#xf4;" horiz-adv-x="613" d="M306 390q-26 0 -48 -10t-38.5 -27.5t-25.5 -42t-9 -53.5t9 -53.5t25.5 -42t38.5 -27.5t48 -10q53 0 87 37t34 98q0 28 -9 52.5t-25.5 41.5t-38.5 27t-48 10zM306 524q58 0 108.5 -20t87.5 -55.5t58 -84.5t21 -107t-21 -107t-58 -84.5t-87.5 -55.5t-108.5 -20 q-59 0 -109 20.5t-86.5 56.5t-57.5 85.5t-21 107.5q0 57 21 105t58 83.5t87 55.5t108 20zM461 534h-112l-43 34l-43 -34h-112l107 106h96z" />
<glyph unicode="&#xf5;" horiz-adv-x="613" d="M306 390q-26 0 -48 -10t-38.5 -27.5t-25.5 -42t-9 -53.5t9 -53.5t25.5 -42t38.5 -27.5t48 -10q53 0 87 37t34 98q0 28 -9 52.5t-25.5 41.5t-38.5 27t-48 10zM306 524q58 0 108.5 -20t87.5 -55.5t58 -84.5t21 -107t-21 -107t-58 -84.5t-87.5 -55.5t-108.5 -20 q-59 0 -109 20.5t-86.5 56.5t-57.5 85.5t-21 107.5q0 57 21 105t58 83.5t87 55.5t108 20zM471 636q-1 -33 -7 -53.5t-18 -32.5t-28.5 -16t-38.5 -4q-16 0 -30 5.5t-24 12.5q-11 8 -21.5 10t-13.5 2q-18 0 -24.5 -8t-7.5 -26h-87q2 66 25 90t67 24q16 0 29.5 -5t31.5 -18 q13 -9 20 -12t15 -3q14 0 19.5 7.5t5.5 26.5h87z" />
<glyph unicode="&#xf6;" horiz-adv-x="613" d="M167 640q25 0 43.5 -18t18.5 -44t-18.5 -44t-44.5 -18t-43.5 18t-17.5 44t18 44t44 18zM441 640q26 0 44.5 -18t18.5 -44t-18.5 -44t-45.5 -18q-25 0 -42.5 18t-17.5 44t18 44t43 18zM306 390q-26 0 -48 -10t-38.5 -27.5t-25.5 -42t-9 -53.5t9 -53.5t25.5 -42t38.5 -27.5 t48 -10q53 0 87 37t34 98q0 28 -9 52.5t-25.5 41.5t-38.5 27t-48 10zM306 524q58 0 108.5 -20t87.5 -55.5t58 -84.5t21 -107t-21 -107t-58 -84.5t-87.5 -55.5t-108.5 -20q-59 0 -109 20.5t-86.5 56.5t-57.5 85.5t-21 107.5q0 57 21 105t58 83.5t87 55.5t108 20z" />
<glyph unicode="&#xf7;" horiz-adv-x="459" d="M229 523q29 0 49.5 -20.5t20.5 -49.5q0 -28 -20.5 -48.5t-49.5 -20.5q-28 0 -48.5 20.5t-20.5 49.5q0 28 20.5 48.5t48.5 20.5zM229 201q29 0 49.5 -20.5t20.5 -49.5q0 -28 -20.5 -48.5t-49.5 -20.5q-28 0 -48.5 20.5t-20.5 49.5q0 28 20.5 48.5t48.5 20.5zM40 344h379 v-103h-379v103z" />
<glyph unicode="&#xf8;" horiz-adv-x="695" d="M427 453q-19 11 -37.5 16t-41.5 5q-35 0 -64.5 -13.5t-51 -37t-33.5 -56t-12 -71.5q0 -27 5.5 -50t17.5 -46zM267 140q37 -20 79 -20q35 0 64.5 13t51 36.5t33.5 56t12 71.5q0 52 -22 96zM580 504q40 -47 58.5 -96.5t18.5 -110.5q0 -66 -23.5 -122t-65 -97.5t-98 -64.5 t-123.5 -23q-46 0 -86.5 11t-82.5 35l-31 -36h-109l77 89q-40 46 -58.5 96.5t-18.5 111.5q0 66 23.5 122t64.5 97.5t98 64.5t123 23q47 0 87 -11t82 -36l32 37h109z" />
<glyph unicode="&#xf9;" horiz-adv-x="614" d="M257 531l-84 109h128l84 -109h-128zM553 21q-24 -7 -54.5 -12.5t-62.5 -9.5t-65 -6.5t-61 -2.5q-125 0 -190.5 57t-65.5 166v301h149v-268q0 -70 26 -101t86 -31q20 0 37.5 1.5t51.5 6.5v392h149v-493z" />
<glyph unicode="&#xfa;" horiz-adv-x="614" d="M233 531l84 109h128l-84 -109h-128zM553 21q-24 -7 -54.5 -12.5t-62.5 -9.5t-65 -6.5t-61 -2.5q-125 0 -190.5 57t-65.5 166v301h149v-268q0 -70 26 -101t86 -31q20 0 37.5 1.5t51.5 6.5v392h149v-493z" />
<glyph unicode="&#xfb;" horiz-adv-x="614" d="M458 534h-112l-43 34l-43 -34h-112l107 106h96zM553 21q-24 -7 -54.5 -12.5t-62.5 -9.5t-65 -6.5t-61 -2.5q-125 0 -190.5 57t-65.5 166v301h149v-268q0 -70 26 -101t86 -31q20 0 37.5 1.5t51.5 6.5v392h149v-493z" />
<glyph unicode="&#xfc;" horiz-adv-x="614" d="M553 21q-24 -7 -54.5 -12.5t-62.5 -9.5t-65 -6.5t-61 -2.5q-125 0 -190.5 57t-65.5 166v301h149v-268q0 -70 26 -101t86 -31q20 0 37.5 1.5t51.5 6.5v392h149v-493zM371 640q26 0 44.5 -18t18.5 -44t-18.5 -44t-45.5 -18q-25 0 -42.5 18t-17.5 44t18 44t43 18zM231 640 q25 0 43.5 -18t18.5 -44t-18.5 -44t-44.5 -18t-43.5 18t-17.5 44t18 44t44 18z" />
<glyph unicode="&#xfd;" horiz-adv-x="575" d="M205 534l84 106h128l-84 -106h-128zM410 514h165l-214 -338v-176h-148v176l-213 338h164l126 -202z" />
<glyph unicode="&#xfe;" horiz-adv-x="526" d="M210 206q8 -1 20 -1.5t25 -0.5q50 0 76 21.5t26 63.5t-26.5 64.5t-75.5 22.5q-26 0 -45 -3v-167zM210 0h-149v594h149v-86q7 1 16 1h18h11q120 0 186 -56.5t66 -159.5t-64.5 -159.5t-179.5 -56.5q-13 0 -26.5 0.5t-26.5 1.5v-79z" />
<glyph unicode="&#xff;" horiz-adv-x="575" d="M360 680q26 0 44.5 -18t18.5 -44t-18.5 -44t-45.5 -18q-25 0 -42.5 18t-17.5 44t18 44t43 18zM220 680q25 0 43.5 -18t18.5 -44t-18.5 -44t-44.5 -18t-43.5 18t-17.5 44t18 44t44 18zM410 554h165l-214 -378v-176h-148v176l-213 378h164l126 -236z" />
<glyph unicode="&#x100;" horiz-adv-x="641" d="M264 234h107l-53 129zM424 113h-212l-48 -113h-164l229 514h181l229 -514h-166zM201 640h239v-102h-239v102z" />
<glyph unicode="&#x101;" horiz-adv-x="641" d="M264 234h107l-53 129zM424 113h-212l-48 -113h-164l229 514h181l229 -514h-166zM201 640h239v-102h-239v102z" />
<glyph unicode="&#x102;" horiz-adv-x="641" d="M264 234h107l-53 129zM424 113h-212l-48 -113h-164l229 514h181l229 -514h-166zM456 639q0 -21 -9 -41t-26.5 -36t-43 -25.5t-57.5 -9.5q-33 0 -58 9.5t-42.5 25t-26.5 35.5t-9 42h101q1 -50 35 -50t35 50h101z" />
<glyph unicode="&#x103;" horiz-adv-x="641" d="M264 234h107l-53 129zM424 113h-212l-48 -113h-164l229 514h181l229 -514h-166zM456 639q0 -21 -9 -41t-26.5 -36t-43 -25.5t-57.5 -9.5q-33 0 -58 9.5t-42.5 25.5t-26.5 36t-9 41h101q1 -50 35 -50t35 50h101z" />
<glyph unicode="&#x104;" horiz-adv-x="641" d="M243 234h152l-75 211zM484 83q-16 0 -22.5 -5t-6.5 -13q0 -13 9.5 -16t23.5 -3q15 0 33 5q9 3 19 6v-54q-3 -2 -10.5 -4t-17 -4t-19.5 -3.5t-17 -1.5q-44 0 -62.5 15.5t-18.5 42.5q0 26 14 41.5t30 20.5l-1 3h-240l-41 -113h-157l231 594h179l199 -511h-125z" />
<glyph unicode="&#x105;" horiz-adv-x="641" d="M243 234h152l-75 211zM484 83q-16 0 -22.5 -5t-6.5 -13q0 -13 9.5 -16t23.5 -3q15 0 33 5q9 3 19 6v-54q-3 -2 -10.5 -4t-17 -4t-19.5 -3.5t-17 -1.5q-44 0 -62.5 15.5t-18.5 42.5q0 26 14 41.5t30 20.5l-1 3h-240l-41 -113h-157l231 594h179l199 -511h-125z" />
<glyph unicode="&#x106;" horiz-adv-x="551" d="M268 531l84 109h128l-84 -109h-128zM500 317q-66 63 -159 63q-36 0 -65 -10t-49 -27t-31 -40.5t-11 -50.5t11.5 -50.5t32.5 -40.5t51.5 -27t68.5 -10q46 0 82 13.5t81 48.5v-152q-41 -24 -80 -34t-91 -10q-70 0 -127 17.5t-97.5 51.5t-62.5 82.5t-22 110.5q0 51 22.5 98 t63 83.5t97.5 58.5t126 22q48 0 85 -9t74 -29v-159z" />
<glyph unicode="&#x107;" horiz-adv-x="551" d="M500 317q-66 63 -159 63q-36 0 -65 -10t-49 -27t-31 -40.5t-11 -50.5t11.5 -50.5t32.5 -40.5t51.5 -27t68.5 -10q46 0 82 13.5t81 48.5v-152q-41 -24 -80 -34t-91 -10q-70 0 -127 17.5t-97.5 51.5t-62.5 82.5t-22 110.5q0 51 22.5 98t63 83.5t97.5 58.5t126 22 q48 0 85 -9t74 -29v-159zM268 541l84 109h128l-84 -109h-128z" />
<glyph unicode="&#x108;" horiz-adv-x="551" d="M500 317q-66 63 -159 63q-36 0 -65 -10t-49 -27t-31 -40.5t-11 -50.5t11.5 -50.5t32.5 -40.5t51.5 -27t68.5 -10q46 0 82 13.5t81 48.5v-152q-41 -24 -80 -34t-91 -10q-70 0 -127 17.5t-97.5 51.5t-62.5 82.5t-22 110.5q0 51 22.5 98t63 83.5t97.5 58.5t126 22 q48 0 85 -9t74 -29v-159zM478 534h-112l-43 34l-43 -34h-112l107 106h96z" />
<glyph unicode="&#x109;" horiz-adv-x="551" d="M500 317q-66 63 -159 63q-36 0 -65 -10t-49 -27t-31 -40.5t-11 -50.5t11.5 -50.5t32.5 -40.5t51.5 -27t68.5 -10q46 0 82 13.5t81 48.5v-152q-41 -24 -80 -34t-91 -10q-70 0 -127 17.5t-97.5 51.5t-62.5 82.5t-22 110.5q0 51 22.5 98t63 83.5t97.5 58.5t126 22 q48 0 85 -9t74 -29v-159zM478 534h-112l-43 34l-43 -34h-112l107 106h96z" />
<glyph unicode="&#x10a;" horiz-adv-x="551" d="M500 317q-66 63 -159 63q-36 0 -65 -10t-49 -27t-31 -40.5t-11 -50.5t11.5 -50.5t32.5 -40.5t51.5 -27t68.5 -10q46 0 82 13.5t81 48.5v-152q-41 -24 -80 -34t-91 -10q-70 0 -127 17.5t-97.5 51.5t-62.5 82.5t-22 110.5q0 51 22.5 98t63 83.5t97.5 58.5t126 22 q48 0 85 -9t74 -29v-159zM341 650q25 0 43.5 -18t18.5 -44t-18.5 -44t-44.5 -18t-43.5 18t-17.5 44t18 44t44 18z" />
<glyph unicode="&#x10b;" horiz-adv-x="551" d="M500 317q-66 63 -159 63q-36 0 -65 -10t-49 -27t-31 -40.5t-11 -50.5t11.5 -50.5t32.5 -40.5t51.5 -27t68.5 -10q46 0 82 13.5t81 48.5v-152q-41 -24 -80 -34t-91 -10q-70 0 -127 17.5t-97.5 51.5t-62.5 82.5t-22 110.5q0 51 22.5 98t63 83.5t97.5 58.5t126 22 q48 0 85 -9t74 -29v-159zM341 650q25 0 43.5 -18t18.5 -44t-18.5 -44t-44.5 -18t-43.5 18t-17.5 44t18 44t44 18z" />
<glyph unicode="&#x10c;" horiz-adv-x="551" d="M500 317q-66 63 -159 63q-36 0 -65 -10t-49 -27t-31 -40.5t-11 -50.5t11.5 -50.5t32.5 -40.5t51.5 -27t68.5 -10q46 0 82 13.5t81 48.5v-152q-41 -24 -80 -34t-91 -10q-70 0 -127 17.5t-97.5 51.5t-62.5 82.5t-22 110.5q0 51 22.5 98t63 83.5t97.5 58.5t126 22 q48 0 85 -9t74 -29v-159zM381 534h-96l-107 106h112l43 -34l43 34h112z" />
<glyph unicode="&#x10d;" horiz-adv-x="551" d="M500 317q-66 63 -159 63q-36 0 -65 -10t-49 -27t-31 -40.5t-11 -50.5t11.5 -50.5t32.5 -40.5t51.5 -27t68.5 -10q46 0 82 13.5t81 48.5v-152q-41 -24 -80 -34t-91 -10q-70 0 -127 17.5t-97.5 51.5t-62.5 82.5t-22 110.5q0 51 22.5 98t63 83.5t97.5 58.5t126 22 q48 0 85 -9t74 -29v-159zM381 534h-96l-107 106h112l43 -34l43 34h112z" />
<glyph unicode="&#x10e;" horiz-adv-x="625" d="M345 534h-96l-107 106h112l43 -34l43 34h112zM210 125q30 -3 62 -3q40 0 71.5 10.5t53 28.5t32.5 42.5t11 52.5q0 57 -44.5 89t-126.5 32q-29 0 -59 -3v-249zM61 499q47 7 99 11t97 4q80 0 142.5 -18t105.5 -51.5t65.5 -81t22.5 -107.5q0 -55 -22.5 -103t-66.5 -84 t-108.5 -56.5t-148.5 -20.5q-55 0 -103 3.5t-83 10.5v493z" />
<glyph unicode="&#x10f;" horiz-adv-x="625" d="M345 534h-96l-107 106h112l43 -34l43 34h112zM210 125q30 -3 62 -3q40 0 71.5 10.5t53 28.5t32.5 42.5t11 52.5q0 57 -44.5 89t-126.5 32q-29 0 -59 -3v-249zM61 499q47 7 99 11t97 4q80 0 142.5 -18t105.5 -51.5t65.5 -81t22.5 -107.5q0 -55 -22.5 -103t-66.5 -84 t-108.5 -56.5t-148.5 -20.5q-55 0 -103 3.5t-83 10.5v493z" />
<glyph unicode="&#x110;" horiz-adv-x="636" d="M221 125q30 -3 62 -3q81 0 124.5 46t43.5 133q0 80 -44.5 123t-126.5 43q-29 0 -59 -3v-107h108v-120h-108v-112zM20 237v120h52v232q47 7 99 11t96 4q161 0 249 -78.5t88 -224.5q0 -151 -88.5 -230t-257.5 -79q-55 0 -103 3.5t-83 10.5v231h-52z" />
<glyph unicode="&#x111;" horiz-adv-x="636" d="M221 125q30 -3 62 -3q81 0 124.5 46t43.5 133q0 80 -44.5 123t-126.5 43q-29 0 -59 -3v-107h108v-120h-108v-112zM20 237v120h52v232q47 7 99 11t96 4q161 0 249 -78.5t88 -224.5q0 -151 -88.5 -230t-257.5 -79q-55 0 -103 3.5t-83 10.5v231h-52z" />
<glyph unicode="&#x112;" horiz-adv-x="505" d="M461 131v-131h-400v514h393v-131h-246v-62h224v-128h-224v-62h253zM140 640h239v-102h-239v102z" />
<glyph unicode="&#x113;" horiz-adv-x="505" d="M461 131v-131h-400v514h393v-131h-246v-62h224v-128h-224v-62h253zM140 640h239v-102h-239v102z" />
<glyph unicode="&#x114;" horiz-adv-x="505" d="M461 131v-131h-400v514h393v-131h-246v-62h224v-128h-224v-62h253zM405 639q0 -19 -9 -38.5t-26.5 -35t-43 -25.5t-57.5 -10q-33 0 -58 10t-42.5 25.5t-26.5 35t-9 38.5h101q1 -50 35 -50t35 50h101z" />
<glyph unicode="&#x115;" horiz-adv-x="505" d="M461 131v-131h-400v514h393v-131h-246v-62h224v-128h-224v-62h253zM405 639q0 -19 -9 -38.5t-26.5 -35t-43 -25.5t-57.5 -10q-33 0 -58 10t-42.5 25.5t-26.5 35t-9 38.5h101q1 -50 35 -50t35 50h101z" />
<glyph unicode="&#x116;" horiz-adv-x="505" d="M461 131v-131h-400v514h393v-131h-246v-62h224v-128h-224v-62h253zM262 650q25 0 43.5 -18t18.5 -44t-18.5 -44t-44.5 -18t-43.5 18t-17.5 44t18 44t44 18z" />
<glyph unicode="&#x117;" horiz-adv-x="505" d="M461 131v-131h-400v514h393v-131h-246v-62h224v-128h-224v-62h253zM262 650q25 0 43.5 -18t18.5 -44t-18.5 -44t-44.5 -18t-43.5 18t-17.5 44t18 44t44 18z" />
<glyph unicode="&#x118;" horiz-adv-x="505" d="M461 171v-88h-56q-16 0 -22.5 -5t-6.5 -13q0 -13 9.5 -16t23.5 -3q15 0 33 5q9 3 19 6v-54q-3 -2 -10.5 -4t-17 -4t-19.5 -3.5t-17 -1.5q-44 0 -62.5 15.5t-18.5 42.5q0 11 2.5 19t6.5 16h-26l-43 -43h-195v554h393v-131h-246v-82h224v-128h-224v-82h253z" />
<glyph unicode="&#x119;" horiz-adv-x="505" d="M461 171v-88h-56q-16 0 -22.5 -5t-6.5 -13q0 -13 9.5 -16t23.5 -3q15 0 33 5q9 3 19 6v-54q-3 -2 -10.5 -4t-17 -4t-19.5 -3.5t-17 -1.5q-44 0 -62.5 15.5t-18.5 42.5q0 11 2.5 19t6.5 16h-26l-43 -43h-195v554h393v-131h-246v-82h224v-128h-224v-82h253z" />
<glyph unicode="&#x11a;" horiz-adv-x="505" d="M461 131v-131h-400v514h393v-131h-246v-62h224v-128h-224v-62h253zM320 534h-96l-107 106h112l43 -34l43 34h112z" />
<glyph unicode="&#x11b;" horiz-adv-x="505" d="M461 131v-131h-400v514h393v-131h-246v-62h224v-128h-224v-62h253zM320 534h-96l-107 106h112l43 -34l43 34h112z" />
<glyph unicode="&#x11c;" horiz-adv-x="587" d="M349 124q15 0 29.5 1.5t22.5 3.5v109h146v-203q-38 -22 -91.5 -33.5t-114.5 -11.5q-70 0 -127 21t-97.5 57t-62.5 83.5t-22 100.5t22.5 100.5t63 83.5t97.5 57t126 21q24 0 49 -3t47.5 -8t41.5 -11t31 -13v-159q-28 26 -75 43t-94 17q-36 0 -65 -11t-49 -29t-31 -41 t-11 -47t11.5 -47t32.5 -41t51.5 -29t68.5 -11zM480 534h-112l-43 34l-43 -34h-112l107 106h96z" />
<glyph unicode="&#x11d;" horiz-adv-x="587" d="M349 124q15 0 29.5 1.5t22.5 3.5v109h146v-203q-38 -22 -91.5 -33.5t-114.5 -11.5q-70 0 -127 21t-97.5 57t-62.5 83.5t-22 100.5t22.5 100.5t63 83.5t97.5 57t126 21q24 0 49 -3t47.5 -8t41.5 -11t31 -13v-159q-28 26 -75 43t-94 17q-36 0 -65 -11t-49 -29t-31 -41 t-11 -47t11.5 -47t32.5 -41t51.5 -29t68.5 -11zM480 534h-112l-43 34l-43 -34h-112l107 106h96z" />
<glyph unicode="&#x11e;" horiz-adv-x="587" d="M456 639q0 -19 -9 -38.5t-26.5 -35t-43 -25.5t-57.5 -10q-33 0 -58 10t-42.5 25.5t-26.5 35t-9 38.5h101q1 -50 35 -50t35 50h101zM349 124q15 0 29.5 1.5t22.5 3.5v109h146v-203q-38 -22 -91.5 -33.5t-114.5 -11.5q-70 0 -127 21t-97.5 57t-62.5 83.5t-22 100.5 t22.5 100.5t63 83.5t97.5 57t126 21q24 0 49 -3t47.5 -8t41.5 -11t31 -13v-159q-28 26 -75 43t-94 17q-36 0 -65 -11t-49 -29t-31 -41t-11 -47t11.5 -47t32.5 -41t51.5 -29t68.5 -11z" />
<glyph unicode="&#x11f;" horiz-adv-x="587" d="M456 639q0 -19 -9 -38.5t-26.5 -35t-43 -25.5t-57.5 -10q-33 0 -58 10t-42.5 25.5t-26.5 35t-9 38.5h101q1 -50 35 -50t35 50h101zM349 124q15 0 29.5 1.5t22.5 3.5v109h146v-203q-38 -22 -91.5 -33.5t-114.5 -11.5q-70 0 -127 21t-97.5 57t-62.5 83.5t-22 100.5 t22.5 100.5t63 83.5t97.5 57t126 21q24 0 49 -3t47.5 -8t41.5 -11t31 -13v-159q-28 26 -75 43t-94 17q-36 0 -65 -11t-49 -29t-31 -41t-11 -47t11.5 -47t32.5 -41t51.5 -29t68.5 -11z" />
<glyph unicode="&#x120;" horiz-adv-x="587" d="M349 124q15 0 29.5 1.5t22.5 3.5v109h146v-203q-38 -22 -91.5 -33.5t-114.5 -11.5q-70 0 -127 21t-97.5 57t-62.5 83.5t-22 100.5t22.5 100.5t63 83.5t97.5 57t126 21q24 0 49 -3t47.5 -8t41.5 -11t31 -13v-159q-28 26 -75 43t-94 17q-36 0 -65 -11t-49 -29t-31 -41 t-11 -47t11.5 -47t32.5 -41t51.5 -29t68.5 -11zM342 650q25 0 43.5 -18t18.5 -44t-18.5 -44t-44.5 -18t-43.5 18t-17.5 44t18 44t44 18z" />
<glyph unicode="&#x121;" horiz-adv-x="587" d="M349 124q15 0 29.5 1.5t22.5 3.5v109h146v-203q-38 -22 -91.5 -33.5t-114.5 -11.5q-70 0 -127 21t-97.5 57t-62.5 83.5t-22 100.5t22.5 100.5t63 83.5t97.5 57t126 21q24 0 49 -3t47.5 -8t41.5 -11t31 -13v-159q-28 26 -75 43t-94 17q-36 0 -65 -11t-49 -29t-31 -41 t-11 -47t11.5 -47t32.5 -41t51.5 -29t68.5 -11zM342 650q25 0 43.5 -18t18.5 -44t-18.5 -44t-44.5 -18t-43.5 18t-17.5 44t18 44t44 18z" />
<glyph unicode="&#x122;" horiz-adv-x="587" d="M349 214q15 0 29.5 1.5t22.5 3.5v109h146v-203q-38 -22 -91.5 -33.5t-114.5 -11.5q-70 0 -127 21t-97.5 57t-62.5 83.5t-22 100.5t22.5 100.5t63 83.5t97.5 57t126 21q24 0 49 -3t47.5 -8t41.5 -11t31 -13v-159q-28 26 -75 43t-94 17q-36 0 -65 -11t-49 -29t-31 -41 t-11 -47t11.5 -47t32.5 -41t51.5 -29t68.5 -11zM401 66q0 -10 -3 -24t-11.5 -28.5t-23.5 -28t-40 -21.5h-117q29 25 44 54.5t15 47.5h136z" />
<glyph unicode="&#x123;" horiz-adv-x="587" d="M349 214q15 0 29.5 1.5t22.5 3.5v109h146v-203q-38 -22 -91.5 -33.5t-114.5 -11.5q-70 0 -127 21t-97.5 57t-62.5 83.5t-22 100.5t22.5 100.5t63 83.5t97.5 57t126 21q24 0 49 -3t47.5 -8t41.5 -11t31 -13v-159q-28 26 -75 43t-94 17q-36 0 -65 -11t-49 -29t-31 -41 t-11 -47t11.5 -47t32.5 -41t51.5 -29t68.5 -11zM401 66q0 -10 -3 -24t-11.5 -28.5t-23.5 -28t-40 -21.5h-117q29 25 44 54.5t15 47.5h136z" />
<glyph unicode="&#x124;" horiz-adv-x="658" d="M485 534h-112l-43 34l-43 -34h-112l107 106h96zM448 514h149v-514h-149v189h-238v-189h-149v514h149v-193h238v193z" />
<glyph unicode="&#x125;" horiz-adv-x="658" d="M485 534h-112l-43 34l-43 -34h-112l107 106h96zM448 514h149v-514h-149v189h-238v-189h-149v514h149v-193h238v193z" />
<glyph unicode="&#x126;" horiz-adv-x="678" d="M220 401v-80h238v80h-238zM71 594h149v-83h238v83h149v-83h51v-110h-51v-401h-149v205h-238v-205h-149v401h-51v110h51v83z" />
<glyph unicode="&#x127;" horiz-adv-x="678" d="M220 401v-80h238v80h-238zM71 594h149v-83h238v83h149v-83h51v-110h-51v-401h-149v205h-238v-205h-149v401h-51v110h51v83z" />
<glyph unicode="&#x128;" horiz-adv-x="271" d="M285 636q0 -62 -24 -88t-68 -26q-16 0 -29.5 5t-31.5 18q-12 9 -19 12t-15 3q-25 0 -26 -34h-87q0 57 24 85.5t68 28.5q16 0 29.5 -5t31.5 -18q13 -9 20 -12t15 -3q14 0 19.5 7.5t5.5 26.5h87zM210 0h-149v514h149v-514z" />
<glyph unicode="&#x129;" horiz-adv-x="271" d="M285 636q0 -62 -24 -88t-68 -26q-16 0 -29.5 5t-31.5 18q-12 9 -19 12t-15 3q-25 0 -26 -34h-87q0 57 24 85.5t68 28.5q16 0 29.5 -5t31.5 -18q13 -9 20 -12t15 -3q14 0 19.5 7.5t5.5 26.5h87zM210 0h-149v514h149v-514z" />
<glyph unicode="&#x12a;" horiz-adv-x="271" d="M16 639h239v-102h-239v102zM210 0h-149v514h149v-514z" />
<glyph unicode="&#x12b;" horiz-adv-x="271" d="M16 639h239v-102h-239v102zM210 0h-149v514h149v-514z" />
<glyph unicode="&#x12c;" horiz-adv-x="271" d="M271 639q0 -19 -9 -38.5t-26.5 -35t-43 -25.5t-57.5 -10q-33 0 -58 10t-42.5 25.5t-26.5 35t-9 38.5h101q1 -50 35 -50t35 50h101zM210 0h-149v514h149v-514z" />
<glyph unicode="&#x12d;" horiz-adv-x="271" d="M271 639q0 -19 -9 -38.5t-26.5 -35t-43 -25.5t-57.5 -10q-33 0 -58 10t-42.5 25.5t-26.5 35t-9 38.5h101q1 -50 35 -50t35 50h101zM210 0h-149v514h149v-514z" />
<glyph unicode="&#x12e;" horiz-adv-x="271" d="M210 180q-39 -15 -57 -31.5t-18 -39.5t29 -23q23 0 46 11v-93q-30 -14 -74 -14q-51 0 -79 22.5t-28 64.5q0 63 61 103h-29v414h149v-414z" />
<glyph unicode="&#x12f;" horiz-adv-x="271" d="M210 180q-39 -15 -57 -31.5t-18 -39.5t29 -23q23 0 46 11v-93q-30 -14 -74 -14q-51 0 -79 22.5t-28 64.5q0 63 61 103h-29v414h149v-414z" />
<glyph unicode="&#x130;" horiz-adv-x="271" d="M141 650q25 0 43.5 -18t18.5 -44t-18.5 -44t-44.5 -18t-43.5 18t-17.5 44t18 44t44 18zM210 0h-149v514h149v-514z" />
<glyph unicode="&#x131;" horiz-adv-x="264" d="M203 0h-142v450h142v-450z" />
<glyph unicode="&#x132;" horiz-adv-x="665" d="M291 168q29 -22 54.5 -31.5t55.5 -9.5q33 0 48 13.5t15 42.5v411h149v-428q0 -85 -50.5 -130.5t-143.5 -45.5q-40 0 -69.5 8t-58.5 25v145zM210 0h-149v594h149v-594z" />
<glyph unicode="&#x133;" horiz-adv-x="664" d="M290 168q29 -22 54.5 -31.5t55.5 -9.5q33 0 48 13.5t15 42.5v411h149v-428q0 -85 -50.5 -130.5t-143.5 -45.5q-40 0 -69.5 8t-58.5 25v145zM210 0h-149v594h149v-594z" />
<glyph unicode="&#x134;" horiz-adv-x="394" d="M381 534h-112l-43 34l-43 -34h-112l107 106h96zM20 168q29 -22 54.5 -31.5t55.5 -9.5q33 0 48 13.5t15 42.5v331h149v-348q0 -85 -50.5 -130.5t-143.5 -45.5q-40 0 -69.5 8t-58.5 25v145z" />
<glyph unicode="&#x135;" horiz-adv-x="394" d="M381 534h-112l-43 34l-43 -34h-112l107 106h96zM20 168q29 -22 54.5 -31.5t55.5 -9.5q33 0 48 13.5t15 42.5v331h149v-348q0 -85 -50.5 -130.5t-143.5 -45.5q-40 0 -69.5 8t-58.5 25v145z" />
<glyph unicode="&#x136;" horiz-adv-x="578" d="M61 594h149v-594h-149v594zM394 594h172l-191 -288l204 -306h-175l-15 22q-9 -9 -22 -17t-32 -15h-117q29 25 44 49.5t15 42.5h73l-137 212z" />
<glyph unicode="&#x137;" horiz-adv-x="578" d="M61 594h149v-594h-149v594zM394 594h172l-191 -288l204 -306h-175l-15 22q-9 -9 -22 -17t-32 -15h-117q29 25 44 49.5t15 42.5h73l-137 212z" />
<glyph unicode="&#x138;" horiz-adv-x="526" d="M203 0h-142v450h142v-450zM208 244l149 206h165l-158 -204l162 -246h-161z" />
<glyph unicode="&#x139;" horiz-adv-x="456" d="M67 531l84 109h128l-84 -109h-128zM61 514h149v-383h226v-131h-375v514z" />
<glyph unicode="&#x13a;" horiz-adv-x="456" d="M67 531l84 109h128l-84 -109h-128zM61 514h149v-383h226v-131h-375v514z" />
<glyph unicode="&#x13b;" horiz-adv-x="456" d="M335 122q0 -10 -3 -29t-11.5 -39t-23.5 -38t-40 -26h-117q14 12 25 31t18.5 38.5t11.5 36.5t4 26h136zM61 594h149v-331h226v-131h-375v462z" />
<glyph unicode="&#x13c;" horiz-adv-x="456" d="M335 122q0 -10 -3 -29t-11.5 -39t-23.5 -38t-40 -26h-117q14 12 25 31t18.5 38.5t11.5 36.5t4 26h136zM61 594h149v-331h226v-131h-375v462z" />
<glyph unicode="&#x13d;" horiz-adv-x="456" d="M375 427h-112l47 167h112zM61 594h149v-463h226v-131h-375v594z" />
<glyph unicode="&#x13e;" horiz-adv-x="456" d="M375 427h-112l47 167h112zM61 594h149v-463h226v-131h-375v594z" />
<glyph unicode="&#x13f;" horiz-adv-x="468" d="M349 417q34 0 58 -24t24 -58q0 -33 -24 -57t-58 -24q-33 0 -57 24t-24 57q0 34 23.5 58t57.5 24zM61 594h149v-463h226v-131h-375v594z" />
<glyph unicode="&#x140;" horiz-adv-x="468" d="M349 417q34 0 58 -24t24 -58q0 -33 -24 -57t-58 -24q-33 0 -57 24t-24 57q0 34 23.5 58t57.5 24zM61 594h149v-463h226v-131h-375v594z" />
<glyph unicode="&#x141;" horiz-adv-x="462" d="M15 312l52 19v263h149v-214l127 48v-123l-127 -48v-126h226v-131h-375v208l-52 -19v123z" />
<glyph unicode="&#x142;" horiz-adv-x="462" d="M15 312l52 19v263h149v-214l127 48v-123l-127 -48v-126h226v-131h-375v208l-52 -19v123z" />
<glyph unicode="&#x143;" horiz-adv-x="655" d="M450 226v288h144v-514h-141l-248 300v-300h-144v514h160zM268 531l84 109h128l-84 -109h-128z" />
<glyph unicode="&#x144;" horiz-adv-x="655" d="M450 226v288h144v-514h-141l-248 300v-300h-144v514h160zM268 531l84 109h128l-84 -109h-128z" />
<glyph unicode="&#x145;" horiz-adv-x="655" d="M396 82l-191 275v-357h-144v594h150l239 -364v364h144v-594h-141l-39 56q-6 -18 -22.5 -36.5t-51.5 -29.5h-117q29 25 44 49.5t15 42.5h114z" />
<glyph unicode="&#x146;" horiz-adv-x="655" d="M396 82l-191 275v-357h-144v594h150l239 -364v364h144v-594h-141l-39 56q-6 -18 -22.5 -36.5t-51.5 -29.5h-117q29 25 44 49.5t15 42.5h114z" />
<glyph unicode="&#x147;" horiz-adv-x="655" d="M450 226v288h144v-514h-141l-248 300v-300h-144v514h160zM373 534h-96l-107 106h112l43 -34l43 34h112z" />
<glyph unicode="&#x148;" horiz-adv-x="655" d="M450 226v288h144v-514h-141l-248 300v-300h-144v514h160zM373 534h-96l-107 106h112l43 -34l43 34h112z" />
<glyph unicode="&#x14a;" horiz-adv-x="655" d="M594 142q0 -85 -50.5 -130.5t-143.5 -45.5q-40 0 -69.5 8t-58.5 25v139q29 -22 57 -31.5t58 -9.5l-182 260v-357h-144v594h150l239 -364v364h144v-452z" />
<glyph unicode="&#x14b;" horiz-adv-x="655" d="M594 142q0 -85 -50.5 -130.5t-143.5 -45.5q-40 0 -69.5 8t-58.5 25v139q29 -22 57 -31.5t58 -9.5l-182 260v-357h-144v594h150l239 -364v364h144v-452z" />
<glyph unicode="&#x14c;" horiz-adv-x="613" d="M306 390q-26 0 -48 -10t-38.5 -27.5t-25.5 -42t-9 -53.5t9 -53.5t25.5 -42t38.5 -27.5t48 -10q53 0 87 37t34 98q0 28 -9 52.5t-25.5 41.5t-38.5 27t-48 10zM306 524q58 0 108.5 -20t87.5 -55.5t58 -84.5t21 -107t-21 -107t-58 -84.5t-87.5 -55.5t-108.5 -20 q-59 0 -109 20.5t-86.5 56.5t-57.5 85.5t-21 107.5q0 57 21 105t58 83.5t87 55.5t108 20zM187 639h239v-102h-239v102z" />
<glyph unicode="&#x14d;" horiz-adv-x="613" d="M306 390q-26 0 -48 -10t-38.5 -27.5t-25.5 -42t-9 -53.5t9 -53.5t25.5 -42t38.5 -27.5t48 -10q53 0 87 37t34 98q0 28 -9 52.5t-25.5 41.5t-38.5 27t-48 10zM306 524q58 0 108.5 -20t87.5 -55.5t58 -84.5t21 -107t-21 -107t-58 -84.5t-87.5 -55.5t-108.5 -20 q-59 0 -109 20.5t-86.5 56.5t-57.5 85.5t-21 107.5q0 57 21 105t58 83.5t87 55.5t108 20zM187 639h239v-102h-239v102z" />
<glyph unicode="&#x14e;" horiz-adv-x="613" d="M306 390q-26 0 -48 -10t-38.5 -27.5t-25.5 -42t-9 -53.5t9 -53.5t25.5 -42t38.5 -27.5t48 -10q53 0 87 37t34 98q0 28 -9 52.5t-25.5 41.5t-38.5 27t-48 10zM306 524q58 0 108.5 -20t87.5 -55.5t58 -84.5t21 -107t-21 -107t-58 -84.5t-87.5 -55.5t-108.5 -20 q-59 0 -109 20.5t-86.5 56.5t-57.5 85.5t-21 107.5q0 57 21 105t58 83.5t87 55.5t108 20zM442 639q0 -19 -9 -37.5t-26.5 -33.5t-43 -24t-57.5 -9q-33 0 -58 9t-42.5 24t-26.5 33.5t-9 37.5h101q1 -50 35 -50t35 50h101z" />
<glyph unicode="&#x14f;" horiz-adv-x="613" d="M306 390q-26 0 -48 -10t-38.5 -27.5t-25.5 -42t-9 -53.5t9 -53.5t25.5 -42t38.5 -27.5t48 -10q53 0 87 37t34 98q0 28 -9 52.5t-25.5 41.5t-38.5 27t-48 10zM306 524q58 0 108.5 -20t87.5 -55.5t58 -84.5t21 -107t-21 -107t-58 -84.5t-87.5 -55.5t-108.5 -20 q-59 0 -109 20.5t-86.5 56.5t-57.5 85.5t-21 107.5q0 57 21 105t58 83.5t87 55.5t108 20zM442 639q0 -19 -9 -37.5t-26.5 -33.5t-43 -24t-57.5 -9q-33 0 -58 9t-42.5 24t-26.5 33.5t-9 37.5h101q1 -50 35 -50t35 50h101z" />
<glyph unicode="&#x150;" horiz-adv-x="613" d="M306 390q-26 0 -48 -10t-38.5 -27.5t-25.5 -42t-9 -53.5t9 -53.5t25.5 -42t38.5 -27.5t48 -10q53 0 87 37t34 98q0 28 -9 52.5t-25.5 41.5t-38.5 27t-48 10zM306 524q58 0 108.5 -20t87.5 -55.5t58 -84.5t21 -107t-21 -107t-58 -84.5t-87.5 -55.5t-108.5 -20 q-59 0 -109 20.5t-86.5 56.5t-57.5 85.5t-21 107.5q0 57 21 105t58 83.5t87 55.5t108 20zM324 531l84 109h128l-84 -109h-128zM153 531l84 109h128l-84 -109h-128z" />
<glyph unicode="&#x151;" horiz-adv-x="613" d="M306 390q-26 0 -48 -10t-38.5 -27.5t-25.5 -42t-9 -53.5t9 -53.5t25.5 -42t38.5 -27.5t48 -10q53 0 87 37t34 98q0 28 -9 52.5t-25.5 41.5t-38.5 27t-48 10zM306 524q58 0 108.5 -20t87.5 -55.5t58 -84.5t21 -107t-21 -107t-58 -84.5t-87.5 -55.5t-108.5 -20 q-59 0 -109 20.5t-86.5 56.5t-57.5 85.5t-21 107.5q0 57 21 105t58 83.5t87 55.5t108 20zM324 531l84 109h128l-84 -109h-128zM153 531l84 109h128l-84 -109h-128z" />
<glyph unicode="&#x152;" horiz-adv-x="822" d="M341 464q-35 0 -63.5 -12t-49 -34t-32 -53t-11.5 -68t11.5 -67.5t32 -52.5t49 -34.5t63.5 -12.5h37v334h-37zM341 0q-66 0 -123 22.5t-98 62t-64.5 94t-23.5 118.5t23 118.5t64.5 94t98 62t123.5 22.5h430v-131h-246v-102h224v-128h-224v-102h253v-131h-437z" />
<glyph unicode="&#x153;" horiz-adv-x="822" d="M341 464q-35 0 -63.5 -12t-49 -34t-32 -53t-11.5 -68t11.5 -67.5t32 -52.5t49 -34.5t63.5 -12.5h37v334h-37zM341 0q-66 0 -123 22.5t-98 62t-64.5 94t-23.5 118.5t23 118.5t64.5 94t98 62t123.5 22.5h430v-131h-246v-102h224v-128h-224v-102h253v-131h-437z" />
<glyph unicode="&#x154;" horiz-adv-x="555" d="M175 531l84 109h128l-84 -109h-128zM209 262h37q53 0 79.5 18t26.5 43q0 27 -26 44.5t-75 17.5q-11 0 -22.5 -0.5t-19.5 -1.5v-121zM209 0h-148v501q39 6 87.5 9.5t96.5 3.5q127 0 192.5 -47t65.5 -138q0 -26 -10 -49t-23.5 -41.5t-27.5 -31t-23 -16.5l136 -191h-175 l-104 140h-67v-140z" />
<glyph unicode="&#x155;" horiz-adv-x="555" d="M175 531l84 109h128l-84 -109h-128zM209 262h37q53 0 79.5 18t26.5 43q0 27 -26 44.5t-75 17.5q-11 0 -22.5 -0.5t-19.5 -1.5v-121zM209 0h-148v501q39 6 87.5 9.5t96.5 3.5q127 0 192.5 -47t65.5 -138q0 -26 -10 -49t-23.5 -41.5t-27.5 -31t-23 -16.5l136 -191h-175 l-104 140h-67v-140z" />
<glyph unicode="&#x156;" horiz-adv-x="555" d="M209 312h37q106 0 106 81q0 40 -26 61t-75 21q-11 0 -22.5 -0.5t-19.5 -1.5v-161zM325 82l-73 108h-43v-190h-148v591q39 6 87.5 9.5t96.5 3.5q127 0 192.5 -52.5t65.5 -152.5q0 -116 -107 -177l159 -222h-175l-7 9q-13 -9 -39 -19h-117q29 25 44 49.5t15 42.5h49z" />
<glyph unicode="&#x157;" horiz-adv-x="555" d="M209 312h37q106 0 106 81q0 40 -26 61t-75 21q-11 0 -22.5 -0.5t-19.5 -1.5v-161zM325 82l-73 108h-43v-190h-148v591q39 6 87.5 9.5t96.5 3.5q127 0 192.5 -52.5t65.5 -152.5q0 -116 -107 -177l159 -222h-175l-7 9q-13 -9 -39 -19h-117q29 25 44 49.5t15 42.5h49z" />
<glyph unicode="&#x158;" horiz-adv-x="555" d="M209 262h37q53 0 79.5 18t26.5 43q0 27 -26 44.5t-75 17.5q-11 0 -22.5 -0.5t-19.5 -1.5v-121zM209 0h-148v501q39 6 87.5 9.5t96.5 3.5q127 0 192.5 -47t65.5 -138q0 -26 -10 -49t-23.5 -41.5t-27.5 -31t-23 -16.5l136 -191h-175l-104 140h-67v-140zM305 534h-96 l-107 106h112l43 -34l43 34h112z" />
<glyph unicode="&#x159;" horiz-adv-x="555" d="M209 262h37q53 0 79.5 18t26.5 43q0 27 -26 44.5t-75 17.5q-11 0 -22.5 -0.5t-19.5 -1.5v-121zM209 0h-148v501q39 6 87.5 9.5t96.5 3.5q127 0 192.5 -47t65.5 -138q0 -26 -10 -49t-23.5 -41.5t-27.5 -31t-23 -16.5l136 -191h-175l-104 140h-67v-140zM305 534h-96 l-107 106h112l43 -34l43 34h112z" />
<glyph unicode="&#x15a;" horiz-adv-x="458" d="M38 178q45 -33 83 -47t81 -14q42 0 63 5.5t21 22.5q0 8 -4 13.5t-14 10t-28 9t-45 11.5q-91 24 -130 66t-39 98q0 29 14.5 58t42 52t66 37t86.5 14q46 0 85.5 -11t75.5 -32v-146q-35 28 -75 45t-82 17q-32 0 -50 -6.5t-18 -17.5q0 -7 4 -12t15 -9.5t29.5 -10t48.5 -13.5 q43 -11 74 -29t51 -40t29.5 -46t9.5 -48q0 -30 -15.5 -60t-44.5 -53t-71 -37.5t-96 -14.5q-94 0 -167 42v146zM141 531l84 109h128l-84 -109h-128z" />
<glyph unicode="&#x15b;" horiz-adv-x="458" d="M38 178q45 -33 83 -47t81 -14q42 0 63 5.5t21 22.5q0 8 -4 13.5t-14 10t-28 9t-45 11.5q-91 24 -130 66t-39 98q0 29 14.5 58t42 52t66 37t86.5 14q46 0 85.5 -11t75.5 -32v-146q-35 28 -75 45t-82 17q-32 0 -50 -6.5t-18 -17.5q0 -7 4 -12t15 -9.5t29.5 -10t48.5 -13.5 q43 -11 74 -29t51 -40t29.5 -46t9.5 -48q0 -30 -15.5 -60t-44.5 -53t-71 -37.5t-96 -14.5q-94 0 -167 42v146zM141 531l84 109h128l-84 -109h-128z" />
<glyph unicode="&#x15c;" horiz-adv-x="458" d="M38 178q45 -33 83 -47t81 -14q42 0 63 5.5t21 22.5q0 8 -4 13.5t-14 10t-28 9t-45 11.5q-91 24 -130 66t-39 98q0 29 14.5 58t42 52t66 37t86.5 14q46 0 85.5 -11t75.5 -32v-146q-35 28 -75 45t-82 17q-32 0 -50 -6.5t-18 -17.5q0 -7 4 -12t15 -9.5t29.5 -10t48.5 -13.5 q43 -11 74 -29t51 -40t29.5 -46t9.5 -48q0 -30 -15.5 -60t-44.5 -53t-71 -37.5t-96 -14.5q-94 0 -167 42v146zM381 534h-112l-43 34l-43 -34h-112l107 106h96z" />
<glyph unicode="&#x15d;" horiz-adv-x="458" d="M38 178q45 -33 83 -47t81 -14q42 0 63 5.5t21 22.5q0 8 -4 13.5t-14 10t-28 9t-45 11.5q-91 24 -130 66t-39 98q0 29 14.5 58t42 52t66 37t86.5 14q46 0 85.5 -11t75.5 -32v-146q-35 28 -75 45t-82 17q-32 0 -50 -6.5t-18 -17.5q0 -7 4 -12t15 -9.5t29.5 -10t48.5 -13.5 q43 -11 74 -29t51 -40t29.5 -46t9.5 -48q0 -30 -15.5 -60t-44.5 -53t-71 -37.5t-96 -14.5q-94 0 -167 42v146zM381 534h-112l-43 34l-43 -34h-112l107 106h96z" />
<glyph unicode="&#x15e;" horiz-adv-x="458" d="M38 268q45 -33 83 -47t81 -14q42 0 63 5.5t21 22.5q0 8 -4 13.5t-14 10t-28 9t-45 11.5q-91 24 -130 66t-39 98q0 29 14.5 58t42 52t66 37t86.5 14q46 0 85.5 -11t75.5 -32v-146q-35 28 -75 45t-82 17q-32 0 -50 -6.5t-18 -17.5q0 -7 4 -12t15 -9.5t29.5 -10t48.5 -13.5 q43 -11 74 -29t51 -40t29.5 -46t9.5 -48q0 -48 -37.5 -91.5t-106.5 -62.5q-2 -12 -6 -27t-13 -29t-22.5 -26t-34.5 -19h-117q21 18 35 44.5t20 48.5q-61 9 -112 39v146z" />
<glyph unicode="&#x15f;" horiz-adv-x="458" d="M38 268q45 -33 83 -47t81 -14q42 0 63 5.5t21 22.5q0 8 -4 13.5t-14 10t-28 9t-45 11.5q-91 24 -130 66t-39 98q0 29 14.5 58t42 52t66 37t86.5 14q46 0 85.5 -11t75.5 -32v-146q-35 28 -75 45t-82 17q-32 0 -50 -6.5t-18 -17.5q0 -7 4 -12t15 -9.5t29.5 -10t48.5 -13.5 q43 -11 74 -29t51 -40t29.5 -46t9.5 -48q0 -48 -37.5 -91.5t-106.5 -62.5q-2 -12 -6 -27t-13 -29t-22.5 -26t-34.5 -19h-117q21 18 35 44.5t20 48.5q-61 9 -112 39v146z" />
<glyph unicode="&#x160;" horiz-adv-x="458" d="M286 534h-96l-107 106h112l43 -34l43 34h112zM38 178q45 -33 83 -47t81 -14q42 0 63 5.5t21 22.5q0 8 -4 13.5t-14 10t-28 9t-45 11.5q-91 24 -130 66t-39 98q0 29 14.5 58t42 52t66 37t86.5 14q46 0 85.5 -11t75.5 -32v-146q-35 28 -75 45t-82 17q-32 0 -50 -6.5 t-18 -17.5q0 -7 4 -12t15 -9.5t29.5 -10t48.5 -13.5q43 -11 74 -29t51 -40t29.5 -46t9.5 -48q0 -30 -15.5 -60t-44.5 -53t-71 -37.5t-96 -14.5q-94 0 -167 42v146z" />
<glyph unicode="&#x161;" horiz-adv-x="458" d="M286 534h-96l-107 106h112l43 -34l43 34h112zM38 178q45 -33 83 -47t81 -14q42 0 63 5.5t21 22.5q0 8 -4 13.5t-14 10t-28 9t-45 11.5q-91 24 -130 66t-39 98q0 29 14.5 58t42 52t66 37t86.5 14q46 0 85.5 -11t75.5 -32v-146q-35 28 -75 45t-82 17q-32 0 -50 -6.5 t-18 -17.5q0 -7 4 -12t15 -9.5t29.5 -10t48.5 -13.5q43 -11 74 -29t51 -40t29.5 -46t9.5 -48q0 -30 -15.5 -60t-44.5 -53t-71 -37.5t-96 -14.5q-94 0 -167 42v146z" />
<glyph unicode="&#x162;" horiz-adv-x="534" d="M335 122q0 -10 -3 -29t-11.5 -39t-23.5 -38t-40 -26h-117q14 12 25 31t18.5 38.5t11.5 36.5t4 26h136zM341 140h-148v323h-178v131h504v-131h-178v-323z" />
<glyph unicode="&#x163;" horiz-adv-x="534" d="M335 122q0 -10 -3 -29t-11.5 -39t-23.5 -38t-40 -26h-117q14 12 25 31t18.5 38.5t11.5 36.5t4 26h136zM341 140h-148v323h-178v131h504v-131h-178v-323z" />
<glyph unicode="&#x164;" horiz-adv-x="534" d="M314 534h-96l-107 106h112l43 -34l43 34h112zM341 0h-148v383h-178v131h504v-131h-178v-383z" />
<glyph unicode="&#x165;" horiz-adv-x="534" d="M314 534h-96l-107 106h112l43 -34l43 34h112zM341 0h-148v383h-178v131h504v-131h-178v-383z" />
<glyph unicode="&#x166;" horiz-adv-x="534" d="M193 463h-178v131h504v-131h-178v-114h100v-122h-100v-227h-148v227h-100v122h100v114z" />
<glyph unicode="&#x167;" horiz-adv-x="534" d="M193 463h-178v131h504v-131h-178v-114h100v-122h-100v-227h-148v227h-100v122h100v114z" />
<glyph unicode="&#x168;" horiz-adv-x="614" d="M461 636q0 -62 -24 -88t-68 -26q-16 0 -29.5 5t-31.5 18q-12 9 -19 12t-15 3q-25 0 -26 -34h-87q0 57 24 85.5t68 28.5q16 0 29.5 -5t31.5 -18q13 -9 20 -12t15 -3q14 0 19.5 7.5t5.5 26.5h87zM553 21q-24 -7 -54.5 -12.5t-62.5 -9.5t-65 -6.5t-61 -2.5q-125 0 -190.5 57 t-65.5 166v301h149v-268q0 -70 26 -101t86 -31q20 0 37.5 1.5t51.5 6.5v392h149v-493z" />
<glyph unicode="&#x169;" horiz-adv-x="614" d="M461 636q0 -62 -24 -88t-68 -26q-16 0 -29.5 5t-31.5 18q-12 9 -19 12t-15 3q-25 0 -26 -34h-87q0 57 24 85.5t68 28.5q16 0 29.5 -5t31.5 -18q13 -9 20 -12t15 -3q14 0 19.5 7.5t5.5 26.5h87zM553 21q-24 -7 -54.5 -12.5t-62.5 -9.5t-65 -6.5t-61 -2.5q-125 0 -190.5 57 t-65.5 166v301h149v-268q0 -70 26 -101t86 -31q20 0 37.5 1.5t51.5 6.5v392h149v-493z" />
<glyph unicode="&#x16a;" horiz-adv-x="614" d="M184 640h239v-102h-239v102zM553 21q-24 -7 -54.5 -12.5t-62.5 -9.5t-65 -6.5t-61 -2.5q-125 0 -190.5 57t-65.5 166v301h149v-268q0 -70 26 -101t86 -31q20 0 37.5 1.5t51.5 6.5v392h149v-493z" />
<glyph unicode="&#x16b;" horiz-adv-x="614" d="M184 640h239v-102h-239v102zM553 21q-24 -7 -54.5 -12.5t-62.5 -9.5t-65 -6.5t-61 -2.5q-125 0 -190.5 57t-65.5 166v301h149v-268q0 -70 26 -101t86 -31q20 0 37.5 1.5t51.5 6.5v392h149v-493z" />
<glyph unicode="&#x16c;" horiz-adv-x="614" d="M440 639q0 -19 -9 -38.5t-26.5 -35t-43 -25.5t-57.5 -10q-33 0 -58 10t-42.5 25.5t-26.5 35t-9 38.5h101q1 -50 35 -50t35 50h101zM553 21q-24 -7 -54.5 -12.5t-62.5 -9.5t-65 -6.5t-61 -2.5q-125 0 -190.5 57t-65.5 166v301h149v-268q0 -70 26 -101t86 -31 q20 0 37.5 1.5t51.5 6.5v392h149v-493z" />
<glyph unicode="&#x16d;" horiz-adv-x="614" d="M440 639q0 -19 -9 -38.5t-26.5 -35t-43 -25.5t-57.5 -10q-33 0 -58 10t-42.5 25.5t-26.5 35t-9 38.5h101q1 -50 35 -50t35 50h101zM553 21q-24 -7 -54.5 -12.5t-62.5 -9.5t-65 -6.5t-61 -2.5q-125 0 -190.5 57t-65.5 166v301h149v-268q0 -70 26 -101t86 -31 q20 0 37.5 1.5t51.5 6.5v392h149v-493z" />
<glyph unicode="&#x16e;" horiz-adv-x="614" d="M303 626q-15 0 -24.5 -9.5t-9.5 -25.5q0 -17 9 -26.5t25 -9.5t25.5 9.5t9.5 26.5q0 16 -9.5 25.5t-25.5 9.5zM303 680q42 0 68 -25t26 -64q0 -40 -26 -65t-68 -25t-67.5 25t-25.5 66q0 38 26 63t67 25zM553 21q-24 -7 -54.5 -12.5t-62.5 -9.5t-65 -6.5t-61 -2.5 q-125 0 -190.5 57t-65.5 166v341h149v-308q0 -70 26 -101t86 -31q20 0 37.5 1.5t51.5 6.5v432h149v-533z" />
<glyph unicode="&#x16f;" horiz-adv-x="614" d="M303 586q-15 0 -24.5 -9.5t-9.5 -25.5q0 -17 9 -26.5t25 -9.5t25.5 9.5t9.5 26.5q0 16 -9.5 25.5t-25.5 9.5zM303 640q42 0 68 -25t26 -64q0 -40 -26 -65t-68 -25t-67.5 25t-25.5 66q0 38 26 63t67 25zM553 21q-24 -7 -54.5 -12.5t-62.5 -9.5t-65 -6.5t-61 -2.5 q-125 0 -190.5 57t-65.5 166v301h149v-268q0 -70 26 -101t86 -31q20 0 37.5 1.5t51.5 6.5v392h149v-493z" />
<glyph unicode="&#x170;" horiz-adv-x="614" d="M323 571l84 109h128l-84 -109h-128zM152 571l84 109h128l-84 -109h-128zM553 21q-24 -7 -54.5 -12.5t-62.5 -9.5t-65 -6.5t-61 -2.5q-125 0 -190.5 57t-65.5 166v341h149v-308q0 -70 26 -101t86 -31q20 0 37.5 1.5t51.5 6.5v432h149v-533z" />
<glyph unicode="&#x171;" horiz-adv-x="614" d="M323 531l84 109h128l-84 -109h-128zM152 531l84 109h128l-84 -109h-128zM553 21q-24 -7 -54.5 -12.5t-62.5 -9.5t-65 -6.5t-61 -2.5q-125 0 -190.5 57t-65.5 166v301h149v-268q0 -70 26 -101t86 -31q20 0 37.5 1.5t51.5 6.5v392h149v-493z" />
<glyph unicode="&#x172;" horiz-adv-x="614" d="M438 113q-8 -1 -20.5 -6t-29.5 -11t-40.5 -10.5t-54.5 -4.5q-112 0 -175.5 57t-63.5 166v290h149v-257q0 -70 24.5 -101t73.5 -31q36 0 61.5 8.5t41.5 16.5v364h149v-511h-69q-16 0 -22.5 -5t-6.5 -13q0 -13 9.5 -16t23.5 -3q15 0 33 5q9 3 19 6v-54q-3 -2 -10.5 -4 t-17 -4t-19.5 -3.5t-17 -1.5q-44 0 -62.5 15.5t-18.5 42.5q0 26 14 41.5t30 20.5z" />
<glyph unicode="&#x173;" horiz-adv-x="614" d="M438 113q-8 -1 -20.5 -6t-29.5 -11t-40.5 -10.5t-54.5 -4.5q-112 0 -175.5 57t-63.5 166v290h149v-257q0 -70 24.5 -101t73.5 -31q36 0 61.5 8.5t41.5 16.5v364h149v-511h-69q-16 0 -22.5 -5t-6.5 -13q0 -13 9.5 -16t23.5 -3q15 0 33 5q9 3 19 6v-54q-3 -2 -10.5 -4 t-17 -4t-19.5 -3.5t-17 -1.5q-44 0 -62.5 15.5t-18.5 42.5q0 26 14 41.5t30 20.5z" />
<glyph unicode="&#x174;" horiz-adv-x="875" d="M595 534h-112l-43 34l-43 -34h-112l107 106h96zM512 514l105 -342l95 342h143l-141 -514h-185l-93 305l-92 -305h-183l-141 514h147l96 -342l103 342h146z" />
<glyph unicode="&#x175;" horiz-adv-x="875" d="M595 534h-112l-43 34l-43 -34h-112l107 106h96zM512 514l105 -342l95 342h143l-141 -514h-185l-93 305l-92 -305h-183l-141 514h147l96 -342l103 342h146z" />
<glyph unicode="&#x176;" horiz-adv-x="575" d="M445 534h-112l-43 34l-43 -34h-112l107 106h96zM406 514h169l-214 -338v-176h-148v176l-213 338h168l122 -196z" />
<glyph unicode="&#x177;" horiz-adv-x="575" d="M445 534h-112l-43 34l-43 -34h-112l107 106h96zM405 514h170l-214 -338v-176h-148v176l-213 338h169l121 -196z" />
<glyph unicode="&#x178;" horiz-adv-x="575" d="M360 680q26 0 44.5 -18t18.5 -44t-18.5 -44t-45.5 -18q-25 0 -42.5 18t-17.5 44t18 44t43 18zM220 680q25 0 43.5 -18t18.5 -44t-18.5 -44t-44.5 -18t-43.5 18t-17.5 44t18 44t44 18zM410 554h165l-214 -378v-176h-148v176l-213 378h164l126 -236z" />
<glyph unicode="&#x179;" horiz-adv-x="510" d="M173 571l84 109h128l-84 -109h-128zM30 554h444v-131l-268 -292h273v-131h-448v131l262 292h-263v131z" />
<glyph unicode="&#x17a;" horiz-adv-x="510" d="M173 531l84 109h128l-84 -109h-128zM30 514h444v-131l-258 -252h263v-131h-448v131l252 252h-253v131z" />
<glyph unicode="&#x17b;" horiz-adv-x="510" d="M267 690q25 0 43.5 -18t18.5 -44t-18.5 -44t-44.5 -18t-43.5 18t-17.5 44t18 44t44 18zM30 554h444v-131l-268 -292h273v-131h-448v131l262 292h-263v131z" />
<glyph unicode="&#x17c;" horiz-adv-x="510" d="M30 514h444v-131l-258 -252h263v-131h-448v131l252 252h-253v131zM267 650q25 0 43.5 -18t18.5 -44t-18.5 -44t-44.5 -18t-43.5 18t-17.5 44t18 44t44 18z" />
<glyph unicode="&#x17d;" horiz-adv-x="510" d="M303 534h-96l-107 106h112l43 -34l43 34h112zM30 514h444v-131l-258 -252h263v-131h-448v131l252 252h-253v131z" />
<glyph unicode="&#x17e;" horiz-adv-x="510" d="M303 534h-96l-107 106h112l43 -34l43 34h112zM30 514h444v-131l-258 -252h263v-131h-448v131l252 252h-253v131z" />
<glyph unicode="&#x192;" horiz-adv-x="384" d="M109 419q28 185 178 185q23 0 40.5 -4t36.5 -13v-136q-15 10 -27.5 14t-28.5 4q-50 0 -59 -57l-12 -80h80v-120h-98l-51 -332h-142l51 332h-57v120h76z" />
<glyph unicode="&#x1fa;" horiz-adv-x="641" d="M319 604q-17 0 -27.5 -11t-10.5 -28q0 -18 10.5 -29t27.5 -11t28 11t11 29q0 17 -11 28t-28 11zM264 234h107l-53 124zM423 555q-2 -12 -5 -22.5t-8 -19.5l229 -513h-166l-49 113h-212l-48 -113h-164l229 513q-13 22 -13 53q0 43 29 70.5t74 27.5q35 0 60 -16t36 -42 l45 58h128l-84 -109h-81z" />
<glyph unicode="&#x1fb;" horiz-adv-x="641" d="M319 604q-17 0 -27.5 -11t-10.5 -28q0 -18 10.5 -29t27.5 -11t28 11t11 29q0 17 -11 28t-28 11zM264 234h107l-53 124zM423 555q-2 -12 -5 -22.5t-8 -19.5l229 -513h-166l-49 113h-212l-48 -113h-164l229 513q-13 22 -13 53q0 43 29 70.5t74 27.5q35 0 60 -16t36 -42 l45 58h128l-84 -109h-81z" />
<glyph unicode="&#x1fc;" horiz-adv-x="868" d="M473 534l84 106h128l-84 -106h-128zM424 446l-125 -212h125v212zM232 113l-75 -113h-157l305 514h512v-131h-246v-56h224v-128h-224v-68h253v-131h-400v113h-192z" />
<glyph unicode="&#x1fd;" horiz-adv-x="868" d="M473 534l84 106h128l-84 -106h-128zM424 446l-125 -212h125v212zM232 113l-75 -113h-157l305 514h512v-131h-246v-56h224v-128h-224v-68h253v-131h-400v113h-192z" />
<glyph unicode="&#x1fe;" horiz-adv-x="613" d="M427 259q0 19 -5 37l-154 -166q18 -6 38 -6q53 0 87 37t34 98zM238 534l84 106h128l-84 -106h-128zM306 390q-26 0 -48 -10t-38.5 -27.5t-25.5 -42t-9 -53.5q0 -45 20 -77l173 186q-32 24 -72 24zM38 0l67 72q-35 36 -54 83.5t-19 104.5t21 105t58 83.5t87 55.5t108 20 q49 0 91.5 -14t77.5 -40l41 44h109l-94 -101q23 -32 36.5 -71.5t13.5 -84.5q0 -58 -21 -107t-58 -84.5t-87.5 -55.5t-108.5 -20q-38 0 -72.5 8.5t-64.5 24.5l-22 -23h-109z" />
<glyph unicode="&#x1ff;" horiz-adv-x="613" d="M427 259q0 19 -5 37l-154 -166q18 -6 38 -6q53 0 87 37t34 98zM238 534l84 106h128l-84 -106h-128zM306 390q-26 0 -48 -10t-38.5 -27.5t-25.5 -42t-9 -53.5q0 -45 20 -77l173 186q-32 24 -72 24zM38 0l67 72q-35 36 -54 83.5t-19 104.5t21 105t58 83.5t87 55.5t108 20 q49 0 91.5 -14t77.5 -40l41 44h109l-94 -101q23 -32 36.5 -71.5t13.5 -84.5q0 -58 -21 -107t-58 -84.5t-87.5 -55.5t-108.5 -20q-38 0 -72.5 8.5t-64.5 24.5l-22 -23h-109z" />
<glyph unicode="&#x218;" horiz-adv-x="458" d="M290 66q0 -10 -3 -24t-11.5 -28.5t-23.5 -28t-40 -21.5h-117q29 25 44 54.5t15 47.5h136zM38 268q45 -33 83 -47t81 -14q42 0 63 5.5t21 22.5q0 8 -4 13.5t-14 10t-28 9t-45 11.5q-91 24 -130 66t-39 98q0 29 14.5 58t42 52t66 37t86.5 14q46 0 85.5 -11t75.5 -32v-146 q-35 28 -75 45t-82 17q-32 0 -50 -6.5t-18 -17.5q0 -7 4 -12t15 -9.5t29.5 -10t48.5 -13.5q43 -11 74 -29t51 -40t29.5 -46t9.5 -48q0 -30 -15.5 -60t-44.5 -53t-71 -37.5t-96 -14.5q-94 0 -167 42v146z" />
<glyph unicode="&#x219;" horiz-adv-x="458" d="M290 66q0 -10 -3 -24t-11.5 -28.5t-23.5 -28t-40 -21.5h-117q29 25 44 54.5t15 47.5h136zM38 268q45 -33 83 -47t81 -14q42 0 63 5.5t21 22.5q0 8 -4 13.5t-14 10t-28 9t-45 11.5q-91 24 -130 66t-39 98q0 29 14.5 58t42 52t66 37t86.5 14q46 0 85.5 -11t75.5 -32v-146 q-35 28 -75 45t-82 17q-32 0 -50 -6.5t-18 -17.5q0 -7 4 -12t15 -9.5t29.5 -10t48.5 -13.5q43 -11 74 -29t51 -40t29.5 -46t9.5 -48q0 -30 -15.5 -60t-44.5 -53t-71 -37.5t-96 -14.5q-94 0 -167 42v146z" />
<glyph unicode="&#x21a;" horiz-adv-x="534" d="M335 122q0 -10 -3 -29t-11.5 -39t-23.5 -38t-40 -26h-117q14 12 25 31t18.5 38.5t11.5 36.5t4 26h136zM341 140h-148v323h-178v131h504v-131h-178v-323z" />
<glyph unicode="&#x21b;" horiz-adv-x="534" d="M335 122q0 -10 -3 -29t-11.5 -39t-23.5 -38t-40 -26h-117q14 12 25 31t18.5 38.5t11.5 36.5t4 26h136zM341 140h-148v323h-178v131h504v-131h-178v-323z" />
<glyph unicode="&#x237;" horiz-adv-x="394" d="M20 168q29 -22 54.5 -31.5t55.5 -9.5q33 0 48 13.5t15 42.5v411h149v-428q0 -85 -50.5 -130.5t-143.5 -45.5q-40 0 -69.5 8t-58.5 25v145z" />
<glyph unicode="&#x2c6;" horiz-adv-x="500" d="M415 507h-112l-53 69l-53 -69h-112l117 158h96z" />
<glyph unicode="&#x2c7;" horiz-adv-x="500" d="M298 507h-96l-117 158h115l50 -73l50 73h115z" />
<glyph unicode="&#x2c9;" horiz-adv-x="500" d="M130 618h239v-102h-239v102z" />
<glyph unicode="&#x2d8;" horiz-adv-x="500" d="M386 655q-2 -40 -11 -64.5t-29 -44.5q-37 -37 -96 -37t-96 37q-20 20 -29 44.5t-11 64.5h101q1 -54 35 -54t35 54h101z" />
<glyph unicode="&#x2d9;" horiz-adv-x="500" d="M249 667q34 0 58 -24t24 -58q0 -33 -24 -57t-58 -24q-33 0 -57 24t-24 57q0 34 23.5 58t57.5 24z" />
<glyph unicode="&#x2da;" horiz-adv-x="500" d="M249 629q-17 0 -27.5 -11t-10.5 -28q0 -18 10.5 -29t27.5 -11t28 11t11 29q0 17 -11 28t-28 11zM249 689q47 0 75.5 -27.5t28.5 -71.5q0 -45 -28.5 -72.5t-75.5 -27.5q-46 0 -74.5 28t-28.5 73q0 43 29 70.5t74 27.5z" />
<glyph unicode="&#x2db;" horiz-adv-x="500" d="M331 12q-65 -40 -65 -83q0 -23 29 -23q23 0 46 11v-93q-30 -14 -74 -14q-51 0 -79 22.5t-28 64.5q0 35 18.5 65t53.5 50h99z" />
<glyph unicode="&#x2dc;" horiz-adv-x="500" d="M400 637q-3 -134 -92 -134q-16 0 -29.5 5t-31.5 18q-12 9 -19 12t-15 3q-25 0 -26 -34h-87q3 134 92 134q16 0 29.5 -5t31.5 -18q13 -9 20 -12t15 -3q14 0 19.5 7.5t5.5 26.5h87z" />
<glyph unicode="&#x2dd;" horiz-adv-x="500" d="M228 513l85 152h116l-85 -152h-116zM71 513l85 152h116l-85 -152h-116z" />
<glyph unicode="&#x387;" horiz-adv-x="281" d="M140 352q38 0 64.5 -26.5t26.5 -64.5t-26.5 -64t-64.5 -26q-19 0 -35.5 7t-28.5 19.5t-19 29t-7 35.5q0 37 26.5 63.5t63.5 26.5z" />
<glyph unicode="&#x394;" horiz-adv-x="641" d="M437 118l-117 337l-121 -337h238zM0 0l231 594h179l231 -594h-641z" />
<glyph unicode="&#x3c0;" horiz-adv-x="553" d="M510 1q-15 -6 -30 -8.5t-35 -2.5q-135 0 -135 140v190h-72v-320h-140v320h-68v130h483v-130h-63v-168q0 -41 27 -41q16 0 33 10v-120z" />
<glyph unicode="&#x1e80;" horiz-adv-x="875" d="M411 534l-84 106h128l84 -106h-128zM512 514l105 -342l95 342h143l-141 -514h-185l-93 305l-92 -305h-183l-141 514h147l96 -342l103 342h146z" />
<glyph unicode="&#x1e81;" horiz-adv-x="875" d="M411 534l-84 106h128l84 -106h-128zM512 514l105 -342l95 342h143l-141 -514h-185l-93 305l-92 -305h-183l-141 514h147l96 -342l103 342h146z" />
<glyph unicode="&#x1e82;" horiz-adv-x="875" d="M347 534l84 106h128l-84 -106h-128zM512 514l105 -342l95 342h143l-141 -514h-185l-93 305l-92 -305h-183l-141 514h147l96 -342l103 342h146z" />
<glyph unicode="&#x1e83;" horiz-adv-x="875" d="M347 534l84 106h128l-84 -106h-128zM512 514l105 -342l95 342h143l-141 -514h-185l-93 305l-92 -305h-183l-141 514h147l96 -342l103 342h146z" />
<glyph unicode="&#x1e84;" horiz-adv-x="875" d="M551 650q25 0 43.5 -18t18.5 -44t-18.5 -44t-44.5 -18t-43.5 18t-17.5 44t18 44t44 18zM330 650q25 0 43.5 -18t18.5 -44t-18.5 -44t-44.5 -18t-43.5 18t-17.5 44t18 44t44 18zM512 514l105 -342l95 342h143l-141 -514h-185l-93 305l-92 -305h-183l-141 514h147l96 -342 l103 342h146z" />
<glyph unicode="&#x1e85;" horiz-adv-x="875" d="M551 650q25 0 43.5 -18t18.5 -44t-18.5 -44t-44.5 -18t-43.5 18t-17.5 44t18 44t44 18zM330 650q25 0 43.5 -18t18.5 -44t-18.5 -44t-44.5 -18t-43.5 18t-17.5 44t18 44t44 18zM512 514l105 -342l95 342h143l-141 -514h-185l-93 305l-92 -305h-183l-141 514h147l96 -342 l103 342h146z" />
<glyph unicode="&#x1ef2;" horiz-adv-x="575" d="M239 534l-84 106h128l84 -106h-128zM405 514h170l-214 -338v-176h-148v176l-213 338h169l121 -196z" />
<glyph unicode="&#x1ef3;" horiz-adv-x="575" d="M239 534l-84 106h128l84 -106h-128zM405 514h170l-214 -338v-176h-148v176l-213 338h169l121 -196z" />
<glyph unicode="&#x200b;" horiz-adv-x="0" />
<glyph unicode="&#x2011;" horiz-adv-x="355" d="M34 324h287v-126h-287v126z" />
<glyph unicode="&#x2012;" horiz-adv-x="572" d="M34 324h504v-107h-504v107z" />
<glyph unicode="&#x2013;" horiz-adv-x="572" d="M34 324h504v-107h-504v107z" />
<glyph unicode="&#x2014;" horiz-adv-x="952" d="M34 324h884v-107h-884v107z" />
<glyph unicode="&#x2015;" horiz-adv-x="952" d="M34 324h884v-107h-884v107z" />
<glyph unicode="&#x2018;" horiz-adv-x="250" d="M47 364q0 75 29.5 138t82.5 102h94q-36 -55 -52.5 -112t-16.5 -128h-137z" />
<glyph unicode="&#x2019;" horiz-adv-x="250" d="M221 604q0 -75 -29.5 -138t-82.5 -102h-94q36 55 52.5 112t16.5 128h137z" />
<glyph unicode="&#x201a;" horiz-adv-x="250" d="M210 230q0 -75 -29.5 -138t-82.5 -102h-94q36 55 52.5 112t16.5 128h137z" />
<glyph unicode="&#x201c;" horiz-adv-x="448" d="M244 364q0 74 29.5 137t82.5 103h94q-35 -54 -51.5 -111t-16.5 -129h-138zM47 364q0 75 29.5 138t82.5 102h94q-36 -55 -52.5 -112t-16.5 -128h-137z" />
<glyph unicode="&#x201d;" horiz-adv-x="448" d="M419 604q0 -75 -29.5 -138t-82.5 -102h-94q35 54 51.5 111t16.5 129h138zM221 604q0 -75 -29.5 -138t-82.5 -102h-94q36 55 52.5 112t16.5 128h137z" />
<glyph unicode="&#x201e;" horiz-adv-x="448" d="M408 230q0 -75 -29.5 -138t-82.5 -102h-94q35 54 51.5 111t16.5 129h138zM210 230q0 -75 -29.5 -138t-82.5 -102h-94q36 55 52.5 112t16.5 128h137z" />
<glyph unicode="&#x2020;" horiz-adv-x="298" d="M20 425v85h81v84h96v-84h81v-85h-81v-183h-96v183h-81z" />
<glyph unicode="&#x2021;" horiz-adv-x="298" d="M20 306v82h83v60h-83v82h83v64h92v-64h83v-82h-83v-60h83v-82h-83v-64h-92v64h-83z" />
<glyph unicode="&#x2022;" horiz-adv-x="344" d="M171 384q25 0 47.5 -9.5t39.5 -26.5t26.5 -39.5t9.5 -47.5t-9.5 -47t-26 -38.5t-39 -26t-48.5 -9.5t-48 9.5t-38 26t-25.5 38.5t-9.5 48q0 25 9.5 47.5t26 39t38.5 26t47 9.5z" />
<glyph unicode="&#x2026;" horiz-adv-x="819" d="M680 173q39 0 66 -27t27 -66q0 -37 -27 -62.5t-66 -25.5q-37 0 -62.5 26t-25.5 62q0 39 25.5 66t62.5 27zM407 173q39 0 66 -27t27 -66q0 -37 -27 -62.5t-66 -25.5q-37 0 -62.5 26t-25.5 62q0 39 25.5 66t62.5 27zM134 173q39 0 66 -27t27 -66q0 -37 -27 -62.5t-66 -25.5 q-37 0 -62.5 26t-25.5 62q0 39 25.5 66t62.5 27z" />
<glyph unicode="&#x2030;" horiz-adv-x="1025" d="M216 0h-94l357 594h94zM852 196q-23 0 -36.5 -14.5t-13.5 -38.5q0 -23 13.5 -37.5t36.5 -14.5t37 14.5t14 38.5q0 23 -14 37.5t-37 14.5zM852 296q33 0 61 -11.5t48.5 -32t32 -49t11.5 -61.5t-11.5 -60.5t-32 -48t-48.5 -32t-61 -11.5t-61 11.5t-48.5 32t-32 48.5 t-11.5 61t11.5 61t32 48.5t48.5 32t61 11.5zM523 196q-23 0 -36.5 -14.5t-13.5 -38.5q0 -23 13.5 -37.5t36.5 -14.5t37 14.5t14 38.5q0 23 -14 37.5t-37 14.5zM523 296q33 0 61 -11.5t48.5 -32t32 -49t11.5 -61.5t-11.5 -60.5t-32 -48t-48.5 -32t-61 -11.5t-61 11.5 t-48.5 32t-32 48.5t-11.5 61t11.5 61t32 48.5t48.5 32t61 11.5zM173 504q-23 0 -36.5 -14.5t-13.5 -38.5q0 -23 13.5 -37.5t36.5 -14.5t37 14.5t14 37.5q0 24 -14 38.5t-37 14.5zM173 604q33 0 61 -11.5t48.5 -32t32 -48.5t11.5 -61t-11.5 -61t-32 -48.5t-48.5 -32 t-61 -11.5t-61 11.5t-48.5 32t-32 49t-11.5 61.5q0 32 11.5 60t32 48.5t48.5 32t61 11.5z" />
<glyph unicode="&#x2039;" horiz-adv-x="317" d="M165 215l122 -158h-134l-123 158l123 158h134z" />
<glyph unicode="&#x203a;" horiz-adv-x="317" d="M30 373h134l123 -158l-123 -158h-134l122 158z" />
<glyph unicode="&#x2044;" horiz-adv-x="201" d="M232 594h94l-357 -594h-94z" />
<glyph unicode="&#x2070;" horiz-adv-x="345" d="M173 504q-22 0 -33.5 -24t-11.5 -69q0 -44 12 -67.5t33 -23.5q22 0 34 24.5t12 69.5q0 42 -12 66t-34 24zM173 600q35 0 63.5 -14t49 -39t32 -60t11.5 -77q0 -41 -11.5 -75t-32.5 -58.5t-49.5 -38.5t-62.5 -14q-35 0 -63.5 14t-49.5 38.5t-32.5 59t-11.5 76.5t11.5 76.5 t32.5 59t49.5 38.5t63.5 14z" />
<glyph unicode="&#x2074;" horiz-adv-x="345" d="M98 382h80v99zM282 382h52v-80h-52v-72h-104v72h-167v80l167 212h104v-212z" />
<glyph unicode="&#x2075;" horiz-adv-x="268" d="M123 465q68 -8 99.5 -36t31.5 -81q0 -57 -38 -90.5t-104 -33.5q-59 0 -99 28v96q26 -19 47 -26.5t45 -7.5q48 0 48 31q0 22 -28.5 33t-93.5 14l15 202h194v-94h-113z" />
<glyph unicode="&#x2076;" horiz-adv-x="318" d="M160 404q-20 0 -31.5 -12.5t-11.5 -34.5q0 -20 11.5 -32.5t31.5 -12.5q21 0 33 12.5t12 33.5t-12 33.5t-33 12.5zM241 594l-51 -85l-24 -32q10 3 21 3q52 0 86 -34t34 -87q0 -30 -11 -54.5t-30.5 -42.5t-47 -28t-59.5 -10t-58 10t-45 27.5t-29.5 42t-10.5 54.5 q0 55 40 120l72 116h113z" />
<glyph unicode="&#x2077;" horiz-adv-x="277" d="M13 500v94h250v-94l-121 -270h-113l121 270h-137z" />
<glyph unicode="&#x2078;" horiz-adv-x="301" d="M151 370q-14 0 -23.5 -9t-9.5 -23t9.5 -23t23.5 -9t23.5 9t9.5 23t-9.5 23t-23.5 9zM151 518q-14 0 -23 -8.5t-9 -21.5q0 -15 9 -23.5t23 -8.5t23 9t9 23q0 13 -9 21.5t-23 8.5zM231 410q57 -24 57 -80q0 -48 -38 -77t-99 -29t-99.5 29.5t-38.5 76.5q0 56 57 80 q-47 29 -47 82q0 48 35.5 78t92.5 30t92 -30t35 -78q0 -55 -47 -82z" />
<glyph unicode="&#x2079;" horiz-adv-x="318" d="M158 513q-20 0 -32.5 -12.5t-12.5 -33.5t12 -33.5t33 -12.5q20 0 31.5 12.5t11.5 34.5q0 20 -11.5 32.5t-31.5 12.5zM77 230l51 86l24 32q-5 -2 -9.5 -2.5t-11.5 -0.5q-26 0 -48 9t-38 25.5t-25 38.5t-9 49q0 29 11 53.5t30.5 42.5t46.5 28t59 10q64 0 103.5 -37.5 t39.5 -97.5q0 -29 -9.5 -58t-29.5 -61l-72 -117h-113z" />
<glyph unicode="&#x2080;" horiz-adv-x="345" d="M173 274q-22 0 -33.5 -24t-11.5 -69q0 -44 12 -67.5t33 -23.5q22 0 34 24.5t12 69.5q0 42 -12 66t-34 24zM173 370q35 0 63.5 -14t49 -39t32 -60t11.5 -77q0 -41 -11.5 -75t-32.5 -58.5t-49.5 -38.5t-62.5 -14q-35 0 -63.5 14t-49.5 38.5t-32.5 59t-11.5 76.5t11.5 76.5 t32.5 59t49.5 38.5t63.5 14z" />
<glyph unicode="&#x2081;" horiz-adv-x="217" d="M11 342l173 28v-370h-111v251l-62 -7v98z" />
<glyph unicode="&#x2082;" horiz-adv-x="285" d="M272 94v-94h-261v81q39 30 65 52.5t42 40.5t23 32t7 27q0 37 -40 37q-22 0 -46 -10t-47 -28v100q50 38 121 38q59 0 93 -30t34 -82q0 -44 -25 -80.5t-87 -83.5h121z" />
<glyph unicode="&#x2083;" horiz-adv-x="273" d="M22 339q27 17 53 24t58 7q57 0 88 -26t31 -73q0 -32 -17.5 -55t-49.5 -33q73 -21 73 -86q0 -48 -37 -75.5t-102 -27.5q-31 0 -54 6t-52 21v106q45 -40 95 -40q38 0 38 27q0 16 -13.5 21.5t-54.5 5.5v76q33 1 47.5 7.5t14.5 23.5q0 24 -32 24q-42 0 -86 -35v102z" />
<glyph unicode="&#x2084;" horiz-adv-x="345" d="M98 152h80v99zM282 152h52v-80h-52v-72h-104v72h-167v80l167 212h104v-212z" />
<glyph unicode="&#x2085;" horiz-adv-x="268" d="M123 235q68 -8 99.5 -36t31.5 -81q0 -57 -38 -90.5t-104 -33.5q-59 0 -99 28v96q26 -19 47 -26.5t45 -7.5q48 0 48 31q0 22 -28.5 33t-93.5 14l15 202h194v-94h-113z" />
<glyph unicode="&#x2086;" horiz-adv-x="318" d="M160 174q-20 0 -31.5 -12.5t-11.5 -34.5q0 -20 11.5 -32.5t31.5 -12.5q21 0 33 12.5t12 33.5t-12 33.5t-33 12.5zM241 364l-51 -85l-24 -32q10 3 21 3q52 0 86 -34t34 -87q0 -30 -11 -54.5t-30.5 -42.5t-47 -28t-59.5 -10t-58 10t-45 27.5t-29.5 42t-10.5 54.5 q0 55 40 120l72 116h113z" />
<glyph unicode="&#x2087;" horiz-adv-x="277" d="M13 270v94h250v-94l-121 -270h-113l121 270h-137z" />
<glyph unicode="&#x2088;" horiz-adv-x="301" d="M151 140q-14 0 -23.5 -9t-9.5 -23t9.5 -23t23.5 -9t23.5 9t9.5 23t-9.5 23t-23.5 9zM151 288q-14 0 -23 -8.5t-9 -21.5q0 -15 9 -23.5t23 -8.5t23 9t9 23q0 13 -9 21.5t-23 8.5zM231 180q57 -24 57 -80q0 -48 -38 -77t-99 -29t-99.5 29.5t-38.5 76.5q0 56 57 80 q-47 29 -47 82q0 48 35.5 78t92.5 30t92 -30t35 -78q0 -55 -47 -82z" />
<glyph unicode="&#x2089;" horiz-adv-x="318" d="M158 283q-20 0 -32.5 -12.5t-12.5 -33.5t12 -33.5t33 -12.5q20 0 31.5 12.5t11.5 34.5q0 20 -11.5 32.5t-31.5 12.5zM77 0l51 86l24 32q-5 -2 -9.5 -2.5t-11.5 -0.5q-26 0 -48 9t-38 25.5t-25 38.5t-9 49q0 29 11 53.5t30.5 42.5t46.5 28t59 10q64 0 103.5 -37.5 t39.5 -97.5q0 -29 -9.5 -58t-29.5 -61l-72 -117h-113z" />
<glyph unicode="&#x20ac;" horiz-adv-x="508" d="M75 391q12 50 35.5 89.5t57.5 67t76.5 42t91.5 14.5q43 0 76.5 -9t65.5 -29v-159q-59 63 -136 63q-80 0 -111 -79h140l-14 -70h-139q-1 -7 -1 -12v-11v-13.5t1 -14.5h131l-14 -70h-102q17 -39 45 -57.5t72 -18.5q19 0 35.5 3t32.5 10.5t33 19t37 29.5v-152 q-36 -24 -71 -34t-81 -10q-100 0 -168 55t-93 155h-60v70h50q-1 7 -1 13.5v14.5v12t1 11h-50v70h60z" />
<glyph unicode="&#x2122;" horiz-adv-x="716" d="M440 317l-48 145l-26 -145h-89l48 277h103l48 -161l45 161h103l47 -277h-88l-29 145l-45 -145h-69zM192 317h-89v196h-83v81h255v-81h-83v-196z" />
<glyph unicode="&#x2126;" horiz-adv-x="596" d="M329 154q47 32 68.5 76.5t21.5 107.5q0 69 -33 110.5t-87 41.5q-56 0 -89 -41.5t-33 -111.5q0 -63 21.5 -107t68.5 -76v-154h-224v126h99q-48 33 -75 91t-27 127q0 59 18.5 107t52 82t81 52.5t106.5 18.5q58 0 106 -18.5t81.5 -52.5t52 -82t18.5 -107q0 -69 -27 -127 t-75 -91h99v-126h-224v154z" />
<glyph unicode="&#x2153;" horiz-adv-x="743" d="M471 594h94l-357 -594h-94zM457 339q27 17 53 24t58 7q57 0 88 -26t31 -73q0 -32 -17.5 -55t-49.5 -33q73 -21 73 -86q0 -48 -37 -75.5t-102 -27.5q-31 0 -54 6t-52 21v106q45 -40 95 -40q38 0 38 27q0 16 -13.5 21.5t-54.5 5.5v76q33 1 47.5 7.5t14.5 23.5q0 24 -32 24 q-42 0 -86 -35v102zM40 572l173 28v-370h-111v251l-62 -7v98z" />
<glyph unicode="&#x2154;" horiz-adv-x="828" d="M556 594h94l-357 -594h-94zM542 339q27 17 53 24t58 7q57 0 88 -26t31 -73q0 -32 -17.5 -55t-49.5 -33q73 -21 73 -86q0 -48 -37 -75.5t-102 -27.5q-31 0 -54 6t-52 21v106q45 -40 95 -40q38 0 38 27q0 16 -13.5 21.5t-54.5 5.5v76q33 1 47.5 7.5t14.5 23.5q0 24 -32 24 q-42 0 -86 -35v102zM311 324v-94h-261v81q39 30 65 52.5t42 40.5t23 32t7 27q0 37 -40 37q-22 0 -46 -10t-47 -28v100q50 38 121 38q59 0 93 -30t34 -82q0 -44 -25 -80.5t-87 -83.5h121z" />
<glyph unicode="&#x215b;" horiz-adv-x="748" d="M471 594h94l-357 -594h-94zM561 140q-14 0 -23.5 -9t-9.5 -23t9.5 -23t23.5 -9t23.5 9t9.5 23t-9.5 23t-23.5 9zM561 288q-14 0 -23 -8.5t-9 -21.5q0 -15 9 -23.5t23 -8.5t23 9t9 23q0 13 -9 21.5t-23 8.5zM641 180q57 -24 57 -80q0 -48 -38 -77t-99 -29t-99.5 29.5 t-38.5 76.5q0 56 57 80q-47 29 -47 82q0 48 35.5 78t92.5 30t92 -30t35 -78q0 -55 -47 -82zM40 572l173 28v-370h-111v251l-62 -7v98z" />
<glyph unicode="&#x215c;" horiz-adv-x="799" d="M522 594h94l-357 -594h-94zM612 140q-14 0 -23.5 -9t-9.5 -23t9.5 -23t23.5 -9t23.5 9t9.5 23t-9.5 23t-23.5 9zM612 288q-14 0 -23 -8.5t-9 -21.5q0 -15 9 -23.5t23 -8.5t23 9t9 23q0 13 -9 21.5t-23 8.5zM692 180q57 -24 57 -80q0 -48 -38 -77t-99 -29t-99.5 29.5 t-38.5 76.5q0 56 57 80q-47 29 -47 82q0 48 35.5 78t92.5 30t92 -30t35 -78q0 -55 -47 -82zM59 569q27 17 53 24t58 7q57 0 88 -26t31 -73q0 -32 -17.5 -55t-49.5 -33q73 -21 73 -86q0 -48 -37 -75.5t-102 -27.5q-31 0 -54 6t-52 21v106q45 -40 95 -40q38 0 38 27 q0 16 -13.5 21.5t-54.5 5.5v76q33 1 47.5 7.5t14.5 23.5q0 24 -32 24q-42 0 -86 -35v102z" />
<glyph unicode="&#x215d;" horiz-adv-x="790" d="M513 594h94l-357 -594h-94zM603 140q-14 0 -23.5 -9t-9.5 -23t9.5 -23t23.5 -9t23.5 9t9.5 23t-9.5 23t-23.5 9zM603 288q-14 0 -23 -8.5t-9 -21.5q0 -15 9 -23.5t23 -8.5t23 9t9 23q0 13 -9 21.5t-23 8.5zM683 180q57 -24 57 -80q0 -48 -38 -77t-99 -29t-99.5 29.5 t-38.5 76.5q0 56 57 80q-47 29 -47 82q0 48 35.5 78t92.5 30t92 -30t35 -78q0 -55 -47 -82zM160 465q68 -8 99.5 -36t31.5 -81q0 -57 -38 -90.5t-104 -33.5q-59 0 -99 28v96q26 -19 47 -26.5t45 -7.5q48 0 48 31q0 22 -28.5 33t-93.5 14l15 202h194v-94h-113z" />
<glyph unicode="&#x215e;" horiz-adv-x="739" d="M462 594h94l-357 -594h-94zM552 140q-14 0 -23.5 -9t-9.5 -23t9.5 -23t23.5 -9t23.5 9t9.5 23t-9.5 23t-23.5 9zM552 288q-14 0 -23 -8.5t-9 -21.5q0 -15 9 -23.5t23 -8.5t23 9t9 23q0 13 -9 21.5t-23 8.5zM632 180q57 -24 57 -80q0 -48 -38 -77t-99 -29t-99.5 29.5 t-38.5 76.5q0 56 57 80q-47 29 -47 82q0 48 35.5 78t92.5 30t92 -30t35 -78q0 -55 -47 -82zM35 500v94h250v-94l-121 -270h-113l121 270h-137z" />
<glyph unicode="&#x2202;" horiz-adv-x="533" d="M266 334q-44 0 -69.5 -30t-25.5 -81t26 -81t69 -30q45 0 70.5 30.5t25.5 81.5q0 50 -26 80t-70 30zM256 680q126 -111 187.5 -219t61.5 -220q0 -56 -17 -102.5t-48.5 -79.5t-75.5 -51t-98 -18q-52 0 -95.5 17.5t-75 48t-49.5 73t-18 93.5q0 49 17 91t47.5 73t72 48 t90.5 17q41 0 60 -11q-18 28 -40.5 56t-51 57t-63.5 60.5t-79 66.5h175z" />
<glyph unicode="&#x220f;" horiz-adv-x="618" d="M408 -180v642h-198v-642h-149v774h496v-774h-149z" />
<glyph unicode="&#x2211;" horiz-adv-x="443" d="M20 468v126h403v-126h-246l165 -261l-165 -261h246v-126h-403v126l166 261z" />
<glyph unicode="&#x2212;" horiz-adv-x="459" d="M40 344h379v-103h-379v103z" />
<glyph unicode="&#x221a;" horiz-adv-x="546" d="M536 594l-173 -594h-155l-95 273h-73v138h182l67 -231l111 414h136z" />
<glyph unicode="&#x221e;" horiz-adv-x="689" d="M436 257q24 -29 52 -29q23 0 38 16.5t15 42.5t-15 42.5t-38 16.5q-29 0 -52 -29l-25 -30zM253 317q-24 29 -52 29q-23 0 -38 -16.5t-15 -42.5t15 -42.5t38 -16.5q28 0 52 29l25 30zM331 193q-59 -72 -136 -72q-35 0 -63.5 12t-48.5 34t-31.5 52.5t-11.5 67.5t11.5 67.5 t31.5 52.5t48.5 34t63.5 12q77 0 136 -72l13 -16l14 16q35 40 65.5 56t70.5 16q34 0 63 -12t49 -34t31.5 -52.5t11.5 -67.5t-11.5 -67.5t-31.5 -52.5t-49 -34t-63 -12q-40 0 -70.5 16t-65.5 56l-14 16z" />
<glyph unicode="&#x222b;" horiz-adv-x="376" d="M-3 -43q16 -10 29 -14t27 -4q51 0 51 54v426q0 88 43.5 136.5t124.5 48.5q23 0 42.5 -4.5t38.5 -13.5v-129q-16 10 -29 14t-27 4q-51 0 -51 -54v-426q0 -88 -43.5 -136.5t-124.5 -48.5q-44 0 -81 18v129z" />
<glyph unicode="&#x2248;" horiz-adv-x="469" d="M45 249q29 18 53 26t50 8q17 0 36.5 -3.5t49.5 -12.5q32 -10 49.5 -13.5t35.5 -3.5q27 0 51.5 8t53.5 26v-93q-29 -18 -53.5 -26t-51.5 -8q-17 0 -36 4t-49 13q-32 10 -50 13t-36 3q-26 0 -50 -8t-53 -26v93zM45 398q29 18 53 26t50 8q17 0 36.5 -3.5t49.5 -12.5 q32 -10 49.5 -13.5t35.5 -3.5q27 0 51.5 8t53.5 26v-93q-29 -18 -53.5 -26t-51.5 -8q-17 0 -36 4t-49 13q-32 10 -50 13t-36 3q-26 0 -50 -8t-53 -26v93z" />
<glyph unicode="&#x2260;" horiz-adv-x="469" d="M215 330h-170v89h225l51 82h83l-51 -82h71v-89h-126l-44 -71h170v-89h-225l-51 -82h-83l51 82h-71v89h126z" />
<glyph unicode="&#x2264;" horiz-adv-x="359" d="M30 141h289v-103h-289v103zM30 345l289 164v-117l-104 -51l104 -51v-117l-289 164v8z" />
<glyph unicode="&#x2265;" horiz-adv-x="359" d="M329 38h-289v103h289v-103zM329 337l-289 -164v117l104 51l-104 51v117l289 -164v-8z" />
<glyph unicode="&#x22c5;" horiz-adv-x="281" d="M140 352q38 0 64.5 -26.5t26.5 -64.5t-26.5 -64t-64.5 -26q-19 0 -35.5 7t-28.5 19.5t-19 29t-7 35.5q0 37 26.5 63.5t63.5 26.5z" />
<glyph unicode="&#x25ca;" horiz-adv-x="506" d="M253 453l-87 -156l87 -155l87 155zM205 594h96l180 -297l-180 -297h-96l-180 297z" />
<glyph unicode="&#x25fc;" horiz-adv-x="595" d="M0 595h595v-595h-595v595z" />
<glyph unicode="&#xf6c3;" horiz-adv-x="500" d="M347 -38q0 -100 -98 -152h-97q32 32 45.5 67.5t13.5 84.5h136z" />
<glyph unicode="&#xfb00;" horiz-adv-x="616" d="M221 0h-142v332h-71v118h71v45q0 85 43.5 132t121.5 47q43 0 78 -17v-130q-22 15 -52 15q-49 0 -49 -54v-38h142v55q0 90 45.5 137.5t130.5 47.5q28 0 49.5 -5t45.5 -17v-133q-24 14 -39.5 19t-35.5 5q-54 0 -54 -54v-55h105v-118h-105v-332h-142v332h-142v-332z" />
<glyph unicode="&#xfb01;" horiz-adv-x="566" d="M433 667q34 0 58 -24t24 -58q0 -33 -24 -57t-58 -24q-33 0 -57 24t-24 57q0 34 23.5 58t57.5 24zM505 0h-142v450h142v-450zM79 511q0 85 44 132t122 47q20 0 36 -3t33 -11v-129q-21 10 -46 10q-47 0 -47 -53v-54h81v-118h-81v-332h-142v332h-71v118h71v61z" />
<glyph unicode="&#xfb02;" horiz-adv-x="565" d="M505 0h-142v680h142v-680zM79 511q0 85 44 132t122 47q20 0 36 -3t33 -11v-129q-21 10 -46 10q-47 0 -47 -53v-54h81v-118h-81v-332h-142v332h-71v118h71v61z" />
<glyph unicode="&#xfb03;" horiz-adv-x="850" d="M717 667q34 0 58 -24t24 -58q0 -33 -24 -57t-58 -24q-33 0 -57 24t-24 57q0 34 23.5 58t57.5 24zM789 0h-142v450h142v-450zM505 0h-142v332h-142v-332h-142v332h-71v118h71v45q0 85 43.5 132t121.5 47q43 0 78 -17v-130q-22 15 -52 15q-49 0 -49 -54v-38h142v61 q0 85 44 132t123 47q20 0 35.5 -3t32.5 -11v-129q-21 10 -46 10q-47 0 -47 -53v-54h81v-118h-81v-332z" />
<glyph unicode="&#xfb04;" horiz-adv-x="849" d="M789 0h-142v680h142v-680zM505 0h-142v332h-142v-332h-142v332h-71v118h71v45q0 85 43.5 132t121.5 47q43 0 78 -17v-130q-22 15 -52 15q-49 0 -49 -54v-38h142v61q0 85 44 132t123 47q20 0 35.5 -3t32.5 -11v-129q-21 10 -46 10q-47 0 -47 -53v-54h81v-118h-81v-332z " />
<glyph horiz-adv-x="850" d="M530 -57q40 -13 65 -13q28 0 40 13t12 44v463h142v-487q0 -73 -45 -113t-127 -40q-23 0 -43 3.5t-44 11.5v118zM717 667q34 0 58 -24t24 -58q0 -33 -24 -57t-58 -24q-33 0 -57 24t-24 57q0 34 23.5 58t57.5 24zM505 0h-142v332h-142v-332h-142v332h-71v118h71v45 q0 85 43.5 132t121.5 47q43 0 78 -17v-130q-22 15 -52 15q-49 0 -49 -54v-38h142v61q0 85 44 132t123 47q20 0 35.5 -3t32.5 -11v-129q-21 10 -46 10q-47 0 -47 -53v-54h81v-118h-81v-332z" />
<glyph horiz-adv-x="566" d="M246 -57q40 -13 65 -13q28 0 40 13t12 44v463h142v-487q0 -73 -45 -113t-127 -40q-23 0 -43 3.5t-44 11.5v118zM433 667q34 0 58 -24t24 -58q0 -33 -24 -57t-58 -24q-33 0 -57 24t-24 57q0 34 23.5 58t57.5 24zM79 511q0 85 44 132t122 47q20 0 36 -3t33 -11v-129 q-21 10 -46 10q-47 0 -47 -53v-54h81v-118h-81v-332h-142v332h-71v118h71v61z" />
<glyph horiz-adv-x="849" d="M505 120q25 -9 55 -9q54 0 85 32t31 89q0 45 -27 72.5t-72 27.5q-40 0 -72 -23v-189zM363 680h142v-242q44 22 99 22q48 0 88 -16.5t68.5 -45.5t44.5 -70.5t16 -90.5q0 -118 -71 -182.5t-200 -64.5q-50 0 -94.5 8.5t-92.5 27.5v654zM79 511q0 85 44 132t122 47 q20 0 36 -3t33 -11v-129q-21 10 -46 10q-47 0 -47 -53v-54h81v-118h-81v-332h-142v332h-71v118h71v61z" />
<glyph horiz-adv-x="828" d="M505 0h-142v680h142v-680zM510 244l149 206h165l-158 -204l162 -246h-161zM79 511q0 85 44 132t122 47q20 0 36 -3t33 -11v-129q-21 10 -46 10q-47 0 -47 -53v-54h81v-118h-81v-332h-142v332h-71v118h71v61z" />
<glyph horiz-adv-x="837" d="M363 680h142v-238q21 8 48 13t55 5q86 0 130.5 -47t44.5 -138v-275h-142v269q0 64 -67 64q-39 0 -69 -10v-323h-142v680zM79 511q0 85 44 132t122 47q20 0 36 -3t33 -11v-129q-21 10 -46 10q-47 0 -47 -53v-54h81v-118h-81v-332h-142v332h-71v118h71v61z" />
<glyph horiz-adv-x="1133" d="M789 120q25 -9 55 -9q54 0 85 32t31 89q0 45 -27 72.5t-72 27.5q-40 0 -72 -23v-189zM647 680h142v-242q44 22 99 22q48 0 88 -16.5t68.5 -45.5t44.5 -70.5t16 -90.5q0 -118 -71 -182.5t-200 -64.5q-50 0 -94.5 8.5t-92.5 27.5v654zM505 0h-142v332h-142v-332h-142v332 h-71v118h71v45q0 85 43.5 132t121.5 47q43 0 78 -17v-130q-22 15 -52 15q-49 0 -49 -54v-38h142v61q0 85 44 132t123 47q20 0 35.5 -3t32.5 -11v-129q-21 10 -46 10q-47 0 -47 -53v-54h81v-118h-81v-332z" />
<glyph horiz-adv-x="1121" d="M647 680h142v-238q21 8 48 13t55 5q86 0 130.5 -47t44.5 -138v-275h-142v269q0 64 -67 64q-39 0 -69 -10v-323h-142v680zM505 0h-142v332h-142v-332h-142v332h-71v118h71v45q0 85 43.5 132t121.5 47q43 0 78 -17v-130q-22 15 -52 15q-49 0 -49 -54v-38h142v61 q0 85 44 132t123 47q20 0 35.5 -3t32.5 -11v-129q-21 10 -46 10q-47 0 -47 -53v-54h81v-118h-81v-332z" />
<glyph horiz-adv-x="1112" d="M789 0h-142v680h142v-680zM794 244l149 206h165l-158 -204l162 -246h-161zM505 0h-142v332h-142v-332h-142v332h-71v118h71v45q0 85 43.5 132t121.5 47q43 0 78 -17v-130q-22 15 -52 15q-49 0 -49 -54v-38h142v61q0 85 44 132t123 47q20 0 35.5 -3t32.5 -11v-129 q-21 10 -46 10q-47 0 -47 -53v-54h81v-118h-81v-332z" />
<glyph horiz-adv-x="536" d="M268 345q-47 0 -75 -31t-28 -82q0 -50 28.5 -80.5t74.5 -30.5q47 0 75 30.5t28 81.5t-28 81.5t-75 30.5zM268 476q52 0 96 -18.5t76.5 -51t51 -77t18.5 -96.5t-18.5 -96.5t-51 -77t-76.5 -51t-96 -18.5t-96.5 18.5t-76.5 51t-50.5 77.5t-18.5 98q0 51 18.5 95.5t51 76.5 t77 50.5t95.5 18.5z" />
<glyph horiz-adv-x="346" d="M24 432l253 41v-473h-148v311l-105 -13v134z" />
<glyph horiz-adv-x="458" d="M424 126v-126h-388v117q7 5 12.5 8.5t12 7.5t14.5 8.5t21 12.5q42 25 70.5 44.5t45.5 37t24.5 33t7.5 32.5q0 41 -54 41q-72 0 -145 -59v138q38 29 80.5 42t93.5 13q86 0 133 -39t47 -109q0 -65 -40 -116t-118 -86h183z" />
<glyph horiz-adv-x="429" d="M32 421q41 29 81.5 42t91.5 13q87 0 135.5 -41.5t48.5 -116.5q0 -52 -23 -86t-74 -60q57 -20 82.5 -53.5t25.5 -86.5q0 -79 -58 -124.5t-159 -45.5q-48 0 -86.5 10.5t-76.5 33.5v138q72 -60 151 -60q38 0 59 15t21 44q0 35 -27.5 49.5t-96.5 15.5v116q58 2 85.5 19 t27.5 53q0 24 -15.5 37.5t-44.5 13.5q-69 0 -148 -63v137z" />
<glyph horiz-adv-x="566" d="M167 123h138v172zM447 123h80v-116h-80v-136h-142v136h-278v120l279 339h141v-343z" />
<glyph horiz-adv-x="426" d="M183 259q111 -17 161 -65t50 -135q0 -45 -15.5 -81.5t-44.5 -62t-70.5 -39.5t-93.5 -14q-94 0 -156 44v131q39 -28 74.5 -40.5t73.5 -12.5q94 0 94 69q0 23 -11 39.5t-36 28.5t-64.5 20t-96.5 13l22 312h311v-132h-192z" />
<glyph horiz-adv-x="495" d="M245 285q-37 0 -59.5 -24t-22.5 -64q0 -38 23 -61.5t59 -23.5q37 0 60 24t23 62q0 39 -23 63t-60 24zM361 594l-79 -135l-40 -64q7 2 16 3t18 1q42 0 77 -15t61 -41t40.5 -62.5t14.5 -78.5q0 -47 -17 -85.5t-47 -67t-71.5 -44t-90.5 -15.5q-48 0 -88 15.5t-68.5 43 t-44.5 66t-16 85.5q0 23 4 45.5t12.5 47.5t22.5 53.5t34 62.5l108 185h154z" />
<glyph horiz-adv-x="458" d="M13 334v132h401v-133l-222 -461h-152l217 462h-244z" />
<glyph horiz-adv-x="480" d="M240 234q-29 0 -47.5 -17.5t-18.5 -46.5q0 -28 18 -44.5t49 -16.5q29 0 47 17t18 44q0 29 -18.5 46.5t-47.5 17.5zM240 484q-27 0 -43 -16t-16 -43q0 -28 16 -44t44 -16q26 0 42 16.5t16 43.5t-16 43t-43 16zM352 299q98 -40 98 -137q0 -38 -15.5 -69.5t-43 -54.5 t-66.5 -35.5t-85 -12.5q-47 0 -85.5 12.5t-66 35.5t-43 54.5t-15.5 69.5q0 97 99 137q-78 43 -78 135q0 37 14 68.5t38.5 54t59.5 35t77 12.5t76.5 -12.5t59.5 -35t38.5 -53.5t13.5 -69q0 -92 -76 -135z" />
<glyph horiz-adv-x="495" d="M250 354q-37 0 -60 -24t-23 -62q0 -39 23 -63t60 -24t59.5 24t22.5 64q0 38 -23 61.5t-59 23.5zM134 -128l79 135l40 64q-7 -2 -16 -3t-18 -1q-42 0 -77 15t-61 41t-40.5 62.5t-14.5 78.5q0 46 16.5 85t46.5 67.5t71.5 44t91.5 15.5q48 0 88 -15.5t68.5 -43t44.5 -66.5 t16 -85q0 -23 -4 -45.5t-12.5 -47.5t-22.5 -53.5t-34 -62.5l-108 -185h-154z" />
<glyph horiz-adv-x="500" d="M152 513q0 54 27.5 101.5t70.5 70.5h97q-59 -61 -59 -172h-136z" />
<glyph horiz-adv-x="698" d="M349 567q-58 0 -106.5 -20t-83.5 -56.5t-54.5 -86.5t-19.5 -110q0 -58 19.5 -107t55 -84.5t84 -55.5t105.5 -20q58 0 106.5 20t83.5 56t54.5 85.5t19.5 108.5t-19.5 108.5t-54.5 85.5t-83.5 56t-106.5 20zM349 604q65 0 121 -23t96.5 -64.5t63.5 -97.5t23 -122t-23 -122 t-63.5 -97t-96.5 -64.5t-121 -23.5q-66 0 -121.5 23.5t-96 64.5t-63.5 98t-23 124q0 64 23.5 120t64 96.5t96 64t120.5 23.5zM320 305h17q54 0 54 41q0 20 -13 31t-36 11h-10t-12 -2v-81zM320 124h-109v343q38 7 69.5 10.5t58.5 3.5q76 0 117.5 -33t41.5 -94q0 -76 -58 -103 l89 -127h-129l-66 102h-14v-102z" />
<glyph horiz-adv-x="459" d="M178 422h103v-138h138v-103h-138v-138h-103v138h-138v103h138v138z" />
<glyph horiz-adv-x="459" d="M40 284h379v-103h-379v103z" />
<glyph horiz-adv-x="398" d="M30 331l70 70l99 -99l99 99l70 -70l-99 -99l99 -99l-70 -70l-99 99l-99 -99l-70 70l99 99z" />
<glyph horiz-adv-x="459" d="M229 463q29 0 49.5 -20.5t20.5 -49.5q0 -28 -20.5 -48.5t-49.5 -20.5q-28 0 -48.5 20.5t-20.5 49.5q0 28 20.5 48.5t48.5 20.5zM229 141q29 0 49.5 -20.5t20.5 -49.5q0 -28 -20.5 -48.5t-49.5 -20.5q-28 0 -48.5 20.5t-20.5 49.5q0 28 20.5 48.5t48.5 20.5zM40 284h379 v-103h-379v103z" />
<glyph horiz-adv-x="469" d="M45 361h379v-93h-379v93zM45 201h379v-93h-379v93z" />
<glyph horiz-adv-x="359" d="M30 235l289 184v-117l-124 -71l124 -71v-117l-289 184v8z" />
<glyph horiz-adv-x="359" d="M329 227l-289 -184v117l124 71l-124 71v117l289 -184v-8z" />
<glyph horiz-adv-x="264" d="M132 667q34 0 58 -24t24 -58q0 -33 -24 -57t-58 -24q-33 0 -57 24t-24 57q0 34 23.5 58t57.5 24zM203 0h-142v450h142v-450z" />
<glyph d="M224 126q17 -10 36 -10q43 0 67 47t24 133q0 37 -4 65.5t-14 54.5zM296 467q-17 11 -36 11q-44 0 -67.5 -47.5t-23.5 -135.5q0 -38 4 -66.5t14 -52.5zM260 604q53 0 96.5 -22.5t74.5 -63t48 -97t17 -125.5t-17 -125.5t-48.5 -96.5t-75 -62t-97.5 -22q-52 0 -95.5 22.5 t-74.5 63t-48 96.5t-17 124q0 69 17 125.5t48.5 97t75 63t96.5 22.5z" />
<glyph d="M260 478q-44 0 -66.5 -47t-22.5 -137q0 -85 23 -131.5t66 -46.5t66 46.5t23 132.5q0 88 -23 135.5t-66 47.5zM260 604q53 0 96.5 -22.5t74.5 -63t48 -97t17 -125.5q0 -68 -17 -124.5t-48 -97t-74.5 -62.5t-96.5 -22q-54 0 -97.5 22.5t-74.5 63t-48 97.5t-17 127 q0 67 17.5 123t48.5 96t74.5 62.5t96.5 22.5z" />
<glyph d="M66 555l299 48v-603h-147v441l-152 -20v134z" />
<glyph d="M456 131v-131h-413v109q38 33 64 56t44.5 40t32.5 31t27 28q37 40 54 72.5t17 62.5q0 32 -20.5 50t-58.5 18q-69 0 -149 -66v140q78 63 188 63q91 0 145 -48.5t54 -130.5q0 -38 -11 -73t-35.5 -70t-63.5 -72t-94 -79h219z" />
<glyph d="M82 549q41 29 81.5 42t91.5 13q87 0 135.5 -41.5t48.5 -116.5q0 -52 -23 -86t-74 -60q57 -20 82.5 -53.5t25.5 -86.5q0 -79 -58 -124.5t-159 -45.5q-48 0 -86.5 10.5t-76.5 33.5v138q72 -60 151 -60q38 0 59 15t21 44q0 35 -27.5 49.5t-96.5 15.5v116q58 2 85.5 19 t27.5 53q0 24 -15.5 37.5t-44.5 13.5q-69 0 -148 -63v137z" />
<glyph d="M156 252h129v172zM427 252h70v-116h-70v-136h-142v136h-263v120l264 338h141v-342z" />
<glyph d="M236 387q111 -17 161 -65t50 -135q0 -45 -15.5 -81.5t-44.5 -62t-70.5 -39.5t-93.5 -14q-94 0 -156 44v131q39 -28 74.5 -40.5t73.5 -12.5q94 0 94 69q0 23 -11 39.5t-36 28.5t-64.5 20t-96.5 13l22 312h311v-132h-192z" />
<glyph d="M254 285q-37 0 -59.5 -24t-22.5 -64q0 -38 23 -61.5t59 -23.5q37 0 60 24t23 62q0 39 -23 63t-60 24zM370 594l-79 -135l-40 -64q7 2 16 3t18 1q42 0 77 -15t61 -41t40.5 -62.5t14.5 -78.5q0 -47 -17 -85.5t-47 -67t-71.5 -44t-90.5 -15.5q-48 0 -88 15.5t-68.5 43 t-44.5 66t-16 85.5q0 23 4 45.5t12.5 47.5t22.5 53.5t34 62.5l108 185h154z" />
<glyph d="M44 462v132h431v-133l-252 -461h-152l253 462h-280z" />
<glyph d="M260 234q-29 0 -47.5 -17.5t-18.5 -46.5q0 -28 18 -44.5t49 -16.5q29 0 47 17t18 44q0 29 -18.5 46.5t-47.5 17.5zM260 484q-27 0 -43 -16t-16 -43q0 -28 16 -44t44 -16q26 0 42 16.5t16 43.5t-16 43t-43 16zM372 299q98 -40 98 -137q0 -38 -15.5 -69.5t-43 -54.5 t-66.5 -35.5t-85 -12.5q-47 0 -85.5 12.5t-66 35.5t-43 54.5t-15.5 69.5q0 97 99 137q-78 43 -78 135q0 37 14 68.5t38.5 54t59.5 35t77 12.5t76.5 -12.5t59.5 -35t38.5 -53.5t13.5 -69q0 -92 -76 -135z" />
<glyph d="M263 482q-37 0 -60 -24t-23 -62q0 -39 23 -63t60 -24t59.5 24t22.5 64q0 38 -23 61.5t-59 23.5zM147 0l79 135l40 64q-7 -2 -16 -3t-18 -1q-42 0 -77 15t-61 41t-40.5 62.5t-14.5 78.5q0 46 16.5 85t46.5 67.5t71.5 44t91.5 15.5q48 0 88 -15.5t68.5 -43t44.5 -66.5 t16 -85q0 -23 -4 -45.5t-12.5 -47.5t-22.5 -53.5t-34 -62.5l-108 -185h-154z" />
<glyph d="M217 130q11 -5 20.5 -7t21.5 -2q45 0 71 30t26 81q0 20 -4 35.5t-12 31.5zM302 335q-23 10 -43 10q-43 0 -69 -31t-26 -82q0 -20 3.5 -35.5t11.5 -30.5zM260 476q50 0 93 -18.5t74.5 -51t49 -77t17.5 -96.5q0 -53 -18 -97.5t-49.5 -76.5t-74.5 -50.5t-94 -18.5 q-50 0 -92 18.5t-73.5 51t-49 77t-17.5 96.5t17.5 96.5t49 77t74.5 51t93 18.5z" />
<glyph d="M259 345q-44 0 -69.5 -31t-25.5 -83q0 -50 26 -80t69 -30q45 0 71 30t26 81q0 52 -26 82.5t-71 30.5zM260 476q50 0 93 -18.5t74.5 -51t49 -77t17.5 -96.5t-17.5 -96.5t-49 -77t-74.5 -51t-93 -18.5q-51 0 -93.5 18.5t-74 51t-49 77.5t-17.5 98q0 51 18 95.5t49.5 76.5 t74 50.5t92.5 18.5z" />
<glyph d="M94 430l283 43v-473h-148v311l-135 -19v138z" />
<glyph d="M454 126v-126h-388v117q7 5 12.5 8.5t12 7.5t14.5 8.5t21 12.5q42 25 70.5 44.5t45.5 37t24.5 33t7.5 32.5q0 41 -54 41q-72 0 -145 -59v138q38 29 80.5 42t93.5 13q86 0 133 -39t47 -109q0 -65 -40 -116t-118 -86h183z" />
<glyph d="M73 421q41 29 81.5 42t91.5 13q87 0 135.5 -41.5t48.5 -116.5q0 -52 -23 -86t-74 -60q57 -20 82.5 -53.5t25.5 -86.5q0 -79 -58 -124.5t-159 -45.5q-48 0 -86.5 10.5t-76.5 33.5v138q72 -60 151 -60q38 0 59 15t21 44q0 35 -27.5 49.5t-96.5 15.5v116q58 2 85.5 19 t27.5 53q0 24 -15.5 37.5t-44.5 13.5q-69 0 -148 -63v137z" />
<glyph d="M156 123h129v172zM427 123h70v-116h-70v-136h-142v136h-263v120l264 339h141v-343z" />
<glyph d="M226 259q111 -17 161 -65t50 -135q0 -45 -15.5 -81.5t-44.5 -62t-70.5 -39.5t-93.5 -14q-94 0 -156 44v131q39 -28 74.5 -40.5t73.5 -12.5q94 0 94 69q0 23 -11 39.5t-36 28.5t-64.5 20t-96.5 13l22 312h311v-132h-192z" />
<glyph d="M257 285q-37 0 -59.5 -24t-22.5 -64q0 -38 23 -61.5t59 -23.5q37 0 60 24t23 62q0 39 -23 63t-60 24zM373 594l-79 -135l-40 -64q7 2 16 3t18 1q42 0 77 -15t61 -41t40.5 -62.5t14.5 -78.5q0 -47 -17 -85.5t-47 -67t-71.5 -44t-90.5 -15.5q-48 0 -88 15.5t-68.5 43 t-44.5 66t-16 85.5q0 23 4 45.5t12.5 47.5t22.5 53.5t34 62.5l108 185h154z" />
<glyph d="M36 334v132h431v-133l-252 -461h-152l253 462h-280z" />
<glyph d="M260 234q-29 0 -47.5 -17.5t-18.5 -46.5q0 -28 18 -44.5t49 -16.5q29 0 47 17t18 44q0 29 -18.5 46.5t-47.5 17.5zM260 484q-27 0 -43 -16t-16 -43q0 -28 16 -44t44 -16q26 0 42 16.5t16 43.5t-16 43t-43 16zM372 299q98 -40 98 -137q0 -38 -15.5 -69.5t-43 -54.5 t-66.5 -35.5t-85 -12.5q-47 0 -85.5 12.5t-66 35.5t-43 54.5t-15.5 69.5q0 97 99 137q-78 43 -78 135q0 37 14 68.5t38.5 54t59.5 35t77 12.5t76.5 -12.5t59.5 -35t38.5 -53.5t13.5 -69q0 -92 -76 -135z" />
<glyph d="M262 354q-37 0 -60 -24t-23 -62q0 -39 23 -63t60 -24t59.5 24t22.5 64q0 38 -23 61.5t-59 23.5zM146 -128l79 135l40 64q-7 -2 -16 -3t-18 -1q-42 0 -77 15t-61 41t-40.5 62.5t-14.5 78.5q0 46 16.5 85t46.5 67.5t71.5 44t91.5 15.5q48 0 88 -15.5t68.5 -43t44.5 -66.5 t16 -85q0 -23 -4 -45.5t-12.5 -47.5t-22.5 -53.5t-34 -62.5l-108 -185h-154z" />
<glyph horiz-adv-x="260" d="M129 173q38 0 64.5 -26.5t26.5 -64.5t-26.5 -64t-64.5 -26q-19 0 -35.5 7t-28.5 19.5t-19 29t-7 35.5q0 37 26.5 63.5t63.5 26.5z" />
<glyph horiz-adv-x="260" d="M200 125q0 -77 -26.5 -137.5t-77.5 -99.5h-102q33 51 47.5 106.5t14.5 130.5h144z" />
<glyph horiz-adv-x="260" d="M129 431q38 0 64.5 -26.5t26.5 -64.5t-26.5 -64t-64.5 -26q-19 0 -35.5 7t-28.5 19.5t-19 29t-7 35.5q0 37 26.5 63.5t63.5 26.5zM129 173q38 0 64.5 -26.5t26.5 -64.5t-26.5 -64t-64.5 -26q-19 0 -35.5 7t-28.5 19.5t-19 29t-7 35.5q0 37 26.5 63.5t63.5 26.5z" />
<glyph horiz-adv-x="260" d="M129 431q38 0 64.5 -26.5t26.5 -64.5t-26.5 -64t-64.5 -26q-19 0 -35.5 7t-28.5 19.5t-19 29t-7 35.5q0 37 26.5 63.5t63.5 26.5zM200 125q0 -77 -26.5 -137.5t-77.5 -99.5h-102q33 51 47.5 106.5t14.5 130.5h144z" />
<glyph horiz-adv-x="536" d="M223 128q12 -5 22.5 -7t22.5 -2q46 0 75 31.5t29 81.5q0 39 -20 72zM312 337q-21 10 -45 10q-46 0 -74.5 -31.5t-28.5 -82.5q0 -42 20 -71zM268 476q52 0 96 -18.5t76.5 -51t51 -77t18.5 -96.5q0 -53 -18.5 -97.5t-51 -76.5t-77.5 -50.5t-97 -18.5q-51 0 -95 18.5t-76 51 t-50.5 77t-18.5 96.5t18.5 96.5t51 77t76.5 51t96 18.5z" />
<glyph horiz-adv-x="260" />
<glyph horiz-adv-x="459" d="M50 131h359v-103h-359v103zM178 469h103v-98h128v-103h-128v-98h-103v98h-128v103h128v98z" />
<glyph horiz-adv-x="359" d="M30 103h289v-103h-289v103zM30 307l289 164v-117l-104 -51l104 -51v-117l-289 164v8z" />
<glyph horiz-adv-x="359" d="M329 0h-289v103h289v-103zM329 299l-289 -164v117l104 51l-104 51v117l289 -164v-8z" />
<glyph horiz-adv-x="469" d="M215 280h-170v89h225l51 81h83l-51 -81h71v-89h-126l-44 -71h170v-89h-225l-51 -82h-83l51 82h-71v89h126z" />
<glyph horiz-adv-x="469" d="M45 199q29 18 53 26t50 8q17 0 36.5 -3.5t49.5 -12.5q32 -10 49.5 -13.5t35.5 -3.5q27 0 51.5 8t53.5 26v-93q-29 -18 -53.5 -26t-51.5 -8q-17 0 -36 4t-49 13q-32 10 -50 13t-36 3q-26 0 -50 -8t-53 -26v93zM45 348q29 18 53 26t50 8q17 0 36.5 -3.5t49.5 -12.5 q32 -10 49.5 -13.5t35.5 -3.5q27 0 51.5 8t53.5 26v-93q-29 -18 -53.5 -26t-51.5 -8q-17 0 -36 4t-49 13q-32 10 -50 13t-36 3q-26 0 -50 -8t-53 -26v93z" />
<glyph d="M208 482h103v-138h138v-103h-138v-138h-103v138h-138v103h138v138z" />
<glyph d="M70 344h379v-103h-379v103z" />
<glyph d="M91 391l70 70l99 -99l99 99l70 -70l-99 -99l99 -99l-70 -70l-99 99l-99 -99l-70 70l99 99z" />
<glyph d="M259 523q29 0 49.5 -20.5t20.5 -49.5q0 -28 -20.5 -48.5t-49.5 -20.5q-28 0 -48.5 20.5t-20.5 49.5q0 28 20.5 48.5t48.5 20.5zM259 201q29 0 49.5 -20.5t20.5 -49.5q0 -28 -20.5 -48.5t-49.5 -20.5q-28 0 -48.5 20.5t-20.5 49.5q0 28 20.5 48.5t48.5 20.5zM70 344h379 v-103h-379v103z" />
<glyph d="M70 421h379v-93h-379v93zM70 261h379v-93h-379v93z" />
<glyph d="M115 295l289 184v-117l-124 -71l124 -71v-117l-289 184v8z" />
<glyph d="M404 287l-289 -184v117l124 71l-124 71v117l289 -184v-8z" />
<glyph d="M80 181h359v-103h-359v103zM208 519h103v-98h128v-103h-128v-98h-103v98h-128v103h128v98z" />
<glyph d="M115 141h289v-103h-289v103zM115 345l289 164v-117l-104 -51l104 -51v-117l-289 164v8z" />
<glyph d="M404 38h-289v103h289v-103zM404 337l-289 -164v117l104 51l-104 51v117l289 -164v-8z" />
<glyph d="M240 330h-170v89h225l51 82h83l-51 -82h71v-89h-126l-44 -71h170v-89h-225l-51 -82h-83l51 82h-71v89h126z" />
<glyph d="M70 249q29 18 53 26t50 8q17 0 36.5 -3.5t49.5 -12.5q32 -10 49.5 -13.5t35.5 -3.5q27 0 51.5 8t53.5 26v-93q-29 -18 -53.5 -26t-51.5 -8q-17 0 -36 4t-49 13q-32 10 -50 13t-36 3q-26 0 -50 -8t-53 -26v93zM70 398q29 18 53 26t50 8q17 0 36.5 -3.5t49.5 -12.5 q32 -10 49.5 -13.5t35.5 -3.5q27 0 51.5 8t53.5 26v-93q-29 -18 -53.5 -26t-51.5 -8q-17 0 -36 4t-49 13q-32 10 -50 13t-36 3q-26 0 -50 -8t-53 -26v93z" />
<glyph d="M208 422h103v-138h138v-103h-138v-138h-103v138h-138v103h138v138z" />
<glyph d="M70 284h379v-103h-379v103z" />
<glyph d="M91 331l70 70l99 -99l99 99l70 -70l-99 -99l99 -99l-70 -70l-99 99l-99 -99l-70 70l99 99z" />
<glyph d="M259 463q29 0 49.5 -20.5t20.5 -49.5q0 -28 -20.5 -48.5t-49.5 -20.5q-28 0 -48.5 20.5t-20.5 49.5q0 28 20.5 48.5t48.5 20.5zM259 141q29 0 49.5 -20.5t20.5 -49.5q0 -28 -20.5 -48.5t-49.5 -20.5q-28 0 -48.5 20.5t-20.5 49.5q0 28 20.5 48.5t48.5 20.5zM70 284h379 v-103h-379v103z" />
<glyph d="M70 361h379v-93h-379v93zM70 201h379v-93h-379v93z" />
<glyph d="M115 235l289 184v-117l-124 -71l124 -71v-117l-289 184v8z" />
<glyph d="M404 227l-289 -184v117l124 71l-124 71v117l289 -184v-8z" />
<glyph d="M80 131h359v-103h-359v103zM208 469h103v-98h128v-103h-128v-98h-103v98h-128v103h128v98z" />
<glyph d="M115 103h289v-103h-289v103zM115 307l289 164v-117l-104 -51l104 -51v-117l-289 164v8z" />
<glyph d="M404 0h-289v103h289v-103zM404 299l-289 -164v117l104 51l-104 51v117l289 -164v-8z" />
<glyph d="M240 280h-170v89h225l51 81h83l-51 -81h71v-89h-126l-44 -71h170v-89h-225l-51 -82h-83l51 82h-71v89h126z" />
<glyph d="M70 199q29 18 53 26t50 8q17 0 36.5 -3.5t49.5 -12.5q32 -10 49.5 -13.5t35.5 -3.5q27 0 51.5 8t53.5 26v-93q-29 -18 -53.5 -26t-51.5 -8q-17 0 -36 4t-49 13q-32 10 -50 13t-36 3q-26 0 -50 -8t-53 -26v93zM70 348q29 18 53 26t50 8q17 0 36.5 -3.5t49.5 -12.5 q32 -10 49.5 -13.5t35.5 -3.5q27 0 51.5 8t53.5 26v-93q-29 -18 -53.5 -26t-51.5 -8q-17 0 -36 4t-49 13q-32 10 -50 13t-36 3q-26 0 -50 -8t-53 -26v93z" />
<glyph horiz-adv-x="499" d="M278 680h133v-818h-133v818zM88 680h133v-818h-133v818z" />
<glyph horiz-adv-x="698" d="M349 567q-58 0 -106.5 -20t-83.5 -56.5t-54.5 -86.5t-19.5 -110q0 -58 19.5 -107t55 -84.5t84 -55.5t105.5 -20q58 0 106.5 20t83.5 56t54.5 85.5t19.5 108.5t-19.5 108.5t-54.5 85.5t-83.5 56t-106.5 20zM349 604q65 0 121 -23t96.5 -64.5t63.5 -97.5t23 -122t-23 -122 t-63.5 -97t-96.5 -64.5t-121 -23.5q-66 0 -121.5 23.5t-96 64.5t-63.5 98t-23 124q0 64 23.5 120t64 96.5t96 64t120.5 23.5zM336 307h2q5 -2 10 -2h11q48 0 48 41q0 20 -13 31t-36 11h-10t-12 -2v-79zM336 124h-109v343q38 8 69.5 11t59.5 3q75 0 116.5 -36t41.5 -100 q0 -63 -36.5 -96.5t-104.5 -33.5h-18.5t-15.5 2h-3v-93z" />
<glyph horiz-adv-x="525" d="M227 126q17 -10 36 -10q43 0 67 47t24 133q0 37 -4 65.5t-14 54.5zM299 467q-17 11 -36 11q-44 0 -67.5 -47.5t-23.5 -135.5q0 -38 4 -66.5t14 -52.5zM263 604q53 0 96.5 -22.5t74.5 -63t48 -97t17 -125.5t-17 -125.5t-48.5 -96.5t-75 -62t-97.5 -22q-52 0 -95.5 22.5 t-74.5 63t-48 96.5t-17 124q0 69 17 125.5t48.5 97t75 63t96.5 22.5z" />
<glyph horiz-adv-x="500" d="M114 510q2 40 11 64.5t29 44.5q37 37 96 37t96 -37q20 -20 29 -44.5t11 -64.5h-101q-1 54 -35 54t-35 -54h-101z" />
<glyph horiz-adv-x="500" d="M156 513l-85 152h116l85 -152h-116zM313 513l-85 152h116l85 -152h-116z" />
<glyph horiz-adv-x="500" d="M329 680l-47 -167h-112l47 167h112z" />
<glyph horiz-adv-x="500" d="M249 -30q33 0 56.5 -23.5t23.5 -57.5q0 -33 -23.5 -56t-56.5 -23t-56.5 23.5t-23.5 55.5q0 34 23.5 57.5t56.5 23.5z" />
<glyph horiz-adv-x="500" d="M345 0q-3 -45 -22 -85.5t-48 -60.5h-121q69 63 77 146h114z" />
<glyph horiz-adv-x="500" d="M228 641l-84 151h128l84 -151h-128z" />
<glyph horiz-adv-x="500" d="M144 641l84 151h128l-84 -151h-128z" />
<glyph horiz-adv-x="500" d="M415 639h-112l-53 72l-53 -72h-112l117 154h96z" />
<glyph horiz-adv-x="500" d="M400 771q-3 -134 -92 -134q-16 0 -29.5 5t-31.5 18q-12 9 -19 12t-15 3q-25 0 -26 -34h-87q3 134 92 134q16 0 29.5 -5t31.5 -18q13 -9 20 -12t15 -3q14 0 19.5 7.5t5.5 26.5h87z" />
<glyph horiz-adv-x="500" d="M130 744h239v-102h-239v102z" />
<glyph horiz-adv-x="500" d="M386 780q-2 -41 -11 -65t-31 -44q-36 -33 -94 -33q-66 0 -102 41q-18 20 -25 41.5t-9 59.5h101q1 -50 35 -50t35 50h101z" />
<glyph horiz-adv-x="500" d="M114 638q2 41 11 65t31 44q36 33 94 33q66 0 102 -41q18 -20 25 -41.5t9 -59.5h-101q-1 50 -35 50t-35 -50h-101z" />
<glyph horiz-adv-x="500" d="M249 797q34 0 58 -24t24 -58q0 -33 -24 -57t-58 -24q-33 0 -57 24t-24 57q0 34 23.5 58t57.5 24z" />
<glyph horiz-adv-x="500" d="M343 784q32 0 55 -23t23 -55t-23 -54.5t-56 -22.5q-32 0 -54 22.5t-22 54.5q0 16 6 30.5t16.5 25t24.5 16.5t30 6zM155 784q16 0 30 -6t24.5 -16.5t17 -25t6.5 -30.5q0 -32 -23 -54.5t-56 -22.5q-32 0 -54 22.5t-22 54.5q0 16 6 30.5t16.5 25t24.5 16.5t30 6z" />
<glyph horiz-adv-x="500" d="M249 761q-17 0 -27.5 -11t-10.5 -28q0 -18 10.5 -29t27.5 -11t28 11t11 29q0 17 -11 28t-28 11zM249 821q47 0 75.5 -27.5t28.5 -71.5q0 -45 -28.5 -72.5t-75.5 -27.5q-46 0 -74.5 28t-28.5 73q0 43 29 70.5t74 27.5z" />
<glyph horiz-adv-x="500" d="M228 641l85 151h116l-85 -151h-116zM71 641l85 151h116l-85 -151h-116z" />
<glyph horiz-adv-x="500" d="M156 641l-85 151h116l85 -151h-116zM313 641l-85 151h116l85 -151h-116z" />
<glyph horiz-adv-x="500" d="M298 641h-96l-117 154h112l53 -72l53 72h112z" />
<glyph horiz-adv-x="256" d="M127 602q38 0 64.5 -26t26.5 -64t-26.5 -64.5t-64.5 -26.5q-19 0 -35.5 7t-28.5 19.5t-19 29.5t-7 36q0 37 26 63t64 26zM199 0h-142v388h142v-388z" />
<glyph horiz-adv-x="382" d="M228 602q37 0 62.5 -26t25.5 -63q0 -19 -7 -36t-19 -29.5t-28 -19.5t-34 -7q-20 0 -36.5 7t-29.5 19.5t-20 29.5t-7 36q0 38 27 63.5t66 25.5zM367 48q-70 -58 -172 -58q-89 0 -137 43.5t-48 124.5q0 135 152 177v53h131v-121q-23 -6 -39 -11t-27.5 -8.5t-19.5 -7 t-15 -6.5q-40 -21 -40 -60q0 -55 66 -55q18 0 34 3t33.5 10.5t37.5 19.5t44 30v-134z" />
<glyph horiz-adv-x="317" d="M165 295l122 -158h-134l-123 158l123 158h134z" />
<glyph horiz-adv-x="317" d="M30 453h134l123 -158l-123 -158h-134l122 158z" />
<glyph horiz-adv-x="507" d="M355 295l122 -158h-134l-123 158l123 158h134zM165 295l122 -158h-134l-123 158l123 158h134z" />
<glyph horiz-adv-x="507" d="M220 453h134l123 -158l-123 -158h-134l122 158zM30 453h134l123 -158l-123 -158h-134l122 158z" />
<glyph horiz-adv-x="459" d="M302 680h146l-291 -780h-146z" />
<glyph horiz-adv-x="459" d="M448 -100h-146l-291 780h146z" />
<glyph horiz-adv-x="309" d="M88 680h133v-780h-133v780z" />
<glyph horiz-adv-x="499" d="M278 680h133v-780h-133v780zM88 680h133v-780h-133v780z" />
<glyph horiz-adv-x="309" d="M88 221h133v-321h-133v321zM88 680h133v-321h-133v321z" />
<glyph horiz-adv-x="344" d="M171 414q25 0 47.5 -9.5t39.5 -26.5t26.5 -39.5t9.5 -47.5t-9.5 -47t-26 -38.5t-39 -26t-48.5 -9.5t-48 9.5t-38 26t-25.5 38.5t-9.5 48q0 25 9.5 47.5t26 39t38.5 26t47 9.5z" />
<glyph horiz-adv-x="281" d="M140 382q38 0 64.5 -26.5t26.5 -64.5t-26.5 -64t-64.5 -26q-19 0 -35.5 7t-28.5 19.5t-19 29t-7 35.5q0 37 26.5 63.5t63.5 26.5z" />
<glyph horiz-adv-x="355" d="M34 362h287v-126h-287v126z" />
<glyph horiz-adv-x="572" d="M34 354h504v-107h-504v107z" />
<glyph horiz-adv-x="952" d="M34 354h884v-107h-884v107z" />
<glyph horiz-adv-x="421" d="M250 -100q-23 22 -41 42.5t-32.5 41.5t-26.5 44t-23 50q-43 103 -43 212q0 68 17 134.5t49 126.5q10 19 20.5 35t22 31t25.5 30t32 33h161q-96 -95 -141.5 -189.5t-45.5 -200.5q0 -105 45.5 -200t141.5 -190h-161z" />
<glyph horiz-adv-x="421" d="M171 680q23 -22 41 -42t32.5 -41t26.5 -44t23 -50q43 -103 43 -213q0 -67 -17 -133.5t-49 -126.5q-11 -20 -21 -36t-21.5 -31t-25.5 -30t-32 -33h-161q96 95 141.5 190t45.5 200q0 106 -45.5 200.5t-141.5 189.5h161z" />
<glyph horiz-adv-x="379" d="M235 11h94v-111h-226v780h226v-111h-94v-558z" />
<glyph horiz-adv-x="379" d="M144 569h-94v111h226v-780h-226v111h94v558z" />
<glyph horiz-adv-x="401" d="M291 441q0 -65 -35 -105.5t-95 -45.5q60 -5 95 -45.5t35 -105.5v-87q0 -24 7 -32.5t27 -8.5h36v-111h-58q-70 0 -108 39.5t-38 111.5v99q0 82 -74 82h-27v116h27q74 0 74 82v99q0 72 38 111.5t108 39.5h58v-111h-36q-20 0 -27 -9t-7 -32v-87z" />
<glyph horiz-adv-x="401" d="M110 139q0 65 35 105.5t95 45.5q-60 5 -95 45.5t-35 105.5v87q0 24 -7 32.5t-27 8.5h-36v111h58q70 0 108 -39.5t38 -111.5v-99q0 -82 74 -82h27v-116h-27q-74 0 -74 -82v-99q0 -72 -38 -111.5t-108 -39.5h-58v111h36q20 0 27 9t7 32v87z" />
<glyph horiz-adv-x="770" d="M448 392q-5 1 -10.5 1.5t-13.5 0.5q-48 0 -76.5 -27t-28.5 -72q0 -47 28 -74.5t76 -27.5h4h10.5t10.5 1v198zM557 200q94 47 94 173q0 102 -64 159t-178 57q-66 0 -120 -20.5t-92 -58.5t-58.5 -92t-20.5 -121q0 -139 85.5 -213.5t244.5 -74.5q55 0 102 8t98 27v-72 q-86 -34 -204 -34q-95 0 -170 24t-127 70t-79.5 112t-27.5 149q0 82 26.5 149.5t75 115.5t116.5 74.5t151 26.5q73 0 132.5 -20.5t101.5 -58t64.5 -91t22.5 -119.5q0 -64 -20.5 -115.5t-59 -87.5t-93 -55t-122.5 -19q-111 0 -172.5 53t-61.5 149q0 47 15.5 85.5t44.5 65.5 t70 41.5t92 14.5q71 0 134 -24v-278z" />
<glyph horiz-adv-x="345" d="M173 94q-22 0 -33.5 -24t-11.5 -69q0 -44 12 -67.5t33 -23.5q22 0 34 24.5t12 69.5q0 42 -12 66t-34 24zM173 190q35 0 63.5 -14t49 -39t32 -60t11.5 -77q0 -41 -11.5 -75t-32.5 -58.5t-49.5 -38.5t-62.5 -14q-35 0 -63.5 14t-49.5 38.5t-32.5 59t-11.5 76.5t11.5 76.5 t32.5 59t49.5 38.5t63.5 14z" />
<glyph horiz-adv-x="217" d="M11 162l173 28v-370h-111v251l-62 -7v98z" />
<glyph horiz-adv-x="285" d="M272 -86v-94h-261v81q39 30 65 52.5t42 40.5t23 32t7 27q0 37 -40 37q-22 0 -46 -10t-47 -28v100q50 38 121 38q59 0 93 -30t34 -82q0 -44 -25 -80.5t-87 -83.5h121z" />
<glyph horiz-adv-x="273" d="M22 159q27 17 53 24t58 7q57 0 88 -26t31 -73q0 -32 -17.5 -55t-49.5 -33q73 -21 73 -86q0 -48 -37 -75.5t-102 -27.5q-31 0 -54 6t-52 21v106q45 -40 95 -40q38 0 38 27q0 16 -13.5 21.5t-54.5 5.5v76q33 1 47.5 7.5t14.5 23.5q0 24 -32 24q-42 0 -86 -35v102z" />
<glyph horiz-adv-x="345" d="M98 -28h80v99zM282 -28h52v-80h-52v-72h-104v72h-167v80l167 212h104v-212z" />
<glyph horiz-adv-x="268" d="M123 55q68 -8 99.5 -36t31.5 -81q0 -57 -38 -90.5t-104 -33.5q-59 0 -99 28v96q26 -19 47 -26.5t45 -7.5q48 0 48 31q0 22 -28.5 33t-93.5 14l15 202h194v-94h-113z" />
<glyph horiz-adv-x="318" d="M160 -6q-20 0 -31.5 -12.5t-11.5 -34.5q0 -20 11.5 -32.5t31.5 -12.5q21 0 33 12.5t12 33.5t-12 33.5t-33 12.5zM241 184l-51 -85l-24 -32q10 3 21 3q52 0 86 -34t34 -87q0 -30 -11 -54.5t-30.5 -42.5t-47 -28t-59.5 -10t-58 10t-45 27.5t-29.5 42t-10.5 54.5 q0 55 40 120l72 116h113z" />
<glyph horiz-adv-x="277" d="M13 90v94h250v-94l-121 -270h-113l121 270h-137z" />
<glyph horiz-adv-x="301" d="M151 -40q-14 0 -23.5 -9t-9.5 -23t9.5 -23t23.5 -9t23.5 9t9.5 23t-9.5 23t-23.5 9zM151 108q-14 0 -23 -8.5t-9 -21.5q0 -15 9 -23.5t23 -8.5t23 9t9 23q0 13 -9 21.5t-23 8.5zM231 0q57 -24 57 -80q0 -48 -38 -77t-99 -29t-99.5 29.5t-38.5 76.5q0 56 57 80 q-47 29 -47 82q0 48 35.5 78t92.5 30t92 -30t35 -78q0 -55 -47 -82z" />
<glyph horiz-adv-x="318" d="M158 103q-20 0 -32.5 -12.5t-12.5 -33.5t12 -33.5t33 -12.5q20 0 31.5 12.5t11.5 34.5q0 20 -11.5 32.5t-31.5 12.5zM77 -180l51 86l24 32q-5 -2 -9.5 -2.5t-11.5 -0.5q-26 0 -48 9t-38 25.5t-25 38.5t-9 49q0 29 11 53.5t30.5 42.5t46.5 28t59 10q64 0 103.5 -37.5 t39.5 -97.5q0 -29 -9.5 -58t-29.5 -61l-72 -117h-113z" />
</font>
</defs>
</svg>
